ISO-10303-21;
HEADER;
FILE_DESCRIPTION(('FreeCAD Model'),'2;1');
FILE_NAME('Open CASCADE Shape Model','2025-10-06T22:19:57',(''),(''),
  'Open CASCADE STEP processor 7.8','FreeCAD','Unknown');
FILE_SCHEMA(('AUTOMOTIVE_DESIGN { 1 0 10303 214 1 1 1 1 }'));
ENDSEC;
DATA;
#1 = APPLICATION_PROTOCOL_DEFINITION('international standard',
  'automotive_design',2000,#2);
#2 = APPLICATION_CONTEXT(
  'core data for automotive mechanical design processes');
#3 = SHAPE_DEFINITION_REPRESENTATION(#4,#10);
#4 = PRODUCT_DEFINITION_SHAPE('','',#5);
#5 = PRODUCT_DEFINITION('design','',#6,#9);
#6 = PRODUCT_DEFINITION_FORMATION('','',#7);
#7 = PRODUCT('OkayButton','OkayButton','',(#8));
#8 = PRODUCT_CONTEXT('',#2,'mechanical');
#9 = PRODUCT_DEFINITION_CONTEXT('part definition',#2,'design');
#10 = ADVANCED_BREP_SHAPE_REPRESENTATION('',(#11,#15),#748);
#11 = AXIS2_PLACEMENT_3D('',#12,#13,#14);
#12 = CARTESIAN_POINT('',(0.,0.,0.));
#13 = DIRECTION('',(0.,0.,1.));
#14 = DIRECTION('',(1.,0.,-0.));
#15 = MANIFOLD_SOLID_BREP('',#16);
#16 = CLOSED_SHELL('',(#17,#84,#110,#141,#165,#189,#213,#237,#254,#380,
    #394,#483,#507,#531,#555,#572,#596,#613,#637,#661,#678,#690,#702,
    #714,#739));
#17 = ADVANCED_FACE('',(#18,#29),#79,.F.);
#18 = FACE_BOUND('',#19,.F.);
#19 = EDGE_LOOP('',(#20));
#20 = ORIENTED_EDGE('',*,*,#21,.F.);
#21 = EDGE_CURVE('',#22,#22,#24,.T.);
#22 = VERTEX_POINT('',#23);
#23 = CARTESIAN_POINT('',(-63.81,-8.84,7.49));
#24 = CIRCLE('',#25,2.85);
#25 = AXIS2_PLACEMENT_3D('',#26,#27,#28);
#26 = CARTESIAN_POINT('',(-63.81,-5.99,7.49));
#27 = DIRECTION('',(-1.,0.,0.));
#28 = DIRECTION('',(0.,-1.,0.));
#29 = FACE_BOUND('',#30,.F.);
#30 = EDGE_LOOP('',(#31,#41,#49,#57,#65,#73));
#31 = ORIENTED_EDGE('',*,*,#32,.F.);
#32 = EDGE_CURVE('',#33,#35,#37,.T.);
#33 = VERTEX_POINT('',#34);
#34 = CARTESIAN_POINT('',(-63.81,-3.99,7.231492782987));
#35 = VERTEX_POINT('',#36);
#36 = CARTESIAN_POINT('',(-63.81,-4.697106781187,7.938599564173));
#37 = LINE('',#38,#39);
#38 = CARTESIAN_POINT('',(-63.81,-3.99,7.231492782987));
#39 = VECTOR('',#40,1.);
#40 = DIRECTION('',(0.,-0.707106781187,0.707106781187));
#41 = ORIENTED_EDGE('',*,*,#42,.T.);
#42 = EDGE_CURVE('',#33,#43,#45,.T.);
#43 = VERTEX_POINT('',#44);
#44 = CARTESIAN_POINT('',(-63.81,-5.531492782987,5.69));
#45 = LINE('',#46,#47);
#46 = CARTESIAN_POINT('',(-63.81,-3.99,7.231492782987));
#47 = VECTOR('',#48,1.);
#48 = DIRECTION('',(0.,-0.707106781187,-0.707106781187));
#49 = ORIENTED_EDGE('',*,*,#50,.T.);
#50 = EDGE_CURVE('',#43,#51,#53,.T.);
#51 = VERTEX_POINT('',#52);
#52 = CARTESIAN_POINT('',(-63.81,-7.99,8.148507217013));
#53 = LINE('',#54,#55);
#54 = CARTESIAN_POINT('',(-63.81,-5.531492782987,5.69));
#55 = VECTOR('',#56,1.);
#56 = DIRECTION('',(0.,-0.707106781187,0.707106781187));
#57 = ORIENTED_EDGE('',*,*,#58,.T.);
#58 = EDGE_CURVE('',#51,#59,#61,.T.);
#59 = VERTEX_POINT('',#60);
#60 = CARTESIAN_POINT('',(-63.81,-7.282893218813,8.8556139982));
#61 = LINE('',#62,#63);
#62 = CARTESIAN_POINT('',(-63.81,-7.99,8.148507217013));
#63 = VECTOR('',#64,1.);
#64 = DIRECTION('',(0.,0.707106781187,0.707106781187));
#65 = ORIENTED_EDGE('',*,*,#66,.T.);
#66 = EDGE_CURVE('',#59,#67,#69,.T.);
#67 = VERTEX_POINT('',#68);
#68 = CARTESIAN_POINT('',(-63.81,-5.531492782987,7.104213562373));
#69 = LINE('',#70,#71);
#70 = CARTESIAN_POINT('',(-63.81,-7.282893218813,8.8556139982));
#71 = VECTOR('',#72,1.);
#72 = DIRECTION('',(-0.,0.707106781187,-0.707106781187));
#73 = ORIENTED_EDGE('',*,*,#74,.F.);
#74 = EDGE_CURVE('',#35,#67,#75,.T.);
#75 = LINE('',#76,#77);
#76 = CARTESIAN_POINT('',(-63.81,-4.697106781187,7.938599564173));
#77 = VECTOR('',#78,1.);
#78 = DIRECTION('',(0.,-0.707106781187,-0.707106781187));
#79 = PLANE('',#80);
#80 = AXIS2_PLACEMENT_3D('',#81,#82,#83);
#81 = CARTESIAN_POINT('',(-63.81,0.508200977895,7.494960587506));
#82 = DIRECTION('',(1.,0.,0.));
#83 = DIRECTION('',(0.,0.,1.));
#84 = ADVANCED_FACE('',(#85),#105,.T.);
#85 = FACE_BOUND('',#86,.F.);
#86 = EDGE_LOOP('',(#87,#96,#97,#98));
#87 = ORIENTED_EDGE('',*,*,#88,.F.);
#88 = EDGE_CURVE('',#22,#89,#91,.T.);
#89 = VERTEX_POINT('',#90);
#90 = CARTESIAN_POINT('',(-63.31,-9.34,7.49));
#91 = CIRCLE('',#92,0.5);
#92 = AXIS2_PLACEMENT_3D('',#93,#94,#95);
#93 = CARTESIAN_POINT('',(-63.31,-8.84,7.49));
#94 = DIRECTION('',(-0.,0.,1.));
#95 = DIRECTION('',(0.,-1.,0.));
#96 = ORIENTED_EDGE('',*,*,#21,.F.);
#97 = ORIENTED_EDGE('',*,*,#88,.T.);
#98 = ORIENTED_EDGE('',*,*,#99,.T.);
#99 = EDGE_CURVE('',#89,#89,#100,.T.);
#100 = CIRCLE('',#101,3.35);
#101 = AXIS2_PLACEMENT_3D('',#102,#103,#104);
#102 = CARTESIAN_POINT('',(-63.31,-5.99,7.49));
#103 = DIRECTION('',(-1.,0.,0.));
#104 = DIRECTION('',(0.,-1.,0.));
#105 = TOROIDAL_SURFACE('',#106,2.85,0.5);
#106 = AXIS2_PLACEMENT_3D('',#107,#108,#109);
#107 = CARTESIAN_POINT('',(-63.31,-5.99,7.49));
#108 = DIRECTION('',(1.,0.,0.));
#109 = DIRECTION('',(0.,-1.,0.));
#110 = ADVANCED_FACE('',(#111),#136,.T.);
#111 = FACE_BOUND('',#112,.T.);
#112 = EDGE_LOOP('',(#113,#121,#129,#135));
#113 = ORIENTED_EDGE('',*,*,#114,.T.);
#114 = EDGE_CURVE('',#33,#115,#117,.T.);
#115 = VERTEX_POINT('',#116);
#116 = CARTESIAN_POINT('',(-63.31,-3.99,7.231492782987));
#117 = LINE('',#118,#119);
#118 = CARTESIAN_POINT('',(-63.81,-3.99,7.231492782987));
#119 = VECTOR('',#120,1.);
#120 = DIRECTION('',(1.,0.,0.));
#121 = ORIENTED_EDGE('',*,*,#122,.T.);
#122 = EDGE_CURVE('',#115,#123,#125,.T.);
#123 = VERTEX_POINT('',#124);
#124 = CARTESIAN_POINT('',(-63.31,-4.697106781187,7.938599564173));
#125 = LINE('',#126,#127);
#126 = CARTESIAN_POINT('',(-63.31,-3.99,7.231492782987));
#127 = VECTOR('',#128,1.);
#128 = DIRECTION('',(0.,-0.707106781187,0.707106781187));
#129 = ORIENTED_EDGE('',*,*,#130,.F.);
#130 = EDGE_CURVE('',#35,#123,#131,.T.);
#131 = LINE('',#132,#133);
#132 = CARTESIAN_POINT('',(-63.81,-4.697106781187,7.938599564173));
#133 = VECTOR('',#134,1.);
#134 = DIRECTION('',(1.,0.,0.));
#135 = ORIENTED_EDGE('',*,*,#32,.F.);
#136 = PLANE('',#137);
#137 = AXIS2_PLACEMENT_3D('',#138,#139,#140);
#138 = CARTESIAN_POINT('',(-63.81,-3.99,7.231492782987));
#139 = DIRECTION('',(0.,-0.707106781187,-0.707106781187));
#140 = DIRECTION('',(0.,-0.707106781187,0.707106781187));
#141 = ADVANCED_FACE('',(#142),#160,.T.);
#142 = FACE_BOUND('',#143,.T.);
#143 = EDGE_LOOP('',(#144,#145,#153,#159));
#144 = ORIENTED_EDGE('',*,*,#130,.T.);
#145 = ORIENTED_EDGE('',*,*,#146,.T.);
#146 = EDGE_CURVE('',#123,#147,#149,.T.);
#147 = VERTEX_POINT('',#148);
#148 = CARTESIAN_POINT('',(-63.31,-5.531492782987,7.104213562373));
#149 = LINE('',#150,#151);
#150 = CARTESIAN_POINT('',(-63.31,-4.697106781187,7.938599564173));
#151 = VECTOR('',#152,1.);
#152 = DIRECTION('',(0.,-0.707106781187,-0.707106781187));
#153 = ORIENTED_EDGE('',*,*,#154,.F.);
#154 = EDGE_CURVE('',#67,#147,#155,.T.);
#155 = LINE('',#156,#157);
#156 = CARTESIAN_POINT('',(-63.81,-5.531492782987,7.104213562373));
#157 = VECTOR('',#158,1.);
#158 = DIRECTION('',(1.,0.,0.));
#159 = ORIENTED_EDGE('',*,*,#74,.F.);
#160 = PLANE('',#161);
#161 = AXIS2_PLACEMENT_3D('',#162,#163,#164);
#162 = CARTESIAN_POINT('',(-63.81,-4.697106781187,7.938599564173));
#163 = DIRECTION('',(0.,0.707106781187,-0.707106781187));
#164 = DIRECTION('',(0.,-0.707106781187,-0.707106781187));
#165 = ADVANCED_FACE('',(#166),#184,.F.);
#166 = FACE_BOUND('',#167,.F.);
#167 = EDGE_LOOP('',(#168,#176,#182,#183));
#168 = ORIENTED_EDGE('',*,*,#169,.T.);
#169 = EDGE_CURVE('',#59,#170,#172,.T.);
#170 = VERTEX_POINT('',#171);
#171 = CARTESIAN_POINT('',(-63.31,-7.282893218813,8.8556139982));
#172 = LINE('',#173,#174);
#173 = CARTESIAN_POINT('',(-63.81,-7.282893218813,8.8556139982));
#174 = VECTOR('',#175,1.);
#175 = DIRECTION('',(1.,0.,0.));
#176 = ORIENTED_EDGE('',*,*,#177,.T.);
#177 = EDGE_CURVE('',#170,#147,#178,.T.);
#178 = LINE('',#179,#180);
#179 = CARTESIAN_POINT('',(-63.31,-7.282893218813,8.8556139982));
#180 = VECTOR('',#181,1.);
#181 = DIRECTION('',(-0.,0.707106781187,-0.707106781187));
#182 = ORIENTED_EDGE('',*,*,#154,.F.);
#183 = ORIENTED_EDGE('',*,*,#66,.F.);
#184 = PLANE('',#185);
#185 = AXIS2_PLACEMENT_3D('',#186,#187,#188);
#186 = CARTESIAN_POINT('',(-63.81,-7.282893218813,8.8556139982));
#187 = DIRECTION('',(0.,0.707106781187,0.707106781187));
#188 = DIRECTION('',(0.,0.707106781187,-0.707106781187));
#189 = ADVANCED_FACE('',(#190),#208,.F.);
#190 = FACE_BOUND('',#191,.F.);
#191 = EDGE_LOOP('',(#192,#200,#206,#207));
#192 = ORIENTED_EDGE('',*,*,#193,.T.);
#193 = EDGE_CURVE('',#51,#194,#196,.T.);
#194 = VERTEX_POINT('',#195);
#195 = CARTESIAN_POINT('',(-63.31,-7.99,8.148507217013));
#196 = LINE('',#197,#198);
#197 = CARTESIAN_POINT('',(-63.81,-7.99,8.148507217013));
#198 = VECTOR('',#199,1.);
#199 = DIRECTION('',(1.,0.,0.));
#200 = ORIENTED_EDGE('',*,*,#201,.T.);
#201 = EDGE_CURVE('',#194,#170,#202,.T.);
#202 = LINE('',#203,#204);
#203 = CARTESIAN_POINT('',(-63.31,-7.99,8.148507217013));
#204 = VECTOR('',#205,1.);
#205 = DIRECTION('',(0.,0.707106781187,0.707106781187));
#206 = ORIENTED_EDGE('',*,*,#169,.F.);
#207 = ORIENTED_EDGE('',*,*,#58,.F.);
#208 = PLANE('',#209);
#209 = AXIS2_PLACEMENT_3D('',#210,#211,#212);
#210 = CARTESIAN_POINT('',(-63.81,-7.99,8.148507217013));
#211 = DIRECTION('',(0.,-0.707106781187,0.707106781187));
#212 = DIRECTION('',(0.,0.707106781187,0.707106781187));
#213 = ADVANCED_FACE('',(#214),#232,.F.);
#214 = FACE_BOUND('',#215,.F.);
#215 = EDGE_LOOP('',(#216,#224,#230,#231));
#216 = ORIENTED_EDGE('',*,*,#217,.T.);
#217 = EDGE_CURVE('',#43,#218,#220,.T.);
#218 = VERTEX_POINT('',#219);
#219 = CARTESIAN_POINT('',(-63.31,-5.531492782987,5.69));
#220 = LINE('',#221,#222);
#221 = CARTESIAN_POINT('',(-63.81,-5.531492782987,5.69));
#222 = VECTOR('',#223,1.);
#223 = DIRECTION('',(1.,0.,0.));
#224 = ORIENTED_EDGE('',*,*,#225,.T.);
#225 = EDGE_CURVE('',#218,#194,#226,.T.);
#226 = LINE('',#227,#228);
#227 = CARTESIAN_POINT('',(-63.31,-5.531492782987,5.69));
#228 = VECTOR('',#229,1.);
#229 = DIRECTION('',(0.,-0.707106781187,0.707106781187));
#230 = ORIENTED_EDGE('',*,*,#193,.F.);
#231 = ORIENTED_EDGE('',*,*,#50,.F.);
#232 = PLANE('',#233);
#233 = AXIS2_PLACEMENT_3D('',#234,#235,#236);
#234 = CARTESIAN_POINT('',(-63.81,-5.531492782987,5.69));
#235 = DIRECTION('',(0.,-0.707106781187,-0.707106781187));
#236 = DIRECTION('',(0.,-0.707106781187,0.707106781187));
#237 = ADVANCED_FACE('',(#238),#249,.F.);
#238 = FACE_BOUND('',#239,.F.);
#239 = EDGE_LOOP('',(#240,#241,#247,#248));
#240 = ORIENTED_EDGE('',*,*,#114,.T.);
#241 = ORIENTED_EDGE('',*,*,#242,.T.);
#242 = EDGE_CURVE('',#115,#218,#243,.T.);
#243 = LINE('',#244,#245);
#244 = CARTESIAN_POINT('',(-63.31,-3.99,7.231492782987));
#245 = VECTOR('',#246,1.);
#246 = DIRECTION('',(0.,-0.707106781187,-0.707106781187));
#247 = ORIENTED_EDGE('',*,*,#217,.F.);
#248 = ORIENTED_EDGE('',*,*,#42,.F.);
#249 = PLANE('',#250);
#250 = AXIS2_PLACEMENT_3D('',#251,#252,#253);
#251 = CARTESIAN_POINT('',(-63.81,-3.99,7.231492782987));
#252 = DIRECTION('',(0.,0.707106781187,-0.707106781187));
#253 = DIRECTION('',(0.,-0.707106781187,-0.707106781187));
#254 = ADVANCED_FACE('',(#255),#375,.T.);
#255 = FACE_BOUND('',#256,.F.);
#256 = EDGE_LOOP('',(#257,#264,#265,#266,#275,#283,#292,#300,#309,#317,
    #326,#334,#343,#351,#360,#368));
#257 = ORIENTED_EDGE('',*,*,#258,.F.);
#258 = EDGE_CURVE('',#89,#259,#261,.T.);
#259 = VERTEX_POINT('',#260);
#260 = CARTESIAN_POINT('',(-60.06,-9.34,7.49));
#261 = B_SPLINE_CURVE_WITH_KNOTS('',1,(#262,#263),.UNSPECIFIED.,.F.,.F.,
  (2,2),(-2.,1.75),.PIECEWISE_BEZIER_KNOTS.);
#262 = CARTESIAN_POINT('',(-63.81,-9.34,7.49));
#263 = CARTESIAN_POINT('',(-60.06,-9.34,7.49));
#264 = ORIENTED_EDGE('',*,*,#99,.T.);
#265 = ORIENTED_EDGE('',*,*,#258,.T.);
#266 = ORIENTED_EDGE('',*,*,#267,.T.);
#267 = EDGE_CURVE('',#259,#268,#270,.T.);
#268 = VERTEX_POINT('',#269);
#269 = CARTESIAN_POINT('',(-60.06,-6.74,4.225034456537));
#270 = CIRCLE('',#271,3.35);
#271 = AXIS2_PLACEMENT_3D('',#272,#273,#274);
#272 = CARTESIAN_POINT('',(-60.06,-5.99,7.49));
#273 = DIRECTION('',(1.,0.,0.));
#274 = DIRECTION('',(0.,1.,0.));
#275 = ORIENTED_EDGE('',*,*,#276,.F.);
#276 = EDGE_CURVE('',#277,#268,#279,.T.);
#277 = VERTEX_POINT('',#278);
#278 = CARTESIAN_POINT('',(-60.76,-6.74,4.225034456537));
#279 = LINE('',#280,#281);
#280 = CARTESIAN_POINT('',(-61.81,-6.74,4.225034456537));
#281 = VECTOR('',#282,1.);
#282 = DIRECTION('',(1.,0.,0.));
#283 = ORIENTED_EDGE('',*,*,#284,.T.);
#284 = EDGE_CURVE('',#277,#285,#287,.T.);
#285 = VERTEX_POINT('',#286);
#286 = CARTESIAN_POINT('',(-60.76,-5.24,4.225034456537));
#287 = CIRCLE('',#288,3.35);
#288 = AXIS2_PLACEMENT_3D('',#289,#290,#291);
#289 = CARTESIAN_POINT('',(-60.76,-5.99,7.49));
#290 = DIRECTION('',(1.,0.,0.));
#291 = DIRECTION('',(0.,-1.,0.));
#292 = ORIENTED_EDGE('',*,*,#293,.T.);
#293 = EDGE_CURVE('',#285,#294,#296,.T.);
#294 = VERTEX_POINT('',#295);
#295 = CARTESIAN_POINT('',(-60.06,-5.24,4.225034456537));
#296 = LINE('',#297,#298);
#297 = CARTESIAN_POINT('',(-61.81,-5.24,4.225034456537));
#298 = VECTOR('',#299,1.);
#299 = DIRECTION('',(1.,0.,0.));
#300 = ORIENTED_EDGE('',*,*,#301,.T.);
#301 = EDGE_CURVE('',#294,#302,#304,.T.);
#302 = VERTEX_POINT('',#303);
#303 = CARTESIAN_POINT('',(-60.06,-2.725034456537,6.74));
#304 = CIRCLE('',#305,3.35);
#305 = AXIS2_PLACEMENT_3D('',#306,#307,#308);
#306 = CARTESIAN_POINT('',(-60.06,-5.99,7.49));
#307 = DIRECTION('',(1.,0.,0.));
#308 = DIRECTION('',(0.,1.,0.));
#309 = ORIENTED_EDGE('',*,*,#310,.F.);
#310 = EDGE_CURVE('',#311,#302,#313,.T.);
#311 = VERTEX_POINT('',#312);
#312 = CARTESIAN_POINT('',(-60.76,-2.725034456537,6.74));
#313 = LINE('',#314,#315);
#314 = CARTESIAN_POINT('',(-61.81,-2.725034456537,6.74));
#315 = VECTOR('',#316,1.);
#316 = DIRECTION('',(1.,0.,0.));
#317 = ORIENTED_EDGE('',*,*,#318,.T.);
#318 = EDGE_CURVE('',#311,#319,#321,.T.);
#319 = VERTEX_POINT('',#320);
#320 = CARTESIAN_POINT('',(-60.76,-2.725034456537,8.24));
#321 = CIRCLE('',#322,3.35);
#322 = AXIS2_PLACEMENT_3D('',#323,#324,#325);
#323 = CARTESIAN_POINT('',(-60.76,-5.99,7.49));
#324 = DIRECTION('',(1.,0.,0.));
#325 = DIRECTION('',(0.,-1.,0.));
#326 = ORIENTED_EDGE('',*,*,#327,.T.);
#327 = EDGE_CURVE('',#319,#328,#330,.T.);
#328 = VERTEX_POINT('',#329);
#329 = CARTESIAN_POINT('',(-60.06,-2.725034456537,8.24));
#330 = LINE('',#331,#332);
#331 = CARTESIAN_POINT('',(-61.81,-2.725034456537,8.24));
#332 = VECTOR('',#333,1.);
#333 = DIRECTION('',(1.,0.,0.));
#334 = ORIENTED_EDGE('',*,*,#335,.T.);
#335 = EDGE_CURVE('',#328,#336,#338,.T.);
#336 = VERTEX_POINT('',#337);
#337 = CARTESIAN_POINT('',(-60.06,-5.24,10.754965543463));
#338 = CIRCLE('',#339,3.35);
#339 = AXIS2_PLACEMENT_3D('',#340,#341,#342);
#340 = CARTESIAN_POINT('',(-60.06,-5.99,7.49));
#341 = DIRECTION('',(1.,0.,0.));
#342 = DIRECTION('',(0.,1.,0.));
#343 = ORIENTED_EDGE('',*,*,#344,.F.);
#344 = EDGE_CURVE('',#345,#336,#347,.T.);
#345 = VERTEX_POINT('',#346);
#346 = CARTESIAN_POINT('',(-60.76,-5.24,10.754965543463));
#347 = LINE('',#348,#349);
#348 = CARTESIAN_POINT('',(-61.81,-5.24,10.754965543463));
#349 = VECTOR('',#350,1.);
#350 = DIRECTION('',(1.,0.,0.));
#351 = ORIENTED_EDGE('',*,*,#352,.T.);
#352 = EDGE_CURVE('',#345,#353,#355,.T.);
#353 = VERTEX_POINT('',#354);
#354 = CARTESIAN_POINT('',(-60.76,-6.74,10.754965543463));
#355 = CIRCLE('',#356,3.35);
#356 = AXIS2_PLACEMENT_3D('',#357,#358,#359);
#357 = CARTESIAN_POINT('',(-60.76,-5.99,7.49));
#358 = DIRECTION('',(1.,0.,0.));
#359 = DIRECTION('',(0.,-1.,0.));
#360 = ORIENTED_EDGE('',*,*,#361,.T.);
#361 = EDGE_CURVE('',#353,#362,#364,.T.);
#362 = VERTEX_POINT('',#363);
#363 = CARTESIAN_POINT('',(-60.06,-6.74,10.754965543463));
#364 = LINE('',#365,#366);
#365 = CARTESIAN_POINT('',(-61.81,-6.74,10.754965543463));
#366 = VECTOR('',#367,1.);
#367 = DIRECTION('',(1.,0.,0.));
#368 = ORIENTED_EDGE('',*,*,#369,.T.);
#369 = EDGE_CURVE('',#362,#259,#370,.T.);
#370 = CIRCLE('',#371,3.35);
#371 = AXIS2_PLACEMENT_3D('',#372,#373,#374);
#372 = CARTESIAN_POINT('',(-60.06,-5.99,7.49));
#373 = DIRECTION('',(1.,0.,0.));
#374 = DIRECTION('',(0.,1.,0.));
#375 = CYLINDRICAL_SURFACE('',#376,3.35);
#376 = AXIS2_PLACEMENT_3D('',#377,#378,#379);
#377 = CARTESIAN_POINT('',(-61.81,-5.99,7.49));
#378 = DIRECTION('',(1.,0.,0.));
#379 = DIRECTION('',(0.,-1.,0.));
#380 = ADVANCED_FACE('',(#381),#389,.F.);
#381 = FACE_BOUND('',#382,.T.);
#382 = EDGE_LOOP('',(#383,#384,#385,#386,#387,#388));
#383 = ORIENTED_EDGE('',*,*,#242,.T.);
#384 = ORIENTED_EDGE('',*,*,#225,.T.);
#385 = ORIENTED_EDGE('',*,*,#201,.T.);
#386 = ORIENTED_EDGE('',*,*,#177,.T.);
#387 = ORIENTED_EDGE('',*,*,#146,.F.);
#388 = ORIENTED_EDGE('',*,*,#122,.F.);
#389 = PLANE('',#390);
#390 = AXIS2_PLACEMENT_3D('',#391,#392,#393);
#391 = CARTESIAN_POINT('',(-63.31,0.968029963224,7.457501439418));
#392 = DIRECTION('',(1.,0.,0.));
#393 = DIRECTION('',(0.,0.,1.));
#394 = ADVANCED_FACE('',(#395,#467),#478,.T.);
#395 = FACE_BOUND('',#396,.T.);
#396 = EDGE_LOOP('',(#397,#398,#406,#414,#420,#421,#429,#437,#443,#444,
    #445,#453,#461));
#397 = ORIENTED_EDGE('',*,*,#301,.T.);
#398 = ORIENTED_EDGE('',*,*,#399,.T.);
#399 = EDGE_CURVE('',#302,#400,#402,.T.);
#400 = VERTEX_POINT('',#401);
#401 = CARTESIAN_POINT('',(-60.06,-1.41,6.74));
#402 = LINE('',#403,#404);
#403 = CARTESIAN_POINT('',(-60.06,-3.41,6.74));
#404 = VECTOR('',#405,1.);
#405 = DIRECTION('',(0.,1.,0.));
#406 = ORIENTED_EDGE('',*,*,#407,.T.);
#407 = EDGE_CURVE('',#400,#408,#410,.T.);
#408 = VERTEX_POINT('',#409);
#409 = CARTESIAN_POINT('',(-60.06,-1.41,8.24));
#410 = LINE('',#411,#412);
#411 = CARTESIAN_POINT('',(-60.06,-1.41,6.74));
#412 = VECTOR('',#413,1.);
#413 = DIRECTION('',(0.,0.,1.));
#414 = ORIENTED_EDGE('',*,*,#415,.T.);
#415 = EDGE_CURVE('',#408,#328,#416,.T.);
#416 = LINE('',#417,#418);
#417 = CARTESIAN_POINT('',(-60.06,-1.41,8.24));
#418 = VECTOR('',#419,1.);
#419 = DIRECTION('',(0.,-1.,0.));
#420 = ORIENTED_EDGE('',*,*,#335,.T.);
#421 = ORIENTED_EDGE('',*,*,#422,.T.);
#422 = EDGE_CURVE('',#336,#423,#425,.T.);
#423 = VERTEX_POINT('',#424);
#424 = CARTESIAN_POINT('',(-60.06,-5.24,12.07));
#425 = LINE('',#426,#427);
#426 = CARTESIAN_POINT('',(-60.06,-5.24,10.07));
#427 = VECTOR('',#428,1.);
#428 = DIRECTION('',(0.,0.,1.));
#429 = ORIENTED_EDGE('',*,*,#430,.T.);
#430 = EDGE_CURVE('',#423,#431,#433,.T.);
#431 = VERTEX_POINT('',#432);
#432 = CARTESIAN_POINT('',(-60.06,-6.74,12.07));
#433 = LINE('',#434,#435);
#434 = CARTESIAN_POINT('',(-60.06,-5.24,12.07));
#435 = VECTOR('',#436,1.);
#436 = DIRECTION('',(0.,-1.,0.));
#437 = ORIENTED_EDGE('',*,*,#438,.T.);
#438 = EDGE_CURVE('',#431,#362,#439,.T.);
#439 = LINE('',#440,#441);
#440 = CARTESIAN_POINT('',(-60.06,-6.74,12.07));
#441 = VECTOR('',#442,1.);
#442 = DIRECTION('',(0.,0.,-1.));
#443 = ORIENTED_EDGE('',*,*,#369,.T.);
#444 = ORIENTED_EDGE('',*,*,#267,.T.);
#445 = ORIENTED_EDGE('',*,*,#446,.T.);
#446 = EDGE_CURVE('',#268,#447,#449,.T.);
#447 = VERTEX_POINT('',#448);
#448 = CARTESIAN_POINT('',(-60.06,-6.74,2.91));
#449 = LINE('',#450,#451);
#450 = CARTESIAN_POINT('',(-60.06,-6.74,4.91));
#451 = VECTOR('',#452,1.);
#452 = DIRECTION('',(0.,0.,-1.));
#453 = ORIENTED_EDGE('',*,*,#454,.T.);
#454 = EDGE_CURVE('',#447,#455,#457,.T.);
#455 = VERTEX_POINT('',#456);
#456 = CARTESIAN_POINT('',(-60.06,-5.24,2.91));
#457 = LINE('',#458,#459);
#458 = CARTESIAN_POINT('',(-60.06,-6.74,2.91));
#459 = VECTOR('',#460,1.);
#460 = DIRECTION('',(0.,1.,0.));
#461 = ORIENTED_EDGE('',*,*,#462,.T.);
#462 = EDGE_CURVE('',#455,#294,#463,.T.);
#463 = LINE('',#464,#465);
#464 = CARTESIAN_POINT('',(-60.06,-5.24,2.91));
#465 = VECTOR('',#466,1.);
#466 = DIRECTION('',(0.,0.,1.));
#467 = FACE_BOUND('',#468,.T.);
#468 = EDGE_LOOP('',(#469));
#469 = ORIENTED_EDGE('',*,*,#470,.F.);
#470 = EDGE_CURVE('',#471,#471,#473,.T.);
#471 = VERTEX_POINT('',#472);
#472 = CARTESIAN_POINT('',(-60.06,-4.865,7.49));
#473 = CIRCLE('',#474,1.125);
#474 = AXIS2_PLACEMENT_3D('',#475,#476,#477);
#475 = CARTESIAN_POINT('',(-60.06,-5.99,7.49));
#476 = DIRECTION('',(1.,0.,0.));
#477 = DIRECTION('',(0.,1.,0.));
#478 = PLANE('',#479);
#479 = AXIS2_PLACEMENT_3D('',#480,#481,#482);
#480 = CARTESIAN_POINT('',(-60.06,-5.558600353478,7.49));
#481 = DIRECTION('',(1.,-4.9E-16,0.));
#482 = DIRECTION('',(4.9E-16,1.,0.));
#483 = ADVANCED_FACE('',(#484),#502,.T.);
#484 = FACE_BOUND('',#485,.T.);
#485 = EDGE_LOOP('',(#486,#487,#495,#501));
#486 = ORIENTED_EDGE('',*,*,#438,.F.);
#487 = ORIENTED_EDGE('',*,*,#488,.T.);
#488 = EDGE_CURVE('',#431,#489,#491,.T.);
#489 = VERTEX_POINT('',#490);
#490 = CARTESIAN_POINT('',(-60.76,-6.74,12.07));
#491 = LINE('',#492,#493);
#492 = CARTESIAN_POINT('',(-60.06,-6.74,12.07));
#493 = VECTOR('',#494,1.);
#494 = DIRECTION('',(-1.,-0.,-0.));
#495 = ORIENTED_EDGE('',*,*,#496,.T.);
#496 = EDGE_CURVE('',#489,#353,#497,.T.);
#497 = LINE('',#498,#499);
#498 = CARTESIAN_POINT('',(-60.76,-6.74,12.07));
#499 = VECTOR('',#500,1.);
#500 = DIRECTION('',(0.,0.,-1.));
#501 = ORIENTED_EDGE('',*,*,#361,.T.);
#502 = PLANE('',#503);
#503 = AXIS2_PLACEMENT_3D('',#504,#505,#506);
#504 = CARTESIAN_POINT('',(-60.06,-6.74,12.07));
#505 = DIRECTION('',(0.,-1.,0.));
#506 = DIRECTION('',(0.,0.,-1.));
#507 = ADVANCED_FACE('',(#508),#526,.F.);
#508 = FACE_BOUND('',#509,.F.);
#509 = EDGE_LOOP('',(#510,#518,#519,#520));
#510 = ORIENTED_EDGE('',*,*,#511,.T.);
#511 = EDGE_CURVE('',#512,#489,#514,.T.);
#512 = VERTEX_POINT('',#513);
#513 = CARTESIAN_POINT('',(-60.76,-5.24,12.07));
#514 = LINE('',#515,#516);
#515 = CARTESIAN_POINT('',(-60.76,-5.24,12.07));
#516 = VECTOR('',#517,1.);
#517 = DIRECTION('',(0.,-1.,0.));
#518 = ORIENTED_EDGE('',*,*,#496,.T.);
#519 = ORIENTED_EDGE('',*,*,#352,.F.);
#520 = ORIENTED_EDGE('',*,*,#521,.T.);
#521 = EDGE_CURVE('',#345,#512,#522,.T.);
#522 = LINE('',#523,#524);
#523 = CARTESIAN_POINT('',(-60.76,-5.24,10.07));
#524 = VECTOR('',#525,1.);
#525 = DIRECTION('',(0.,0.,1.));
#526 = PLANE('',#527);
#527 = AXIS2_PLACEMENT_3D('',#528,#529,#530);
#528 = CARTESIAN_POINT('',(-60.76,0.745417761282,7.392693658134));
#529 = DIRECTION('',(1.,0.,0.));
#530 = DIRECTION('',(0.,0.,1.));
#531 = ADVANCED_FACE('',(#532),#550,.T.);
#532 = FACE_BOUND('',#533,.T.);
#533 = EDGE_LOOP('',(#534,#535,#536,#544));
#534 = ORIENTED_EDGE('',*,*,#446,.F.);
#535 = ORIENTED_EDGE('',*,*,#276,.F.);
#536 = ORIENTED_EDGE('',*,*,#537,.T.);
#537 = EDGE_CURVE('',#277,#538,#540,.T.);
#538 = VERTEX_POINT('',#539);
#539 = CARTESIAN_POINT('',(-60.76,-6.74,2.91));
#540 = LINE('',#541,#542);
#541 = CARTESIAN_POINT('',(-60.76,-6.74,4.91));
#542 = VECTOR('',#543,1.);
#543 = DIRECTION('',(0.,0.,-1.));
#544 = ORIENTED_EDGE('',*,*,#545,.F.);
#545 = EDGE_CURVE('',#447,#538,#546,.T.);
#546 = LINE('',#547,#548);
#547 = CARTESIAN_POINT('',(-60.06,-6.74,2.91));
#548 = VECTOR('',#549,1.);
#549 = DIRECTION('',(-1.,-0.,-0.));
#550 = PLANE('',#551);
#551 = AXIS2_PLACEMENT_3D('',#552,#553,#554);
#552 = CARTESIAN_POINT('',(-60.06,-6.74,4.91));
#553 = DIRECTION('',(0.,-1.,0.));
#554 = DIRECTION('',(0.,0.,-1.));
#555 = ADVANCED_FACE('',(#556),#567,.T.);
#556 = FACE_BOUND('',#557,.T.);
#557 = EDGE_LOOP('',(#558,#559,#560,#561));
#558 = ORIENTED_EDGE('',*,*,#422,.F.);
#559 = ORIENTED_EDGE('',*,*,#344,.F.);
#560 = ORIENTED_EDGE('',*,*,#521,.T.);
#561 = ORIENTED_EDGE('',*,*,#562,.F.);
#562 = EDGE_CURVE('',#423,#512,#563,.T.);
#563 = LINE('',#564,#565);
#564 = CARTESIAN_POINT('',(-60.06,-5.24,12.07));
#565 = VECTOR('',#566,1.);
#566 = DIRECTION('',(-1.,-0.,-0.));
#567 = PLANE('',#568);
#568 = AXIS2_PLACEMENT_3D('',#569,#570,#571);
#569 = CARTESIAN_POINT('',(-60.06,-5.24,10.07));
#570 = DIRECTION('',(0.,1.,0.));
#571 = DIRECTION('',(0.,0.,1.));
#572 = ADVANCED_FACE('',(#573),#591,.F.);
#573 = FACE_BOUND('',#574,.F.);
#574 = EDGE_LOOP('',(#575,#576,#584,#590));
#575 = ORIENTED_EDGE('',*,*,#537,.T.);
#576 = ORIENTED_EDGE('',*,*,#577,.T.);
#577 = EDGE_CURVE('',#538,#578,#580,.T.);
#578 = VERTEX_POINT('',#579);
#579 = CARTESIAN_POINT('',(-60.76,-5.24,2.91));
#580 = LINE('',#581,#582);
#581 = CARTESIAN_POINT('',(-60.76,-6.74,2.91));
#582 = VECTOR('',#583,1.);
#583 = DIRECTION('',(0.,1.,0.));
#584 = ORIENTED_EDGE('',*,*,#585,.T.);
#585 = EDGE_CURVE('',#578,#285,#586,.T.);
#586 = LINE('',#587,#588);
#587 = CARTESIAN_POINT('',(-60.76,-5.24,2.91));
#588 = VECTOR('',#589,1.);
#589 = DIRECTION('',(0.,0.,1.));
#590 = ORIENTED_EDGE('',*,*,#284,.F.);
#591 = PLANE('',#592);
#592 = AXIS2_PLACEMENT_3D('',#593,#594,#595);
#593 = CARTESIAN_POINT('',(-60.76,0.745417761282,7.392693658134));
#594 = DIRECTION('',(1.,0.,0.));
#595 = DIRECTION('',(0.,0.,1.));
#596 = ADVANCED_FACE('',(#597),#608,.T.);
#597 = FACE_BOUND('',#598,.T.);
#598 = EDGE_LOOP('',(#599,#600,#606,#607));
#599 = ORIENTED_EDGE('',*,*,#462,.F.);
#600 = ORIENTED_EDGE('',*,*,#601,.T.);
#601 = EDGE_CURVE('',#455,#578,#602,.T.);
#602 = LINE('',#603,#604);
#603 = CARTESIAN_POINT('',(-60.06,-5.24,2.91));
#604 = VECTOR('',#605,1.);
#605 = DIRECTION('',(-1.,-0.,-0.));
#606 = ORIENTED_EDGE('',*,*,#585,.T.);
#607 = ORIENTED_EDGE('',*,*,#293,.T.);
#608 = PLANE('',#609);
#609 = AXIS2_PLACEMENT_3D('',#610,#611,#612);
#610 = CARTESIAN_POINT('',(-60.06,-5.24,2.91));
#611 = DIRECTION('',(0.,1.,0.));
#612 = DIRECTION('',(0.,0.,1.));
#613 = ADVANCED_FACE('',(#614),#632,.T.);
#614 = FACE_BOUND('',#615,.T.);
#615 = EDGE_LOOP('',(#616,#617,#625,#631));
#616 = ORIENTED_EDGE('',*,*,#415,.F.);
#617 = ORIENTED_EDGE('',*,*,#618,.T.);
#618 = EDGE_CURVE('',#408,#619,#621,.T.);
#619 = VERTEX_POINT('',#620);
#620 = CARTESIAN_POINT('',(-60.76,-1.41,8.24));
#621 = LINE('',#622,#623);
#622 = CARTESIAN_POINT('',(-60.06,-1.41,8.24));
#623 = VECTOR('',#624,1.);
#624 = DIRECTION('',(-1.,-0.,-0.));
#625 = ORIENTED_EDGE('',*,*,#626,.T.);
#626 = EDGE_CURVE('',#619,#319,#627,.T.);
#627 = LINE('',#628,#629);
#628 = CARTESIAN_POINT('',(-60.76,-1.41,8.24));
#629 = VECTOR('',#630,1.);
#630 = DIRECTION('',(0.,-1.,0.));
#631 = ORIENTED_EDGE('',*,*,#327,.T.);
#632 = PLANE('',#633);
#633 = AXIS2_PLACEMENT_3D('',#634,#635,#636);
#634 = CARTESIAN_POINT('',(-60.06,-1.41,8.24));
#635 = DIRECTION('',(0.,0.,1.));
#636 = DIRECTION('',(0.,-1.,0.));
#637 = ADVANCED_FACE('',(#638),#656,.F.);
#638 = FACE_BOUND('',#639,.F.);
#639 = EDGE_LOOP('',(#640,#648,#649,#650));
#640 = ORIENTED_EDGE('',*,*,#641,.T.);
#641 = EDGE_CURVE('',#642,#619,#644,.T.);
#642 = VERTEX_POINT('',#643);
#643 = CARTESIAN_POINT('',(-60.76,-1.41,6.74));
#644 = LINE('',#645,#646);
#645 = CARTESIAN_POINT('',(-60.76,-1.41,6.74));
#646 = VECTOR('',#647,1.);
#647 = DIRECTION('',(0.,0.,1.));
#648 = ORIENTED_EDGE('',*,*,#626,.T.);
#649 = ORIENTED_EDGE('',*,*,#318,.F.);
#650 = ORIENTED_EDGE('',*,*,#651,.T.);
#651 = EDGE_CURVE('',#311,#642,#652,.T.);
#652 = LINE('',#653,#654);
#653 = CARTESIAN_POINT('',(-60.76,-3.41,6.74));
#654 = VECTOR('',#655,1.);
#655 = DIRECTION('',(0.,1.,0.));
#656 = PLANE('',#657);
#657 = AXIS2_PLACEMENT_3D('',#658,#659,#660);
#658 = CARTESIAN_POINT('',(-60.76,0.745417761282,7.392693658134));
#659 = DIRECTION('',(1.,0.,0.));
#660 = DIRECTION('',(0.,0.,1.));
#661 = ADVANCED_FACE('',(#662),#673,.T.);
#662 = FACE_BOUND('',#663,.T.);
#663 = EDGE_LOOP('',(#664,#665,#666,#667));
#664 = ORIENTED_EDGE('',*,*,#399,.F.);
#665 = ORIENTED_EDGE('',*,*,#310,.F.);
#666 = ORIENTED_EDGE('',*,*,#651,.T.);
#667 = ORIENTED_EDGE('',*,*,#668,.F.);
#668 = EDGE_CURVE('',#400,#642,#669,.T.);
#669 = LINE('',#670,#671);
#670 = CARTESIAN_POINT('',(-60.06,-1.41,6.74));
#671 = VECTOR('',#672,1.);
#672 = DIRECTION('',(-1.,-0.,-0.));
#673 = PLANE('',#674);
#674 = AXIS2_PLACEMENT_3D('',#675,#676,#677);
#675 = CARTESIAN_POINT('',(-60.06,-3.41,6.74));
#676 = DIRECTION('',(0.,0.,-1.));
#677 = DIRECTION('',(0.,1.,0.));
#678 = ADVANCED_FACE('',(#679),#685,.T.);
#679 = FACE_BOUND('',#680,.T.);
#680 = EDGE_LOOP('',(#681,#682,#683,#684));
#681 = ORIENTED_EDGE('',*,*,#545,.T.);
#682 = ORIENTED_EDGE('',*,*,#577,.T.);
#683 = ORIENTED_EDGE('',*,*,#601,.F.);
#684 = ORIENTED_EDGE('',*,*,#454,.F.);
#685 = PLANE('',#686);
#686 = AXIS2_PLACEMENT_3D('',#687,#688,#689);
#687 = CARTESIAN_POINT('',(-60.06,-6.74,2.91));
#688 = DIRECTION('',(0.,0.,-1.));
#689 = DIRECTION('',(0.,1.,0.));
#690 = ADVANCED_FACE('',(#691),#697,.T.);
#691 = FACE_BOUND('',#692,.T.);
#692 = EDGE_LOOP('',(#693,#694,#695,#696));
#693 = ORIENTED_EDGE('',*,*,#668,.T.);
#694 = ORIENTED_EDGE('',*,*,#641,.T.);
#695 = ORIENTED_EDGE('',*,*,#618,.F.);
#696 = ORIENTED_EDGE('',*,*,#407,.F.);
#697 = PLANE('',#698);
#698 = AXIS2_PLACEMENT_3D('',#699,#700,#701);
#699 = CARTESIAN_POINT('',(-60.06,-1.41,6.74));
#700 = DIRECTION('',(0.,1.,0.));
#701 = DIRECTION('',(0.,0.,1.));
#702 = ADVANCED_FACE('',(#703),#709,.T.);
#703 = FACE_BOUND('',#704,.T.);
#704 = EDGE_LOOP('',(#705,#706,#707,#708));
#705 = ORIENTED_EDGE('',*,*,#562,.T.);
#706 = ORIENTED_EDGE('',*,*,#511,.T.);
#707 = ORIENTED_EDGE('',*,*,#488,.F.);
#708 = ORIENTED_EDGE('',*,*,#430,.F.);
#709 = PLANE('',#710);
#710 = AXIS2_PLACEMENT_3D('',#711,#712,#713);
#711 = CARTESIAN_POINT('',(-60.06,-5.24,12.07));
#712 = DIRECTION('',(0.,0.,1.));
#713 = DIRECTION('',(0.,-1.,0.));
#714 = ADVANCED_FACE('',(#715),#734,.F.);
#715 = FACE_BOUND('',#716,.F.);
#716 = EDGE_LOOP('',(#717,#725,#732,#733));
#717 = ORIENTED_EDGE('',*,*,#718,.T.);
#718 = EDGE_CURVE('',#471,#719,#721,.T.);
#719 = VERTEX_POINT('',#720);
#720 = CARTESIAN_POINT('',(-61.86,-4.865,7.49));
#721 = LINE('',#722,#723);
#722 = CARTESIAN_POINT('',(-60.06,-4.865,7.49));
#723 = VECTOR('',#724,1.);
#724 = DIRECTION('',(-1.,-0.,-0.));
#725 = ORIENTED_EDGE('',*,*,#726,.T.);
#726 = EDGE_CURVE('',#719,#719,#727,.T.);
#727 = CIRCLE('',#728,1.125);
#728 = AXIS2_PLACEMENT_3D('',#729,#730,#731);
#729 = CARTESIAN_POINT('',(-61.86,-5.99,7.49));
#730 = DIRECTION('',(1.,0.,0.));
#731 = DIRECTION('',(0.,1.,0.));
#732 = ORIENTED_EDGE('',*,*,#718,.F.);
#733 = ORIENTED_EDGE('',*,*,#470,.F.);
#734 = CYLINDRICAL_SURFACE('',#735,1.125);
#735 = AXIS2_PLACEMENT_3D('',#736,#737,#738);
#736 = CARTESIAN_POINT('',(-60.06,-5.99,7.49));
#737 = DIRECTION('',(1.,0.,0.));
#738 = DIRECTION('',(0.,1.,0.));
#739 = ADVANCED_FACE('',(#740),#743,.T.);
#740 = FACE_BOUND('',#741,.T.);
#741 = EDGE_LOOP('',(#742));
#742 = ORIENTED_EDGE('',*,*,#726,.T.);
#743 = PLANE('',#744);
#744 = AXIS2_PLACEMENT_3D('',#745,#746,#747);
#745 = CARTESIAN_POINT('',(-61.86,0.506279785904,7.49));
#746 = DIRECTION('',(1.,0.,0.));
#747 = DIRECTION('',(0.,0.,1.));
#748 = ( GEOMETRIC_REPRESENTATION_CONTEXT(3) 
GLOBAL_UNCERTAINTY_ASSIGNED_CONTEXT((#752)) GLOBAL_UNIT_ASSIGNED_CONTEXT
((#749,#750,#751)) REPRESENTATION_CONTEXT('Context #1',
  '3D Context with UNIT and UNCERTAINTY') );
#749 = ( LENGTH_UNIT() NAMED_UNIT(*) SI_UNIT(.MILLI.,.METRE.) );
#750 = ( NAMED_UNIT(*) PLANE_ANGLE_UNIT() SI_UNIT($,.RADIAN.) );
#751 = ( NAMED_UNIT(*) SI_UNIT($,.STERADIAN.) SOLID_ANGLE_UNIT() );
#752 = UNCERTAINTY_MEASURE_WITH_UNIT(LENGTH_MEASURE(5.E-07),#749,
  'distance_accuracy_value','confusion accuracy');
#753 = PRODUCT_RELATED_PRODUCT_CATEGORY('part',$,(#7));
#754 = MECHANICAL_DESIGN_GEOMETRIC_PRESENTATION_REPRESENTATION('',(#755)
  ,#748);
#755 = STYLED_ITEM('color',(#756),#15);
#756 = PRESENTATION_STYLE_ASSIGNMENT((#757,#763));
#757 = SURFACE_STYLE_USAGE(.BOTH.,#758);
#758 = SURFACE_SIDE_STYLE('',(#759));
#759 = SURFACE_STYLE_FILL_AREA(#760);
#760 = FILL_AREA_STYLE('',(#761));
#761 = FILL_AREA_STYLE_COLOUR('',#762);
#762 = COLOUR_RGB('',0.800000010877,0.800000010877,0.800000010877);
#763 = CURVE_STYLE('',#764,POSITIVE_LENGTH_MEASURE(0.1),#765);
#764 = DRAUGHTING_PRE_DEFINED_CURVE_FONT('continuous');
#765 = COLOUR_RGB('',9.803921802644E-02,9.803921802644E-02,
  9.803921802644E-02);
ENDSEC;
END-ISO-10303-21;
