ISO-10303-21;
HEADER;
FILE_DESCRIPTION(('FreeCAD Model'),'2;1');
FILE_NAME('Open CASCADE Shape Model','2025-10-06T22:19:45',(''),(''),
  'Open CASCADE STEP processor 7.8','FreeCAD','Unknown');
FILE_SCHEMA(('AUTOMOTIVE_DESIGN { 1 0 10303 214 1 1 1 1 }'));
ENDSEC;
DATA;
#1 = APPLICATION_PROTOCOL_DEFINITION('international standard',
  'automotive_design',2000,#2);
#2 = APPLICATION_CONTEXT(
  'core data for automotive mechanical design processes');
#3 = SHAPE_DEFINITION_REPRESENTATION(#4,#10);
#4 = PRODUCT_DEFINITION_SHAPE('','',#5);
#5 = PRODUCT_DEFINITION('design','',#6,#9);
#6 = PRODUCT_DEFINITION_FORMATION('','',#7);
#7 = PRODUCT('UpButton','UpButton','',(#8));
#8 = PRODUCT_CONTEXT('',#2,'mechanical');
#9 = PRODUCT_DEFINITION_CONTEXT('part definition',#2,'design');
#10 = ADVANCED_BREP_SHAPE_REPRESENTATION('',(#11,#15),#940);
#11 = AXIS2_PLACEMENT_3D('',#12,#13,#14);
#12 = CARTESIAN_POINT('',(0.,0.,0.));
#13 = DIRECTION('',(0.,0.,1.));
#14 = DIRECTION('',(1.,0.,-0.));
#15 = MANIFOLD_SOLID_BREP('',#16);
#16 = CLOSED_SHELL('',(#17,#89,#122,#155,#295,#320,#344,#368,#385,#432,
    #458,#526,#544,#556,#580,#604,#621,#668,#686,#710,#734,#751,#776,
    #794,#806,#824,#836,#867,#891,#908,#920,#929));
#17 = ADVANCED_FACE('',(#18),#84,.T.);
#18 = FACE_BOUND('',#19,.T.);
#19 = EDGE_LOOP('',(#20,#30,#38,#46,#54,#62,#70,#78));
#20 = ORIENTED_EDGE('',*,*,#21,.F.);
#21 = EDGE_CURVE('',#22,#24,#26,.T.);
#22 = VERTEX_POINT('',#23);
#23 = CARTESIAN_POINT('',(-60.06,-3.087096636649,13.204063260953));
#24 = VERTEX_POINT('',#25);
#25 = CARTESIAN_POINT('',(-63.31,-3.087096636649,13.204063260953));
#26 = LINE('',#27,#28);
#27 = CARTESIAN_POINT('',(-61.81,-3.087096636649,13.204063260953));
#28 = VECTOR('',#29,1.);
#29 = DIRECTION('',(-1.,0.,0.));
#30 = ORIENTED_EDGE('',*,*,#31,.T.);
#31 = EDGE_CURVE('',#22,#32,#34,.T.);
#32 = VERTEX_POINT('',#33);
#33 = CARTESIAN_POINT('',(-60.06,-2.25560854201,14.132230282941));
#34 = LINE('',#35,#36);
#35 = CARTESIAN_POINT('',(-60.06,-3.087096636649,13.204063260953));
#36 = VECTOR('',#37,1.);
#37 = DIRECTION('',(0.,0.667250608762,0.744833286787));
#38 = ORIENTED_EDGE('',*,*,#39,.T.);
#39 = EDGE_CURVE('',#32,#40,#42,.T.);
#40 = VERTEX_POINT('',#41);
#41 = CARTESIAN_POINT('',(-60.76,-2.25560854201,14.132230282941));
#42 = LINE('',#43,#44);
#43 = CARTESIAN_POINT('',(-60.06,-2.25560854201,14.132230282941));
#44 = VECTOR('',#45,1.);
#45 = DIRECTION('',(-1.,-0.,-0.));
#46 = ORIENTED_EDGE('',*,*,#47,.F.);
#47 = EDGE_CURVE('',#48,#40,#50,.T.);
#48 = VERTEX_POINT('',#49);
#49 = CARTESIAN_POINT('',(-60.76,-1.254732628867,15.249480213122));
#50 = LINE('',#51,#52);
#51 = CARTESIAN_POINT('',(-60.76,-1.254732628867,15.249480213122));
#52 = VECTOR('',#53,1.);
#53 = DIRECTION('',(0.,-0.667250608762,-0.744833286787));
#54 = ORIENTED_EDGE('',*,*,#55,.F.);
#55 = EDGE_CURVE('',#56,#48,#58,.T.);
#56 = VERTEX_POINT('',#57);
#57 = CARTESIAN_POINT('',(-60.06,-1.254732628867,15.249480213122));
#58 = LINE('',#59,#60);
#59 = CARTESIAN_POINT('',(-60.06,-1.254732628867,15.249480213122));
#60 = VECTOR('',#61,1.);
#61 = DIRECTION('',(-1.,-0.,-0.));
#62 = ORIENTED_EDGE('',*,*,#63,.T.);
#63 = EDGE_CURVE('',#56,#64,#66,.T.);
#64 = VERTEX_POINT('',#65);
#65 = CARTESIAN_POINT('',(-60.06,-0.423244534227,16.177647235111));
#66 = LINE('',#67,#68);
#67 = CARTESIAN_POINT('',(-60.06,-3.087096636649,13.204063260953));
#68 = VECTOR('',#69,1.);
#69 = DIRECTION('',(0.,0.667250608762,0.744833286787));
#70 = ORIENTED_EDGE('',*,*,#71,.F.);
#71 = EDGE_CURVE('',#72,#64,#74,.T.);
#72 = VERTEX_POINT('',#73);
#73 = CARTESIAN_POINT('',(-63.31,-0.423244534227,16.177647235111));
#74 = LINE('',#75,#76);
#75 = CARTESIAN_POINT('',(-60.81,-0.423244534227,16.177647235111));
#76 = VECTOR('',#77,1.);
#77 = DIRECTION('',(1.,0.,0.));
#78 = ORIENTED_EDGE('',*,*,#79,.F.);
#79 = EDGE_CURVE('',#24,#72,#80,.T.);
#80 = LINE('',#81,#82);
#81 = CARTESIAN_POINT('',(-63.31,-3.087096636649,13.204063260953));
#82 = VECTOR('',#83,1.);
#83 = DIRECTION('',(0.,0.667250608762,0.744833286787));
#84 = PLANE('',#85);
#85 = AXIS2_PLACEMENT_3D('',#86,#87,#88);
#86 = CARTESIAN_POINT('',(-61.935,-1.755170585438,14.690855248032));
#87 = DIRECTION('',(0.,-0.744833286787,0.667250608762));
#88 = DIRECTION('',(0.,-0.667250608762,-0.744833286787));
#89 = ADVANCED_FACE('',(#90),#117,.T.);
#90 = FACE_BOUND('',#91,.F.);
#91 = EDGE_LOOP('',(#92,#102,#109,#110));
#92 = ORIENTED_EDGE('',*,*,#93,.F.);
#93 = EDGE_CURVE('',#94,#96,#98,.T.);
#94 = VERTEX_POINT('',#95);
#95 = CARTESIAN_POINT('',(-63.31,-2.156055028165,11.12));
#96 = VERTEX_POINT('',#97);
#97 = CARTESIAN_POINT('',(-60.06,-2.156055028165,11.12));
#98 = LINE('',#99,#100);
#99 = CARTESIAN_POINT('',(-60.81,-2.156055028165,11.12));
#100 = VECTOR('',#101,1.);
#101 = DIRECTION('',(1.,0.,0.));
#102 = ORIENTED_EDGE('',*,*,#103,.T.);
#103 = EDGE_CURVE('',#94,#24,#104,.T.);
#104 = CIRCLE('',#105,1.25);
#105 = AXIS2_PLACEMENT_3D('',#106,#107,#108);
#106 = CARTESIAN_POINT('',(-63.31,-2.156055028164,12.37));
#107 = DIRECTION('',(-1.,-0.,0.));
#108 = DIRECTION('',(0.,-2.5295E-13,-1.));
#109 = ORIENTED_EDGE('',*,*,#21,.F.);
#110 = ORIENTED_EDGE('',*,*,#111,.F.);
#111 = EDGE_CURVE('',#96,#22,#112,.T.);
#112 = CIRCLE('',#113,1.25);
#113 = AXIS2_PLACEMENT_3D('',#114,#115,#116);
#114 = CARTESIAN_POINT('',(-60.06,-2.156055028164,12.37));
#115 = DIRECTION('',(-1.,0.,0.));
#116 = DIRECTION('',(0.,-1.,0.));
#117 = CYLINDRICAL_SURFACE('',#118,1.25);
#118 = AXIS2_PLACEMENT_3D('',#119,#120,#121);
#119 = CARTESIAN_POINT('',(-61.81,-2.156055028164,12.37));
#120 = DIRECTION('',(1.,0.,0.));
#121 = DIRECTION('',(0.,-1.,0.));
#122 = ADVANCED_FACE('',(#123),#150,.T.);
#123 = FACE_BOUND('',#124,.F.);
#124 = EDGE_LOOP('',(#125,#134,#142,#149));
#125 = ORIENTED_EDGE('',*,*,#126,.T.);
#126 = EDGE_CURVE('',#24,#127,#129,.T.);
#127 = VERTEX_POINT('',#128);
#128 = CARTESIAN_POINT('',(-63.81,-2.714679993255,12.870437956572));
#129 = CIRCLE('',#130,0.5);
#130 = AXIS2_PLACEMENT_3D('',#131,#132,#133);
#131 = CARTESIAN_POINT('',(-63.31,-2.714679993255,12.870437956572));
#132 = DIRECTION('',(-0.,-0.667250608762,-0.744833286788));
#133 = DIRECTION('',(0.,-0.744833286788,0.667250608762));
#134 = ORIENTED_EDGE('',*,*,#135,.T.);
#135 = EDGE_CURVE('',#127,#136,#138,.T.);
#136 = VERTEX_POINT('',#137);
#137 = CARTESIAN_POINT('',(-63.81,-5.082789083329E-02,15.84402193073));
#138 = LINE('',#139,#140);
#139 = CARTESIAN_POINT('',(-63.81,-2.714679993255,12.870437956572));
#140 = VECTOR('',#141,1.);
#141 = DIRECTION('',(0.,0.667250608762,0.744833286787));
#142 = ORIENTED_EDGE('',*,*,#143,.F.);
#143 = EDGE_CURVE('',#72,#136,#144,.T.);
#144 = CIRCLE('',#145,0.5);
#145 = AXIS2_PLACEMENT_3D('',#146,#147,#148);
#146 = CARTESIAN_POINT('',(-63.31,-5.082789083329E-02,15.84402193073));
#147 = DIRECTION('',(-0.,-0.667250608762,-0.744833286787));
#148 = DIRECTION('',(0.,-0.744833286787,0.667250608762));
#149 = ORIENTED_EDGE('',*,*,#79,.F.);
#150 = CYLINDRICAL_SURFACE('',#151,0.5);
#151 = AXIS2_PLACEMENT_3D('',#152,#153,#154);
#152 = CARTESIAN_POINT('',(-63.31,-2.714679993255,12.870437956572));
#153 = DIRECTION('',(0.,0.667250608762,0.744833286787));
#154 = DIRECTION('',(0.,-0.744833286787,0.667250608762));
#155 = ADVANCED_FACE('',(#156,#279),#290,.T.);
#156 = FACE_BOUND('',#157,.T.);
#157 = EDGE_LOOP('',(#158,#159,#160,#168,#176,#184,#192,#200,#209,#217,
    #225,#233,#241,#249,#256,#257,#265,#273));
#158 = ORIENTED_EDGE('',*,*,#31,.F.);
#159 = ORIENTED_EDGE('',*,*,#111,.F.);
#160 = ORIENTED_EDGE('',*,*,#161,.F.);
#161 = EDGE_CURVE('',#162,#96,#164,.T.);
#162 = VERTEX_POINT('',#163);
#163 = CARTESIAN_POINT('',(-60.06,-0.247440428193,11.12));
#164 = LINE('',#165,#166);
#165 = CARTESIAN_POINT('',(-60.06,3.161174171779,11.12));
#166 = VECTOR('',#167,1.);
#167 = DIRECTION('',(0.,-1.,0.));
#168 = ORIENTED_EDGE('',*,*,#169,.T.);
#169 = EDGE_CURVE('',#162,#170,#172,.T.);
#170 = VERTEX_POINT('',#171);
#171 = CARTESIAN_POINT('',(-60.06,-0.247440428193,9.89));
#172 = LINE('',#173,#174);
#173 = CARTESIAN_POINT('',(-60.06,-0.247440428193,11.12));
#174 = VECTOR('',#175,1.);
#175 = DIRECTION('',(0.,0.,-1.));
#176 = ORIENTED_EDGE('',*,*,#177,.T.);
#177 = EDGE_CURVE('',#170,#178,#180,.T.);
#178 = VERTEX_POINT('',#179);
#179 = CARTESIAN_POINT('',(-60.06,1.252559571807,9.89));
#180 = LINE('',#181,#182);
#181 = CARTESIAN_POINT('',(-60.06,-0.247440428193,9.89));
#182 = VECTOR('',#183,1.);
#183 = DIRECTION('',(0.,1.,0.));
#184 = ORIENTED_EDGE('',*,*,#185,.T.);
#185 = EDGE_CURVE('',#178,#186,#188,.T.);
#186 = VERTEX_POINT('',#187);
#187 = CARTESIAN_POINT('',(-60.06,1.252559571807,11.12));
#188 = LINE('',#189,#190);
#189 = CARTESIAN_POINT('',(-60.06,1.252559571807,9.89));
#190 = VECTOR('',#191,1.);
#191 = DIRECTION('',(0.,0.,1.));
#192 = ORIENTED_EDGE('',*,*,#193,.F.);
#193 = EDGE_CURVE('',#194,#186,#196,.T.);
#194 = VERTEX_POINT('',#195);
#195 = CARTESIAN_POINT('',(-60.06,3.161174171779,11.12));
#196 = LINE('',#197,#198);
#197 = CARTESIAN_POINT('',(-60.06,3.161174171779,11.12));
#198 = VECTOR('',#199,1.);
#199 = DIRECTION('',(0.,-1.,0.));
#200 = ORIENTED_EDGE('',*,*,#201,.F.);
#201 = EDGE_CURVE('',#202,#194,#204,.T.);
#202 = VERTEX_POINT('',#203);
#203 = CARTESIAN_POINT('',(-60.06,4.093846865063,13.202238936365));
#204 = CIRCLE('',#205,1.25);
#205 = AXIS2_PLACEMENT_3D('',#206,#207,#208);
#206 = CARTESIAN_POINT('',(-60.06,3.161174171778,12.37));
#207 = DIRECTION('',(-1.,0.,0.));
#208 = DIRECTION('',(0.,-1.,0.));
#209 = ORIENTED_EDGE('',*,*,#210,.F.);
#210 = EDGE_CURVE('',#211,#202,#213,.T.);
#211 = VERTEX_POINT('',#212);
#212 = CARTESIAN_POINT('',(-60.06,3.266501678121,14.129427307473));
#213 = LINE('',#214,#215);
#214 = CARTESIAN_POINT('',(-60.06,1.440469767541,16.175822910523));
#215 = VECTOR('',#216,1.);
#216 = DIRECTION('',(0.,0.665791149092,-0.746138154627));
#217 = ORIENTED_EDGE('',*,*,#218,.T.);
#218 = EDGE_CURVE('',#211,#219,#221,.T.);
#219 = VERTEX_POINT('',#220);
#220 = CARTESIAN_POINT('',(-60.06,4.184251608313,14.948350420856));
#221 = LINE('',#222,#223);
#222 = CARTESIAN_POINT('',(-60.06,3.266501678121,14.129427307473));
#223 = VECTOR('',#224,1.);
#224 = DIRECTION('',(0.,0.746138154627,0.665791149092));
#225 = ORIENTED_EDGE('',*,*,#226,.T.);
#226 = EDGE_CURVE('',#219,#227,#229,.T.);
#227 = VERTEX_POINT('',#228);
#228 = CARTESIAN_POINT('',(-60.06,3.185564884675,16.067557652798));
#229 = LINE('',#230,#231);
#230 = CARTESIAN_POINT('',(-60.06,4.184251608313,14.948350420856));
#231 = VECTOR('',#232,1.);
#232 = DIRECTION('',(0.,-0.665791149092,0.746138154627));
#233 = ORIENTED_EDGE('',*,*,#234,.T.);
#234 = EDGE_CURVE('',#227,#235,#237,.T.);
#235 = VERTEX_POINT('',#236);
#236 = CARTESIAN_POINT('',(-60.06,2.267814954483,15.248634539414));
#237 = LINE('',#238,#239);
#238 = CARTESIAN_POINT('',(-60.06,3.185564884675,16.067557652798));
#239 = VECTOR('',#240,1.);
#240 = DIRECTION('',(0.,-0.746138154627,-0.665791149092));
#241 = ORIENTED_EDGE('',*,*,#242,.F.);
#242 = EDGE_CURVE('',#243,#235,#245,.T.);
#243 = VERTEX_POINT('',#244);
#244 = CARTESIAN_POINT('',(-60.06,1.440469767541,16.175822910523));
#245 = LINE('',#246,#247);
#246 = CARTESIAN_POINT('',(-60.06,1.440469767541,16.175822910523));
#247 = VECTOR('',#248,1.);
#248 = DIRECTION('',(0.,0.665791149092,-0.746138154627));
#249 = ORIENTED_EDGE('',*,*,#250,.F.);
#250 = EDGE_CURVE('',#64,#243,#251,.T.);
#251 = CIRCLE('',#252,1.25);
#252 = AXIS2_PLACEMENT_3D('',#253,#254,#255);
#253 = CARTESIAN_POINT('',(-60.06,0.507797074257,15.343583974158));
#254 = DIRECTION('',(-1.,0.,0.));
#255 = DIRECTION('',(0.,-1.,0.));
#256 = ORIENTED_EDGE('',*,*,#63,.F.);
#257 = ORIENTED_EDGE('',*,*,#258,.F.);
#258 = EDGE_CURVE('',#259,#56,#261,.T.);
#259 = VERTEX_POINT('',#260);
#260 = CARTESIAN_POINT('',(-60.06,-2.170877571615,16.0701984619));
#261 = LINE('',#262,#263);
#262 = CARTESIAN_POINT('',(-60.06,-2.170877571615,16.0701984619));
#263 = VECTOR('',#264,1.);
#264 = DIRECTION('',(0.,0.744833286787,-0.667250608762));
#265 = ORIENTED_EDGE('',*,*,#266,.F.);
#266 = EDGE_CURVE('',#267,#259,#269,.T.);
#267 = VERTEX_POINT('',#268);
#268 = CARTESIAN_POINT('',(-60.06,-3.171753484759,14.952948531718));
#269 = LINE('',#270,#271);
#270 = CARTESIAN_POINT('',(-60.06,-3.171753484759,14.952948531718));
#271 = VECTOR('',#272,1.);
#272 = DIRECTION('',(0.,0.667250608762,0.744833286787));
#273 = ORIENTED_EDGE('',*,*,#274,.F.);
#274 = EDGE_CURVE('',#32,#267,#275,.T.);
#275 = LINE('',#276,#277);
#276 = CARTESIAN_POINT('',(-60.06,-2.25560854201,14.132230282941));
#277 = VECTOR('',#278,1.);
#278 = DIRECTION('',(0.,-0.744833286787,0.667250608762));
#279 = FACE_BOUND('',#280,.T.);
#280 = EDGE_LOOP('',(#281));
#281 = ORIENTED_EDGE('',*,*,#282,.F.);
#282 = EDGE_CURVE('',#283,#283,#285,.T.);
#283 = VERTEX_POINT('',#284);
#284 = CARTESIAN_POINT('',(-60.06,1.627559571807,13.42));
#285 = CIRCLE('',#286,1.125);
#286 = AXIS2_PLACEMENT_3D('',#287,#288,#289);
#287 = CARTESIAN_POINT('',(-60.06,0.502559571807,13.42));
#288 = DIRECTION('',(1.,0.,0.));
#289 = DIRECTION('',(0.,1.,0.));
#290 = PLANE('',#291);
#291 = AXIS2_PLACEMENT_3D('',#292,#293,#294);
#292 = CARTESIAN_POINT('',(-60.06,0.503903673565,13.342052437085));
#293 = DIRECTION('',(1.,0.,0.));
#294 = DIRECTION('',(0.,0.,1.));
#295 = ADVANCED_FACE('',(#296),#315,.T.);
#296 = FACE_BOUND('',#297,.F.);
#297 = EDGE_LOOP('',(#298,#299,#308,#314));
#298 = ORIENTED_EDGE('',*,*,#71,.F.);
#299 = ORIENTED_EDGE('',*,*,#300,.T.);
#300 = EDGE_CURVE('',#72,#301,#303,.T.);
#301 = VERTEX_POINT('',#302);
#302 = CARTESIAN_POINT('',(-63.31,1.440469767541,16.175822910523));
#303 = CIRCLE('',#304,1.25);
#304 = AXIS2_PLACEMENT_3D('',#305,#306,#307);
#305 = CARTESIAN_POINT('',(-63.31,0.507797074257,15.343583974158));
#306 = DIRECTION('',(-1.,0.,0.));
#307 = DIRECTION('',(0.,-0.744833286787,0.667250608763));
#308 = ORIENTED_EDGE('',*,*,#309,.F.);
#309 = EDGE_CURVE('',#243,#301,#310,.T.);
#310 = LINE('',#311,#312);
#311 = CARTESIAN_POINT('',(-61.81,1.440469767541,16.175822910523));
#312 = VECTOR('',#313,1.);
#313 = DIRECTION('',(-1.,0.,0.));
#314 = ORIENTED_EDGE('',*,*,#250,.F.);
#315 = CYLINDRICAL_SURFACE('',#316,1.25);
#316 = AXIS2_PLACEMENT_3D('',#317,#318,#319);
#317 = CARTESIAN_POINT('',(-61.81,0.507797074257,15.343583974158));
#318 = DIRECTION('',(1.,0.,0.));
#319 = DIRECTION('',(0.,-1.,0.));
#320 = ADVANCED_FACE('',(#321),#339,.F.);
#321 = FACE_BOUND('',#322,.F.);
#322 = EDGE_LOOP('',(#323,#324,#332,#338));
#323 = ORIENTED_EDGE('',*,*,#39,.T.);
#324 = ORIENTED_EDGE('',*,*,#325,.T.);
#325 = EDGE_CURVE('',#40,#326,#328,.T.);
#326 = VERTEX_POINT('',#327);
#327 = CARTESIAN_POINT('',(-60.76,-3.171753484759,14.952948531718));
#328 = LINE('',#329,#330);
#329 = CARTESIAN_POINT('',(-60.76,-2.25560854201,14.132230282941));
#330 = VECTOR('',#331,1.);
#331 = DIRECTION('',(0.,-0.744833286787,0.667250608762));
#332 = ORIENTED_EDGE('',*,*,#333,.F.);
#333 = EDGE_CURVE('',#267,#326,#334,.T.);
#334 = LINE('',#335,#336);
#335 = CARTESIAN_POINT('',(-60.06,-3.171753484759,14.952948531718));
#336 = VECTOR('',#337,1.);
#337 = DIRECTION('',(-1.,-0.,-0.));
#338 = ORIENTED_EDGE('',*,*,#274,.F.);
#339 = PLANE('',#340);
#340 = AXIS2_PLACEMENT_3D('',#341,#342,#343);
#341 = CARTESIAN_POINT('',(-60.06,-2.25560854201,14.132230282941));
#342 = DIRECTION('',(0.,0.667250608762,0.744833286787));
#343 = DIRECTION('',(0.,-0.744833286787,0.667250608762));
#344 = ADVANCED_FACE('',(#345),#363,.F.);
#345 = FACE_BOUND('',#346,.T.);
#346 = EDGE_LOOP('',(#347,#348,#356,#362));
#347 = ORIENTED_EDGE('',*,*,#325,.T.);
#348 = ORIENTED_EDGE('',*,*,#349,.T.);
#349 = EDGE_CURVE('',#326,#350,#352,.T.);
#350 = VERTEX_POINT('',#351);
#351 = CARTESIAN_POINT('',(-60.76,-2.170877571615,16.0701984619));
#352 = LINE('',#353,#354);
#353 = CARTESIAN_POINT('',(-60.76,-3.171753484759,14.952948531718));
#354 = VECTOR('',#355,1.);
#355 = DIRECTION('',(0.,0.667250608762,0.744833286787));
#356 = ORIENTED_EDGE('',*,*,#357,.T.);
#357 = EDGE_CURVE('',#350,#48,#358,.T.);
#358 = LINE('',#359,#360);
#359 = CARTESIAN_POINT('',(-60.76,-2.170877571615,16.0701984619));
#360 = VECTOR('',#361,1.);
#361 = DIRECTION('',(0.,0.744833286787,-0.667250608762));
#362 = ORIENTED_EDGE('',*,*,#47,.T.);
#363 = PLANE('',#364);
#364 = AXIS2_PLACEMENT_3D('',#365,#366,#367);
#365 = CARTESIAN_POINT('',(-60.76,0.745417761282,7.392693658134));
#366 = DIRECTION('',(1.,0.,0.));
#367 = DIRECTION('',(0.,0.,1.));
#368 = ADVANCED_FACE('',(#369),#380,.F.);
#369 = FACE_BOUND('',#370,.F.);
#370 = EDGE_LOOP('',(#371,#377,#378,#379));
#371 = ORIENTED_EDGE('',*,*,#372,.T.);
#372 = EDGE_CURVE('',#259,#350,#373,.T.);
#373 = LINE('',#374,#375);
#374 = CARTESIAN_POINT('',(-60.06,-2.170877571615,16.0701984619));
#375 = VECTOR('',#376,1.);
#376 = DIRECTION('',(-1.,-0.,-0.));
#377 = ORIENTED_EDGE('',*,*,#357,.T.);
#378 = ORIENTED_EDGE('',*,*,#55,.F.);
#379 = ORIENTED_EDGE('',*,*,#258,.F.);
#380 = PLANE('',#381);
#381 = AXIS2_PLACEMENT_3D('',#382,#383,#384);
#382 = CARTESIAN_POINT('',(-60.06,-2.170877571615,16.0701984619));
#383 = DIRECTION('',(0.,-0.667250608762,-0.744833286787));
#384 = DIRECTION('',(0.,0.744833286787,-0.667250608762));
#385 = ADVANCED_FACE('',(#386),#427,.T.);
#386 = FACE_BOUND('',#387,.T.);
#387 = EDGE_LOOP('',(#388,#396,#397,#405,#413,#419,#420,#421));
#388 = ORIENTED_EDGE('',*,*,#389,.F.);
#389 = EDGE_CURVE('',#194,#390,#392,.T.);
#390 = VERTEX_POINT('',#391);
#391 = CARTESIAN_POINT('',(-63.31,3.161174171779,11.12));
#392 = LINE('',#393,#394);
#393 = CARTESIAN_POINT('',(-61.81,3.161174171779,11.12));
#394 = VECTOR('',#395,1.);
#395 = DIRECTION('',(-1.,0.,0.));
#396 = ORIENTED_EDGE('',*,*,#193,.T.);
#397 = ORIENTED_EDGE('',*,*,#398,.T.);
#398 = EDGE_CURVE('',#186,#399,#401,.T.);
#399 = VERTEX_POINT('',#400);
#400 = CARTESIAN_POINT('',(-60.76,1.252559571807,11.12));
#401 = LINE('',#402,#403);
#402 = CARTESIAN_POINT('',(-60.06,1.252559571807,11.12));
#403 = VECTOR('',#404,1.);
#404 = DIRECTION('',(-1.,-0.,-0.));
#405 = ORIENTED_EDGE('',*,*,#406,.T.);
#406 = EDGE_CURVE('',#399,#407,#409,.T.);
#407 = VERTEX_POINT('',#408);
#408 = CARTESIAN_POINT('',(-60.76,-0.247440428193,11.12));
#409 = LINE('',#410,#411);
#410 = CARTESIAN_POINT('',(-60.76,1.252559571807,11.12));
#411 = VECTOR('',#412,1.);
#412 = DIRECTION('',(0.,-1.,0.));
#413 = ORIENTED_EDGE('',*,*,#414,.F.);
#414 = EDGE_CURVE('',#162,#407,#415,.T.);
#415 = LINE('',#416,#417);
#416 = CARTESIAN_POINT('',(-60.06,-0.247440428193,11.12));
#417 = VECTOR('',#418,1.);
#418 = DIRECTION('',(-1.,-0.,-0.));
#419 = ORIENTED_EDGE('',*,*,#161,.T.);
#420 = ORIENTED_EDGE('',*,*,#93,.F.);
#421 = ORIENTED_EDGE('',*,*,#422,.F.);
#422 = EDGE_CURVE('',#390,#94,#423,.T.);
#423 = LINE('',#424,#425);
#424 = CARTESIAN_POINT('',(-63.31,3.161174171779,11.12));
#425 = VECTOR('',#426,1.);
#426 = DIRECTION('',(0.,-1.,0.));
#427 = PLANE('',#428);
#428 = AXIS2_PLACEMENT_3D('',#429,#430,#431);
#429 = CARTESIAN_POINT('',(-61.935,0.502559571807,11.12));
#430 = DIRECTION('',(-0.,-5.5E-16,-1.));
#431 = DIRECTION('',(0.,-1.,5.5E-16));
#432 = ADVANCED_FACE('',(#433),#453,.T.);
#433 = FACE_BOUND('',#434,.T.);
#434 = EDGE_LOOP('',(#435,#444,#445,#446));
#435 = ORIENTED_EDGE('',*,*,#436,.F.);
#436 = EDGE_CURVE('',#94,#437,#439,.T.);
#437 = VERTEX_POINT('',#438);
#438 = CARTESIAN_POINT('',(-63.81,-2.156055028165,11.62));
#439 = CIRCLE('',#440,0.5);
#440 = AXIS2_PLACEMENT_3D('',#441,#442,#443);
#441 = CARTESIAN_POINT('',(-63.31,-2.156055028165,11.62));
#442 = DIRECTION('',(-0.,1.,0.));
#443 = DIRECTION('',(0.,0.,-1.));
#444 = ORIENTED_EDGE('',*,*,#103,.T.);
#445 = ORIENTED_EDGE('',*,*,#126,.T.);
#446 = ORIENTED_EDGE('',*,*,#447,.F.);
#447 = EDGE_CURVE('',#437,#127,#448,.T.);
#448 = CIRCLE('',#449,0.75);
#449 = AXIS2_PLACEMENT_3D('',#450,#451,#452);
#450 = CARTESIAN_POINT('',(-63.81,-2.156055028164,12.37));
#451 = DIRECTION('',(-1.,-0.,0.));
#452 = DIRECTION('',(0.,-2.5295E-13,-1.));
#453 = TOROIDAL_SURFACE('',#454,0.75,0.5);
#454 = AXIS2_PLACEMENT_3D('',#455,#456,#457);
#455 = CARTESIAN_POINT('',(-63.31,-2.156055028164,12.37));
#456 = DIRECTION('',(-1.,0.,0.));
#457 = DIRECTION('',(0.,-2.5295E-13,-1.));
#458 = ADVANCED_FACE('',(#459,#495),#521,.F.);
#459 = FACE_BOUND('',#460,.F.);
#460 = EDGE_LOOP('',(#461,#471,#478,#479,#480,#488));
#461 = ORIENTED_EDGE('',*,*,#462,.F.);
#462 = EDGE_CURVE('',#463,#465,#467,.T.);
#463 = VERTEX_POINT('',#464);
#464 = CARTESIAN_POINT('',(-63.81,1.067400690227,15.842927335977));
#465 = VERTEX_POINT('',#466);
#466 = CARTESIAN_POINT('',(-63.81,3.720777787749,12.869343361819));
#467 = LINE('',#468,#469);
#468 = CARTESIAN_POINT('',(-63.81,1.067400690227,15.842927335977));
#469 = VECTOR('',#470,1.);
#470 = DIRECTION('',(0.,0.665791149092,-0.746138154627));
#471 = ORIENTED_EDGE('',*,*,#472,.F.);
#472 = EDGE_CURVE('',#136,#463,#473,.T.);
#473 = CIRCLE('',#474,0.75);
#474 = AXIS2_PLACEMENT_3D('',#475,#476,#477);
#475 = CARTESIAN_POINT('',(-63.81,0.507797074257,15.343583974158));
#476 = DIRECTION('',(-1.,0.,0.));
#477 = DIRECTION('',(0.,-0.744833286787,0.667250608763));
#478 = ORIENTED_EDGE('',*,*,#135,.F.);
#479 = ORIENTED_EDGE('',*,*,#447,.F.);
#480 = ORIENTED_EDGE('',*,*,#481,.F.);
#481 = EDGE_CURVE('',#482,#437,#484,.T.);
#482 = VERTEX_POINT('',#483);
#483 = CARTESIAN_POINT('',(-63.81,3.161174171778,11.62));
#484 = LINE('',#485,#486);
#485 = CARTESIAN_POINT('',(-63.81,3.161174171779,11.62));
#486 = VECTOR('',#487,1.);
#487 = DIRECTION('',(0.,-1.,0.));
#488 = ORIENTED_EDGE('',*,*,#489,.F.);
#489 = EDGE_CURVE('',#465,#482,#490,.T.);
#490 = CIRCLE('',#491,0.75);
#491 = AXIS2_PLACEMENT_3D('',#492,#493,#494);
#492 = CARTESIAN_POINT('',(-63.81,3.161174171778,12.37));
#493 = DIRECTION('',(-1.,0.,0.));
#494 = DIRECTION('',(0.,0.746138154628,0.665791149092));
#495 = FACE_BOUND('',#496,.F.);
#496 = EDGE_LOOP('',(#497,#507,#515));
#497 = ORIENTED_EDGE('',*,*,#498,.F.);
#498 = EDGE_CURVE('',#499,#501,#503,.T.);
#499 = VERTEX_POINT('',#500);
#500 = CARTESIAN_POINT('',(-63.81,2.603036533741,12.62));
#501 = VERTEX_POINT('',#502);
#502 = CARTESIAN_POINT('',(-63.81,0.507429919966,14.968502310012));
#503 = LINE('',#504,#505);
#504 = CARTESIAN_POINT('',(-63.81,2.603036533741,12.62));
#505 = VECTOR('',#506,1.);
#506 = DIRECTION('',(0.,-0.665791149092,0.746138154627));
#507 = ORIENTED_EDGE('',*,*,#508,.F.);
#508 = EDGE_CURVE('',#509,#499,#511,.T.);
#509 = VERTEX_POINT('',#510);
#510 = CARTESIAN_POINT('',(-63.81,-1.596449731806,12.62));
#511 = LINE('',#512,#513);
#512 = CARTESIAN_POINT('',(-63.81,-1.596449731806,12.62));
#513 = VECTOR('',#514,1.);
#514 = DIRECTION('',(0.,1.,0.));
#515 = ORIENTED_EDGE('',*,*,#516,.F.);
#516 = EDGE_CURVE('',#501,#509,#517,.T.);
#517 = LINE('',#518,#519);
#518 = CARTESIAN_POINT('',(-63.81,0.507429919966,14.968502310012));
#519 = VECTOR('',#520,1.);
#520 = DIRECTION('',(0.,-0.667250608762,-0.744833286787));
#521 = PLANE('',#522);
#522 = AXIS2_PLACEMENT_3D('',#523,#524,#525);
#523 = CARTESIAN_POINT('',(-63.81,0.508200977895,7.494960587506));
#524 = DIRECTION('',(1.,0.,0.));
#525 = DIRECTION('',(0.,0.,1.));
#526 = ADVANCED_FACE('',(#527),#539,.T.);
#527 = FACE_BOUND('',#528,.T.);
#528 = EDGE_LOOP('',(#529,#530,#531,#538));
#529 = ORIENTED_EDGE('',*,*,#143,.F.);
#530 = ORIENTED_EDGE('',*,*,#300,.T.);
#531 = ORIENTED_EDGE('',*,*,#532,.T.);
#532 = EDGE_CURVE('',#301,#463,#533,.T.);
#533 = CIRCLE('',#534,0.5);
#534 = AXIS2_PLACEMENT_3D('',#535,#536,#537);
#535 = CARTESIAN_POINT('',(-63.31,1.067400690227,15.842927335977));
#536 = DIRECTION('',(0.,-0.665791149092,0.746138154627));
#537 = DIRECTION('',(0.,0.746138154627,0.665791149092));
#538 = ORIENTED_EDGE('',*,*,#472,.F.);
#539 = TOROIDAL_SURFACE('',#540,0.75,0.5);
#540 = AXIS2_PLACEMENT_3D('',#541,#542,#543);
#541 = CARTESIAN_POINT('',(-63.31,0.507797074257,15.343583974158));
#542 = DIRECTION('',(-1.,0.,0.));
#543 = DIRECTION('',(0.,-0.744833286787,0.667250608763));
#544 = ADVANCED_FACE('',(#545),#551,.F.);
#545 = FACE_BOUND('',#546,.F.);
#546 = EDGE_LOOP('',(#547,#548,#549,#550));
#547 = ORIENTED_EDGE('',*,*,#333,.T.);
#548 = ORIENTED_EDGE('',*,*,#349,.T.);
#549 = ORIENTED_EDGE('',*,*,#372,.F.);
#550 = ORIENTED_EDGE('',*,*,#266,.F.);
#551 = PLANE('',#552);
#552 = AXIS2_PLACEMENT_3D('',#553,#554,#555);
#553 = CARTESIAN_POINT('',(-60.06,-3.171753484759,14.952948531718));
#554 = DIRECTION('',(0.,0.744833286787,-0.667250608762));
#555 = DIRECTION('',(0.,0.667250608762,0.744833286787));
#556 = ADVANCED_FACE('',(#557),#575,.T.);
#557 = FACE_BOUND('',#558,.T.);
#558 = EDGE_LOOP('',(#559,#560,#568,#574));
#559 = ORIENTED_EDGE('',*,*,#414,.T.);
#560 = ORIENTED_EDGE('',*,*,#561,.T.);
#561 = EDGE_CURVE('',#407,#562,#564,.T.);
#562 = VERTEX_POINT('',#563);
#563 = CARTESIAN_POINT('',(-60.76,-0.247440428193,9.89));
#564 = LINE('',#565,#566);
#565 = CARTESIAN_POINT('',(-60.76,-0.247440428193,11.12));
#566 = VECTOR('',#567,1.);
#567 = DIRECTION('',(0.,0.,-1.));
#568 = ORIENTED_EDGE('',*,*,#569,.F.);
#569 = EDGE_CURVE('',#170,#562,#570,.T.);
#570 = LINE('',#571,#572);
#571 = CARTESIAN_POINT('',(-60.06,-0.247440428193,9.89));
#572 = VECTOR('',#573,1.);
#573 = DIRECTION('',(-1.,-0.,-0.));
#574 = ORIENTED_EDGE('',*,*,#169,.F.);
#575 = PLANE('',#576);
#576 = AXIS2_PLACEMENT_3D('',#577,#578,#579);
#577 = CARTESIAN_POINT('',(-60.06,-0.247440428193,11.12));
#578 = DIRECTION('',(0.,-1.,0.));
#579 = DIRECTION('',(0.,0.,-1.));
#580 = ADVANCED_FACE('',(#581),#599,.T.);
#581 = FACE_BOUND('',#582,.T.);
#582 = EDGE_LOOP('',(#583,#584,#592,#598));
#583 = ORIENTED_EDGE('',*,*,#569,.T.);
#584 = ORIENTED_EDGE('',*,*,#585,.T.);
#585 = EDGE_CURVE('',#562,#586,#588,.T.);
#586 = VERTEX_POINT('',#587);
#587 = CARTESIAN_POINT('',(-60.76,1.252559571807,9.89));
#588 = LINE('',#589,#590);
#589 = CARTESIAN_POINT('',(-60.76,-0.247440428193,9.89));
#590 = VECTOR('',#591,1.);
#591 = DIRECTION('',(0.,1.,0.));
#592 = ORIENTED_EDGE('',*,*,#593,.F.);
#593 = EDGE_CURVE('',#178,#586,#594,.T.);
#594 = LINE('',#595,#596);
#595 = CARTESIAN_POINT('',(-60.06,1.252559571807,9.89));
#596 = VECTOR('',#597,1.);
#597 = DIRECTION('',(-1.,-0.,-0.));
#598 = ORIENTED_EDGE('',*,*,#177,.F.);
#599 = PLANE('',#600);
#600 = AXIS2_PLACEMENT_3D('',#601,#602,#603);
#601 = CARTESIAN_POINT('',(-60.06,-0.247440428193,9.89));
#602 = DIRECTION('',(0.,0.,-1.));
#603 = DIRECTION('',(0.,1.,0.));
#604 = ADVANCED_FACE('',(#605),#616,.T.);
#605 = FACE_BOUND('',#606,.T.);
#606 = EDGE_LOOP('',(#607,#608,#614,#615));
#607 = ORIENTED_EDGE('',*,*,#593,.T.);
#608 = ORIENTED_EDGE('',*,*,#609,.T.);
#609 = EDGE_CURVE('',#586,#399,#610,.T.);
#610 = LINE('',#611,#612);
#611 = CARTESIAN_POINT('',(-60.76,1.252559571807,9.89));
#612 = VECTOR('',#613,1.);
#613 = DIRECTION('',(0.,0.,1.));
#614 = ORIENTED_EDGE('',*,*,#398,.F.);
#615 = ORIENTED_EDGE('',*,*,#185,.F.);
#616 = PLANE('',#617);
#617 = AXIS2_PLACEMENT_3D('',#618,#619,#620);
#618 = CARTESIAN_POINT('',(-60.06,1.252559571807,9.89));
#619 = DIRECTION('',(0.,1.,0.));
#620 = DIRECTION('',(0.,0.,1.));
#621 = ADVANCED_FACE('',(#622),#663,.T.);
#622 = FACE_BOUND('',#623,.T.);
#623 = EDGE_LOOP('',(#624,#625,#626,#634,#642,#648,#649,#657));
#624 = ORIENTED_EDGE('',*,*,#309,.F.);
#625 = ORIENTED_EDGE('',*,*,#242,.T.);
#626 = ORIENTED_EDGE('',*,*,#627,.T.);
#627 = EDGE_CURVE('',#235,#628,#630,.T.);
#628 = VERTEX_POINT('',#629);
#629 = CARTESIAN_POINT('',(-60.76,2.267814954483,15.248634539414));
#630 = LINE('',#631,#632);
#631 = CARTESIAN_POINT('',(-60.06,2.267814954483,15.248634539414));
#632 = VECTOR('',#633,1.);
#633 = DIRECTION('',(-1.,-0.,-0.));
#634 = ORIENTED_EDGE('',*,*,#635,.T.);
#635 = EDGE_CURVE('',#628,#636,#638,.T.);
#636 = VERTEX_POINT('',#637);
#637 = CARTESIAN_POINT('',(-60.76,3.266501678121,14.129427307473));
#638 = LINE('',#639,#640);
#639 = CARTESIAN_POINT('',(-60.76,2.267814954483,15.248634539414));
#640 = VECTOR('',#641,1.);
#641 = DIRECTION('',(0.,0.665791149092,-0.746138154627));
#642 = ORIENTED_EDGE('',*,*,#643,.F.);
#643 = EDGE_CURVE('',#211,#636,#644,.T.);
#644 = LINE('',#645,#646);
#645 = CARTESIAN_POINT('',(-60.06,3.266501678121,14.129427307473));
#646 = VECTOR('',#647,1.);
#647 = DIRECTION('',(-1.,-0.,-0.));
#648 = ORIENTED_EDGE('',*,*,#210,.T.);
#649 = ORIENTED_EDGE('',*,*,#650,.F.);
#650 = EDGE_CURVE('',#651,#202,#653,.T.);
#651 = VERTEX_POINT('',#652);
#652 = CARTESIAN_POINT('',(-63.31,4.093846865063,13.202238936365));
#653 = LINE('',#654,#655);
#654 = CARTESIAN_POINT('',(-60.81,4.093846865063,13.202238936365));
#655 = VECTOR('',#656,1.);
#656 = DIRECTION('',(1.,0.,0.));
#657 = ORIENTED_EDGE('',*,*,#658,.F.);
#658 = EDGE_CURVE('',#301,#651,#659,.T.);
#659 = LINE('',#660,#661);
#660 = CARTESIAN_POINT('',(-63.31,1.440469767541,16.175822910523));
#661 = VECTOR('',#662,1.);
#662 = DIRECTION('',(0.,0.665791149092,-0.746138154627));
#663 = PLANE('',#664);
#664 = AXIS2_PLACEMENT_3D('',#665,#666,#667);
#665 = CARTESIAN_POINT('',(-61.935,2.767158316302,14.689030923444));
#666 = DIRECTION('',(0.,0.746138154627,0.665791149092));
#667 = DIRECTION('',(0.,-0.665791149092,0.746138154627));
#668 = ADVANCED_FACE('',(#669),#681,.T.);
#669 = FACE_BOUND('',#670,.F.);
#670 = EDGE_LOOP('',(#671,#672,#679,#680));
#671 = ORIENTED_EDGE('',*,*,#650,.F.);
#672 = ORIENTED_EDGE('',*,*,#673,.T.);
#673 = EDGE_CURVE('',#651,#390,#674,.T.);
#674 = CIRCLE('',#675,1.25);
#675 = AXIS2_PLACEMENT_3D('',#676,#677,#678);
#676 = CARTESIAN_POINT('',(-63.31,3.161174171778,12.37));
#677 = DIRECTION('',(-1.,0.,0.));
#678 = DIRECTION('',(0.,0.746138154628,0.665791149092));
#679 = ORIENTED_EDGE('',*,*,#389,.F.);
#680 = ORIENTED_EDGE('',*,*,#201,.F.);
#681 = CYLINDRICAL_SURFACE('',#682,1.25);
#682 = AXIS2_PLACEMENT_3D('',#683,#684,#685);
#683 = CARTESIAN_POINT('',(-61.81,3.161174171778,12.37));
#684 = DIRECTION('',(1.,0.,0.));
#685 = DIRECTION('',(0.,-1.,0.));
#686 = ADVANCED_FACE('',(#687),#705,.T.);
#687 = FACE_BOUND('',#688,.T.);
#688 = EDGE_LOOP('',(#689,#697,#703,#704));
#689 = ORIENTED_EDGE('',*,*,#690,.T.);
#690 = EDGE_CURVE('',#227,#691,#693,.T.);
#691 = VERTEX_POINT('',#692);
#692 = CARTESIAN_POINT('',(-60.76,3.185564884675,16.067557652798));
#693 = LINE('',#694,#695);
#694 = CARTESIAN_POINT('',(-60.06,3.185564884675,16.067557652798));
#695 = VECTOR('',#696,1.);
#696 = DIRECTION('',(-1.,-0.,-0.));
#697 = ORIENTED_EDGE('',*,*,#698,.T.);
#698 = EDGE_CURVE('',#691,#628,#699,.T.);
#699 = LINE('',#700,#701);
#700 = CARTESIAN_POINT('',(-60.76,3.185564884675,16.067557652798));
#701 = VECTOR('',#702,1.);
#702 = DIRECTION('',(0.,-0.746138154627,-0.665791149092));
#703 = ORIENTED_EDGE('',*,*,#627,.F.);
#704 = ORIENTED_EDGE('',*,*,#234,.F.);
#705 = PLANE('',#706);
#706 = AXIS2_PLACEMENT_3D('',#707,#708,#709);
#707 = CARTESIAN_POINT('',(-60.06,3.185564884675,16.067557652798));
#708 = DIRECTION('',(0.,-0.665791149092,0.746138154627));
#709 = DIRECTION('',(0.,-0.746138154627,-0.665791149092));
#710 = ADVANCED_FACE('',(#711),#729,.T.);
#711 = FACE_BOUND('',#712,.T.);
#712 = EDGE_LOOP('',(#713,#721,#727,#728));
#713 = ORIENTED_EDGE('',*,*,#714,.T.);
#714 = EDGE_CURVE('',#219,#715,#717,.T.);
#715 = VERTEX_POINT('',#716);
#716 = CARTESIAN_POINT('',(-60.76,4.184251608313,14.948350420856));
#717 = LINE('',#718,#719);
#718 = CARTESIAN_POINT('',(-60.06,4.184251608313,14.948350420856));
#719 = VECTOR('',#720,1.);
#720 = DIRECTION('',(-1.,-0.,-0.));
#721 = ORIENTED_EDGE('',*,*,#722,.T.);
#722 = EDGE_CURVE('',#715,#691,#723,.T.);
#723 = LINE('',#724,#725);
#724 = CARTESIAN_POINT('',(-60.76,4.184251608313,14.948350420856));
#725 = VECTOR('',#726,1.);
#726 = DIRECTION('',(0.,-0.665791149092,0.746138154627));
#727 = ORIENTED_EDGE('',*,*,#690,.F.);
#728 = ORIENTED_EDGE('',*,*,#226,.F.);
#729 = PLANE('',#730);
#730 = AXIS2_PLACEMENT_3D('',#731,#732,#733);
#731 = CARTESIAN_POINT('',(-60.06,4.184251608313,14.948350420856));
#732 = DIRECTION('',(0.,0.746138154627,0.665791149092));
#733 = DIRECTION('',(0.,-0.665791149092,0.746138154627));
#734 = ADVANCED_FACE('',(#735),#746,.T.);
#735 = FACE_BOUND('',#736,.T.);
#736 = EDGE_LOOP('',(#737,#738,#744,#745));
#737 = ORIENTED_EDGE('',*,*,#643,.T.);
#738 = ORIENTED_EDGE('',*,*,#739,.T.);
#739 = EDGE_CURVE('',#636,#715,#740,.T.);
#740 = LINE('',#741,#742);
#741 = CARTESIAN_POINT('',(-60.76,3.266501678121,14.129427307473));
#742 = VECTOR('',#743,1.);
#743 = DIRECTION('',(0.,0.746138154627,0.665791149092));
#744 = ORIENTED_EDGE('',*,*,#714,.F.);
#745 = ORIENTED_EDGE('',*,*,#218,.F.);
#746 = PLANE('',#747);
#747 = AXIS2_PLACEMENT_3D('',#748,#749,#750);
#748 = CARTESIAN_POINT('',(-60.06,3.266501678121,14.129427307473));
#749 = DIRECTION('',(0.,0.665791149092,-0.746138154627));
#750 = DIRECTION('',(0.,0.746138154627,0.665791149092));
#751 = ADVANCED_FACE('',(#752),#771,.F.);
#752 = FACE_BOUND('',#753,.F.);
#753 = EDGE_LOOP('',(#754,#762,#769,#770));
#754 = ORIENTED_EDGE('',*,*,#755,.T.);
#755 = EDGE_CURVE('',#283,#756,#758,.T.);
#756 = VERTEX_POINT('',#757);
#757 = CARTESIAN_POINT('',(-61.86,1.627559571807,13.42));
#758 = LINE('',#759,#760);
#759 = CARTESIAN_POINT('',(-60.06,1.627559571807,13.42));
#760 = VECTOR('',#761,1.);
#761 = DIRECTION('',(-1.,-0.,-0.));
#762 = ORIENTED_EDGE('',*,*,#763,.T.);
#763 = EDGE_CURVE('',#756,#756,#764,.T.);
#764 = CIRCLE('',#765,1.125);
#765 = AXIS2_PLACEMENT_3D('',#766,#767,#768);
#766 = CARTESIAN_POINT('',(-61.86,0.502559571807,13.42));
#767 = DIRECTION('',(1.,0.,0.));
#768 = DIRECTION('',(0.,1.,0.));
#769 = ORIENTED_EDGE('',*,*,#755,.F.);
#770 = ORIENTED_EDGE('',*,*,#282,.F.);
#771 = CYLINDRICAL_SURFACE('',#772,1.125);
#772 = AXIS2_PLACEMENT_3D('',#773,#774,#775);
#773 = CARTESIAN_POINT('',(-60.06,0.502559571807,13.42));
#774 = DIRECTION('',(1.,0.,0.));
#775 = DIRECTION('',(0.,1.,0.));
#776 = ADVANCED_FACE('',(#777),#789,.T.);
#777 = FACE_BOUND('',#778,.F.);
#778 = EDGE_LOOP('',(#779,#786,#787,#788));
#779 = ORIENTED_EDGE('',*,*,#780,.T.);
#780 = EDGE_CURVE('',#390,#482,#781,.T.);
#781 = CIRCLE('',#782,0.5);
#782 = AXIS2_PLACEMENT_3D('',#783,#784,#785);
#783 = CARTESIAN_POINT('',(-63.31,3.161174171778,11.62));
#784 = DIRECTION('',(0.,1.,2.5241E-13));
#785 = DIRECTION('',(0.,2.5241E-13,-1.));
#786 = ORIENTED_EDGE('',*,*,#481,.T.);
#787 = ORIENTED_EDGE('',*,*,#436,.F.);
#788 = ORIENTED_EDGE('',*,*,#422,.F.);
#789 = CYLINDRICAL_SURFACE('',#790,0.5);
#790 = AXIS2_PLACEMENT_3D('',#791,#792,#793);
#791 = CARTESIAN_POINT('',(-63.31,3.161174171779,11.62));
#792 = DIRECTION('',(0.,-1.,0.));
#793 = DIRECTION('',(-0.,-0.,-1.));
#794 = ADVANCED_FACE('',(#795),#801,.F.);
#795 = FACE_BOUND('',#796,.F.);
#796 = EDGE_LOOP('',(#797,#798,#799,#800));
#797 = ORIENTED_EDGE('',*,*,#585,.T.);
#798 = ORIENTED_EDGE('',*,*,#609,.T.);
#799 = ORIENTED_EDGE('',*,*,#406,.T.);
#800 = ORIENTED_EDGE('',*,*,#561,.T.);
#801 = PLANE('',#802);
#802 = AXIS2_PLACEMENT_3D('',#803,#804,#805);
#803 = CARTESIAN_POINT('',(-60.76,0.745417761282,7.392693658134));
#804 = DIRECTION('',(1.,0.,0.));
#805 = DIRECTION('',(0.,0.,1.));
#806 = ADVANCED_FACE('',(#807),#819,.T.);
#807 = FACE_BOUND('',#808,.F.);
#808 = EDGE_LOOP('',(#809,#810,#811,#818));
#809 = ORIENTED_EDGE('',*,*,#532,.T.);
#810 = ORIENTED_EDGE('',*,*,#462,.T.);
#811 = ORIENTED_EDGE('',*,*,#812,.F.);
#812 = EDGE_CURVE('',#651,#465,#813,.T.);
#813 = CIRCLE('',#814,0.5);
#814 = AXIS2_PLACEMENT_3D('',#815,#816,#817);
#815 = CARTESIAN_POINT('',(-63.31,3.720777787749,12.869343361819));
#816 = DIRECTION('',(0.,-0.665791149092,0.746138154627));
#817 = DIRECTION('',(0.,0.746138154627,0.665791149092));
#818 = ORIENTED_EDGE('',*,*,#658,.F.);
#819 = CYLINDRICAL_SURFACE('',#820,0.5);
#820 = AXIS2_PLACEMENT_3D('',#821,#822,#823);
#821 = CARTESIAN_POINT('',(-63.31,1.067400690227,15.842927335977));
#822 = DIRECTION('',(0.,0.665791149092,-0.746138154627));
#823 = DIRECTION('',(0.,0.746138154627,0.665791149092));
#824 = ADVANCED_FACE('',(#825),#831,.T.);
#825 = FACE_BOUND('',#826,.T.);
#826 = EDGE_LOOP('',(#827,#828,#829,#830));
#827 = ORIENTED_EDGE('',*,*,#812,.F.);
#828 = ORIENTED_EDGE('',*,*,#673,.T.);
#829 = ORIENTED_EDGE('',*,*,#780,.T.);
#830 = ORIENTED_EDGE('',*,*,#489,.F.);
#831 = TOROIDAL_SURFACE('',#832,0.75,0.5);
#832 = AXIS2_PLACEMENT_3D('',#833,#834,#835);
#833 = CARTESIAN_POINT('',(-63.31,3.161174171778,12.37));
#834 = DIRECTION('',(-1.,0.,0.));
#835 = DIRECTION('',(0.,0.746138154628,0.665791149092));
#836 = ADVANCED_FACE('',(#837),#862,.T.);
#837 = FACE_BOUND('',#838,.T.);
#838 = EDGE_LOOP('',(#839,#847,#855,#861));
#839 = ORIENTED_EDGE('',*,*,#840,.T.);
#840 = EDGE_CURVE('',#499,#841,#843,.T.);
#841 = VERTEX_POINT('',#842);
#842 = CARTESIAN_POINT('',(-63.31,2.603036533741,12.62));
#843 = LINE('',#844,#845);
#844 = CARTESIAN_POINT('',(-63.81,2.603036533741,12.62));
#845 = VECTOR('',#846,1.);
#846 = DIRECTION('',(1.,0.,0.));
#847 = ORIENTED_EDGE('',*,*,#848,.T.);
#848 = EDGE_CURVE('',#841,#849,#851,.T.);
#849 = VERTEX_POINT('',#850);
#850 = CARTESIAN_POINT('',(-63.31,0.507429919966,14.968502310012));
#851 = LINE('',#852,#853);
#852 = CARTESIAN_POINT('',(-63.31,2.603036533741,12.62));
#853 = VECTOR('',#854,1.);
#854 = DIRECTION('',(0.,-0.665791149092,0.746138154627));
#855 = ORIENTED_EDGE('',*,*,#856,.F.);
#856 = EDGE_CURVE('',#501,#849,#857,.T.);
#857 = LINE('',#858,#859);
#858 = CARTESIAN_POINT('',(-63.81,0.507429919966,14.968502310012));
#859 = VECTOR('',#860,1.);
#860 = DIRECTION('',(1.,0.,0.));
#861 = ORIENTED_EDGE('',*,*,#498,.F.);
#862 = PLANE('',#863);
#863 = AXIS2_PLACEMENT_3D('',#864,#865,#866);
#864 = CARTESIAN_POINT('',(-63.81,2.603036533741,12.62));
#865 = DIRECTION('',(0.,-0.746138154627,-0.665791149092));
#866 = DIRECTION('',(0.,-0.665791149092,0.746138154627));
#867 = ADVANCED_FACE('',(#868),#886,.T.);
#868 = FACE_BOUND('',#869,.T.);
#869 = EDGE_LOOP('',(#870,#871,#879,#885));
#870 = ORIENTED_EDGE('',*,*,#856,.T.);
#871 = ORIENTED_EDGE('',*,*,#872,.T.);
#872 = EDGE_CURVE('',#849,#873,#875,.T.);
#873 = VERTEX_POINT('',#874);
#874 = CARTESIAN_POINT('',(-63.31,-1.596449731806,12.62));
#875 = LINE('',#876,#877);
#876 = CARTESIAN_POINT('',(-63.31,0.507429919966,14.968502310012));
#877 = VECTOR('',#878,1.);
#878 = DIRECTION('',(0.,-0.667250608762,-0.744833286787));
#879 = ORIENTED_EDGE('',*,*,#880,.F.);
#880 = EDGE_CURVE('',#509,#873,#881,.T.);
#881 = LINE('',#882,#883);
#882 = CARTESIAN_POINT('',(-63.81,-1.596449731806,12.62));
#883 = VECTOR('',#884,1.);
#884 = DIRECTION('',(1.,0.,0.));
#885 = ORIENTED_EDGE('',*,*,#516,.F.);
#886 = PLANE('',#887);
#887 = AXIS2_PLACEMENT_3D('',#888,#889,#890);
#888 = CARTESIAN_POINT('',(-63.81,0.507429919966,14.968502310012));
#889 = DIRECTION('',(0.,0.744833286787,-0.667250608762));
#890 = DIRECTION('',(0.,-0.667250608762,-0.744833286787));
#891 = ADVANCED_FACE('',(#892),#903,.T.);
#892 = FACE_BOUND('',#893,.T.);
#893 = EDGE_LOOP('',(#894,#895,#901,#902));
#894 = ORIENTED_EDGE('',*,*,#880,.T.);
#895 = ORIENTED_EDGE('',*,*,#896,.T.);
#896 = EDGE_CURVE('',#873,#841,#897,.T.);
#897 = LINE('',#898,#899);
#898 = CARTESIAN_POINT('',(-63.31,-1.596449731806,12.62));
#899 = VECTOR('',#900,1.);
#900 = DIRECTION('',(0.,1.,0.));
#901 = ORIENTED_EDGE('',*,*,#840,.F.);
#902 = ORIENTED_EDGE('',*,*,#508,.F.);
#903 = PLANE('',#904);
#904 = AXIS2_PLACEMENT_3D('',#905,#906,#907);
#905 = CARTESIAN_POINT('',(-63.81,-1.596449731806,12.62));
#906 = DIRECTION('',(0.,0.,1.));
#907 = DIRECTION('',(0.,1.,0.));
#908 = ADVANCED_FACE('',(#909),#915,.F.);
#909 = FACE_BOUND('',#910,.F.);
#910 = EDGE_LOOP('',(#911,#912,#913,#914));
#911 = ORIENTED_EDGE('',*,*,#635,.T.);
#912 = ORIENTED_EDGE('',*,*,#739,.T.);
#913 = ORIENTED_EDGE('',*,*,#722,.T.);
#914 = ORIENTED_EDGE('',*,*,#698,.T.);
#915 = PLANE('',#916);
#916 = AXIS2_PLACEMENT_3D('',#917,#918,#919);
#917 = CARTESIAN_POINT('',(-60.76,0.745417761282,7.392693658134));
#918 = DIRECTION('',(1.,0.,0.));
#919 = DIRECTION('',(0.,0.,1.));
#920 = ADVANCED_FACE('',(#921),#924,.T.);
#921 = FACE_BOUND('',#922,.T.);
#922 = EDGE_LOOP('',(#923));
#923 = ORIENTED_EDGE('',*,*,#763,.T.);
#924 = PLANE('',#925);
#925 = AXIS2_PLACEMENT_3D('',#926,#927,#928);
#926 = CARTESIAN_POINT('',(-61.86,0.506279785904,7.49));
#927 = DIRECTION('',(1.,0.,0.));
#928 = DIRECTION('',(0.,0.,1.));
#929 = ADVANCED_FACE('',(#930),#935,.F.);
#930 = FACE_BOUND('',#931,.F.);
#931 = EDGE_LOOP('',(#932,#933,#934));
#932 = ORIENTED_EDGE('',*,*,#848,.T.);
#933 = ORIENTED_EDGE('',*,*,#872,.T.);
#934 = ORIENTED_EDGE('',*,*,#896,.T.);
#935 = PLANE('',#936);
#936 = AXIS2_PLACEMENT_3D('',#937,#938,#939);
#937 = CARTESIAN_POINT('',(-63.31,0.968029963224,7.457501439418));
#938 = DIRECTION('',(1.,0.,0.));
#939 = DIRECTION('',(0.,0.,1.));
#940 = ( GEOMETRIC_REPRESENTATION_CONTEXT(3) 
GLOBAL_UNCERTAINTY_ASSIGNED_CONTEXT((#944)) GLOBAL_UNIT_ASSIGNED_CONTEXT
((#941,#942,#943)) REPRESENTATION_CONTEXT('Context #1',
  '3D Context with UNIT and UNCERTAINTY') );
#941 = ( LENGTH_UNIT() NAMED_UNIT(*) SI_UNIT(.MILLI.,.METRE.) );
#942 = ( NAMED_UNIT(*) PLANE_ANGLE_UNIT() SI_UNIT($,.RADIAN.) );
#943 = ( NAMED_UNIT(*) SI_UNIT($,.STERADIAN.) SOLID_ANGLE_UNIT() );
#944 = UNCERTAINTY_MEASURE_WITH_UNIT(LENGTH_MEASURE(1.E-07),#941,
  'distance_accuracy_value','confusion accuracy');
#945 = PRODUCT_RELATED_PRODUCT_CATEGORY('part',$,(#7));
#946 = MECHANICAL_DESIGN_GEOMETRIC_PRESENTATION_REPRESENTATION('',(#947)
  ,#940);
#947 = STYLED_ITEM('color',(#948),#15);
#948 = PRESENTATION_STYLE_ASSIGNMENT((#949,#955));
#949 = SURFACE_STYLE_USAGE(.BOTH.,#950);
#950 = SURFACE_SIDE_STYLE('',(#951));
#951 = SURFACE_STYLE_FILL_AREA(#952);
#952 = FILL_AREA_STYLE('',(#953));
#953 = FILL_AREA_STYLE_COLOUR('',#954);
#954 = COLOUR_RGB('',0.800000010877,0.800000010877,0.800000010877);
#955 = CURVE_STYLE('',#956,POSITIVE_LENGTH_MEASURE(0.1),#957);
#956 = DRAUGHTING_PRE_DEFINED_CURVE_FONT('continuous');
#957 = COLOUR_RGB('',9.803921802644E-02,9.803921802644E-02,
  9.803921802644E-02);
ENDSEC;
END-ISO-10303-21;
