ISO-10303-21;
HEADER;
FILE_DESCRIPTION(('FreeCAD Model'),'2;1');
FILE_NAME('Open CASCADE Shape Model','2025-10-06T22:19:37',(''),(''),
  'Open CASCADE STEP processor 7.8','FreeCAD','Unknown');
FILE_SCHEMA(('AUTOMOTIVE_DESIGN { 1 0 10303 214 1 1 1 1 }'));
ENDSEC;
DATA;
#1 = APPLICATION_PROTOCOL_DEFINITION('international standard',
  'automotive_design',2000,#2);
#2 = APPLICATION_CONTEXT(
  'core data for automotive mechanical design processes');
#3 = SHAPE_DEFINITION_REPRESENTATION(#4,#10);
#4 = PRODUCT_DEFINITION_SHAPE('','',#5);
#5 = PRODUCT_DEFINITION('design','',#6,#9);
#6 = PRODUCT_DEFINITION_FORMATION('','',#7);
#7 = PRODUCT('CancelButton','CancelButton','',(#8));
#8 = PRODUCT_CONTEXT('',#2,'mechanical');
#9 = PRODUCT_DEFINITION_CONTEXT('part definition',#2,'design');
#10 = ADVANCED_BREP_SHAPE_REPRESENTATION('',(#11,#15),#956);
#11 = AXIS2_PLACEMENT_3D('',#12,#13,#14);
#12 = CARTESIAN_POINT('',(0.,0.,0.));
#13 = DIRECTION('',(0.,0.,1.));
#14 = DIRECTION('',(1.,0.,-0.));
#15 = MANIFOLD_SOLID_BREP('',#16);
#16 = CLOSED_SHELL('',(#17,#132,#158,#189,#213,#237,#261,#285,#309,#333,
    #357,#381,#405,#429,#446,#581,#601,#633,#657,#739,#756,#780,#804,
    #828,#845,#869,#886,#898,#910,#922,#947));
#17 = ADVANCED_FACE('',(#18,#29),#127,.F.);
#18 = FACE_BOUND('',#19,.F.);
#19 = EDGE_LOOP('',(#20));
#20 = ORIENTED_EDGE('',*,*,#21,.F.);
#21 = EDGE_CURVE('',#22,#22,#24,.T.);
#22 = VERTEX_POINT('',#23);
#23 = CARTESIAN_POINT('',(-63.81,4.16,7.49));
#24 = CIRCLE('',#25,2.85);
#25 = AXIS2_PLACEMENT_3D('',#26,#27,#28);
#26 = CARTESIAN_POINT('',(-63.81,7.01,7.49));
#27 = DIRECTION('',(-1.,0.,0.));
#28 = DIRECTION('',(0.,-1.,0.));
#29 = FACE_BOUND('',#30,.F.);
#30 = EDGE_LOOP('',(#31,#41,#49,#57,#65,#73,#81,#89,#97,#105,#113,#121)
  );
#31 = ORIENTED_EDGE('',*,*,#32,.F.);
#32 = EDGE_CURVE('',#33,#35,#37,.T.);
#33 = VERTEX_POINT('',#34);
#34 = CARTESIAN_POINT('',(-63.81,8.656446609407,8.42933982822));
#35 = VERTEX_POINT('',#36);
#36 = CARTESIAN_POINT('',(-63.81,7.94933982822,9.136446609407));
#37 = LINE('',#38,#39);
#38 = CARTESIAN_POINT('',(-63.81,8.656446609407,8.42933982822));
#39 = VECTOR('',#40,1.);
#40 = DIRECTION('',(0.,-0.707106781187,0.707106781187));
#41 = ORIENTED_EDGE('',*,*,#42,.T.);
#42 = EDGE_CURVE('',#33,#43,#45,.T.);
#43 = VERTEX_POINT('',#44);
#44 = CARTESIAN_POINT('',(-63.81,7.717106781187,7.49));
#45 = LINE('',#46,#47);
#46 = CARTESIAN_POINT('',(-63.81,8.656446609407,8.42933982822));
#47 = VECTOR('',#48,1.);
#48 = DIRECTION('',(0.,-0.707106781187,-0.707106781187));
#49 = ORIENTED_EDGE('',*,*,#50,.T.);
#50 = EDGE_CURVE('',#43,#51,#53,.T.);
#51 = VERTEX_POINT('',#52);
#52 = CARTESIAN_POINT('',(-63.81,8.656446609407,6.55066017178));
#53 = LINE('',#54,#55);
#54 = CARTESIAN_POINT('',(-63.81,7.717106781187,7.49));
#55 = VECTOR('',#56,1.);
#56 = DIRECTION('',(-0.,0.707106781187,-0.707106781187));
#57 = ORIENTED_EDGE('',*,*,#58,.F.);
#58 = EDGE_CURVE('',#59,#51,#61,.T.);
#59 = VERTEX_POINT('',#60);
#60 = CARTESIAN_POINT('',(-63.81,7.94933982822,5.843553390593));
#61 = LINE('',#62,#63);
#62 = CARTESIAN_POINT('',(-63.81,7.94933982822,5.843553390593));
#63 = VECTOR('',#64,1.);
#64 = DIRECTION('',(0.,0.707106781187,0.707106781187));
#65 = ORIENTED_EDGE('',*,*,#66,.F.);
#66 = EDGE_CURVE('',#67,#59,#69,.T.);
#67 = VERTEX_POINT('',#68);
#68 = CARTESIAN_POINT('',(-63.81,7.01,6.782893218813));
#69 = LINE('',#70,#71);
#70 = CARTESIAN_POINT('',(-63.81,7.01,6.782893218813));
#71 = VECTOR('',#72,1.);
#72 = DIRECTION('',(-0.,0.707106781187,-0.707106781187));
#73 = ORIENTED_EDGE('',*,*,#74,.T.);
#74 = EDGE_CURVE('',#67,#75,#77,.T.);
#75 = VERTEX_POINT('',#76);
#76 = CARTESIAN_POINT('',(-63.81,6.07066017178,5.843553390593));
#77 = LINE('',#78,#79);
#78 = CARTESIAN_POINT('',(-63.81,7.01,6.782893218813));
#79 = VECTOR('',#80,1.);
#80 = DIRECTION('',(0.,-0.707106781187,-0.707106781187));
#81 = ORIENTED_EDGE('',*,*,#82,.F.);
#82 = EDGE_CURVE('',#83,#75,#85,.T.);
#83 = VERTEX_POINT('',#84);
#84 = CARTESIAN_POINT('',(-63.81,5.363553390593,6.55066017178));
#85 = LINE('',#86,#87);
#86 = CARTESIAN_POINT('',(-63.81,5.363553390593,6.55066017178));
#87 = VECTOR('',#88,1.);
#88 = DIRECTION('',(-0.,0.707106781187,-0.707106781187));
#89 = ORIENTED_EDGE('',*,*,#90,.F.);
#90 = EDGE_CURVE('',#91,#83,#93,.T.);
#91 = VERTEX_POINT('',#92);
#92 = CARTESIAN_POINT('',(-63.81,6.302893218813,7.49));
#93 = LINE('',#94,#95);
#94 = CARTESIAN_POINT('',(-63.81,6.302893218813,7.49));
#95 = VECTOR('',#96,1.);
#96 = DIRECTION('',(0.,-0.707106781187,-0.707106781187));
#97 = ORIENTED_EDGE('',*,*,#98,.F.);
#98 = EDGE_CURVE('',#99,#91,#101,.T.);
#99 = VERTEX_POINT('',#100);
#100 = CARTESIAN_POINT('',(-63.81,5.363553390593,8.42933982822));
#101 = LINE('',#102,#103);
#102 = CARTESIAN_POINT('',(-63.81,5.363553390593,8.42933982822));
#103 = VECTOR('',#104,1.);
#104 = DIRECTION('',(-0.,0.707106781187,-0.707106781187));
#105 = ORIENTED_EDGE('',*,*,#106,.F.);
#106 = EDGE_CURVE('',#107,#99,#109,.T.);
#107 = VERTEX_POINT('',#108);
#108 = CARTESIAN_POINT('',(-63.81,6.07066017178,9.136446609407));
#109 = LINE('',#110,#111);
#110 = CARTESIAN_POINT('',(-63.81,6.07066017178,9.136446609407));
#111 = VECTOR('',#112,1.);
#112 = DIRECTION('',(0.,-0.707106781187,-0.707106781187));
#113 = ORIENTED_EDGE('',*,*,#114,.T.);
#114 = EDGE_CURVE('',#107,#115,#117,.T.);
#115 = VERTEX_POINT('',#116);
#116 = CARTESIAN_POINT('',(-63.81,7.01,8.197106781187));
#117 = LINE('',#118,#119);
#118 = CARTESIAN_POINT('',(-63.81,6.07066017178,9.136446609407));
#119 = VECTOR('',#120,1.);
#120 = DIRECTION('',(-0.,0.707106781187,-0.707106781187));
#121 = ORIENTED_EDGE('',*,*,#122,.F.);
#122 = EDGE_CURVE('',#35,#115,#123,.T.);
#123 = LINE('',#124,#125);
#124 = CARTESIAN_POINT('',(-63.81,7.94933982822,9.136446609407));
#125 = VECTOR('',#126,1.);
#126 = DIRECTION('',(0.,-0.707106781187,-0.707106781187));
#127 = PLANE('',#128);
#128 = AXIS2_PLACEMENT_3D('',#129,#130,#131);
#129 = CARTESIAN_POINT('',(-63.81,0.508200977895,7.494960587506));
#130 = DIRECTION('',(1.,0.,0.));
#131 = DIRECTION('',(0.,0.,1.));
#132 = ADVANCED_FACE('',(#133),#153,.T.);
#133 = FACE_BOUND('',#134,.F.);
#134 = EDGE_LOOP('',(#135,#144,#145,#146));
#135 = ORIENTED_EDGE('',*,*,#136,.F.);
#136 = EDGE_CURVE('',#22,#137,#139,.T.);
#137 = VERTEX_POINT('',#138);
#138 = CARTESIAN_POINT('',(-63.31,3.66,7.49));
#139 = CIRCLE('',#140,0.5);
#140 = AXIS2_PLACEMENT_3D('',#141,#142,#143);
#141 = CARTESIAN_POINT('',(-63.31,4.16,7.49));
#142 = DIRECTION('',(-0.,0.,1.));
#143 = DIRECTION('',(0.,-1.,0.));
#144 = ORIENTED_EDGE('',*,*,#21,.F.);
#145 = ORIENTED_EDGE('',*,*,#136,.T.);
#146 = ORIENTED_EDGE('',*,*,#147,.T.);
#147 = EDGE_CURVE('',#137,#137,#148,.T.);
#148 = CIRCLE('',#149,3.35);
#149 = AXIS2_PLACEMENT_3D('',#150,#151,#152);
#150 = CARTESIAN_POINT('',(-63.31,7.01,7.49));
#151 = DIRECTION('',(-1.,0.,0.));
#152 = DIRECTION('',(0.,-1.,0.));
#153 = TOROIDAL_SURFACE('',#154,2.85,0.5);
#154 = AXIS2_PLACEMENT_3D('',#155,#156,#157);
#155 = CARTESIAN_POINT('',(-63.31,7.01,7.49));
#156 = DIRECTION('',(1.,0.,0.));
#157 = DIRECTION('',(0.,-1.,0.));
#158 = ADVANCED_FACE('',(#159),#184,.T.);
#159 = FACE_BOUND('',#160,.T.);
#160 = EDGE_LOOP('',(#161,#169,#177,#183));
#161 = ORIENTED_EDGE('',*,*,#162,.T.);
#162 = EDGE_CURVE('',#33,#163,#165,.T.);
#163 = VERTEX_POINT('',#164);
#164 = CARTESIAN_POINT('',(-63.31,8.656446609407,8.42933982822));
#165 = LINE('',#166,#167);
#166 = CARTESIAN_POINT('',(-63.81,8.656446609407,8.42933982822));
#167 = VECTOR('',#168,1.);
#168 = DIRECTION('',(1.,0.,0.));
#169 = ORIENTED_EDGE('',*,*,#170,.T.);
#170 = EDGE_CURVE('',#163,#171,#173,.T.);
#171 = VERTEX_POINT('',#172);
#172 = CARTESIAN_POINT('',(-63.31,7.94933982822,9.136446609407));
#173 = LINE('',#174,#175);
#174 = CARTESIAN_POINT('',(-63.31,8.656446609407,8.42933982822));
#175 = VECTOR('',#176,1.);
#176 = DIRECTION('',(0.,-0.707106781187,0.707106781187));
#177 = ORIENTED_EDGE('',*,*,#178,.F.);
#178 = EDGE_CURVE('',#35,#171,#179,.T.);
#179 = LINE('',#180,#181);
#180 = CARTESIAN_POINT('',(-63.81,7.94933982822,9.136446609407));
#181 = VECTOR('',#182,1.);
#182 = DIRECTION('',(1.,0.,0.));
#183 = ORIENTED_EDGE('',*,*,#32,.F.);
#184 = PLANE('',#185);
#185 = AXIS2_PLACEMENT_3D('',#186,#187,#188);
#186 = CARTESIAN_POINT('',(-63.81,8.656446609407,8.42933982822));
#187 = DIRECTION('',(0.,-0.707106781187,-0.707106781187));
#188 = DIRECTION('',(0.,-0.707106781187,0.707106781187));
#189 = ADVANCED_FACE('',(#190),#208,.T.);
#190 = FACE_BOUND('',#191,.T.);
#191 = EDGE_LOOP('',(#192,#193,#201,#207));
#192 = ORIENTED_EDGE('',*,*,#178,.T.);
#193 = ORIENTED_EDGE('',*,*,#194,.T.);
#194 = EDGE_CURVE('',#171,#195,#197,.T.);
#195 = VERTEX_POINT('',#196);
#196 = CARTESIAN_POINT('',(-63.31,7.01,8.197106781187));
#197 = LINE('',#198,#199);
#198 = CARTESIAN_POINT('',(-63.31,7.94933982822,9.136446609407));
#199 = VECTOR('',#200,1.);
#200 = DIRECTION('',(0.,-0.707106781187,-0.707106781187));
#201 = ORIENTED_EDGE('',*,*,#202,.F.);
#202 = EDGE_CURVE('',#115,#195,#203,.T.);
#203 = LINE('',#204,#205);
#204 = CARTESIAN_POINT('',(-63.81,7.01,8.197106781187));
#205 = VECTOR('',#206,1.);
#206 = DIRECTION('',(1.,0.,0.));
#207 = ORIENTED_EDGE('',*,*,#122,.F.);
#208 = PLANE('',#209);
#209 = AXIS2_PLACEMENT_3D('',#210,#211,#212);
#210 = CARTESIAN_POINT('',(-63.81,7.94933982822,9.136446609407));
#211 = DIRECTION('',(0.,0.707106781187,-0.707106781187));
#212 = DIRECTION('',(0.,-0.707106781187,-0.707106781187));
#213 = ADVANCED_FACE('',(#214),#232,.F.);
#214 = FACE_BOUND('',#215,.F.);
#215 = EDGE_LOOP('',(#216,#224,#230,#231));
#216 = ORIENTED_EDGE('',*,*,#217,.T.);
#217 = EDGE_CURVE('',#107,#218,#220,.T.);
#218 = VERTEX_POINT('',#219);
#219 = CARTESIAN_POINT('',(-63.31,6.07066017178,9.136446609407));
#220 = LINE('',#221,#222);
#221 = CARTESIAN_POINT('',(-63.81,6.07066017178,9.136446609407));
#222 = VECTOR('',#223,1.);
#223 = DIRECTION('',(1.,0.,0.));
#224 = ORIENTED_EDGE('',*,*,#225,.T.);
#225 = EDGE_CURVE('',#218,#195,#226,.T.);
#226 = LINE('',#227,#228);
#227 = CARTESIAN_POINT('',(-63.31,6.07066017178,9.136446609407));
#228 = VECTOR('',#229,1.);
#229 = DIRECTION('',(-0.,0.707106781187,-0.707106781187));
#230 = ORIENTED_EDGE('',*,*,#202,.F.);
#231 = ORIENTED_EDGE('',*,*,#114,.F.);
#232 = PLANE('',#233);
#233 = AXIS2_PLACEMENT_3D('',#234,#235,#236);
#234 = CARTESIAN_POINT('',(-63.81,6.07066017178,9.136446609407));
#235 = DIRECTION('',(0.,0.707106781187,0.707106781187));
#236 = DIRECTION('',(0.,0.707106781187,-0.707106781187));
#237 = ADVANCED_FACE('',(#238),#256,.T.);
#238 = FACE_BOUND('',#239,.T.);
#239 = EDGE_LOOP('',(#240,#241,#249,#255));
#240 = ORIENTED_EDGE('',*,*,#217,.T.);
#241 = ORIENTED_EDGE('',*,*,#242,.T.);
#242 = EDGE_CURVE('',#218,#243,#245,.T.);
#243 = VERTEX_POINT('',#244);
#244 = CARTESIAN_POINT('',(-63.31,5.363553390593,8.42933982822));
#245 = LINE('',#246,#247);
#246 = CARTESIAN_POINT('',(-63.31,6.07066017178,9.136446609407));
#247 = VECTOR('',#248,1.);
#248 = DIRECTION('',(0.,-0.707106781187,-0.707106781187));
#249 = ORIENTED_EDGE('',*,*,#250,.F.);
#250 = EDGE_CURVE('',#99,#243,#251,.T.);
#251 = LINE('',#252,#253);
#252 = CARTESIAN_POINT('',(-63.81,5.363553390593,8.42933982822));
#253 = VECTOR('',#254,1.);
#254 = DIRECTION('',(1.,0.,0.));
#255 = ORIENTED_EDGE('',*,*,#106,.F.);
#256 = PLANE('',#257);
#257 = AXIS2_PLACEMENT_3D('',#258,#259,#260);
#258 = CARTESIAN_POINT('',(-63.81,6.07066017178,9.136446609407));
#259 = DIRECTION('',(0.,0.707106781187,-0.707106781187));
#260 = DIRECTION('',(0.,-0.707106781187,-0.707106781187));
#261 = ADVANCED_FACE('',(#262),#280,.T.);
#262 = FACE_BOUND('',#263,.T.);
#263 = EDGE_LOOP('',(#264,#265,#273,#279));
#264 = ORIENTED_EDGE('',*,*,#250,.T.);
#265 = ORIENTED_EDGE('',*,*,#266,.T.);
#266 = EDGE_CURVE('',#243,#267,#269,.T.);
#267 = VERTEX_POINT('',#268);
#268 = CARTESIAN_POINT('',(-63.31,6.302893218813,7.49));
#269 = LINE('',#270,#271);
#270 = CARTESIAN_POINT('',(-63.31,5.363553390593,8.42933982822));
#271 = VECTOR('',#272,1.);
#272 = DIRECTION('',(-0.,0.707106781187,-0.707106781187));
#273 = ORIENTED_EDGE('',*,*,#274,.F.);
#274 = EDGE_CURVE('',#91,#267,#275,.T.);
#275 = LINE('',#276,#277);
#276 = CARTESIAN_POINT('',(-63.81,6.302893218813,7.49));
#277 = VECTOR('',#278,1.);
#278 = DIRECTION('',(1.,0.,0.));
#279 = ORIENTED_EDGE('',*,*,#98,.F.);
#280 = PLANE('',#281);
#281 = AXIS2_PLACEMENT_3D('',#282,#283,#284);
#282 = CARTESIAN_POINT('',(-63.81,5.363553390593,8.42933982822));
#283 = DIRECTION('',(0.,0.707106781187,0.707106781187));
#284 = DIRECTION('',(0.,0.707106781187,-0.707106781187));
#285 = ADVANCED_FACE('',(#286),#304,.T.);
#286 = FACE_BOUND('',#287,.T.);
#287 = EDGE_LOOP('',(#288,#289,#297,#303));
#288 = ORIENTED_EDGE('',*,*,#274,.T.);
#289 = ORIENTED_EDGE('',*,*,#290,.T.);
#290 = EDGE_CURVE('',#267,#291,#293,.T.);
#291 = VERTEX_POINT('',#292);
#292 = CARTESIAN_POINT('',(-63.31,5.363553390593,6.55066017178));
#293 = LINE('',#294,#295);
#294 = CARTESIAN_POINT('',(-63.31,6.302893218813,7.49));
#295 = VECTOR('',#296,1.);
#296 = DIRECTION('',(0.,-0.707106781187,-0.707106781187));
#297 = ORIENTED_EDGE('',*,*,#298,.F.);
#298 = EDGE_CURVE('',#83,#291,#299,.T.);
#299 = LINE('',#300,#301);
#300 = CARTESIAN_POINT('',(-63.81,5.363553390593,6.55066017178));
#301 = VECTOR('',#302,1.);
#302 = DIRECTION('',(1.,0.,0.));
#303 = ORIENTED_EDGE('',*,*,#90,.F.);
#304 = PLANE('',#305);
#305 = AXIS2_PLACEMENT_3D('',#306,#307,#308);
#306 = CARTESIAN_POINT('',(-63.81,6.302893218813,7.49));
#307 = DIRECTION('',(0.,0.707106781187,-0.707106781187));
#308 = DIRECTION('',(0.,-0.707106781187,-0.707106781187));
#309 = ADVANCED_FACE('',(#310),#328,.T.);
#310 = FACE_BOUND('',#311,.T.);
#311 = EDGE_LOOP('',(#312,#313,#321,#327));
#312 = ORIENTED_EDGE('',*,*,#298,.T.);
#313 = ORIENTED_EDGE('',*,*,#314,.T.);
#314 = EDGE_CURVE('',#291,#315,#317,.T.);
#315 = VERTEX_POINT('',#316);
#316 = CARTESIAN_POINT('',(-63.31,6.07066017178,5.843553390593));
#317 = LINE('',#318,#319);
#318 = CARTESIAN_POINT('',(-63.31,5.363553390593,6.55066017178));
#319 = VECTOR('',#320,1.);
#320 = DIRECTION('',(-0.,0.707106781187,-0.707106781187));
#321 = ORIENTED_EDGE('',*,*,#322,.F.);
#322 = EDGE_CURVE('',#75,#315,#323,.T.);
#323 = LINE('',#324,#325);
#324 = CARTESIAN_POINT('',(-63.81,6.07066017178,5.843553390593));
#325 = VECTOR('',#326,1.);
#326 = DIRECTION('',(1.,0.,0.));
#327 = ORIENTED_EDGE('',*,*,#82,.F.);
#328 = PLANE('',#329);
#329 = AXIS2_PLACEMENT_3D('',#330,#331,#332);
#330 = CARTESIAN_POINT('',(-63.81,5.363553390593,6.55066017178));
#331 = DIRECTION('',(0.,0.707106781187,0.707106781187));
#332 = DIRECTION('',(0.,0.707106781187,-0.707106781187));
#333 = ADVANCED_FACE('',(#334),#352,.F.);
#334 = FACE_BOUND('',#335,.F.);
#335 = EDGE_LOOP('',(#336,#344,#350,#351));
#336 = ORIENTED_EDGE('',*,*,#337,.T.);
#337 = EDGE_CURVE('',#67,#338,#340,.T.);
#338 = VERTEX_POINT('',#339);
#339 = CARTESIAN_POINT('',(-63.31,7.01,6.782893218813));
#340 = LINE('',#341,#342);
#341 = CARTESIAN_POINT('',(-63.81,7.01,6.782893218813));
#342 = VECTOR('',#343,1.);
#343 = DIRECTION('',(1.,0.,0.));
#344 = ORIENTED_EDGE('',*,*,#345,.T.);
#345 = EDGE_CURVE('',#338,#315,#346,.T.);
#346 = LINE('',#347,#348);
#347 = CARTESIAN_POINT('',(-63.31,7.01,6.782893218813));
#348 = VECTOR('',#349,1.);
#349 = DIRECTION('',(0.,-0.707106781187,-0.707106781187));
#350 = ORIENTED_EDGE('',*,*,#322,.F.);
#351 = ORIENTED_EDGE('',*,*,#74,.F.);
#352 = PLANE('',#353);
#353 = AXIS2_PLACEMENT_3D('',#354,#355,#356);
#354 = CARTESIAN_POINT('',(-63.81,7.01,6.782893218813));
#355 = DIRECTION('',(0.,0.707106781187,-0.707106781187));
#356 = DIRECTION('',(0.,-0.707106781187,-0.707106781187));
#357 = ADVANCED_FACE('',(#358),#376,.T.);
#358 = FACE_BOUND('',#359,.T.);
#359 = EDGE_LOOP('',(#360,#361,#369,#375));
#360 = ORIENTED_EDGE('',*,*,#337,.T.);
#361 = ORIENTED_EDGE('',*,*,#362,.T.);
#362 = EDGE_CURVE('',#338,#363,#365,.T.);
#363 = VERTEX_POINT('',#364);
#364 = CARTESIAN_POINT('',(-63.31,7.94933982822,5.843553390593));
#365 = LINE('',#366,#367);
#366 = CARTESIAN_POINT('',(-63.31,7.01,6.782893218813));
#367 = VECTOR('',#368,1.);
#368 = DIRECTION('',(-0.,0.707106781187,-0.707106781187));
#369 = ORIENTED_EDGE('',*,*,#370,.F.);
#370 = EDGE_CURVE('',#59,#363,#371,.T.);
#371 = LINE('',#372,#373);
#372 = CARTESIAN_POINT('',(-63.81,7.94933982822,5.843553390593));
#373 = VECTOR('',#374,1.);
#374 = DIRECTION('',(1.,0.,0.));
#375 = ORIENTED_EDGE('',*,*,#66,.F.);
#376 = PLANE('',#377);
#377 = AXIS2_PLACEMENT_3D('',#378,#379,#380);
#378 = CARTESIAN_POINT('',(-63.81,7.01,6.782893218813));
#379 = DIRECTION('',(0.,0.707106781187,0.707106781187));
#380 = DIRECTION('',(0.,0.707106781187,-0.707106781187));
#381 = ADVANCED_FACE('',(#382),#400,.T.);
#382 = FACE_BOUND('',#383,.T.);
#383 = EDGE_LOOP('',(#384,#385,#393,#399));
#384 = ORIENTED_EDGE('',*,*,#370,.T.);
#385 = ORIENTED_EDGE('',*,*,#386,.T.);
#386 = EDGE_CURVE('',#363,#387,#389,.T.);
#387 = VERTEX_POINT('',#388);
#388 = CARTESIAN_POINT('',(-63.31,8.656446609407,6.55066017178));
#389 = LINE('',#390,#391);
#390 = CARTESIAN_POINT('',(-63.31,7.94933982822,5.843553390593));
#391 = VECTOR('',#392,1.);
#392 = DIRECTION('',(0.,0.707106781187,0.707106781187));
#393 = ORIENTED_EDGE('',*,*,#394,.F.);
#394 = EDGE_CURVE('',#51,#387,#395,.T.);
#395 = LINE('',#396,#397);
#396 = CARTESIAN_POINT('',(-63.81,8.656446609407,6.55066017178));
#397 = VECTOR('',#398,1.);
#398 = DIRECTION('',(1.,0.,0.));
#399 = ORIENTED_EDGE('',*,*,#58,.F.);
#400 = PLANE('',#401);
#401 = AXIS2_PLACEMENT_3D('',#402,#403,#404);
#402 = CARTESIAN_POINT('',(-63.81,7.94933982822,5.843553390593));
#403 = DIRECTION('',(0.,-0.707106781187,0.707106781187));
#404 = DIRECTION('',(0.,0.707106781187,0.707106781187));
#405 = ADVANCED_FACE('',(#406),#424,.F.);
#406 = FACE_BOUND('',#407,.F.);
#407 = EDGE_LOOP('',(#408,#416,#422,#423));
#408 = ORIENTED_EDGE('',*,*,#409,.T.);
#409 = EDGE_CURVE('',#43,#410,#412,.T.);
#410 = VERTEX_POINT('',#411);
#411 = CARTESIAN_POINT('',(-63.31,7.717106781187,7.49));
#412 = LINE('',#413,#414);
#413 = CARTESIAN_POINT('',(-63.81,7.717106781187,7.49));
#414 = VECTOR('',#415,1.);
#415 = DIRECTION('',(1.,0.,0.));
#416 = ORIENTED_EDGE('',*,*,#417,.T.);
#417 = EDGE_CURVE('',#410,#387,#418,.T.);
#418 = LINE('',#419,#420);
#419 = CARTESIAN_POINT('',(-63.31,7.717106781187,7.49));
#420 = VECTOR('',#421,1.);
#421 = DIRECTION('',(-0.,0.707106781187,-0.707106781187));
#422 = ORIENTED_EDGE('',*,*,#394,.F.);
#423 = ORIENTED_EDGE('',*,*,#50,.F.);
#424 = PLANE('',#425);
#425 = AXIS2_PLACEMENT_3D('',#426,#427,#428);
#426 = CARTESIAN_POINT('',(-63.81,7.717106781187,7.49));
#427 = DIRECTION('',(0.,0.707106781187,0.707106781187));
#428 = DIRECTION('',(0.,0.707106781187,-0.707106781187));
#429 = ADVANCED_FACE('',(#430),#441,.F.);
#430 = FACE_BOUND('',#431,.F.);
#431 = EDGE_LOOP('',(#432,#433,#439,#440));
#432 = ORIENTED_EDGE('',*,*,#162,.T.);
#433 = ORIENTED_EDGE('',*,*,#434,.T.);
#434 = EDGE_CURVE('',#163,#410,#435,.T.);
#435 = LINE('',#436,#437);
#436 = CARTESIAN_POINT('',(-63.31,8.656446609407,8.42933982822));
#437 = VECTOR('',#438,1.);
#438 = DIRECTION('',(0.,-0.707106781187,-0.707106781187));
#439 = ORIENTED_EDGE('',*,*,#409,.F.);
#440 = ORIENTED_EDGE('',*,*,#42,.F.);
#441 = PLANE('',#442);
#442 = AXIS2_PLACEMENT_3D('',#443,#444,#445);
#443 = CARTESIAN_POINT('',(-63.81,8.656446609407,8.42933982822));
#444 = DIRECTION('',(0.,0.707106781187,-0.707106781187));
#445 = DIRECTION('',(0.,-0.707106781187,-0.707106781187));
#446 = ADVANCED_FACE('',(#447),#576,.T.);
#447 = FACE_BOUND('',#448,.F.);
#448 = EDGE_LOOP('',(#449,#456,#457,#458,#467,#475,#484,#492,#501,#509,
    #518,#527,#535,#544,#552,#561,#569));
#449 = ORIENTED_EDGE('',*,*,#450,.F.);
#450 = EDGE_CURVE('',#137,#451,#453,.T.);
#451 = VERTEX_POINT('',#452);
#452 = CARTESIAN_POINT('',(-60.76,3.66,7.49));
#453 = B_SPLINE_CURVE_WITH_KNOTS('',1,(#454,#455),.UNSPECIFIED.,.F.,.F.,
  (2,2),(-2.,1.75),.PIECEWISE_BEZIER_KNOTS.);
#454 = CARTESIAN_POINT('',(-63.81,3.66,7.49));
#455 = CARTESIAN_POINT('',(-60.06,3.66,7.49));
#456 = ORIENTED_EDGE('',*,*,#147,.T.);
#457 = ORIENTED_EDGE('',*,*,#450,.T.);
#458 = ORIENTED_EDGE('',*,*,#459,.T.);
#459 = EDGE_CURVE('',#451,#460,#462,.T.);
#460 = VERTEX_POINT('',#461);
#461 = CARTESIAN_POINT('',(-60.76,3.745034456537,6.74));
#462 = CIRCLE('',#463,3.35);
#463 = AXIS2_PLACEMENT_3D('',#464,#465,#466);
#464 = CARTESIAN_POINT('',(-60.76,7.01,7.49));
#465 = DIRECTION('',(1.,0.,0.));
#466 = DIRECTION('',(0.,-1.,0.));
#467 = ORIENTED_EDGE('',*,*,#468,.T.);
#468 = EDGE_CURVE('',#460,#469,#471,.T.);
#469 = VERTEX_POINT('',#470);
#470 = CARTESIAN_POINT('',(-60.06,3.745034456537,6.74));
#471 = LINE('',#472,#473);
#472 = CARTESIAN_POINT('',(-61.81,3.745034456537,6.74));
#473 = VECTOR('',#474,1.);
#474 = DIRECTION('',(1.,0.,0.));
#475 = ORIENTED_EDGE('',*,*,#476,.T.);
#476 = EDGE_CURVE('',#469,#477,#479,.T.);
#477 = VERTEX_POINT('',#478);
#478 = CARTESIAN_POINT('',(-60.06,6.26,4.225034456537));
#479 = CIRCLE('',#480,3.35);
#480 = AXIS2_PLACEMENT_3D('',#481,#482,#483);
#481 = CARTESIAN_POINT('',(-60.06,7.01,7.49));
#482 = DIRECTION('',(1.,0.,0.));
#483 = DIRECTION('',(0.,1.,0.));
#484 = ORIENTED_EDGE('',*,*,#485,.F.);
#485 = EDGE_CURVE('',#486,#477,#488,.T.);
#486 = VERTEX_POINT('',#487);
#487 = CARTESIAN_POINT('',(-60.76,6.26,4.225034456537));
#488 = LINE('',#489,#490);
#489 = CARTESIAN_POINT('',(-61.81,6.26,4.225034456537));
#490 = VECTOR('',#491,1.);
#491 = DIRECTION('',(1.,0.,0.));
#492 = ORIENTED_EDGE('',*,*,#493,.T.);
#493 = EDGE_CURVE('',#486,#494,#496,.T.);
#494 = VERTEX_POINT('',#495);
#495 = CARTESIAN_POINT('',(-60.76,7.76,4.225034456537));
#496 = CIRCLE('',#497,3.35);
#497 = AXIS2_PLACEMENT_3D('',#498,#499,#500);
#498 = CARTESIAN_POINT('',(-60.76,7.01,7.49));
#499 = DIRECTION('',(1.,0.,0.));
#500 = DIRECTION('',(0.,-1.,0.));
#501 = ORIENTED_EDGE('',*,*,#502,.T.);
#502 = EDGE_CURVE('',#494,#503,#505,.T.);
#503 = VERTEX_POINT('',#504);
#504 = CARTESIAN_POINT('',(-60.06,7.76,4.225034456537));
#505 = LINE('',#506,#507);
#506 = CARTESIAN_POINT('',(-61.81,7.76,4.225034456537));
#507 = VECTOR('',#508,1.);
#508 = DIRECTION('',(1.,0.,0.));
#509 = ORIENTED_EDGE('',*,*,#510,.T.);
#510 = EDGE_CURVE('',#503,#511,#513,.T.);
#511 = VERTEX_POINT('',#512);
#512 = CARTESIAN_POINT('',(-60.06,10.36,7.49));
#513 = CIRCLE('',#514,3.35);
#514 = AXIS2_PLACEMENT_3D('',#515,#516,#517);
#515 = CARTESIAN_POINT('',(-60.06,7.01,7.49));
#516 = DIRECTION('',(1.,0.,0.));
#517 = DIRECTION('',(0.,1.,0.));
#518 = ORIENTED_EDGE('',*,*,#519,.T.);
#519 = EDGE_CURVE('',#511,#520,#522,.T.);
#520 = VERTEX_POINT('',#521);
#521 = CARTESIAN_POINT('',(-60.06,9.849009362013,9.268349190233));
#522 = CIRCLE('',#523,3.35);
#523 = AXIS2_PLACEMENT_3D('',#524,#525,#526);
#524 = CARTESIAN_POINT('',(-60.06,7.01,7.49));
#525 = DIRECTION('',(1.,0.,0.));
#526 = DIRECTION('',(0.,1.,0.));
#527 = ORIENTED_EDGE('',*,*,#528,.F.);
#528 = EDGE_CURVE('',#529,#520,#531,.T.);
#529 = VERTEX_POINT('',#530);
#530 = CARTESIAN_POINT('',(-60.76,9.849009362013,9.268349190233));
#531 = LINE('',#532,#533);
#532 = CARTESIAN_POINT('',(-61.81,9.849009362013,9.268349190233));
#533 = VECTOR('',#534,1.);
#534 = DIRECTION('',(1.,0.,0.));
#535 = ORIENTED_EDGE('',*,*,#536,.T.);
#536 = EDGE_CURVE('',#529,#537,#539,.T.);
#537 = VERTEX_POINT('',#538);
#538 = CARTESIAN_POINT('',(-60.76,8.788349190233,10.329009362013));
#539 = CIRCLE('',#540,3.35);
#540 = AXIS2_PLACEMENT_3D('',#541,#542,#543);
#541 = CARTESIAN_POINT('',(-60.76,7.01,7.49));
#542 = DIRECTION('',(1.,0.,0.));
#543 = DIRECTION('',(0.,-1.,0.));
#544 = ORIENTED_EDGE('',*,*,#545,.T.);
#545 = EDGE_CURVE('',#537,#546,#548,.T.);
#546 = VERTEX_POINT('',#547);
#547 = CARTESIAN_POINT('',(-60.06,8.788349190233,10.329009362013));
#548 = LINE('',#549,#550);
#549 = CARTESIAN_POINT('',(-61.81,8.788349190233,10.329009362013));
#550 = VECTOR('',#551,1.);
#551 = DIRECTION('',(1.,0.,0.));
#552 = ORIENTED_EDGE('',*,*,#553,.T.);
#553 = EDGE_CURVE('',#546,#554,#556,.T.);
#554 = VERTEX_POINT('',#555);
#555 = CARTESIAN_POINT('',(-60.06,3.745034456537,8.24));
#556 = CIRCLE('',#557,3.35);
#557 = AXIS2_PLACEMENT_3D('',#558,#559,#560);
#558 = CARTESIAN_POINT('',(-60.06,7.01,7.49));
#559 = DIRECTION('',(1.,0.,0.));
#560 = DIRECTION('',(0.,1.,0.));
#561 = ORIENTED_EDGE('',*,*,#562,.F.);
#562 = EDGE_CURVE('',#563,#554,#565,.T.);
#563 = VERTEX_POINT('',#564);
#564 = CARTESIAN_POINT('',(-60.76,3.745034456537,8.24));
#565 = LINE('',#566,#567);
#566 = CARTESIAN_POINT('',(-61.81,3.745034456537,8.24));
#567 = VECTOR('',#568,1.);
#568 = DIRECTION('',(1.,0.,0.));
#569 = ORIENTED_EDGE('',*,*,#570,.T.);
#570 = EDGE_CURVE('',#563,#451,#571,.T.);
#571 = CIRCLE('',#572,3.35);
#572 = AXIS2_PLACEMENT_3D('',#573,#574,#575);
#573 = CARTESIAN_POINT('',(-60.76,7.01,7.49));
#574 = DIRECTION('',(1.,0.,0.));
#575 = DIRECTION('',(0.,-1.,0.));
#576 = CYLINDRICAL_SURFACE('',#577,3.35);
#577 = AXIS2_PLACEMENT_3D('',#578,#579,#580);
#578 = CARTESIAN_POINT('',(-61.81,7.01,7.49));
#579 = DIRECTION('',(1.,0.,0.));
#580 = DIRECTION('',(0.,-1.,0.));
#581 = ADVANCED_FACE('',(#582),#596,.F.);
#582 = FACE_BOUND('',#583,.F.);
#583 = EDGE_LOOP('',(#584,#585,#586,#587,#588,#589,#590,#591,#592,#593,
    #594,#595));
#584 = ORIENTED_EDGE('',*,*,#170,.T.);
#585 = ORIENTED_EDGE('',*,*,#194,.T.);
#586 = ORIENTED_EDGE('',*,*,#225,.F.);
#587 = ORIENTED_EDGE('',*,*,#242,.T.);
#588 = ORIENTED_EDGE('',*,*,#266,.T.);
#589 = ORIENTED_EDGE('',*,*,#290,.T.);
#590 = ORIENTED_EDGE('',*,*,#314,.T.);
#591 = ORIENTED_EDGE('',*,*,#345,.F.);
#592 = ORIENTED_EDGE('',*,*,#362,.T.);
#593 = ORIENTED_EDGE('',*,*,#386,.T.);
#594 = ORIENTED_EDGE('',*,*,#417,.F.);
#595 = ORIENTED_EDGE('',*,*,#434,.F.);
#596 = PLANE('',#597);
#597 = AXIS2_PLACEMENT_3D('',#598,#599,#600);
#598 = CARTESIAN_POINT('',(-63.31,0.968029963224,7.457501439418));
#599 = DIRECTION('',(1.,0.,0.));
#600 = DIRECTION('',(0.,0.,1.));
#601 = ADVANCED_FACE('',(#602),#628,.F.);
#602 = FACE_BOUND('',#603,.F.);
#603 = EDGE_LOOP('',(#604,#612,#620,#626,#627));
#604 = ORIENTED_EDGE('',*,*,#605,.T.);
#605 = EDGE_CURVE('',#563,#606,#608,.T.);
#606 = VERTEX_POINT('',#607);
#607 = CARTESIAN_POINT('',(-60.76,2.43,8.24));
#608 = LINE('',#609,#610);
#609 = CARTESIAN_POINT('',(-60.76,4.43,8.24));
#610 = VECTOR('',#611,1.);
#611 = DIRECTION('',(0.,-1.,0.));
#612 = ORIENTED_EDGE('',*,*,#613,.T.);
#613 = EDGE_CURVE('',#606,#614,#616,.T.);
#614 = VERTEX_POINT('',#615);
#615 = CARTESIAN_POINT('',(-60.76,2.43,6.74));
#616 = LINE('',#617,#618);
#617 = CARTESIAN_POINT('',(-60.76,2.43,8.24));
#618 = VECTOR('',#619,1.);
#619 = DIRECTION('',(0.,0.,-1.));
#620 = ORIENTED_EDGE('',*,*,#621,.T.);
#621 = EDGE_CURVE('',#614,#460,#622,.T.);
#622 = LINE('',#623,#624);
#623 = CARTESIAN_POINT('',(-60.76,2.43,6.74));
#624 = VECTOR('',#625,1.);
#625 = DIRECTION('',(0.,1.,0.));
#626 = ORIENTED_EDGE('',*,*,#459,.F.);
#627 = ORIENTED_EDGE('',*,*,#570,.F.);
#628 = PLANE('',#629);
#629 = AXIS2_PLACEMENT_3D('',#630,#631,#632);
#630 = CARTESIAN_POINT('',(-60.76,0.745417761282,7.392693658134));
#631 = DIRECTION('',(1.,0.,0.));
#632 = DIRECTION('',(0.,0.,1.));
#633 = ADVANCED_FACE('',(#634),#652,.T.);
#634 = FACE_BOUND('',#635,.T.);
#635 = EDGE_LOOP('',(#636,#644,#645,#646));
#636 = ORIENTED_EDGE('',*,*,#637,.F.);
#637 = EDGE_CURVE('',#554,#638,#640,.T.);
#638 = VERTEX_POINT('',#639);
#639 = CARTESIAN_POINT('',(-60.06,2.43,8.24));
#640 = LINE('',#641,#642);
#641 = CARTESIAN_POINT('',(-60.06,4.43,8.24));
#642 = VECTOR('',#643,1.);
#643 = DIRECTION('',(0.,-1.,0.));
#644 = ORIENTED_EDGE('',*,*,#562,.F.);
#645 = ORIENTED_EDGE('',*,*,#605,.T.);
#646 = ORIENTED_EDGE('',*,*,#647,.F.);
#647 = EDGE_CURVE('',#638,#606,#648,.T.);
#648 = LINE('',#649,#650);
#649 = CARTESIAN_POINT('',(-60.06,2.43,8.24));
#650 = VECTOR('',#651,1.);
#651 = DIRECTION('',(-1.,-0.,-0.));
#652 = PLANE('',#653);
#653 = AXIS2_PLACEMENT_3D('',#654,#655,#656);
#654 = CARTESIAN_POINT('',(-60.06,4.43,8.24));
#655 = DIRECTION('',(0.,0.,1.));
#656 = DIRECTION('',(0.,-1.,0.));
#657 = ADVANCED_FACE('',(#658,#723),#734,.T.);
#658 = FACE_BOUND('',#659,.T.);
#659 = EDGE_LOOP('',(#660,#661,#662,#670,#678,#684,#685,#686,#694,#700,
    #701,#709,#717));
#660 = ORIENTED_EDGE('',*,*,#510,.T.);
#661 = ORIENTED_EDGE('',*,*,#519,.T.);
#662 = ORIENTED_EDGE('',*,*,#663,.F.);
#663 = EDGE_CURVE('',#664,#520,#666,.T.);
#664 = VERTEX_POINT('',#665);
#665 = CARTESIAN_POINT('',(-60.06,10.778879143724,10.198218971944));
#666 = LINE('',#667,#668);
#667 = CARTESIAN_POINT('',(-60.06,10.778879143724,10.198218971944));
#668 = VECTOR('',#669,1.);
#669 = DIRECTION('',(0.,-0.707106781187,-0.707106781187));
#670 = ORIENTED_EDGE('',*,*,#671,.F.);
#671 = EDGE_CURVE('',#672,#664,#674,.T.);
#672 = VERTEX_POINT('',#673);
#673 = CARTESIAN_POINT('',(-60.06,9.718218971944,11.258879143724));
#674 = LINE('',#675,#676);
#675 = CARTESIAN_POINT('',(-60.06,9.718218971944,11.258879143724));
#676 = VECTOR('',#677,1.);
#677 = DIRECTION('',(0.,0.707106781187,-0.707106781187));
#678 = ORIENTED_EDGE('',*,*,#679,.F.);
#679 = EDGE_CURVE('',#546,#672,#680,.T.);
#680 = LINE('',#681,#682);
#681 = CARTESIAN_POINT('',(-60.06,8.304005409571,9.844665581351));
#682 = VECTOR('',#683,1.);
#683 = DIRECTION('',(0.,0.707106781187,0.707106781187));
#684 = ORIENTED_EDGE('',*,*,#553,.T.);
#685 = ORIENTED_EDGE('',*,*,#637,.T.);
#686 = ORIENTED_EDGE('',*,*,#687,.T.);
#687 = EDGE_CURVE('',#638,#688,#690,.T.);
#688 = VERTEX_POINT('',#689);
#689 = CARTESIAN_POINT('',(-60.06,2.43,6.74));
#690 = LINE('',#691,#692);
#691 = CARTESIAN_POINT('',(-60.06,2.43,8.24));
#692 = VECTOR('',#693,1.);
#693 = DIRECTION('',(0.,0.,-1.));
#694 = ORIENTED_EDGE('',*,*,#695,.T.);
#695 = EDGE_CURVE('',#688,#469,#696,.T.);
#696 = LINE('',#697,#698);
#697 = CARTESIAN_POINT('',(-60.06,2.43,6.74));
#698 = VECTOR('',#699,1.);
#699 = DIRECTION('',(0.,1.,0.));
#700 = ORIENTED_EDGE('',*,*,#476,.T.);
#701 = ORIENTED_EDGE('',*,*,#702,.T.);
#702 = EDGE_CURVE('',#477,#703,#705,.T.);
#703 = VERTEX_POINT('',#704);
#704 = CARTESIAN_POINT('',(-60.06,6.26,2.91));
#705 = LINE('',#706,#707);
#706 = CARTESIAN_POINT('',(-60.06,6.26,4.91));
#707 = VECTOR('',#708,1.);
#708 = DIRECTION('',(0.,0.,-1.));
#709 = ORIENTED_EDGE('',*,*,#710,.T.);
#710 = EDGE_CURVE('',#703,#711,#713,.T.);
#711 = VERTEX_POINT('',#712);
#712 = CARTESIAN_POINT('',(-60.06,7.76,2.91));
#713 = LINE('',#714,#715);
#714 = CARTESIAN_POINT('',(-60.06,6.26,2.91));
#715 = VECTOR('',#716,1.);
#716 = DIRECTION('',(0.,1.,0.));
#717 = ORIENTED_EDGE('',*,*,#718,.T.);
#718 = EDGE_CURVE('',#711,#503,#719,.T.);
#719 = LINE('',#720,#721);
#720 = CARTESIAN_POINT('',(-60.06,7.76,2.91));
#721 = VECTOR('',#722,1.);
#722 = DIRECTION('',(0.,0.,1.));
#723 = FACE_BOUND('',#724,.T.);
#724 = EDGE_LOOP('',(#725));
#725 = ORIENTED_EDGE('',*,*,#726,.F.);
#726 = EDGE_CURVE('',#727,#727,#729,.T.);
#727 = VERTEX_POINT('',#728);
#728 = CARTESIAN_POINT('',(-60.06,8.135,7.49));
#729 = CIRCLE('',#730,1.125);
#730 = AXIS2_PLACEMENT_3D('',#731,#732,#733);
#731 = CARTESIAN_POINT('',(-60.06,7.01,7.49));
#732 = DIRECTION('',(1.,0.,0.));
#733 = DIRECTION('',(0.,1.,0.));
#734 = PLANE('',#735);
#735 = AXIS2_PLACEMENT_3D('',#736,#737,#738);
#736 = CARTESIAN_POINT('',(-60.06,6.892855584248,7.349060308145));
#737 = DIRECTION('',(1.,0.,0.));
#738 = DIRECTION('',(0.,0.,1.));
#739 = ADVANCED_FACE('',(#740),#751,.T.);
#740 = FACE_BOUND('',#741,.T.);
#741 = EDGE_LOOP('',(#742,#743,#749,#750));
#742 = ORIENTED_EDGE('',*,*,#695,.F.);
#743 = ORIENTED_EDGE('',*,*,#744,.T.);
#744 = EDGE_CURVE('',#688,#614,#745,.T.);
#745 = LINE('',#746,#747);
#746 = CARTESIAN_POINT('',(-60.06,2.43,6.74));
#747 = VECTOR('',#748,1.);
#748 = DIRECTION('',(-1.,-0.,-0.));
#749 = ORIENTED_EDGE('',*,*,#621,.T.);
#750 = ORIENTED_EDGE('',*,*,#468,.T.);
#751 = PLANE('',#752);
#752 = AXIS2_PLACEMENT_3D('',#753,#754,#755);
#753 = CARTESIAN_POINT('',(-60.06,2.43,6.74));
#754 = DIRECTION('',(0.,0.,-1.));
#755 = DIRECTION('',(0.,1.,0.));
#756 = ADVANCED_FACE('',(#757),#775,.F.);
#757 = FACE_BOUND('',#758,.F.);
#758 = EDGE_LOOP('',(#759,#760,#761,#769));
#759 = ORIENTED_EDGE('',*,*,#679,.F.);
#760 = ORIENTED_EDGE('',*,*,#545,.F.);
#761 = ORIENTED_EDGE('',*,*,#762,.T.);
#762 = EDGE_CURVE('',#537,#763,#765,.T.);
#763 = VERTEX_POINT('',#764);
#764 = CARTESIAN_POINT('',(-60.76,9.718218971944,11.258879143724));
#765 = LINE('',#766,#767);
#766 = CARTESIAN_POINT('',(-60.76,8.304005409571,9.844665581351));
#767 = VECTOR('',#768,1.);
#768 = DIRECTION('',(0.,0.707106781187,0.707106781187));
#769 = ORIENTED_EDGE('',*,*,#770,.F.);
#770 = EDGE_CURVE('',#672,#763,#771,.T.);
#771 = LINE('',#772,#773);
#772 = CARTESIAN_POINT('',(-60.06,9.718218971944,11.258879143724));
#773 = VECTOR('',#774,1.);
#774 = DIRECTION('',(-1.,-0.,-0.));
#775 = PLANE('',#776);
#776 = AXIS2_PLACEMENT_3D('',#777,#778,#779);
#777 = CARTESIAN_POINT('',(-60.06,8.304005409571,9.844665581351));
#778 = DIRECTION('',(0.,0.707106781187,-0.707106781187));
#779 = DIRECTION('',(0.,0.707106781187,0.707106781187));
#780 = ADVANCED_FACE('',(#781),#799,.F.);
#781 = FACE_BOUND('',#782,.F.);
#782 = EDGE_LOOP('',(#783,#784,#785,#793));
#783 = ORIENTED_EDGE('',*,*,#762,.F.);
#784 = ORIENTED_EDGE('',*,*,#536,.F.);
#785 = ORIENTED_EDGE('',*,*,#786,.F.);
#786 = EDGE_CURVE('',#787,#529,#789,.T.);
#787 = VERTEX_POINT('',#788);
#788 = CARTESIAN_POINT('',(-60.76,10.778879143724,10.198218971944));
#789 = LINE('',#790,#791);
#790 = CARTESIAN_POINT('',(-60.76,10.778879143724,10.198218971944));
#791 = VECTOR('',#792,1.);
#792 = DIRECTION('',(0.,-0.707106781187,-0.707106781187));
#793 = ORIENTED_EDGE('',*,*,#794,.F.);
#794 = EDGE_CURVE('',#763,#787,#795,.T.);
#795 = LINE('',#796,#797);
#796 = CARTESIAN_POINT('',(-60.76,9.718218971944,11.258879143724));
#797 = VECTOR('',#798,1.);
#798 = DIRECTION('',(0.,0.707106781187,-0.707106781187));
#799 = PLANE('',#800);
#800 = AXIS2_PLACEMENT_3D('',#801,#802,#803);
#801 = CARTESIAN_POINT('',(-60.76,0.745417761282,7.392693658134));
#802 = DIRECTION('',(1.,0.,0.));
#803 = DIRECTION('',(0.,0.,1.));
#804 = ADVANCED_FACE('',(#805),#823,.T.);
#805 = FACE_BOUND('',#806,.T.);
#806 = EDGE_LOOP('',(#807,#808,#809,#817));
#807 = ORIENTED_EDGE('',*,*,#702,.F.);
#808 = ORIENTED_EDGE('',*,*,#485,.F.);
#809 = ORIENTED_EDGE('',*,*,#810,.T.);
#810 = EDGE_CURVE('',#486,#811,#813,.T.);
#811 = VERTEX_POINT('',#812);
#812 = CARTESIAN_POINT('',(-60.76,6.26,2.91));
#813 = LINE('',#814,#815);
#814 = CARTESIAN_POINT('',(-60.76,6.26,4.91));
#815 = VECTOR('',#816,1.);
#816 = DIRECTION('',(0.,0.,-1.));
#817 = ORIENTED_EDGE('',*,*,#818,.F.);
#818 = EDGE_CURVE('',#703,#811,#819,.T.);
#819 = LINE('',#820,#821);
#820 = CARTESIAN_POINT('',(-60.06,6.26,2.91));
#821 = VECTOR('',#822,1.);
#822 = DIRECTION('',(-1.,-0.,-0.));
#823 = PLANE('',#824);
#824 = AXIS2_PLACEMENT_3D('',#825,#826,#827);
#825 = CARTESIAN_POINT('',(-60.06,6.26,4.91));
#826 = DIRECTION('',(0.,-1.,0.));
#827 = DIRECTION('',(0.,0.,-1.));
#828 = ADVANCED_FACE('',(#829),#840,.F.);
#829 = FACE_BOUND('',#830,.F.);
#830 = EDGE_LOOP('',(#831,#832,#838,#839));
#831 = ORIENTED_EDGE('',*,*,#663,.F.);
#832 = ORIENTED_EDGE('',*,*,#833,.T.);
#833 = EDGE_CURVE('',#664,#787,#834,.T.);
#834 = LINE('',#835,#836);
#835 = CARTESIAN_POINT('',(-60.06,10.778879143724,10.198218971944));
#836 = VECTOR('',#837,1.);
#837 = DIRECTION('',(-1.,-0.,-0.));
#838 = ORIENTED_EDGE('',*,*,#786,.T.);
#839 = ORIENTED_EDGE('',*,*,#528,.T.);
#840 = PLANE('',#841);
#841 = AXIS2_PLACEMENT_3D('',#842,#843,#844);
#842 = CARTESIAN_POINT('',(-60.06,10.778879143724,10.198218971944));
#843 = DIRECTION('',(0.,-0.707106781187,0.707106781187));
#844 = DIRECTION('',(0.,-0.707106781187,-0.707106781187));
#845 = ADVANCED_FACE('',(#846),#864,.F.);
#846 = FACE_BOUND('',#847,.F.);
#847 = EDGE_LOOP('',(#848,#849,#857,#863));
#848 = ORIENTED_EDGE('',*,*,#810,.T.);
#849 = ORIENTED_EDGE('',*,*,#850,.T.);
#850 = EDGE_CURVE('',#811,#851,#853,.T.);
#851 = VERTEX_POINT('',#852);
#852 = CARTESIAN_POINT('',(-60.76,7.76,2.91));
#853 = LINE('',#854,#855);
#854 = CARTESIAN_POINT('',(-60.76,6.26,2.91));
#855 = VECTOR('',#856,1.);
#856 = DIRECTION('',(0.,1.,0.));
#857 = ORIENTED_EDGE('',*,*,#858,.T.);
#858 = EDGE_CURVE('',#851,#494,#859,.T.);
#859 = LINE('',#860,#861);
#860 = CARTESIAN_POINT('',(-60.76,7.76,2.91));
#861 = VECTOR('',#862,1.);
#862 = DIRECTION('',(0.,0.,1.));
#863 = ORIENTED_EDGE('',*,*,#493,.F.);
#864 = PLANE('',#865);
#865 = AXIS2_PLACEMENT_3D('',#866,#867,#868);
#866 = CARTESIAN_POINT('',(-60.76,0.745417761282,7.392693658134));
#867 = DIRECTION('',(1.,0.,0.));
#868 = DIRECTION('',(0.,0.,1.));
#869 = ADVANCED_FACE('',(#870),#881,.T.);
#870 = FACE_BOUND('',#871,.T.);
#871 = EDGE_LOOP('',(#872,#873,#879,#880));
#872 = ORIENTED_EDGE('',*,*,#718,.F.);
#873 = ORIENTED_EDGE('',*,*,#874,.T.);
#874 = EDGE_CURVE('',#711,#851,#875,.T.);
#875 = LINE('',#876,#877);
#876 = CARTESIAN_POINT('',(-60.06,7.76,2.91));
#877 = VECTOR('',#878,1.);
#878 = DIRECTION('',(-1.,-0.,-0.));
#879 = ORIENTED_EDGE('',*,*,#858,.T.);
#880 = ORIENTED_EDGE('',*,*,#502,.T.);
#881 = PLANE('',#882);
#882 = AXIS2_PLACEMENT_3D('',#883,#884,#885);
#883 = CARTESIAN_POINT('',(-60.06,7.76,2.91));
#884 = DIRECTION('',(0.,1.,0.));
#885 = DIRECTION('',(0.,0.,1.));
#886 = ADVANCED_FACE('',(#887),#893,.T.);
#887 = FACE_BOUND('',#888,.T.);
#888 = EDGE_LOOP('',(#889,#890,#891,#892));
#889 = ORIENTED_EDGE('',*,*,#647,.T.);
#890 = ORIENTED_EDGE('',*,*,#613,.T.);
#891 = ORIENTED_EDGE('',*,*,#744,.F.);
#892 = ORIENTED_EDGE('',*,*,#687,.F.);
#893 = PLANE('',#894);
#894 = AXIS2_PLACEMENT_3D('',#895,#896,#897);
#895 = CARTESIAN_POINT('',(-60.06,2.43,8.24));
#896 = DIRECTION('',(0.,-1.,0.));
#897 = DIRECTION('',(0.,0.,-1.));
#898 = ADVANCED_FACE('',(#899),#905,.T.);
#899 = FACE_BOUND('',#900,.T.);
#900 = EDGE_LOOP('',(#901,#902,#903,#904));
#901 = ORIENTED_EDGE('',*,*,#818,.T.);
#902 = ORIENTED_EDGE('',*,*,#850,.T.);
#903 = ORIENTED_EDGE('',*,*,#874,.F.);
#904 = ORIENTED_EDGE('',*,*,#710,.F.);
#905 = PLANE('',#906);
#906 = AXIS2_PLACEMENT_3D('',#907,#908,#909);
#907 = CARTESIAN_POINT('',(-60.06,6.26,2.91));
#908 = DIRECTION('',(0.,0.,-1.));
#909 = DIRECTION('',(0.,1.,0.));
#910 = ADVANCED_FACE('',(#911),#917,.F.);
#911 = FACE_BOUND('',#912,.F.);
#912 = EDGE_LOOP('',(#913,#914,#915,#916));
#913 = ORIENTED_EDGE('',*,*,#770,.T.);
#914 = ORIENTED_EDGE('',*,*,#794,.T.);
#915 = ORIENTED_EDGE('',*,*,#833,.F.);
#916 = ORIENTED_EDGE('',*,*,#671,.F.);
#917 = PLANE('',#918);
#918 = AXIS2_PLACEMENT_3D('',#919,#920,#921);
#919 = CARTESIAN_POINT('',(-60.06,9.718218971944,11.258879143724));
#920 = DIRECTION('',(0.,-0.707106781187,-0.707106781187));
#921 = DIRECTION('',(0.,0.707106781187,-0.707106781187));
#922 = ADVANCED_FACE('',(#923),#942,.F.);
#923 = FACE_BOUND('',#924,.F.);
#924 = EDGE_LOOP('',(#925,#933,#940,#941));
#925 = ORIENTED_EDGE('',*,*,#926,.T.);
#926 = EDGE_CURVE('',#727,#927,#929,.T.);
#927 = VERTEX_POINT('',#928);
#928 = CARTESIAN_POINT('',(-61.86,8.135,7.49));
#929 = LINE('',#930,#931);
#930 = CARTESIAN_POINT('',(-60.06,8.135,7.49));
#931 = VECTOR('',#932,1.);
#932 = DIRECTION('',(-1.,-0.,-0.));
#933 = ORIENTED_EDGE('',*,*,#934,.T.);
#934 = EDGE_CURVE('',#927,#927,#935,.T.);
#935 = CIRCLE('',#936,1.125);
#936 = AXIS2_PLACEMENT_3D('',#937,#938,#939);
#937 = CARTESIAN_POINT('',(-61.86,7.01,7.49));
#938 = DIRECTION('',(1.,0.,0.));
#939 = DIRECTION('',(0.,1.,0.));
#940 = ORIENTED_EDGE('',*,*,#926,.F.);
#941 = ORIENTED_EDGE('',*,*,#726,.F.);
#942 = CYLINDRICAL_SURFACE('',#943,1.125);
#943 = AXIS2_PLACEMENT_3D('',#944,#945,#946);
#944 = CARTESIAN_POINT('',(-60.06,7.01,7.49));
#945 = DIRECTION('',(1.,0.,0.));
#946 = DIRECTION('',(0.,1.,0.));
#947 = ADVANCED_FACE('',(#948),#951,.T.);
#948 = FACE_BOUND('',#949,.T.);
#949 = EDGE_LOOP('',(#950));
#950 = ORIENTED_EDGE('',*,*,#934,.T.);
#951 = PLANE('',#952);
#952 = AXIS2_PLACEMENT_3D('',#953,#954,#955);
#953 = CARTESIAN_POINT('',(-61.86,0.506279785904,7.49));
#954 = DIRECTION('',(1.,0.,0.));
#955 = DIRECTION('',(0.,0.,1.));
#956 = ( GEOMETRIC_REPRESENTATION_CONTEXT(3) 
GLOBAL_UNCERTAINTY_ASSIGNED_CONTEXT((#960)) GLOBAL_UNIT_ASSIGNED_CONTEXT
((#957,#958,#959)) REPRESENTATION_CONTEXT('Context #1',
  '3D Context with UNIT and UNCERTAINTY') );
#957 = ( LENGTH_UNIT() NAMED_UNIT(*) SI_UNIT(.MILLI.,.METRE.) );
#958 = ( NAMED_UNIT(*) PLANE_ANGLE_UNIT() SI_UNIT($,.RADIAN.) );
#959 = ( NAMED_UNIT(*) SI_UNIT($,.STERADIAN.) SOLID_ANGLE_UNIT() );
#960 = UNCERTAINTY_MEASURE_WITH_UNIT(LENGTH_MEASURE(5.E-07),#957,
  'distance_accuracy_value','confusion accuracy');
#961 = PRODUCT_RELATED_PRODUCT_CATEGORY('part',$,(#7));
#962 = MECHANICAL_DESIGN_GEOMETRIC_PRESENTATION_REPRESENTATION('',(#963)
  ,#956);
#963 = STYLED_ITEM('color',(#964),#15);
#964 = PRESENTATION_STYLE_ASSIGNMENT((#965,#971));
#965 = SURFACE_STYLE_USAGE(.BOTH.,#966);
#966 = SURFACE_SIDE_STYLE('',(#967));
#967 = SURFACE_STYLE_FILL_AREA(#968);
#968 = FILL_AREA_STYLE('',(#969));
#969 = FILL_AREA_STYLE_COLOUR('',#970);
#970 = COLOUR_RGB('',0.800000010877,0.800000010877,0.800000010877);
#971 = CURVE_STYLE('',#972,POSITIVE_LENGTH_MEASURE(0.1),#973);
#972 = DRAUGHTING_PRE_DEFINED_CURVE_FONT('continuous');
#973 = COLOUR_RGB('',9.803921802644E-02,9.803921802644E-02,
  9.803921802644E-02);
ENDSEC;
END-ISO-10303-21;
