%TF.GenerationSoftware,KiCad,Pcbnew,9.0.4*%
%TF.CreationDate,2025-08-23T12:23:13-06:00*%
%TF.ProjectId,frontpanel-3.5,66726f6e-7470-4616-9e65-6c2d332e352e,rev?*%
%TF.SameCoordinates,Original*%
%TF.FileFunction,Soldermask,Top*%
%TF.FilePolarity,Negative*%
%FSLAX46Y46*%
G04 Gerber Fmt 4.6, Leading zero omitted, Abs format (unit mm)*
G04 Created by KiCad (PCBNEW 9.0.4) date 2025-08-23 12:23:13*
%MOMM*%
%LPD*%
G01*
G04 APERTURE LIST*
G04 Aperture macros list*
%AMRoundRect*
0 Rectangle with rounded corners*
0 $1 Rounding radius*
0 $2 $3 $4 $5 $6 $7 $8 $9 X,Y pos of 4 corners*
0 Add a 4 corners polygon primitive as box body*
4,1,4,$2,$3,$4,$5,$6,$7,$8,$9,$2,$3,0*
0 Add four circle primitives for the rounded corners*
1,1,$1+$1,$2,$3*
1,1,$1+$1,$4,$5*
1,1,$1+$1,$6,$7*
1,1,$1+$1,$8,$9*
0 Add four rect primitives between the rounded corners*
20,1,$1+$1,$2,$3,$4,$5,0*
20,1,$1+$1,$4,$5,$6,$7,0*
20,1,$1+$1,$6,$7,$8,$9,0*
20,1,$1+$1,$8,$9,$2,$3,0*%
G04 Aperture macros list end*
%ADD10RoundRect,0.200000X-0.200000X-0.275000X0.200000X-0.275000X0.200000X0.275000X-0.200000X0.275000X0*%
%ADD11RoundRect,0.200000X0.200000X0.275000X-0.200000X0.275000X-0.200000X-0.275000X0.200000X-0.275000X0*%
%ADD12R,3.000000X0.500000*%
%ADD13RoundRect,0.200000X0.275000X-0.200000X0.275000X0.200000X-0.275000X0.200000X-0.275000X-0.200000X0*%
%ADD14RoundRect,0.200000X-0.275000X0.200000X-0.275000X-0.200000X0.275000X-0.200000X0.275000X0.200000X0*%
%ADD15C,4.400000*%
%ADD16RoundRect,0.225000X0.225000X0.250000X-0.225000X0.250000X-0.225000X-0.250000X0.225000X-0.250000X0*%
%ADD17RoundRect,0.225000X-0.250000X0.225000X-0.250000X-0.225000X0.250000X-0.225000X0.250000X0.225000X0*%
%ADD18RoundRect,0.150000X0.512500X0.150000X-0.512500X0.150000X-0.512500X-0.150000X0.512500X-0.150000X0*%
%ADD19RoundRect,0.112500X-0.112500X0.187500X-0.112500X-0.187500X0.112500X-0.187500X0.112500X0.187500X0*%
%ADD20RoundRect,0.190000X-0.285000X-0.685000X0.285000X-0.685000X0.285000X0.685000X-0.285000X0.685000X0*%
%ADD21RoundRect,0.100000X0.100000X-0.637500X0.100000X0.637500X-0.100000X0.637500X-0.100000X-0.637500X0*%
%ADD22RoundRect,0.150000X-0.150000X-0.625000X0.150000X-0.625000X0.150000X0.625000X-0.150000X0.625000X0*%
%ADD23RoundRect,0.250000X-0.350000X-0.650000X0.350000X-0.650000X0.350000X0.650000X-0.350000X0.650000X0*%
%ADD24RoundRect,0.218750X-0.218750X-0.381250X0.218750X-0.381250X0.218750X0.381250X-0.218750X0.381250X0*%
%ADD25RoundRect,0.150000X0.150000X-0.587500X0.150000X0.587500X-0.150000X0.587500X-0.150000X-0.587500X0*%
%ADD26RoundRect,0.225000X0.250000X-0.225000X0.250000X0.225000X-0.250000X0.225000X-0.250000X-0.225000X0*%
%ADD27RoundRect,0.150000X0.150000X0.625000X-0.150000X0.625000X-0.150000X-0.625000X0.150000X-0.625000X0*%
%ADD28RoundRect,0.250000X0.350000X0.650000X-0.350000X0.650000X-0.350000X-0.650000X0.350000X-0.650000X0*%
%ADD29R,1.000000X2.510000*%
G04 APERTURE END LIST*
D10*
%TO.C,R9*%
X157163000Y-50571400D03*
X158813000Y-50571400D03*
%TD*%
D11*
%TO.C,R8*%
X155739600Y-50571400D03*
X154089600Y-50571400D03*
%TD*%
D12*
%TO.C,J5*%
X183489600Y-47929800D03*
X183489600Y-48629800D03*
X183489600Y-49329800D03*
X183489600Y-50029800D03*
X183489600Y-50729800D03*
X183489600Y-51429800D03*
X183489600Y-52129800D03*
X183489600Y-52829800D03*
X183489600Y-53529800D03*
X183489600Y-54229800D03*
X183489600Y-54929800D03*
X183489600Y-55629800D03*
X183489600Y-56329800D03*
%TD*%
D13*
%TO.C,R7*%
X147167600Y-58127400D03*
X147167600Y-56477400D03*
%TD*%
D14*
%TO.C,R6*%
X148590000Y-48222400D03*
X148590000Y-49872400D03*
%TD*%
D15*
%TO.C,H1*%
X137744200Y-44577000D03*
%TD*%
%TO.C,H2*%
X137744200Y-59410600D03*
%TD*%
D16*
%TO.C,C6*%
X180530800Y-53314600D03*
X178980800Y-53314600D03*
%TD*%
%TO.C,C7*%
X180353000Y-51536600D03*
X178803000Y-51536600D03*
%TD*%
D17*
%TO.C,C4*%
X177165000Y-52514200D03*
X177165000Y-54064200D03*
%TD*%
%TO.C,C2*%
X154000200Y-53936600D03*
X154000200Y-55486600D03*
%TD*%
D18*
%TO.C,U1*%
X173431200Y-52326150D03*
X173431200Y-51376150D03*
X173431200Y-50426150D03*
X171156200Y-50426150D03*
X171156200Y-52326150D03*
%TD*%
D19*
%TO.C,D2*%
X175387000Y-52317550D03*
X175387000Y-54417550D03*
%TD*%
D20*
%TO.C,D1*%
X150620800Y-59359800D03*
X153720800Y-59359800D03*
%TD*%
D13*
%TO.C,R3*%
X184988200Y-61277000D03*
X184988200Y-59627000D03*
%TD*%
D17*
%TO.C,C3*%
X176606200Y-44564000D03*
X176606200Y-46114000D03*
%TD*%
D21*
%TO.C,U3*%
X155479800Y-59783900D03*
X156129800Y-59783900D03*
X156779800Y-59783900D03*
X157429800Y-59783900D03*
X158079800Y-59783900D03*
X158729800Y-59783900D03*
X159379800Y-59783900D03*
X160029800Y-59783900D03*
X160679800Y-59783900D03*
X161329800Y-59783900D03*
X161979800Y-59783900D03*
X162629800Y-59783900D03*
X162629800Y-54058900D03*
X161979800Y-54058900D03*
X161329800Y-54058900D03*
X160679800Y-54058900D03*
X160029800Y-54058900D03*
X159379800Y-54058900D03*
X158729800Y-54058900D03*
X158079800Y-54058900D03*
X157429800Y-54058900D03*
X156779800Y-54058900D03*
X156129800Y-54058900D03*
X155479800Y-54058900D03*
%TD*%
D22*
%TO.C,J2*%
X150436800Y-46568600D03*
X151436800Y-46568600D03*
X152436800Y-46568600D03*
X153436800Y-46568600D03*
D23*
X149136800Y-44043600D03*
X154736800Y-44043600D03*
%TD*%
D24*
%TO.C,L1*%
X171225700Y-54027950D03*
X173350700Y-54027950D03*
%TD*%
D25*
%TO.C,U2*%
X178501000Y-45997100D03*
X180401000Y-45997100D03*
X179451000Y-44122100D03*
%TD*%
D22*
%TO.C,J1*%
X159286800Y-46568600D03*
X160286800Y-46568600D03*
X161286800Y-46568600D03*
X162286800Y-46568600D03*
X163286800Y-46568600D03*
X164286800Y-46568600D03*
D23*
X157986800Y-44043600D03*
X165586800Y-44043600D03*
%TD*%
D10*
%TO.C,R1*%
X175146200Y-50901600D03*
X176796200Y-50901600D03*
%TD*%
D11*
%TO.C,R2*%
X176796200Y-49352200D03*
X175146200Y-49352200D03*
%TD*%
D26*
%TO.C,C8*%
X183337200Y-61227000D03*
X183337200Y-59677000D03*
%TD*%
D27*
%TO.C,J6*%
X179067600Y-58060200D03*
X178067600Y-58060200D03*
X177067600Y-58060200D03*
X176067600Y-58060200D03*
X175067600Y-58060200D03*
X174067600Y-58060200D03*
X173067600Y-58060200D03*
X172067600Y-58060200D03*
X171067600Y-58060200D03*
X170067600Y-58060200D03*
X169067600Y-58060200D03*
X168067600Y-58060200D03*
X167067600Y-58060200D03*
X166067600Y-58060200D03*
D28*
X180367600Y-60585200D03*
X164767600Y-60585200D03*
%TD*%
D16*
%TO.C,C5*%
X179946600Y-55524400D03*
X178396600Y-55524400D03*
%TD*%
D13*
%TO.C,R5*%
X152527000Y-52082200D03*
X152527000Y-50432200D03*
%TD*%
%TO.C,R4*%
X141681200Y-52056800D03*
X141681200Y-50406800D03*
%TD*%
D26*
%TO.C,C1*%
X169392600Y-52184600D03*
X169392600Y-50634600D03*
%TD*%
D29*
%TO.C,J3*%
X168630600Y-46845600D03*
X171170600Y-43535600D03*
X173710600Y-46845600D03*
%TD*%
M02*
