M48
; DRILL file {KiCad 9.0.4} date 2025-08-23T12:23:13-0600
; FORMAT={-:-/ absolute / inch / decimal}
; #@! TF.CreationDate,2025-08-23T12:23:13-06:00
; #@! TF.GenerationSoftware,Kicad,Pcbnew,9.0.4
; #@! TF.FileFunction,Plated,1,2,PTH
FMAT,2
INCH
; #@! TA.AperFunction,Plated,PTH,ViaDrill
T1C0.0118
; #@! TA.AperFunction,Plated,PTH,ComponentDrill
T2C0.0866
%
G90
G05
T1
X5.617Y-2.05
X5.734Y-2.098
X5.84Y-2.172
X5.843Y-2.289
X5.851Y-1.837
X5.923Y-1.776
X5.923Y-1.893
X6.009Y-2.23
X6.021Y-2.166
X6.05Y-2.273
X6.079Y-2.409
X6.091Y-2.299
X6.12Y-2.399
X6.126Y-1.9301
X6.127Y-2.301
X6.134Y-2.181
X6.142Y-1.885
X6.159Y-2.399
X6.17Y-1.827
X6.193Y-1.893
X6.193Y-2.192
X6.203Y-2.073
X6.226Y-1.9301
X6.236Y-1.833
X6.258Y-1.93
X6.271Y-1.751
X6.301Y-2.308
X6.339Y-2.399
X6.34Y-2.308
X6.3499Y-1.869
X6.377Y-2.395
X6.388Y-1.893
X6.407Y-1.969
X6.436Y-2.368
X6.44Y-2.118
X6.446Y-1.965
X6.485Y-1.969
X6.504Y-1.831
X6.538Y-2.368
X6.602Y-1.834
X6.633Y-1.995
X6.696Y-1.704
X6.696Y-2.112
X6.782Y-2.022
X6.782Y-2.09
X6.785Y-1.704
X6.801Y-1.9301
X6.826Y-2.357
X6.85Y-2.415
X6.853Y-2.329
X6.892Y-2.331
X6.908Y-1.814
X6.931Y-2.331
X6.933Y-2.098
X6.971Y-2.331
X6.975Y-2.18
X6.994Y-1.812
X7.008Y-1.989
X7.024Y-2.066
X7.049Y-2.34
X7.0495Y-1.9775
X7.066Y-2.058
X7.072Y-2.001
X7.136Y-1.936
X7.136Y-1.976
X7.14Y-1.896
X7.142Y-2.018
X7.15Y-1.78
X7.168Y-2.411
X7.25Y-2.256
X7.305Y-1.914
X7.306Y-1.99
X7.307Y-2.054
X7.33Y-2.411
T2
X5.423Y-1.755
X5.423Y-2.339
M30
