%TF.GenerationSoftware,KiCad,Pcbnew,9.0.4*%
%TF.CreationDate,2025-08-23T12:23:13-06:00*%
%TF.ProjectId,frontpanel-3.5,66726f6e-7470-4616-9e65-6c2d332e352e,rev?*%
%TF.SameCoordinates,Original*%
%TF.FileFunction,Copper,L2,Bot*%
%TF.FilePolarity,Positive*%
%FSLAX46Y46*%
G04 Gerber Fmt 4.6, Leading zero omitted, Abs format (unit mm)*
G04 Created by KiCad (PCBNEW 9.0.4) date 2025-08-23 12:23:13*
%MOMM*%
%LPD*%
G01*
G04 APERTURE LIST*
G04 Aperture macros list*
%AMFreePoly0*
4,1,140,-0.810222,4.496950,-0.772021,4.462019,-0.756403,4.412667,-0.767553,4.362119,-0.802484,4.323917,-0.925271,4.245478,-1.101719,4.100000,1.607497,4.100000,1.627006,4.098079,1.663054,4.083147,1.690644,4.055557,1.705576,4.019509,1.705576,3.980491,1.690644,3.944443,1.663054,3.916853,1.627006,3.901921,1.607497,3.900000,-1.302312,3.900000,-1.350888,3.848902,-1.524656,3.614975,
-1.668867,3.361755,-1.694722,3.300000,2.318697,3.300000,2.338206,3.298079,2.374254,3.283147,2.401844,3.255557,2.416776,3.219509,2.416776,3.180491,2.401844,3.144443,2.374254,3.116853,2.338206,3.101921,2.318697,3.100000,-1.778454,3.100000,-1.781403,3.092957,-1.860615,2.812523,-1.905338,2.524570,-1.906146,2.500000,2.572697,2.500000,2.592206,2.498079,2.628254,2.483147,
2.655844,2.455557,2.670776,2.419509,2.670776,2.380491,2.655844,2.344443,2.628254,2.316853,2.592206,2.301921,2.572697,2.300000,-1.912726,2.300000,-1.914919,2.233323,-1.889215,1.943053,-1.837531,1.700000,2.420297,1.700000,2.439806,1.698079,2.475854,1.683147,2.503444,1.655557,2.518376,1.619509,2.518376,1.580491,2.503444,1.544443,2.475854,1.516853,2.439806,1.501921,
2.420297,1.500000,-1.774350,1.500000,-1.733976,1.382407,-1.606718,1.120258,-1.464564,0.900000,1.861497,0.900000,1.881006,0.898079,1.917054,0.883147,1.944644,0.855557,1.959576,0.819509,1.959576,0.780491,1.944644,0.744443,1.917054,0.716853,1.881006,0.701921,1.861497,0.700000,-1.302635,0.700000,-1.262234,0.651479,-1.050062,0.451728,-0.815296,0.279095,-0.561380,0.136114,
-0.470426,0.098532,-0.404805,0.098532,-0.389897,0.100000,0.389897,0.100000,0.409406,0.098079,0.445454,0.083147,0.473044,0.055557,0.487976,0.019509,0.487976,-0.019509,0.473044,-0.055557,0.445454,-0.083147,0.445228,-0.083240,0.443854,-0.084615,0.407806,-0.099547,0.388297,-0.101468,-0.428581,-0.101468,-0.451734,-0.111087,-0.503062,-0.104384,-0.535701,-0.088654,-0.545455,-0.084615,
-0.546728,-0.083341,-0.771998,0.025215,-1.024316,0.184773,-1.256690,0.372188,-1.466063,0.584993,-1.580467,0.731660,-1.593250,0.744443,-1.596433,0.752129,-1.649675,0.820385,-1.805108,1.075264,-1.930316,1.346272,-2.004408,1.571384,-2.008181,1.580491,-2.008181,1.582845,-2.023649,1.629841,-2.083879,1.922237,-2.110211,2.219607,-2.105960,2.379958,-2.106181,2.380491,-2.106181,2.419509,
-2.104825,2.422782,-2.102300,2.518037,-2.060250,2.813595,-1.984613,3.102388,-1.940563,3.215631,-1.940563,3.219509,-1.925631,3.255557,-1.924651,3.256536,-1.876387,3.380614,-1.736996,3.644609,-1.568278,3.890894,-1.427283,4.053134,-1.426280,4.055557,-1.417864,4.063972,-1.372452,4.116228,-1.152099,4.317641,-0.910121,4.492482,-0.910122,4.492482,-0.860770,4.508100,-0.810222,4.496950,
-0.810222,4.496950,$1*%
%AMFreePoly1*
4,1,138,0.597741,0.098079,0.630437,0.084535,0.630514,0.084604,0.681122,0.095478,0.730388,0.079591,0.730387,0.079590,0.970832,-0.096151,1.189558,-0.298284,1.383685,-0.524145,1.517131,-0.721244,1.540330,-0.744443,1.553461,-0.776145,1.688272,-1.034882,1.794722,-1.313031,1.853833,-1.543872,1.854404,-1.544443,1.869336,-1.580491,1.869336,-1.606914,1.908940,-1.896623,1.915204,-2.194380,
1.898453,-2.372457,1.901781,-2.380491,1.901781,-2.419509,1.891749,-2.443725,1.887313,-2.490895,1.825633,-2.782260,1.730977,-3.064641,1.664841,-3.205758,1.664841,-3.219509,1.649909,-3.255557,1.634087,-3.271378,1.604591,-3.334317,1.448140,-3.587737,1.263685,-3.821563,1.053654,-4.032716,1.032044,-4.049950,1.029722,-4.055557,1.002132,-4.083147,0.977765,-4.093240,0.820814,-4.218415,
0.568232,-4.376214,0.299233,-4.504035,0.299233,-4.504036,0.247869,-4.510457,0.200176,-4.490337,0.168932,-4.449065,0.162511,-4.397701,0.182631,-4.350008,0.223903,-4.318764,0.358517,-4.264002,0.612554,-4.122776,0.643885,-4.100000,-1.440232,-4.100000,-1.459741,-4.098079,-1.495789,-4.083147,-1.523379,-4.055557,-1.538311,-4.019509,-1.538311,-3.980491,-1.523379,-3.944443,-1.495789,-3.916853,
-1.459741,-3.901921,-1.440232,-3.900000,0.903356,-3.900000,1.060362,-3.753796,1.247562,-3.531456,1.398743,-3.300000,-2.405432,-3.300000,-2.424941,-3.298079,-2.460989,-3.283147,-2.488579,-3.255557,-2.503511,-3.219509,-2.503511,-3.180491,-2.488579,-3.144443,-2.460989,-3.116853,-2.424941,-3.101921,-2.405432,-3.100000,1.499098,-3.100000,1.534864,-3.027337,1.630750,-2.752955,1.685987,-2.500000,
-2.735632,-2.500000,-2.755141,-2.498079,-2.791189,-2.483147,-2.818779,-2.455557,-2.833711,-2.419509,-2.833711,-2.380491,-2.818779,-2.344443,-2.791189,-2.316853,-2.755141,-2.301921,-2.735632,-2.300000,1.708654,-2.300000,1.719978,-2.179617,1.712010,-1.889073,1.683702,-1.700000,-2.684832,-1.700000,-2.704341,-1.698079,-2.740389,-1.683147,-2.767979,-1.655557,-2.782911,-1.619509,-2.782911,-1.580491,
-2.767979,-1.544443,-2.740389,-1.516853,-2.704341,-1.501921,-2.684832,-1.500000,1.640867,-1.500000,1.591496,-1.321487,1.480718,-1.052772,1.394816,-0.900000,-2.253032,-0.900000,-2.272541,-0.898079,-2.308589,-0.883147,-2.336179,-0.855557,-2.351111,-0.819509,-2.351111,-0.780491,-2.336179,-0.744443,-2.308589,-0.716853,-2.272541,-0.701921,-2.253032,-0.700000,1.265247,-0.700000,1.166220,-0.565156,
0.967116,-0.353409,0.743870,-0.167288,0.621830,-0.088384,0.621644,-0.088177,0.597741,-0.098079,0.578232,-0.100000,-0.578232,-0.100000,-0.597741,-0.098079,-0.633789,-0.083147,-0.661379,-0.055557,-0.676311,-0.019509,-0.676311,0.019509,-0.661379,0.055557,-0.633789,0.083147,-0.597741,0.098079,-0.578232,0.100000,0.578232,0.100000,0.597741,0.098079,0.597741,0.098079,$1*%
G04 Aperture macros list end*
%TA.AperFunction,ComponentPad*%
%ADD10C,4.400000*%
%TD*%
%TA.AperFunction,SMDPad,CuDef*%
%ADD11FreePoly0,180.000000*%
%TD*%
%TA.AperFunction,SMDPad,CuDef*%
%ADD12FreePoly1,180.000000*%
%TD*%
%TA.AperFunction,SMDPad,CuDef*%
%ADD13FreePoly0,0.000000*%
%TD*%
%TA.AperFunction,SMDPad,CuDef*%
%ADD14FreePoly1,0.000000*%
%TD*%
%TA.AperFunction,ViaPad*%
%ADD15C,0.600000*%
%TD*%
%TA.AperFunction,Conductor*%
%ADD16C,0.200000*%
%TD*%
%TA.AperFunction,Conductor*%
%ADD17C,0.500000*%
%TD*%
G04 APERTURE END LIST*
D10*
%TO.P,H1,1,1*%
%TO.N,GND*%
X137744200Y-44577000D03*
%TD*%
%TO.P,H2,1,1*%
%TO.N,GND*%
X137744200Y-59410600D03*
%TD*%
D11*
%TO.P,SW2,1,1*%
%TO.N,/P0_0*%
X145676297Y-43193800D03*
D12*
%TO.P,SW2,2,2*%
%TO.N,GND*%
X144508168Y-47593800D03*
%TD*%
D13*
%TO.P,SW3,1,1*%
%TO.N,GND*%
X151196503Y-54293800D03*
D14*
%TO.P,SW3,2,2*%
%TO.N,/P0_2*%
X152364632Y-49893800D03*
%TD*%
D13*
%TO.P,SW1,1,1*%
%TO.N,GND*%
X138196503Y-54293800D03*
D14*
%TO.P,SW1,2,2*%
%TO.N,/P0_3*%
X139364632Y-49893800D03*
%TD*%
D11*
%TO.P,SW4,1,1*%
%TO.N,/P0_1*%
X145676297Y-56193800D03*
D12*
%TO.P,SW4,2,2*%
%TO.N,GND*%
X144508168Y-60593800D03*
%TD*%
D15*
%TO.N,GND*%
X156718000Y-46405800D03*
X186182000Y-61239400D03*
X164719000Y-50012600D03*
X175463200Y-46075600D03*
X185572400Y-50546000D03*
X155625800Y-58445400D03*
X172339000Y-43281600D03*
X181610000Y-45212000D03*
X173380400Y-59867800D03*
X163576000Y-53797200D03*
X150444200Y-48082200D03*
X157302200Y-55676800D03*
X181406800Y-51257200D03*
X159283400Y-44475400D03*
X181356000Y-48158400D03*
X150444200Y-45110400D03*
X162737800Y-50012600D03*
X177165000Y-55372000D03*
X168478200Y-50673000D03*
X178003200Y-50520600D03*
X154406600Y-61188600D03*
X170078400Y-43281600D03*
X182067200Y-61239400D03*
X178409600Y-52476400D03*
X172262800Y-51358800D03*
X176098200Y-53289200D03*
X163474400Y-60147200D03*
X179476400Y-52273200D03*
X177647600Y-46024800D03*
X173990000Y-61341000D03*
X184150000Y-57302400D03*
X179044600Y-59436000D03*
X166065200Y-60147200D03*
X156438600Y-60934600D03*
X170078400Y-53644800D03*
X172262800Y-53086000D03*
X158394400Y-46558200D03*
X185547000Y-48615600D03*
X155803600Y-55397400D03*
X157556200Y-52654200D03*
X185597800Y-52171600D03*
%TO.N,+3V3*%
X158140400Y-49024300D03*
X158953200Y-49022000D03*
X155600400Y-49024300D03*
X179628800Y-50825400D03*
X172745400Y-49024300D03*
X179057300Y-50228500D03*
%TO.N,/ACT_LED*%
X154711400Y-58394600D03*
X165201600Y-46507400D03*
X167690800Y-46583600D03*
%TO.N,/SCL*%
X181254400Y-50190400D03*
X162255200Y-48082200D03*
X157302200Y-48082200D03*
%TO.N,/SDA*%
X161286800Y-47472600D03*
X156006800Y-47879000D03*
X181254400Y-49174400D03*
%TO.N,/~{INT}*%
X155448000Y-60934600D03*
X163728400Y-49911000D03*
%TO.N,/P0_0*%
X148615400Y-46659800D03*
X153670000Y-57734200D03*
%TO.N,/P0_1*%
X148412200Y-58140600D03*
%TO.N,/P0_3*%
X145643600Y-53289200D03*
X142671800Y-52070000D03*
X148336000Y-55168800D03*
%TO.N,/P0_2*%
X152628600Y-56642000D03*
X152933400Y-55016400D03*
%TO.N,Net-(J6-Pin_4)*%
X161036000Y-58623200D03*
X176047400Y-59207400D03*
%TO.N,Net-(J6-Pin_6)*%
X161975800Y-60833000D03*
X174066200Y-59156600D03*
%TO.N,Net-(J6-Pin_5)*%
X161010600Y-60934600D03*
X175056800Y-59207400D03*
%TO.N,Net-(J6-Pin_3)*%
X177063400Y-59207400D03*
X160045400Y-58623200D03*
%TD*%
D16*
%TO.N,GND*%
X144508168Y-60593800D02*
X144508168Y-61104832D01*
X144508168Y-47593800D02*
X144508168Y-48125432D01*
X151196503Y-54293800D02*
X151196503Y-54778103D01*
X138196503Y-54293800D02*
X138196503Y-54808303D01*
X151196503Y-54778103D02*
X151206200Y-54787800D01*
X138196503Y-54808303D02*
X138201400Y-54813200D01*
D17*
%TO.N,+3V3*%
X158140400Y-49024300D02*
X172745400Y-49024300D01*
X177853100Y-49024300D02*
X179057300Y-50228500D01*
X158140400Y-49024300D02*
X155600400Y-49024300D01*
X172745400Y-49024300D02*
X177853100Y-49024300D01*
X179057300Y-50228500D02*
X179578000Y-50749200D01*
D16*
%TO.N,/ACT_LED*%
X165201600Y-46507400D02*
X165227000Y-46532800D01*
X155016200Y-47015400D02*
X156718000Y-45313600D01*
X167411400Y-46532800D02*
X167690800Y-46812200D01*
X159537400Y-45313600D02*
X160731200Y-46507400D01*
X160731200Y-46507400D02*
X165201600Y-46507400D01*
X165227000Y-46532800D02*
X167411400Y-46532800D01*
X156718000Y-45313600D02*
X159537400Y-45313600D01*
X154711400Y-58394600D02*
X155016200Y-58089800D01*
X155016200Y-58089800D02*
X155016200Y-47015400D01*
X167690800Y-46812200D02*
X167690800Y-46583600D01*
%TO.N,/SCL*%
X162255200Y-48082200D02*
X179146200Y-48082200D01*
X162255200Y-48082200D02*
X157302200Y-48082200D01*
X181254400Y-50190400D02*
X179146200Y-48082200D01*
%TO.N,/SDA*%
X156006800Y-47879000D02*
X156129800Y-47879000D01*
X161286800Y-47472600D02*
X179552600Y-47472600D01*
X156129800Y-47879000D02*
X156510800Y-47498000D01*
X179552600Y-47472600D02*
X181254400Y-49174400D01*
X161264600Y-47498000D02*
X161286800Y-47475800D01*
X156510800Y-47498000D02*
X161264600Y-47498000D01*
X161286800Y-47475800D02*
X161286800Y-47472600D01*
%TO.N,/~{INT}*%
X163703000Y-51384200D02*
X155448000Y-59639200D01*
X163703000Y-49936400D02*
X163703000Y-51384200D01*
X155448000Y-59639200D02*
X155448000Y-60934600D01*
X163728400Y-49911000D02*
X163703000Y-49936400D01*
%TO.N,/P0_0*%
X151257000Y-46659800D02*
X154584400Y-49987200D01*
X154584400Y-49987200D02*
X154584400Y-56819800D01*
X148615400Y-46659800D02*
X147701000Y-45745400D01*
X148615400Y-46659800D02*
X151257000Y-46659800D01*
X154584400Y-56819800D02*
X153670000Y-57734200D01*
%TO.N,/P0_1*%
X148412200Y-58140600D02*
X147701000Y-58140600D01*
%TO.N,/P0_3*%
X142138400Y-52019200D02*
X141249400Y-52019200D01*
X147523200Y-55168800D02*
X145643600Y-53289200D01*
X148336000Y-55168800D02*
X147523200Y-55168800D01*
X142621000Y-52019200D02*
X142138400Y-52019200D01*
%TO.N,/P0_2*%
X152958800Y-56108600D02*
X152628600Y-56438800D01*
X152628600Y-56438800D02*
X152628600Y-56642000D01*
X152958800Y-55041800D02*
X152958800Y-56108600D01*
X152933400Y-55016400D02*
X153085800Y-54864000D01*
X153085800Y-54864000D02*
X153085800Y-54635400D01*
X153085800Y-54635400D02*
X152730200Y-54279800D01*
X152933400Y-55016400D02*
X152958800Y-55041800D01*
%TO.N,Net-(J6-Pin_4)*%
X175463200Y-58623200D02*
X161036000Y-58623200D01*
X176047400Y-59207400D02*
X175463200Y-58623200D01*
%TO.N,Net-(J6-Pin_6)*%
X161975800Y-60833000D02*
X163652200Y-59156600D01*
X163652200Y-59156600D02*
X174066200Y-59156600D01*
%TO.N,Net-(J6-Pin_5)*%
X161010600Y-60934600D02*
X161010600Y-60960000D01*
X161010600Y-60960000D02*
X161384600Y-61334000D01*
X172930200Y-61334000D02*
X175056800Y-59207400D01*
X161384600Y-61334000D02*
X172930200Y-61334000D01*
%TO.N,Net-(J6-Pin_3)*%
X160045400Y-58623200D02*
X160546400Y-58122200D01*
X160546400Y-58122200D02*
X175978200Y-58122200D01*
X175978200Y-58122200D02*
X177063400Y-59207400D01*
%TD*%
%TA.AperFunction,Conductor*%
%TO.N,GND*%
G36*
X173586409Y-59563063D02*
G01*
X173607544Y-59564230D01*
X173629306Y-59575659D01*
X173633141Y-59576785D01*
X173636304Y-59579333D01*
X173638791Y-59580640D01*
X173646796Y-59586432D01*
X173697484Y-59637120D01*
X173793317Y-59692448D01*
X173798485Y-59696188D01*
X173816124Y-59718970D01*
X173836011Y-59739827D01*
X173837250Y-59746256D01*
X173841259Y-59751434D01*
X173843780Y-59780136D01*
X173849235Y-59808434D01*
X173846800Y-59814513D01*
X173847374Y-59821036D01*
X173833977Y-59846546D01*
X173823267Y-59873299D01*
X173817933Y-59877097D01*
X173814889Y-59882894D01*
X173813477Y-59884329D01*
X172800626Y-60897181D01*
X172739303Y-60930666D01*
X172712945Y-60933500D01*
X162741054Y-60933500D01*
X162674015Y-60913815D01*
X162628260Y-60861011D01*
X162618316Y-60791853D01*
X162647341Y-60728297D01*
X162653373Y-60721819D01*
X163781773Y-59593419D01*
X163843096Y-59559934D01*
X163869454Y-59557100D01*
X173566102Y-59557100D01*
X173586409Y-59563063D01*
G37*
%TD.AperFunction*%
%TA.AperFunction,Conductor*%
G36*
X159387184Y-45733785D02*
G01*
X159407826Y-45750419D01*
X160485287Y-46827880D01*
X160549409Y-46864901D01*
X160551508Y-46866113D01*
X160599723Y-46916681D01*
X160612945Y-46985288D01*
X160586977Y-47050153D01*
X160530062Y-47090680D01*
X160489507Y-47097500D01*
X156458073Y-47097500D01*
X156356212Y-47124793D01*
X156321260Y-47144973D01*
X156306997Y-47153208D01*
X156264887Y-47177520D01*
X156193805Y-47248601D01*
X156189176Y-47252413D01*
X156162327Y-47263867D01*
X156136711Y-47277855D01*
X156129913Y-47277697D01*
X156124910Y-47279832D01*
X156109528Y-47277224D01*
X156094272Y-47276870D01*
X156093918Y-47279561D01*
X156085857Y-47278500D01*
X155927743Y-47278500D01*
X155775016Y-47319423D01*
X155775009Y-47319426D01*
X155638090Y-47398475D01*
X155638082Y-47398481D01*
X155628381Y-47408183D01*
X155608944Y-47418795D01*
X155592211Y-47433296D01*
X155578879Y-47435212D01*
X155567058Y-47441668D01*
X155544971Y-47440088D01*
X155523053Y-47443240D01*
X155510801Y-47437644D01*
X155497366Y-47436684D01*
X155479639Y-47423413D01*
X155459497Y-47414215D01*
X155452214Y-47402883D01*
X155441433Y-47394812D01*
X155433695Y-47374066D01*
X155421723Y-47355437D01*
X155418571Y-47333518D01*
X155417016Y-47329348D01*
X155416700Y-47320502D01*
X155416700Y-47232654D01*
X155436385Y-47165615D01*
X155453019Y-47144973D01*
X156847573Y-45750419D01*
X156908896Y-45716934D01*
X156935254Y-45714100D01*
X159320145Y-45714100D01*
X159387184Y-45733785D01*
G37*
%TD.AperFunction*%
%TA.AperFunction,Conductor*%
G36*
X193087339Y-41952385D02*
G01*
X193133094Y-42005189D01*
X193144300Y-42056700D01*
X193144300Y-46635125D01*
X193124615Y-46702164D01*
X193074804Y-46746504D01*
X192071963Y-47237255D01*
X192068472Y-47238963D01*
X192037426Y-47251824D01*
X192032853Y-47256395D01*
X192027046Y-47259238D01*
X192007346Y-47281562D01*
X192004787Y-47284461D01*
X191981024Y-47308226D01*
X191978550Y-47314196D01*
X191974271Y-47319046D01*
X191964612Y-47347216D01*
X191963358Y-47350872D01*
X191950500Y-47381918D01*
X191950500Y-47388379D01*
X191948404Y-47394493D01*
X191948403Y-47394499D01*
X191950259Y-47424205D01*
X191950500Y-47431936D01*
X191950500Y-56780806D01*
X191950167Y-56781630D01*
X191950500Y-56820688D01*
X191950500Y-56859721D01*
X191950557Y-56859996D01*
X191950776Y-56861073D01*
X191950831Y-56861354D01*
X191965892Y-56896855D01*
X191966093Y-56897328D01*
X191981024Y-56933374D01*
X191981651Y-56934001D01*
X191981999Y-56934820D01*
X191982007Y-56934828D01*
X191982008Y-56934829D01*
X192009515Y-56961871D01*
X192009866Y-56962216D01*
X192037426Y-56989776D01*
X192038247Y-56990116D01*
X192038880Y-56990738D01*
X192074616Y-57005184D01*
X192075438Y-57005520D01*
X192082457Y-57008428D01*
X192119496Y-57023771D01*
X192123695Y-57025025D01*
X193066775Y-57406270D01*
X193121549Y-57449645D01*
X193144179Y-57515748D01*
X193144300Y-57521231D01*
X193144300Y-61956300D01*
X193124615Y-62023339D01*
X193071811Y-62069094D01*
X193020300Y-62080300D01*
X135249300Y-62080300D01*
X135182261Y-62060615D01*
X135136506Y-62007811D01*
X135125300Y-61956300D01*
X135125300Y-58537372D01*
X142282785Y-58537372D01*
X142283521Y-58572379D01*
X142306900Y-58869780D01*
X142311638Y-58904443D01*
X142311642Y-58904463D01*
X142329670Y-58996578D01*
X142358397Y-59143364D01*
X142358400Y-59143375D01*
X142368935Y-59197199D01*
X142377625Y-59231131D01*
X142468075Y-59515361D01*
X142468080Y-59515375D01*
X142480595Y-59548077D01*
X142480596Y-59548079D01*
X142603030Y-59820104D01*
X142619185Y-59851109D01*
X142619206Y-59851147D01*
X142670789Y-59937643D01*
X142728304Y-60034084D01*
X142771981Y-60107323D01*
X142772002Y-60107355D01*
X142791619Y-60136330D01*
X142972742Y-60373321D01*
X142972780Y-60373368D01*
X142995566Y-60399877D01*
X142995590Y-60399903D01*
X143202665Y-60614572D01*
X143202678Y-60614584D01*
X143228390Y-60638345D01*
X143458731Y-60827904D01*
X143458733Y-60827906D01*
X143486899Y-60848499D01*
X143486922Y-60848515D01*
X143607339Y-60926387D01*
X143615538Y-60931689D01*
X143616154Y-60932087D01*
X143616186Y-60932108D01*
X143641894Y-60948733D01*
X143650085Y-60952416D01*
X143675985Y-60966457D01*
X143675983Y-60966457D01*
X143784993Y-60992551D01*
X143784991Y-60992551D01*
X143838507Y-60995237D01*
X143862391Y-60994596D01*
X143877877Y-60995148D01*
X143900050Y-60997331D01*
X143929948Y-60998800D01*
X144527619Y-60998800D01*
X144559989Y-61003100D01*
X144570344Y-61005900D01*
X144580772Y-61008720D01*
X144721474Y-61038491D01*
X144863613Y-61060396D01*
X144899397Y-61063889D01*
X145006714Y-61074365D01*
X145006728Y-61074365D01*
X145006750Y-61074368D01*
X145150442Y-61080364D01*
X145294245Y-61078365D01*
X145437715Y-61068377D01*
X145580409Y-61050431D01*
X145721884Y-61024583D01*
X145861704Y-60990913D01*
X145999437Y-60949524D01*
X146134656Y-60900544D01*
X146147967Y-60894866D01*
X146217353Y-60886670D01*
X146273006Y-60911248D01*
X146276288Y-60913815D01*
X146321960Y-60949533D01*
X146369521Y-60974228D01*
X146412776Y-60992614D01*
X146523946Y-61008293D01*
X146560611Y-61006653D01*
X146577470Y-61005900D01*
X146577474Y-61005899D01*
X146577483Y-61005899D01*
X146624151Y-61000191D01*
X146728265Y-60958179D01*
X146750848Y-60943757D01*
X146750850Y-60943754D01*
X146755501Y-60940785D01*
X146755525Y-60940767D01*
X146876899Y-60863213D01*
X146905240Y-60842729D01*
X147137165Y-60653984D01*
X147163043Y-60630330D01*
X147371816Y-60416256D01*
X147394814Y-60389793D01*
X147423656Y-60352480D01*
X147518586Y-60229666D01*
X147577685Y-60153208D01*
X147597499Y-60124285D01*
X147752060Y-59868307D01*
X147768430Y-59837303D01*
X147892645Y-59565301D01*
X147905355Y-59532627D01*
X147997589Y-59248186D01*
X148006472Y-59214270D01*
X148044282Y-59026534D01*
X148065503Y-58921166D01*
X148065504Y-58921156D01*
X148065509Y-58921134D01*
X148070447Y-58886424D01*
X148075762Y-58823225D01*
X148100996Y-58758073D01*
X148157448Y-58716904D01*
X148227197Y-58712791D01*
X148231409Y-58713840D01*
X148333143Y-58741100D01*
X148333145Y-58741100D01*
X148491255Y-58741100D01*
X148491257Y-58741100D01*
X148643984Y-58700177D01*
X148780916Y-58621120D01*
X148892720Y-58509316D01*
X148971777Y-58372384D01*
X149012700Y-58219657D01*
X149012700Y-58061543D01*
X148971777Y-57908816D01*
X148971773Y-57908809D01*
X148892724Y-57771890D01*
X148892718Y-57771882D01*
X148780917Y-57660081D01*
X148780909Y-57660075D01*
X148643990Y-57581026D01*
X148643986Y-57581024D01*
X148643984Y-57581023D01*
X148491257Y-57540100D01*
X148333143Y-57540100D01*
X148180416Y-57581023D01*
X148180411Y-57581025D01*
X148118186Y-57616950D01*
X148050286Y-57633421D01*
X147984259Y-57610568D01*
X147941070Y-57555646D01*
X147940866Y-57555134D01*
X147835984Y-57288983D01*
X147821280Y-57257156D01*
X147680498Y-56993348D01*
X147662244Y-56963415D01*
X147492164Y-56717475D01*
X147470601Y-56689832D01*
X147463332Y-56681542D01*
X147372416Y-56577852D01*
X147273464Y-56464997D01*
X147248875Y-56440005D01*
X147027275Y-56239237D01*
X147027269Y-56239232D01*
X147000002Y-56217239D01*
X146999959Y-56217207D01*
X146756856Y-56043177D01*
X146727217Y-56024434D01*
X146727192Y-56024420D01*
X146465751Y-55879390D01*
X146465721Y-55879375D01*
X146434253Y-55864204D01*
X146434216Y-55864188D01*
X146296408Y-55807228D01*
X146296408Y-55807227D01*
X146296396Y-55807223D01*
X146296006Y-55807062D01*
X146295973Y-55807048D01*
X146289295Y-55804290D01*
X146271221Y-55796825D01*
X146271198Y-55796817D01*
X146226522Y-55782276D01*
X146226518Y-55782275D01*
X146226517Y-55782275D01*
X146178468Y-55779732D01*
X146114407Y-55776343D01*
X146114399Y-55776343D01*
X146061289Y-55783391D01*
X146061271Y-55783394D01*
X146057779Y-55784135D01*
X146032059Y-55786832D01*
X145268109Y-55786832D01*
X145261480Y-55786909D01*
X145261051Y-55786914D01*
X145151198Y-55810086D01*
X145151197Y-55810087D01*
X145114475Y-55825297D01*
X145107955Y-55828086D01*
X145010606Y-55894774D01*
X145009801Y-55893598D01*
X144951986Y-55918540D01*
X144948983Y-55918870D01*
X144863614Y-55927203D01*
X144721483Y-55949107D01*
X144721470Y-55949109D01*
X144671572Y-55959667D01*
X144601910Y-55954286D01*
X144553089Y-55920581D01*
X144516384Y-55879150D01*
X144516383Y-55879149D01*
X144474087Y-55846255D01*
X144474087Y-55846254D01*
X144434943Y-55820384D01*
X144434933Y-55820379D01*
X144328621Y-55784887D01*
X144328624Y-55784887D01*
X144275540Y-55777547D01*
X144275533Y-55777546D01*
X144228704Y-55774714D01*
X144133691Y-55794108D01*
X144090324Y-55808743D01*
X143955819Y-55863479D01*
X143924295Y-55878465D01*
X143924285Y-55878471D01*
X143662642Y-56021747D01*
X143662628Y-56021755D01*
X143632962Y-56040289D01*
X143389442Y-56212611D01*
X143362073Y-56234439D01*
X143325206Y-56267476D01*
X143325205Y-56267477D01*
X143240747Y-56343157D01*
X143139929Y-56433500D01*
X143115224Y-56458336D01*
X142917345Y-56681542D01*
X142917341Y-56681547D01*
X142895659Y-56709032D01*
X142895657Y-56709035D01*
X142724661Y-56953435D01*
X142724636Y-56953473D01*
X142706266Y-56983231D01*
X142595987Y-57187186D01*
X142562000Y-57250718D01*
X142549527Y-57277333D01*
X142549525Y-57277337D01*
X142438642Y-57554272D01*
X142427531Y-57587420D01*
X142427516Y-57587467D01*
X142349099Y-57875254D01*
X142349091Y-57875289D01*
X142341844Y-57909524D01*
X142311117Y-58111191D01*
X142298051Y-58196948D01*
X142296915Y-58204400D01*
X142296911Y-58204431D01*
X142293634Y-58239261D01*
X142293634Y-58239270D01*
X142282785Y-58537372D01*
X135125300Y-58537372D01*
X135125300Y-51934150D01*
X135776860Y-51934150D01*
X135776861Y-51934179D01*
X135786102Y-52233058D01*
X135789188Y-52267912D01*
X135832613Y-52563782D01*
X135839670Y-52598043D01*
X135916710Y-52886994D01*
X135916716Y-52887015D01*
X135927636Y-52920193D01*
X135927649Y-52920229D01*
X136037280Y-53198431D01*
X136051965Y-53230215D01*
X136192742Y-53494016D01*
X136210966Y-53523898D01*
X136381047Y-53769841D01*
X136402564Y-53797427D01*
X136402566Y-53797428D01*
X136599706Y-54022267D01*
X136624263Y-54047229D01*
X136624264Y-54047230D01*
X136845857Y-54247990D01*
X136845858Y-54247991D01*
X136873095Y-54269958D01*
X136873134Y-54269988D01*
X137116234Y-54444015D01*
X137145824Y-54462727D01*
X137145849Y-54462741D01*
X137407276Y-54607763D01*
X137407307Y-54607779D01*
X137438770Y-54622947D01*
X137577017Y-54680089D01*
X137601781Y-54690316D01*
X137646397Y-54704837D01*
X137646402Y-54704838D01*
X137758326Y-54710760D01*
X137758334Y-54710760D01*
X137811444Y-54703712D01*
X137811462Y-54703709D01*
X137814974Y-54702965D01*
X137840694Y-54700268D01*
X138604678Y-54700268D01*
X138611732Y-54700187D01*
X138721412Y-54677049D01*
X138758171Y-54661823D01*
X138764637Y-54659057D01*
X138764646Y-54659052D01*
X138861844Y-54592472D01*
X138862763Y-54593814D01*
X138919905Y-54569148D01*
X138922849Y-54568823D01*
X139009187Y-54560396D01*
X139121458Y-54543094D01*
X139151314Y-54538493D01*
X139151316Y-54538492D01*
X139151326Y-54538491D01*
X139200675Y-54528049D01*
X139270334Y-54533429D01*
X139319157Y-54567136D01*
X139356103Y-54608839D01*
X139356107Y-54608843D01*
X139398414Y-54641746D01*
X139398424Y-54641752D01*
X139437613Y-54667652D01*
X139437619Y-54667655D01*
X139544110Y-54703207D01*
X139544107Y-54703207D01*
X139562923Y-54705808D01*
X139597194Y-54710548D01*
X139597202Y-54710548D01*
X139597206Y-54710549D01*
X139606034Y-54711082D01*
X139644103Y-54713386D01*
X139754105Y-54690931D01*
X139778927Y-54680839D01*
X139779013Y-54680799D01*
X139779015Y-54680803D01*
X139917169Y-54624583D01*
X139948752Y-54609570D01*
X140210399Y-54466291D01*
X140240133Y-54447714D01*
X140483642Y-54275400D01*
X140511055Y-54253537D01*
X140553964Y-54215085D01*
X140583873Y-54194597D01*
X140612004Y-54166466D01*
X140616961Y-54161393D01*
X140621276Y-54154768D01*
X140733214Y-54054463D01*
X140757939Y-54029606D01*
X140955831Y-53806386D01*
X140977546Y-53778859D01*
X141148559Y-53534435D01*
X141166976Y-53504602D01*
X141274017Y-53306632D01*
X141274015Y-53306630D01*
X141277289Y-53300576D01*
X141279678Y-53296108D01*
X141298415Y-53267355D01*
X141308762Y-53242373D01*
X141308857Y-53242199D01*
X141323737Y-53210449D01*
X141323860Y-53210143D01*
X145043100Y-53210143D01*
X145043100Y-53368257D01*
X145079636Y-53504609D01*
X145084023Y-53520983D01*
X145084026Y-53520990D01*
X145163075Y-53657909D01*
X145163079Y-53657914D01*
X145163080Y-53657916D01*
X145274884Y-53769720D01*
X145274886Y-53769721D01*
X145274890Y-53769724D01*
X145338397Y-53806389D01*
X145411816Y-53848777D01*
X145564543Y-53889700D01*
X145626345Y-53889700D01*
X145693384Y-53909385D01*
X145714026Y-53926019D01*
X147277287Y-55489280D01*
X147368612Y-55542007D01*
X147470473Y-55569300D01*
X147835902Y-55569300D01*
X147902941Y-55588985D01*
X147923583Y-55605619D01*
X147967284Y-55649320D01*
X147967286Y-55649321D01*
X147967290Y-55649324D01*
X148104209Y-55728373D01*
X148104216Y-55728377D01*
X148256943Y-55769300D01*
X148256945Y-55769300D01*
X148415055Y-55769300D01*
X148415057Y-55769300D01*
X148567784Y-55728377D01*
X148704716Y-55649320D01*
X148816520Y-55537516D01*
X148895577Y-55400584D01*
X148936500Y-55247857D01*
X148936500Y-55089743D01*
X148895577Y-54937016D01*
X148895573Y-54937009D01*
X148816524Y-54800090D01*
X148816518Y-54800082D01*
X148704717Y-54688281D01*
X148704709Y-54688275D01*
X148567790Y-54609226D01*
X148567786Y-54609224D01*
X148567784Y-54609223D01*
X148415057Y-54568300D01*
X148256943Y-54568300D01*
X148104216Y-54609223D01*
X148104209Y-54609226D01*
X147967290Y-54688275D01*
X147967282Y-54688281D01*
X147923583Y-54731981D01*
X147896655Y-54746684D01*
X147870837Y-54763277D01*
X147864636Y-54764168D01*
X147862260Y-54765466D01*
X147835902Y-54768300D01*
X147740455Y-54768300D01*
X147673416Y-54748615D01*
X147652774Y-54731981D01*
X146280419Y-53359626D01*
X146246934Y-53298303D01*
X146244100Y-53271945D01*
X146244100Y-53210145D01*
X146244100Y-53210143D01*
X146203177Y-53057416D01*
X146194028Y-53041570D01*
X146124124Y-52920490D01*
X146124118Y-52920482D01*
X146012317Y-52808681D01*
X146012309Y-52808675D01*
X145875390Y-52729626D01*
X145875386Y-52729624D01*
X145875384Y-52729623D01*
X145722657Y-52688700D01*
X145564543Y-52688700D01*
X145411816Y-52729623D01*
X145411809Y-52729626D01*
X145274890Y-52808675D01*
X145274882Y-52808681D01*
X145163081Y-52920482D01*
X145163075Y-52920490D01*
X145084026Y-53057409D01*
X145084023Y-53057416D01*
X145043100Y-53210143D01*
X141323860Y-53210143D01*
X141328549Y-53198431D01*
X141345569Y-53155924D01*
X141434617Y-52933525D01*
X141434621Y-52933514D01*
X141445764Y-52900272D01*
X141524189Y-52612456D01*
X141531450Y-52578156D01*
X141539545Y-52525020D01*
X141569102Y-52461714D01*
X141628194Y-52424434D01*
X141662130Y-52419700D01*
X142085673Y-52419700D01*
X142120902Y-52419700D01*
X142187941Y-52439385D01*
X142208583Y-52456019D01*
X142303084Y-52550520D01*
X142303086Y-52550521D01*
X142303090Y-52550524D01*
X142385397Y-52598043D01*
X142440016Y-52629577D01*
X142592743Y-52670500D01*
X142592745Y-52670500D01*
X142750855Y-52670500D01*
X142750857Y-52670500D01*
X142903584Y-52629577D01*
X143040516Y-52550520D01*
X143152320Y-52438716D01*
X143231377Y-52301784D01*
X143272300Y-52149057D01*
X143272300Y-51990943D01*
X143231377Y-51838216D01*
X143196783Y-51778297D01*
X143152324Y-51701290D01*
X143152318Y-51701282D01*
X143040517Y-51589481D01*
X143040509Y-51589475D01*
X142903590Y-51510426D01*
X142903586Y-51510424D01*
X142903584Y-51510423D01*
X142750857Y-51469500D01*
X142592743Y-51469500D01*
X142440016Y-51510423D01*
X142440009Y-51510426D01*
X142303089Y-51589475D01*
X142298402Y-51593073D01*
X142233233Y-51618270D01*
X142222912Y-51618700D01*
X141670711Y-51618700D01*
X141640081Y-51609706D01*
X141609021Y-51602266D01*
X141606777Y-51599926D01*
X141603672Y-51599015D01*
X141582771Y-51574894D01*
X141560660Y-51551838D01*
X141559219Y-51547713D01*
X141557917Y-51546211D01*
X141549021Y-51518524D01*
X141543625Y-51490953D01*
X141541327Y-51468584D01*
X141541307Y-51466849D01*
X141518133Y-51356996D01*
X141518130Y-51356990D01*
X141518130Y-51356987D01*
X141518128Y-51356980D01*
X141514884Y-51344107D01*
X141512411Y-51331473D01*
X141504354Y-51290300D01*
X141495657Y-51256335D01*
X141405196Y-50972072D01*
X141392665Y-50939328D01*
X141270231Y-50667301D01*
X141270212Y-50667264D01*
X141254036Y-50636218D01*
X141254034Y-50636214D01*
X141244103Y-50619562D01*
X141197845Y-50541995D01*
X141188836Y-50520245D01*
X141186061Y-50513757D01*
X141146988Y-50456718D01*
X141101237Y-50380002D01*
X141081581Y-50350971D01*
X141081574Y-50350962D01*
X141081566Y-50350950D01*
X140900455Y-50113976D01*
X140900446Y-50113965D01*
X140900439Y-50113956D01*
X140877586Y-50087367D01*
X140670481Y-49872667D01*
X140644733Y-49848872D01*
X140474475Y-49708758D01*
X140414412Y-49659329D01*
X140414388Y-49659310D01*
X140386175Y-49638682D01*
X140386157Y-49638670D01*
X140265724Y-49560787D01*
X140265722Y-49560786D01*
X140260845Y-49557632D01*
X140260843Y-49557630D01*
X140259219Y-49556580D01*
X140257754Y-49555633D01*
X140232678Y-49539417D01*
X140224775Y-49535732D01*
X140197019Y-49520685D01*
X140087831Y-49494548D01*
X140087833Y-49494548D01*
X140034327Y-49491862D01*
X140034304Y-49491862D01*
X140010436Y-49492503D01*
X139994961Y-49491952D01*
X139992310Y-49491691D01*
X139972801Y-49489770D01*
X139942864Y-49488300D01*
X139942852Y-49488300D01*
X139343332Y-49488300D01*
X139310960Y-49484000D01*
X139292032Y-49478881D01*
X139292030Y-49478880D01*
X139292028Y-49478880D01*
X139151326Y-49449109D01*
X139151324Y-49449108D01*
X139151321Y-49449108D01*
X139151316Y-49449107D01*
X139009198Y-49427205D01*
X139009174Y-49427202D01*
X138866085Y-49413234D01*
X138866037Y-49413231D01*
X138722363Y-49407236D01*
X138722355Y-49407236D01*
X138578567Y-49409234D01*
X138578564Y-49409234D01*
X138435081Y-49419223D01*
X138292389Y-49437169D01*
X138150916Y-49463017D01*
X138011095Y-49496687D01*
X137873371Y-49538073D01*
X137873363Y-49538075D01*
X137738159Y-49587050D01*
X137738123Y-49587064D01*
X137724308Y-49592956D01*
X137654921Y-49601147D01*
X137599277Y-49576571D01*
X137550611Y-49538510D01*
X137503043Y-49513812D01*
X137459867Y-49495460D01*
X137459862Y-49495459D01*
X137348873Y-49479806D01*
X137295348Y-49482198D01*
X137248751Y-49487898D01*
X137248743Y-49487900D01*
X137157366Y-49524772D01*
X137122285Y-49544223D01*
X137118043Y-49546932D01*
X137118002Y-49546961D01*
X136996177Y-49624804D01*
X136996153Y-49624820D01*
X136967888Y-49645248D01*
X136735944Y-49834008D01*
X136735934Y-49834017D01*
X136710125Y-49857608D01*
X136710101Y-49857632D01*
X136501351Y-50071682D01*
X136478381Y-50098112D01*
X136295511Y-50334695D01*
X136295501Y-50334709D01*
X136275730Y-50363571D01*
X136121161Y-50619562D01*
X136104831Y-50650492D01*
X136104820Y-50650514D01*
X135980613Y-50922500D01*
X135967920Y-50955129D01*
X135875685Y-51239571D01*
X135866823Y-51273410D01*
X135866815Y-51273446D01*
X135807787Y-51566535D01*
X135807782Y-51566563D01*
X135802851Y-51601215D01*
X135777788Y-51899190D01*
X135777787Y-51899197D01*
X135776860Y-51934150D01*
X135125300Y-51934150D01*
X135125300Y-45537372D01*
X142282785Y-45537372D01*
X142283521Y-45572379D01*
X142306900Y-45869780D01*
X142311638Y-45904443D01*
X142311642Y-45904463D01*
X142329670Y-45996578D01*
X142358397Y-46143364D01*
X142358400Y-46143375D01*
X142368935Y-46197199D01*
X142377625Y-46231131D01*
X142468075Y-46515361D01*
X142468080Y-46515375D01*
X142480595Y-46548077D01*
X142480596Y-46548079D01*
X142603030Y-46820104D01*
X142619185Y-46851109D01*
X142619206Y-46851147D01*
X142670789Y-46937643D01*
X142728304Y-47034084D01*
X142771981Y-47107323D01*
X142772002Y-47107355D01*
X142791619Y-47136330D01*
X142972742Y-47373321D01*
X142972780Y-47373368D01*
X142995566Y-47399877D01*
X142995590Y-47399903D01*
X143202665Y-47614572D01*
X143202678Y-47614584D01*
X143228390Y-47638345D01*
X143458731Y-47827904D01*
X143458733Y-47827906D01*
X143486899Y-47848499D01*
X143486922Y-47848515D01*
X143607339Y-47926387D01*
X143615538Y-47931689D01*
X143616154Y-47932087D01*
X143616186Y-47932108D01*
X143641894Y-47948733D01*
X143650085Y-47952416D01*
X143675985Y-47966457D01*
X143675983Y-47966457D01*
X143784993Y-47992551D01*
X143784991Y-47992551D01*
X143838507Y-47995237D01*
X143862391Y-47994596D01*
X143877877Y-47995148D01*
X143900050Y-47997331D01*
X143929948Y-47998800D01*
X144527619Y-47998800D01*
X144559989Y-48003100D01*
X144570344Y-48005900D01*
X144580772Y-48008720D01*
X144721474Y-48038491D01*
X144863613Y-48060396D01*
X144899397Y-48063889D01*
X145006714Y-48074365D01*
X145006728Y-48074365D01*
X145006750Y-48074368D01*
X145150442Y-48080364D01*
X145294245Y-48078365D01*
X145437715Y-48068377D01*
X145580409Y-48050431D01*
X145721884Y-48024583D01*
X145861704Y-47990913D01*
X145999437Y-47949524D01*
X146134656Y-47900544D01*
X146147967Y-47894866D01*
X146217353Y-47886670D01*
X146273006Y-47911248D01*
X146321960Y-47949533D01*
X146369521Y-47974228D01*
X146412776Y-47992614D01*
X146523946Y-48008293D01*
X146560611Y-48006653D01*
X146577470Y-48005900D01*
X146577474Y-48005899D01*
X146577483Y-48005899D01*
X146624151Y-48000191D01*
X146728265Y-47958179D01*
X146750848Y-47943757D01*
X146750850Y-47943754D01*
X146755501Y-47940785D01*
X146755525Y-47940767D01*
X146876899Y-47863213D01*
X146905240Y-47842729D01*
X147137165Y-47653984D01*
X147163043Y-47630330D01*
X147371816Y-47416256D01*
X147394814Y-47389793D01*
X147424909Y-47350859D01*
X147526542Y-47219373D01*
X147577685Y-47153208D01*
X147597499Y-47124285D01*
X147752060Y-46868307D01*
X147768430Y-46837303D01*
X147797093Y-46774535D01*
X147842846Y-46721732D01*
X147909885Y-46702046D01*
X147976925Y-46721729D01*
X148022681Y-46774531D01*
X148029661Y-46793947D01*
X148041282Y-46837315D01*
X148055823Y-46891585D01*
X148055826Y-46891590D01*
X148134875Y-47028509D01*
X148134879Y-47028514D01*
X148134880Y-47028516D01*
X148246684Y-47140320D01*
X148246686Y-47140321D01*
X148246690Y-47140324D01*
X148317650Y-47181292D01*
X148383616Y-47219377D01*
X148536343Y-47260300D01*
X148536345Y-47260300D01*
X148694455Y-47260300D01*
X148694457Y-47260300D01*
X148847184Y-47219377D01*
X148984116Y-47140320D01*
X149027817Y-47096619D01*
X149089140Y-47063134D01*
X149115498Y-47060300D01*
X151039745Y-47060300D01*
X151106784Y-47079985D01*
X151127426Y-47096619D01*
X153367826Y-49337019D01*
X153401311Y-49398342D01*
X153396327Y-49468034D01*
X153354455Y-49523967D01*
X153288991Y-49548384D01*
X153221049Y-49533712D01*
X153197020Y-49520686D01*
X153087831Y-49494548D01*
X153087833Y-49494548D01*
X153034327Y-49491862D01*
X153034304Y-49491862D01*
X153010436Y-49492503D01*
X152994961Y-49491952D01*
X152992310Y-49491691D01*
X152972801Y-49489770D01*
X152942864Y-49488300D01*
X152942852Y-49488300D01*
X152343332Y-49488300D01*
X152310960Y-49484000D01*
X152292032Y-49478881D01*
X152292030Y-49478880D01*
X152292028Y-49478880D01*
X152151326Y-49449109D01*
X152151324Y-49449108D01*
X152151321Y-49449108D01*
X152151316Y-49449107D01*
X152009198Y-49427205D01*
X152009174Y-49427202D01*
X151866085Y-49413234D01*
X151866037Y-49413231D01*
X151722363Y-49407236D01*
X151722355Y-49407236D01*
X151578567Y-49409234D01*
X151578564Y-49409234D01*
X151435081Y-49419223D01*
X151292389Y-49437169D01*
X151150916Y-49463017D01*
X151011095Y-49496687D01*
X150873371Y-49538073D01*
X150873363Y-49538075D01*
X150738159Y-49587050D01*
X150738123Y-49587064D01*
X150724308Y-49592956D01*
X150654921Y-49601147D01*
X150599277Y-49576571D01*
X150550611Y-49538510D01*
X150503043Y-49513812D01*
X150459867Y-49495460D01*
X150459862Y-49495459D01*
X150348873Y-49479806D01*
X150295348Y-49482198D01*
X150248751Y-49487898D01*
X150248743Y-49487900D01*
X150157366Y-49524772D01*
X150122285Y-49544223D01*
X150118043Y-49546932D01*
X150118002Y-49546961D01*
X149996177Y-49624804D01*
X149996153Y-49624820D01*
X149967888Y-49645248D01*
X149735944Y-49834008D01*
X149735934Y-49834017D01*
X149710125Y-49857608D01*
X149710101Y-49857632D01*
X149501351Y-50071682D01*
X149478381Y-50098112D01*
X149295511Y-50334695D01*
X149295501Y-50334709D01*
X149275730Y-50363571D01*
X149121161Y-50619562D01*
X149104831Y-50650492D01*
X149104820Y-50650514D01*
X148980613Y-50922500D01*
X148967920Y-50955129D01*
X148875685Y-51239571D01*
X148866823Y-51273410D01*
X148866815Y-51273446D01*
X148807787Y-51566535D01*
X148807782Y-51566563D01*
X148802851Y-51601215D01*
X148777788Y-51899190D01*
X148777787Y-51899197D01*
X148776860Y-51934150D01*
X148776861Y-51934179D01*
X148786102Y-52233058D01*
X148789188Y-52267912D01*
X148832613Y-52563782D01*
X148839670Y-52598043D01*
X148916710Y-52886994D01*
X148916716Y-52887015D01*
X148927636Y-52920193D01*
X148927649Y-52920229D01*
X149037280Y-53198431D01*
X149051965Y-53230215D01*
X149192742Y-53494016D01*
X149210966Y-53523898D01*
X149381047Y-53769841D01*
X149402564Y-53797427D01*
X149402566Y-53797428D01*
X149599706Y-54022267D01*
X149624263Y-54047229D01*
X149624264Y-54047230D01*
X149845857Y-54247990D01*
X149845858Y-54247991D01*
X149873095Y-54269958D01*
X149873134Y-54269988D01*
X150116234Y-54444015D01*
X150145824Y-54462727D01*
X150145849Y-54462741D01*
X150407276Y-54607763D01*
X150407307Y-54607779D01*
X150438770Y-54622947D01*
X150577017Y-54680089D01*
X150601781Y-54690316D01*
X150646397Y-54704837D01*
X150646402Y-54704838D01*
X150758326Y-54710760D01*
X150758334Y-54710760D01*
X150811444Y-54703712D01*
X150811462Y-54703709D01*
X150814974Y-54702965D01*
X150840694Y-54700268D01*
X151604678Y-54700268D01*
X151611732Y-54700187D01*
X151721412Y-54677049D01*
X151758171Y-54661823D01*
X151764637Y-54659057D01*
X151764646Y-54659052D01*
X151861844Y-54592472D01*
X151862763Y-54593814D01*
X151919905Y-54569148D01*
X151922849Y-54568823D01*
X152009187Y-54560396D01*
X152121458Y-54543094D01*
X152151314Y-54538493D01*
X152151316Y-54538492D01*
X152151326Y-54538491D01*
X152200675Y-54528049D01*
X152211918Y-54528917D01*
X152222643Y-54525418D01*
X152246130Y-54531559D01*
X152270334Y-54533429D01*
X152281078Y-54540698D01*
X152290240Y-54543094D01*
X152314794Y-54563509D01*
X152317591Y-54565401D01*
X152318390Y-54566269D01*
X152356105Y-54608841D01*
X152361229Y-54612826D01*
X152368213Y-54620416D01*
X152379285Y-54642862D01*
X152393918Y-54663173D01*
X152394475Y-54673659D01*
X152399121Y-54683077D01*
X152396299Y-54707947D01*
X152397629Y-54732944D01*
X152391797Y-54747628D01*
X152391245Y-54752501D01*
X152388550Y-54755804D01*
X152384354Y-54766373D01*
X152373825Y-54784611D01*
X152373823Y-54784616D01*
X152332900Y-54937343D01*
X152332900Y-55095457D01*
X152373736Y-55247857D01*
X152373823Y-55248183D01*
X152373826Y-55248190D01*
X152452875Y-55385109D01*
X152452881Y-55385117D01*
X152521981Y-55454217D01*
X152555466Y-55515540D01*
X152558300Y-55541898D01*
X152558300Y-55891343D01*
X152549655Y-55920780D01*
X152543132Y-55950771D01*
X152539376Y-55955787D01*
X152538615Y-55958382D01*
X152521981Y-55979025D01*
X152450043Y-56050962D01*
X152403669Y-56077738D01*
X152404322Y-56079314D01*
X152396812Y-56082424D01*
X152259887Y-56161477D01*
X152259882Y-56161481D01*
X152148081Y-56273282D01*
X152148075Y-56273290D01*
X152069026Y-56410209D01*
X152069023Y-56410216D01*
X152028100Y-56562943D01*
X152028100Y-56721057D01*
X152065693Y-56861354D01*
X152069023Y-56873783D01*
X152069026Y-56873790D01*
X152148075Y-57010709D01*
X152148079Y-57010714D01*
X152148080Y-57010716D01*
X152259884Y-57122520D01*
X152259886Y-57122521D01*
X152259890Y-57122524D01*
X152374730Y-57188826D01*
X152396816Y-57201577D01*
X152549543Y-57242500D01*
X152549545Y-57242500D01*
X152707655Y-57242500D01*
X152707657Y-57242500D01*
X152860384Y-57201577D01*
X152997316Y-57122520D01*
X153109120Y-57010716D01*
X153188177Y-56873784D01*
X153229100Y-56721057D01*
X153229100Y-56562943D01*
X153214186Y-56507284D01*
X153215849Y-56437438D01*
X153246279Y-56387513D01*
X153279280Y-56354513D01*
X153293671Y-56329587D01*
X153332007Y-56263187D01*
X153359300Y-56161327D01*
X153359300Y-55491098D01*
X153378985Y-55424059D01*
X153395619Y-55403417D01*
X153398453Y-55400583D01*
X153413920Y-55385116D01*
X153492977Y-55248184D01*
X153533900Y-55095457D01*
X153533900Y-54937343D01*
X153492977Y-54784616D01*
X153490874Y-54776766D01*
X153492748Y-54776263D01*
X153486300Y-54743830D01*
X153486300Y-54582675D01*
X153486300Y-54582673D01*
X153459007Y-54480813D01*
X153438485Y-54445268D01*
X153430623Y-54412861D01*
X153421900Y-54380673D01*
X153422417Y-54379037D01*
X153422013Y-54377370D01*
X153432922Y-54345847D01*
X153442984Y-54314061D01*
X153444440Y-54312569D01*
X153444865Y-54311343D01*
X153466651Y-54287877D01*
X153470343Y-54284810D01*
X153483642Y-54275400D01*
X153511055Y-54253537D01*
X153549697Y-54218908D01*
X153551480Y-54217428D01*
X153552254Y-54217093D01*
X153560619Y-54210526D01*
X153583873Y-54194597D01*
X153612004Y-54166466D01*
X153616961Y-54161393D01*
X153616964Y-54161387D01*
X153618408Y-54159588D01*
X153632413Y-54144788D01*
X153733214Y-54054463D01*
X153757939Y-54029606D01*
X153955831Y-53806386D01*
X153962543Y-53797878D01*
X154019516Y-53757433D01*
X154089312Y-53754212D01*
X154149769Y-53789236D01*
X154181694Y-53851386D01*
X154183900Y-53874673D01*
X154183900Y-56602545D01*
X154164215Y-56669584D01*
X154147581Y-56690226D01*
X153740426Y-57097381D01*
X153679103Y-57130866D01*
X153652745Y-57133700D01*
X153590943Y-57133700D01*
X153438216Y-57174623D01*
X153438209Y-57174626D01*
X153301290Y-57253675D01*
X153301282Y-57253681D01*
X153189481Y-57365482D01*
X153189475Y-57365490D01*
X153110426Y-57502409D01*
X153110423Y-57502416D01*
X153069500Y-57655143D01*
X153069500Y-57813256D01*
X153095863Y-57911646D01*
X153094200Y-57981496D01*
X153055037Y-58039358D01*
X152990808Y-58066862D01*
X152921906Y-58055275D01*
X152888407Y-58031420D01*
X152871439Y-58014452D01*
X152871434Y-58014448D01*
X152734488Y-57914952D01*
X152734487Y-57914951D01*
X152734485Y-57914950D01*
X152687382Y-57890950D01*
X152583653Y-57838096D01*
X152422647Y-57785781D01*
X152255449Y-57759300D01*
X152255444Y-57759300D01*
X152086156Y-57759300D01*
X152086151Y-57759300D01*
X151918952Y-57785781D01*
X151757946Y-57838096D01*
X151607111Y-57914952D01*
X151470165Y-58014448D01*
X151470160Y-58014452D01*
X151350452Y-58134160D01*
X151350448Y-58134165D01*
X151250952Y-58271111D01*
X151174096Y-58421946D01*
X151121781Y-58582952D01*
X151095300Y-58750150D01*
X151095300Y-59969449D01*
X151121781Y-60136647D01*
X151174096Y-60297653D01*
X151221042Y-60389788D01*
X151243825Y-60434502D01*
X151250952Y-60448488D01*
X151350448Y-60585434D01*
X151350452Y-60585439D01*
X151470160Y-60705147D01*
X151470165Y-60705151D01*
X151526303Y-60745937D01*
X151607115Y-60804650D01*
X151681849Y-60842729D01*
X151757946Y-60881503D01*
X151757948Y-60881503D01*
X151757951Y-60881505D01*
X151844250Y-60909545D01*
X151918952Y-60933818D01*
X152086151Y-60960300D01*
X152086156Y-60960300D01*
X152255449Y-60960300D01*
X152422647Y-60933818D01*
X152446788Y-60925974D01*
X152583649Y-60881505D01*
X152734485Y-60804650D01*
X152871441Y-60705146D01*
X152991146Y-60585441D01*
X153090650Y-60448485D01*
X153167505Y-60297649D01*
X153219818Y-60136647D01*
X153224457Y-60107355D01*
X153246300Y-59969449D01*
X153246300Y-58750150D01*
X153219818Y-58582952D01*
X153184305Y-58473656D01*
X153167505Y-58421951D01*
X153167502Y-58421947D01*
X153167502Y-58421944D01*
X153152200Y-58391913D01*
X153139303Y-58323244D01*
X153165578Y-58258503D01*
X153222684Y-58218246D01*
X153292490Y-58215253D01*
X153324684Y-58228230D01*
X153438216Y-58293777D01*
X153590943Y-58334700D01*
X153590945Y-58334700D01*
X153749055Y-58334700D01*
X153749057Y-58334700D01*
X153901784Y-58293777D01*
X153924900Y-58280430D01*
X153992800Y-58263958D01*
X154058827Y-58286811D01*
X154102018Y-58341732D01*
X154110900Y-58387818D01*
X154110900Y-58473657D01*
X154146603Y-58606900D01*
X154151823Y-58626383D01*
X154151826Y-58626390D01*
X154230875Y-58763309D01*
X154230879Y-58763314D01*
X154230880Y-58763316D01*
X154342684Y-58875120D01*
X154342686Y-58875121D01*
X154342690Y-58875124D01*
X154479609Y-58954173D01*
X154479616Y-58954177D01*
X154632343Y-58995100D01*
X154632345Y-58995100D01*
X154790455Y-58995100D01*
X154790457Y-58995100D01*
X154943184Y-58954177D01*
X155080116Y-58875120D01*
X155191920Y-58763316D01*
X155270977Y-58626384D01*
X155311900Y-58473657D01*
X155311900Y-58410098D01*
X155331585Y-58343059D01*
X155336352Y-58336279D01*
X155336677Y-58335715D01*
X155336680Y-58335713D01*
X155389407Y-58244388D01*
X155416700Y-58142527D01*
X155416700Y-58037073D01*
X155416700Y-49748800D01*
X155436385Y-49681761D01*
X155489189Y-49636006D01*
X155540700Y-49624800D01*
X155679455Y-49624800D01*
X155679457Y-49624800D01*
X155832184Y-49583877D01*
X155832185Y-49583876D01*
X155840035Y-49581773D01*
X155840220Y-49582465D01*
X155878763Y-49574800D01*
X157862037Y-49574800D01*
X157900579Y-49582465D01*
X157900765Y-49581773D01*
X157908614Y-49583876D01*
X157908616Y-49583877D01*
X158061343Y-49624800D01*
X158061345Y-49624800D01*
X158219455Y-49624800D01*
X158219457Y-49624800D01*
X158372184Y-49583877D01*
X158372185Y-49583876D01*
X158380035Y-49581773D01*
X158380220Y-49582465D01*
X158418763Y-49574800D01*
X158680390Y-49574800D01*
X158713075Y-49581298D01*
X158713565Y-49579473D01*
X158721414Y-49581576D01*
X158721416Y-49581577D01*
X158874143Y-49622500D01*
X158874145Y-49622500D01*
X159032255Y-49622500D01*
X159032257Y-49622500D01*
X159184984Y-49581577D01*
X159184985Y-49581576D01*
X159192835Y-49579473D01*
X159193324Y-49581298D01*
X159226010Y-49574800D01*
X163035202Y-49574800D01*
X163102241Y-49594485D01*
X163147996Y-49647289D01*
X163157940Y-49716447D01*
X163154980Y-49730877D01*
X163127900Y-49831943D01*
X163127900Y-49990057D01*
X163160399Y-50111343D01*
X163168823Y-50142783D01*
X163168826Y-50142790D01*
X163247875Y-50279709D01*
X163247881Y-50279717D01*
X163266181Y-50298017D01*
X163299666Y-50359340D01*
X163302500Y-50385698D01*
X163302500Y-51166945D01*
X163282815Y-51233984D01*
X163266181Y-51254626D01*
X155127522Y-59393284D01*
X155127520Y-59393287D01*
X155074793Y-59484610D01*
X155061928Y-59532624D01*
X155053773Y-59563063D01*
X155050884Y-59573844D01*
X155050883Y-59573847D01*
X155047500Y-59586469D01*
X155047500Y-60434502D01*
X155027815Y-60501541D01*
X155011181Y-60522183D01*
X154967481Y-60565882D01*
X154967475Y-60565890D01*
X154888426Y-60702809D01*
X154888423Y-60702816D01*
X154847500Y-60855543D01*
X154847500Y-61013657D01*
X154864839Y-61078365D01*
X154888423Y-61166383D01*
X154888426Y-61166390D01*
X154967475Y-61303309D01*
X154967479Y-61303314D01*
X154967480Y-61303316D01*
X155079284Y-61415120D01*
X155079286Y-61415121D01*
X155079290Y-61415124D01*
X155216209Y-61494173D01*
X155216216Y-61494177D01*
X155368943Y-61535100D01*
X155368945Y-61535100D01*
X155527055Y-61535100D01*
X155527057Y-61535100D01*
X155679784Y-61494177D01*
X155816716Y-61415120D01*
X155928520Y-61303316D01*
X156007577Y-61166384D01*
X156048500Y-61013657D01*
X156048500Y-60855543D01*
X156007577Y-60702816D01*
X155965728Y-60630330D01*
X155928524Y-60565890D01*
X155928518Y-60565882D01*
X155884819Y-60522183D01*
X155851334Y-60460860D01*
X155848500Y-60434502D01*
X155848500Y-59856455D01*
X155868185Y-59789416D01*
X155884819Y-59768774D01*
X157109450Y-58544143D01*
X159444900Y-58544143D01*
X159444900Y-58702257D01*
X159481456Y-58838684D01*
X159485823Y-58854983D01*
X159485826Y-58854990D01*
X159564875Y-58991909D01*
X159564879Y-58991914D01*
X159564880Y-58991916D01*
X159676684Y-59103720D01*
X159676686Y-59103721D01*
X159676690Y-59103724D01*
X159745350Y-59143364D01*
X159813616Y-59182777D01*
X159966343Y-59223700D01*
X159966345Y-59223700D01*
X160124455Y-59223700D01*
X160124457Y-59223700D01*
X160277184Y-59182777D01*
X160414116Y-59103720D01*
X160453019Y-59064817D01*
X160514342Y-59031332D01*
X160584034Y-59036316D01*
X160628381Y-59064817D01*
X160667284Y-59103720D01*
X160667286Y-59103721D01*
X160667290Y-59103724D01*
X160735950Y-59143364D01*
X160804216Y-59182777D01*
X160956943Y-59223700D01*
X160956945Y-59223700D01*
X161115055Y-59223700D01*
X161115057Y-59223700D01*
X161267784Y-59182777D01*
X161404716Y-59103720D01*
X161448417Y-59060019D01*
X161509740Y-59026534D01*
X161536098Y-59023700D01*
X162919346Y-59023700D01*
X162986385Y-59043385D01*
X163032140Y-59096189D01*
X163042084Y-59165347D01*
X163013059Y-59228903D01*
X163007029Y-59235378D01*
X162526230Y-59716177D01*
X162046226Y-60196181D01*
X161984903Y-60229666D01*
X161958545Y-60232500D01*
X161896743Y-60232500D01*
X161744016Y-60273423D01*
X161744009Y-60273426D01*
X161607090Y-60352475D01*
X161607086Y-60352478D01*
X161526583Y-60432981D01*
X161465259Y-60466465D01*
X161395568Y-60461481D01*
X161376903Y-60452686D01*
X161242390Y-60375026D01*
X161242386Y-60375024D01*
X161242384Y-60375023D01*
X161089657Y-60334100D01*
X160931543Y-60334100D01*
X160778816Y-60375023D01*
X160778809Y-60375026D01*
X160641890Y-60454075D01*
X160641882Y-60454081D01*
X160530081Y-60565882D01*
X160530075Y-60565890D01*
X160451026Y-60702809D01*
X160451023Y-60702816D01*
X160410100Y-60855543D01*
X160410100Y-61013657D01*
X160427439Y-61078365D01*
X160451023Y-61166383D01*
X160451026Y-61166390D01*
X160530075Y-61303309D01*
X160530079Y-61303314D01*
X160530080Y-61303316D01*
X160641884Y-61415120D01*
X160641886Y-61415121D01*
X160641890Y-61415124D01*
X160778809Y-61494173D01*
X160778816Y-61494177D01*
X160931543Y-61535100D01*
X160967945Y-61535100D01*
X161034984Y-61554785D01*
X161055626Y-61571419D01*
X161138687Y-61654480D01*
X161230012Y-61707207D01*
X161331873Y-61734500D01*
X161331875Y-61734500D01*
X172982925Y-61734500D01*
X172982927Y-61734500D01*
X173084788Y-61707207D01*
X173176113Y-61654480D01*
X174986373Y-59844218D01*
X175047696Y-59810734D01*
X175074054Y-59807900D01*
X175135855Y-59807900D01*
X175135857Y-59807900D01*
X175288584Y-59766977D01*
X175425516Y-59687920D01*
X175464419Y-59649017D01*
X175525742Y-59615532D01*
X175595434Y-59620516D01*
X175639781Y-59649017D01*
X175678684Y-59687920D01*
X175678686Y-59687921D01*
X175678690Y-59687924D01*
X175788694Y-59751434D01*
X175815616Y-59766977D01*
X175968343Y-59807900D01*
X175968345Y-59807900D01*
X176126455Y-59807900D01*
X176126457Y-59807900D01*
X176279184Y-59766977D01*
X176416116Y-59687920D01*
X176467719Y-59636317D01*
X176529042Y-59602832D01*
X176598734Y-59607816D01*
X176643081Y-59636317D01*
X176694684Y-59687920D01*
X176694686Y-59687921D01*
X176694690Y-59687924D01*
X176804694Y-59751434D01*
X176831616Y-59766977D01*
X176984343Y-59807900D01*
X176984345Y-59807900D01*
X177142455Y-59807900D01*
X177142457Y-59807900D01*
X177295184Y-59766977D01*
X177432116Y-59687920D01*
X177543920Y-59576116D01*
X177622977Y-59439184D01*
X177663900Y-59286457D01*
X177663900Y-59128343D01*
X177622977Y-58975616D01*
X177581886Y-58904443D01*
X177543924Y-58838690D01*
X177543918Y-58838682D01*
X177432117Y-58726881D01*
X177432109Y-58726875D01*
X177295190Y-58647826D01*
X177295186Y-58647824D01*
X177295184Y-58647823D01*
X177142457Y-58606900D01*
X177142456Y-58606900D01*
X177080654Y-58606900D01*
X177013615Y-58587215D01*
X176992973Y-58570581D01*
X176619340Y-58196948D01*
X176224113Y-57801720D01*
X176178450Y-57775356D01*
X176132789Y-57748993D01*
X176081857Y-57735346D01*
X176030927Y-57721700D01*
X160599127Y-57721700D01*
X160493673Y-57721700D01*
X160391810Y-57748993D01*
X160300487Y-57801720D01*
X160300484Y-57801722D01*
X160115826Y-57986381D01*
X160054503Y-58019866D01*
X160028145Y-58022700D01*
X159966343Y-58022700D01*
X159813616Y-58063623D01*
X159813609Y-58063626D01*
X159676690Y-58142675D01*
X159676682Y-58142681D01*
X159564881Y-58254482D01*
X159564875Y-58254490D01*
X159485826Y-58391409D01*
X159485823Y-58391416D01*
X159444900Y-58544143D01*
X157109450Y-58544143D01*
X157205258Y-58448335D01*
X160563850Y-55089743D01*
X164023480Y-51630113D01*
X164076207Y-51538788D01*
X164103500Y-51436927D01*
X164103500Y-51331473D01*
X164103500Y-50436498D01*
X164123185Y-50369459D01*
X164139819Y-50348817D01*
X164154300Y-50334336D01*
X164208920Y-50279716D01*
X164287977Y-50142784D01*
X164328900Y-49990057D01*
X164328900Y-49831943D01*
X164301823Y-49730890D01*
X164303486Y-49661044D01*
X164342648Y-49603181D01*
X164406876Y-49575677D01*
X164421598Y-49574800D01*
X172467037Y-49574800D01*
X172505579Y-49582465D01*
X172505765Y-49581773D01*
X172513614Y-49583876D01*
X172513616Y-49583877D01*
X172666343Y-49624800D01*
X172666345Y-49624800D01*
X172824455Y-49624800D01*
X172824457Y-49624800D01*
X172977184Y-49583877D01*
X172977185Y-49583876D01*
X172985035Y-49581773D01*
X172985220Y-49582465D01*
X173023763Y-49574800D01*
X177573713Y-49574800D01*
X177640752Y-49594485D01*
X177661394Y-49611119D01*
X178471205Y-50420930D01*
X178493037Y-50453605D01*
X178493659Y-50453246D01*
X178576777Y-50597212D01*
X178576779Y-50597215D01*
X178576780Y-50597216D01*
X178688584Y-50709020D01*
X178688586Y-50709021D01*
X178688590Y-50709024D01*
X178832554Y-50792141D01*
X178832338Y-50792513D01*
X178836616Y-50793444D01*
X178864870Y-50814595D01*
X179031732Y-50981457D01*
X179063825Y-51037041D01*
X179069221Y-51057180D01*
X179069226Y-51057190D01*
X179148275Y-51194109D01*
X179148279Y-51194114D01*
X179148280Y-51194116D01*
X179260084Y-51305920D01*
X179260086Y-51305921D01*
X179260090Y-51305924D01*
X179342795Y-51353673D01*
X179397016Y-51384977D01*
X179549743Y-51425900D01*
X179549745Y-51425900D01*
X179707855Y-51425900D01*
X179707857Y-51425900D01*
X179860584Y-51384977D01*
X179997516Y-51305920D01*
X180109320Y-51194116D01*
X180188377Y-51057184D01*
X180229300Y-50904457D01*
X180229300Y-50746343D01*
X180188377Y-50593616D01*
X180142271Y-50513757D01*
X180109324Y-50456690D01*
X180109318Y-50456682D01*
X179997517Y-50344881D01*
X179997512Y-50344877D01*
X179904446Y-50291146D01*
X179878765Y-50271440D01*
X179643395Y-50036070D01*
X179621562Y-50003395D01*
X179620941Y-50003754D01*
X179537824Y-49859790D01*
X179537818Y-49859782D01*
X179426017Y-49747981D01*
X179426012Y-49747977D01*
X179282046Y-49664859D01*
X179282405Y-49664237D01*
X179249730Y-49642405D01*
X178301706Y-48694381D01*
X178268221Y-48633058D01*
X178273205Y-48563366D01*
X178315077Y-48507433D01*
X178380541Y-48483016D01*
X178389387Y-48482700D01*
X178928945Y-48482700D01*
X178995984Y-48502385D01*
X179016626Y-48519019D01*
X180617581Y-50119974D01*
X180651066Y-50181297D01*
X180653900Y-50207655D01*
X180653900Y-50269457D01*
X180683521Y-50380002D01*
X180694823Y-50422183D01*
X180694826Y-50422190D01*
X180773875Y-50559109D01*
X180773879Y-50559114D01*
X180773880Y-50559116D01*
X180885684Y-50670920D01*
X180885686Y-50670921D01*
X180885690Y-50670924D01*
X181016322Y-50746343D01*
X181022616Y-50749977D01*
X181175343Y-50790900D01*
X181175345Y-50790900D01*
X181333455Y-50790900D01*
X181333457Y-50790900D01*
X181486184Y-50749977D01*
X181623116Y-50670920D01*
X181734920Y-50559116D01*
X181813977Y-50422184D01*
X181854900Y-50269457D01*
X181854900Y-50111343D01*
X181813977Y-49958616D01*
X181813973Y-49958609D01*
X181734924Y-49821690D01*
X181734918Y-49821682D01*
X181683317Y-49770081D01*
X181649832Y-49708758D01*
X181654816Y-49639066D01*
X181683317Y-49594719D01*
X181703236Y-49574800D01*
X181734920Y-49543116D01*
X181813977Y-49406184D01*
X181854900Y-49253457D01*
X181854900Y-49095343D01*
X181813977Y-48942616D01*
X181813973Y-48942609D01*
X181734924Y-48805690D01*
X181734918Y-48805682D01*
X181623117Y-48693881D01*
X181623109Y-48693875D01*
X181486190Y-48614826D01*
X181486186Y-48614824D01*
X181486184Y-48614823D01*
X181333457Y-48573900D01*
X181333456Y-48573900D01*
X181271654Y-48573900D01*
X181204615Y-48554215D01*
X181183973Y-48537581D01*
X180494907Y-47848515D01*
X179798513Y-47152120D01*
X179750278Y-47124271D01*
X179707189Y-47099393D01*
X179656257Y-47085746D01*
X179605327Y-47072100D01*
X179605326Y-47072100D01*
X168316937Y-47072100D01*
X168249898Y-47052415D01*
X168204143Y-46999611D01*
X168194199Y-46930453D01*
X168209549Y-46886101D01*
X168214525Y-46877482D01*
X168250377Y-46815384D01*
X168291300Y-46662657D01*
X168291300Y-46504543D01*
X168250377Y-46351816D01*
X168243164Y-46339322D01*
X168171324Y-46214890D01*
X168171318Y-46214882D01*
X168059517Y-46103081D01*
X168059509Y-46103075D01*
X167922590Y-46024026D01*
X167922586Y-46024024D01*
X167922584Y-46024023D01*
X167769857Y-45983100D01*
X167611743Y-45983100D01*
X167459016Y-46024023D01*
X167459009Y-46024026D01*
X167322089Y-46103075D01*
X167317402Y-46106673D01*
X167252233Y-46131870D01*
X167241912Y-46132300D01*
X165727098Y-46132300D01*
X165660059Y-46112615D01*
X165639417Y-46095981D01*
X165570317Y-46026881D01*
X165570309Y-46026875D01*
X165433390Y-45947826D01*
X165433386Y-45947824D01*
X165433384Y-45947823D01*
X165280657Y-45906900D01*
X165122543Y-45906900D01*
X164969816Y-45947823D01*
X164969809Y-45947826D01*
X164832890Y-46026875D01*
X164832882Y-46026881D01*
X164789183Y-46070581D01*
X164727860Y-46104066D01*
X164701502Y-46106900D01*
X160948455Y-46106900D01*
X160881416Y-46087215D01*
X160860774Y-46070581D01*
X159783315Y-44993122D01*
X159783313Y-44993120D01*
X159737650Y-44966756D01*
X159691989Y-44940393D01*
X159627780Y-44923189D01*
X159590127Y-44913100D01*
X159590126Y-44913100D01*
X156778339Y-44913100D01*
X156778323Y-44913099D01*
X156770727Y-44913099D01*
X156665273Y-44913099D01*
X156597366Y-44931295D01*
X156563412Y-44940393D01*
X156472084Y-44993122D01*
X154695722Y-46769484D01*
X154695720Y-46769487D01*
X154642993Y-46860811D01*
X154634746Y-46891590D01*
X154618781Y-46951174D01*
X154615700Y-46962673D01*
X154615700Y-46962674D01*
X154615700Y-49152745D01*
X154596015Y-49219784D01*
X154543211Y-49265539D01*
X154474053Y-49275483D01*
X154410497Y-49246458D01*
X154404019Y-49240426D01*
X151502915Y-46339322D01*
X151502913Y-46339320D01*
X151457250Y-46312956D01*
X151411589Y-46286593D01*
X151360657Y-46272946D01*
X151309727Y-46259300D01*
X151309726Y-46259300D01*
X149115498Y-46259300D01*
X149048459Y-46239615D01*
X149027817Y-46222981D01*
X148984117Y-46179281D01*
X148984109Y-46179275D01*
X148847190Y-46100226D01*
X148847186Y-46100224D01*
X148847184Y-46100223D01*
X148694457Y-46059300D01*
X148694456Y-46059300D01*
X148632655Y-46059300D01*
X148565616Y-46039615D01*
X148544974Y-46022981D01*
X148131851Y-45609858D01*
X148098366Y-45548535D01*
X148095592Y-45526018D01*
X148087198Y-45254528D01*
X148084106Y-45219605D01*
X148040683Y-44923753D01*
X148033609Y-44889414D01*
X147956575Y-44600485D01*
X147945614Y-44567183D01*
X147835984Y-44288983D01*
X147821280Y-44257156D01*
X147680498Y-43993348D01*
X147662244Y-43963415D01*
X147492164Y-43717475D01*
X147470601Y-43689832D01*
X147463332Y-43681542D01*
X147372416Y-43577852D01*
X147273464Y-43464997D01*
X147248875Y-43440005D01*
X147027275Y-43239237D01*
X147027269Y-43239232D01*
X147000002Y-43217239D01*
X146999959Y-43217207D01*
X146756856Y-43043177D01*
X146727217Y-43024434D01*
X146727192Y-43024420D01*
X146465751Y-42879390D01*
X146465721Y-42879375D01*
X146434253Y-42864204D01*
X146434216Y-42864188D01*
X146296408Y-42807228D01*
X146296408Y-42807227D01*
X146296396Y-42807223D01*
X146296006Y-42807062D01*
X146295973Y-42807048D01*
X146289295Y-42804290D01*
X146271221Y-42796825D01*
X146271198Y-42796817D01*
X146226522Y-42782276D01*
X146226518Y-42782275D01*
X146226517Y-42782275D01*
X146178468Y-42779732D01*
X146114407Y-42776343D01*
X146114399Y-42776343D01*
X146061289Y-42783391D01*
X146061271Y-42783394D01*
X146057779Y-42784135D01*
X146032059Y-42786832D01*
X145268109Y-42786832D01*
X145261480Y-42786909D01*
X145261051Y-42786914D01*
X145151198Y-42810086D01*
X145151197Y-42810087D01*
X145114475Y-42825297D01*
X145107955Y-42828086D01*
X145010606Y-42894774D01*
X145009801Y-42893598D01*
X144951986Y-42918540D01*
X144948983Y-42918870D01*
X144863614Y-42927203D01*
X144721483Y-42949107D01*
X144721470Y-42949109D01*
X144671572Y-42959667D01*
X144601910Y-42954286D01*
X144553089Y-42920581D01*
X144516384Y-42879150D01*
X144516383Y-42879149D01*
X144474087Y-42846255D01*
X144474087Y-42846254D01*
X144434943Y-42820384D01*
X144434933Y-42820379D01*
X144328621Y-42784887D01*
X144328624Y-42784887D01*
X144275540Y-42777547D01*
X144275533Y-42777546D01*
X144228704Y-42774714D01*
X144133691Y-42794108D01*
X144090324Y-42808743D01*
X143955819Y-42863479D01*
X143924295Y-42878465D01*
X143924285Y-42878471D01*
X143662642Y-43021747D01*
X143662628Y-43021755D01*
X143632962Y-43040289D01*
X143389442Y-43212611D01*
X143362073Y-43234439D01*
X143325206Y-43267476D01*
X143325205Y-43267477D01*
X143240747Y-43343157D01*
X143139929Y-43433500D01*
X143115224Y-43458336D01*
X142917345Y-43681542D01*
X142917341Y-43681547D01*
X142895659Y-43709032D01*
X142895657Y-43709035D01*
X142724661Y-43953435D01*
X142724636Y-43953473D01*
X142706266Y-43983231D01*
X142595987Y-44187186D01*
X142562000Y-44250718D01*
X142549527Y-44277333D01*
X142549525Y-44277337D01*
X142438642Y-44554272D01*
X142427531Y-44587420D01*
X142427516Y-44587467D01*
X142349099Y-44875254D01*
X142349091Y-44875289D01*
X142341844Y-44909524D01*
X142311117Y-45111191D01*
X142298051Y-45196948D01*
X142296915Y-45204400D01*
X142296911Y-45204431D01*
X142293634Y-45239261D01*
X142293634Y-45239270D01*
X142282785Y-45537372D01*
X135125300Y-45537372D01*
X135125300Y-42056700D01*
X135144985Y-41989661D01*
X135197789Y-41943906D01*
X135249300Y-41932700D01*
X193020300Y-41932700D01*
X193087339Y-41952385D01*
G37*
%TD.AperFunction*%
%TD*%
M02*
