%TF.GenerationSoftware,KiCad,Pcbnew,9.0.4*%
%TF.CreationDate,2025-08-23T12:23:13-06:00*%
%TF.ProjectId,frontpanel-3.5,66726f6e-7470-4616-9e65-6c2d332e352e,rev?*%
%TF.SameCoordinates,Original*%
%TF.FileFunction,Legend,Bot*%
%TF.FilePolarity,Positive*%
%FSLAX46Y46*%
G04 Gerber Fmt 4.6, Leading zero omitted, Abs format (unit mm)*
G04 Created by KiCad (PCBNEW 9.0.4) date 2025-08-23 12:23:13*
%MOMM*%
%LPD*%
G01*
G04 APERTURE LIST*
G04 Aperture macros list*
%AMFreePoly0*
4,1,140,-0.810222,4.496950,-0.772021,4.462019,-0.756403,4.412667,-0.767553,4.362119,-0.802484,4.323917,-0.925271,4.245478,-1.101719,4.100000,1.607497,4.100000,1.627006,4.098079,1.663054,4.083147,1.690644,4.055557,1.705576,4.019509,1.705576,3.980491,1.690644,3.944443,1.663054,3.916853,1.627006,3.901921,1.607497,3.900000,-1.302312,3.900000,-1.350888,3.848902,-1.524656,3.614975,
-1.668867,3.361755,-1.694722,3.300000,2.318697,3.300000,2.338206,3.298079,2.374254,3.283147,2.401844,3.255557,2.416776,3.219509,2.416776,3.180491,2.401844,3.144443,2.374254,3.116853,2.338206,3.101921,2.318697,3.100000,-1.778454,3.100000,-1.781403,3.092957,-1.860615,2.812523,-1.905338,2.524570,-1.906146,2.500000,2.572697,2.500000,2.592206,2.498079,2.628254,2.483147,
2.655844,2.455557,2.670776,2.419509,2.670776,2.380491,2.655844,2.344443,2.628254,2.316853,2.592206,2.301921,2.572697,2.300000,-1.912726,2.300000,-1.914919,2.233323,-1.889215,1.943053,-1.837531,1.700000,2.420297,1.700000,2.439806,1.698079,2.475854,1.683147,2.503444,1.655557,2.518376,1.619509,2.518376,1.580491,2.503444,1.544443,2.475854,1.516853,2.439806,1.501921,
2.420297,1.500000,-1.774350,1.500000,-1.733976,1.382407,-1.606718,1.120258,-1.464564,0.900000,1.861497,0.900000,1.881006,0.898079,1.917054,0.883147,1.944644,0.855557,1.959576,0.819509,1.959576,0.780491,1.944644,0.744443,1.917054,0.716853,1.881006,0.701921,1.861497,0.700000,-1.302635,0.700000,-1.262234,0.651479,-1.050062,0.451728,-0.815296,0.279095,-0.561380,0.136114,
-0.470426,0.098532,-0.404805,0.098532,-0.389897,0.100000,0.389897,0.100000,0.409406,0.098079,0.445454,0.083147,0.473044,0.055557,0.487976,0.019509,0.487976,-0.019509,0.473044,-0.055557,0.445454,-0.083147,0.445228,-0.083240,0.443854,-0.084615,0.407806,-0.099547,0.388297,-0.101468,-0.428581,-0.101468,-0.451734,-0.111087,-0.503062,-0.104384,-0.535701,-0.088654,-0.545455,-0.084615,
-0.546728,-0.083341,-0.771998,0.025215,-1.024316,0.184773,-1.256690,0.372188,-1.466063,0.584993,-1.580467,0.731660,-1.593250,0.744443,-1.596433,0.752129,-1.649675,0.820385,-1.805108,1.075264,-1.930316,1.346272,-2.004408,1.571384,-2.008181,1.580491,-2.008181,1.582845,-2.023649,1.629841,-2.083879,1.922237,-2.110211,2.219607,-2.105960,2.379958,-2.106181,2.380491,-2.106181,2.419509,
-2.104825,2.422782,-2.102300,2.518037,-2.060250,2.813595,-1.984613,3.102388,-1.940563,3.215631,-1.940563,3.219509,-1.925631,3.255557,-1.924651,3.256536,-1.876387,3.380614,-1.736996,3.644609,-1.568278,3.890894,-1.427283,4.053134,-1.426280,4.055557,-1.417864,4.063972,-1.372452,4.116228,-1.152099,4.317641,-0.910121,4.492482,-0.910122,4.492482,-0.860770,4.508100,-0.810222,4.496950,
-0.810222,4.496950,$1*%
%AMFreePoly1*
4,1,138,0.597741,0.098079,0.630437,0.084535,0.630514,0.084604,0.681122,0.095478,0.730388,0.079591,0.730387,0.079590,0.970832,-0.096151,1.189558,-0.298284,1.383685,-0.524145,1.517131,-0.721244,1.540330,-0.744443,1.553461,-0.776145,1.688272,-1.034882,1.794722,-1.313031,1.853833,-1.543872,1.854404,-1.544443,1.869336,-1.580491,1.869336,-1.606914,1.908940,-1.896623,1.915204,-2.194380,
1.898453,-2.372457,1.901781,-2.380491,1.901781,-2.419509,1.891749,-2.443725,1.887313,-2.490895,1.825633,-2.782260,1.730977,-3.064641,1.664841,-3.205758,1.664841,-3.219509,1.649909,-3.255557,1.634087,-3.271378,1.604591,-3.334317,1.448140,-3.587737,1.263685,-3.821563,1.053654,-4.032716,1.032044,-4.049950,1.029722,-4.055557,1.002132,-4.083147,0.977765,-4.093240,0.820814,-4.218415,
0.568232,-4.376214,0.299233,-4.504035,0.299233,-4.504036,0.247869,-4.510457,0.200176,-4.490337,0.168932,-4.449065,0.162511,-4.397701,0.182631,-4.350008,0.223903,-4.318764,0.358517,-4.264002,0.612554,-4.122776,0.643885,-4.100000,-1.440232,-4.100000,-1.459741,-4.098079,-1.495789,-4.083147,-1.523379,-4.055557,-1.538311,-4.019509,-1.538311,-3.980491,-1.523379,-3.944443,-1.495789,-3.916853,
-1.459741,-3.901921,-1.440232,-3.900000,0.903356,-3.900000,1.060362,-3.753796,1.247562,-3.531456,1.398743,-3.300000,-2.405432,-3.300000,-2.424941,-3.298079,-2.460989,-3.283147,-2.488579,-3.255557,-2.503511,-3.219509,-2.503511,-3.180491,-2.488579,-3.144443,-2.460989,-3.116853,-2.424941,-3.101921,-2.405432,-3.100000,1.499098,-3.100000,1.534864,-3.027337,1.630750,-2.752955,1.685987,-2.500000,
-2.735632,-2.500000,-2.755141,-2.498079,-2.791189,-2.483147,-2.818779,-2.455557,-2.833711,-2.419509,-2.833711,-2.380491,-2.818779,-2.344443,-2.791189,-2.316853,-2.755141,-2.301921,-2.735632,-2.300000,1.708654,-2.300000,1.719978,-2.179617,1.712010,-1.889073,1.683702,-1.700000,-2.684832,-1.700000,-2.704341,-1.698079,-2.740389,-1.683147,-2.767979,-1.655557,-2.782911,-1.619509,-2.782911,-1.580491,
-2.767979,-1.544443,-2.740389,-1.516853,-2.704341,-1.501921,-2.684832,-1.500000,1.640867,-1.500000,1.591496,-1.321487,1.480718,-1.052772,1.394816,-0.900000,-2.253032,-0.900000,-2.272541,-0.898079,-2.308589,-0.883147,-2.336179,-0.855557,-2.351111,-0.819509,-2.351111,-0.780491,-2.336179,-0.744443,-2.308589,-0.716853,-2.272541,-0.701921,-2.253032,-0.700000,1.265247,-0.700000,1.166220,-0.565156,
0.967116,-0.353409,0.743870,-0.167288,0.621830,-0.088384,0.621644,-0.088177,0.597741,-0.098079,0.578232,-0.100000,-0.578232,-0.100000,-0.597741,-0.098079,-0.633789,-0.083147,-0.661379,-0.055557,-0.676311,-0.019509,-0.676311,0.019509,-0.661379,0.055557,-0.633789,0.083147,-0.597741,0.098079,-0.578232,0.100000,0.578232,0.100000,0.597741,0.098079,0.597741,0.098079,$1*%
G04 Aperture macros list end*
%ADD10C,0.100000*%
%ADD11C,0.150000*%
%ADD12C,0.250000*%
%ADD13C,2.590127*%
%ADD14C,4.400000*%
%ADD15O,1.750000X2.800000*%
%ADD16FreePoly0,180.000000*%
%ADD17FreePoly1,180.000000*%
%ADD18FreePoly0,0.000000*%
%ADD19FreePoly1,0.000000*%
G04 APERTURE END LIST*
D10*
X186659201Y-45964019D02*
X186659201Y-46678304D01*
X186659201Y-46678304D02*
X186706820Y-46821161D01*
X186706820Y-46821161D02*
X186802058Y-46916400D01*
X186802058Y-46916400D02*
X186944915Y-46964019D01*
X186944915Y-46964019D02*
X187040153Y-46964019D01*
X185706820Y-46964019D02*
X186183010Y-46964019D01*
X186183010Y-46964019D02*
X186183010Y-45964019D01*
X184802058Y-46868780D02*
X184849677Y-46916400D01*
X184849677Y-46916400D02*
X184992534Y-46964019D01*
X184992534Y-46964019D02*
X185087772Y-46964019D01*
X185087772Y-46964019D02*
X185230629Y-46916400D01*
X185230629Y-46916400D02*
X185325867Y-46821161D01*
X185325867Y-46821161D02*
X185373486Y-46725923D01*
X185373486Y-46725923D02*
X185421105Y-46535447D01*
X185421105Y-46535447D02*
X185421105Y-46392590D01*
X185421105Y-46392590D02*
X185373486Y-46202114D01*
X185373486Y-46202114D02*
X185325867Y-46106876D01*
X185325867Y-46106876D02*
X185230629Y-46011638D01*
X185230629Y-46011638D02*
X185087772Y-45964019D01*
X185087772Y-45964019D02*
X184992534Y-45964019D01*
X184992534Y-45964019D02*
X184849677Y-46011638D01*
X184849677Y-46011638D02*
X184802058Y-46059257D01*
X184087772Y-45964019D02*
X184087772Y-46678304D01*
X184087772Y-46678304D02*
X184135391Y-46821161D01*
X184135391Y-46821161D02*
X184230629Y-46916400D01*
X184230629Y-46916400D02*
X184373486Y-46964019D01*
X184373486Y-46964019D02*
X184468724Y-46964019D01*
X183135391Y-46964019D02*
X183611581Y-46964019D01*
X183611581Y-46964019D02*
X183611581Y-45964019D01*
X182230629Y-46868780D02*
X182278248Y-46916400D01*
X182278248Y-46916400D02*
X182421105Y-46964019D01*
X182421105Y-46964019D02*
X182516343Y-46964019D01*
X182516343Y-46964019D02*
X182659200Y-46916400D01*
X182659200Y-46916400D02*
X182754438Y-46821161D01*
X182754438Y-46821161D02*
X182802057Y-46725923D01*
X182802057Y-46725923D02*
X182849676Y-46535447D01*
X182849676Y-46535447D02*
X182849676Y-46392590D01*
X182849676Y-46392590D02*
X182802057Y-46202114D01*
X182802057Y-46202114D02*
X182754438Y-46106876D01*
X182754438Y-46106876D02*
X182659200Y-46011638D01*
X182659200Y-46011638D02*
X182516343Y-45964019D01*
X182516343Y-45964019D02*
X182421105Y-45964019D01*
X182421105Y-45964019D02*
X182278248Y-46011638D01*
X182278248Y-46011638D02*
X182230629Y-46059257D01*
X181516343Y-45964019D02*
X181516343Y-46678304D01*
X181516343Y-46678304D02*
X181563962Y-46821161D01*
X181563962Y-46821161D02*
X181659200Y-46916400D01*
X181659200Y-46916400D02*
X181802057Y-46964019D01*
X181802057Y-46964019D02*
X181897295Y-46964019D01*
X180563962Y-46964019D02*
X181040152Y-46964019D01*
X181040152Y-46964019D02*
X181040152Y-45964019D01*
X179659200Y-46868780D02*
X179706819Y-46916400D01*
X179706819Y-46916400D02*
X179849676Y-46964019D01*
X179849676Y-46964019D02*
X179944914Y-46964019D01*
X179944914Y-46964019D02*
X180087771Y-46916400D01*
X180087771Y-46916400D02*
X180183009Y-46821161D01*
X180183009Y-46821161D02*
X180230628Y-46725923D01*
X180230628Y-46725923D02*
X180278247Y-46535447D01*
X180278247Y-46535447D02*
X180278247Y-46392590D01*
X180278247Y-46392590D02*
X180230628Y-46202114D01*
X180230628Y-46202114D02*
X180183009Y-46106876D01*
X180183009Y-46106876D02*
X180087771Y-46011638D01*
X180087771Y-46011638D02*
X179944914Y-45964019D01*
X179944914Y-45964019D02*
X179849676Y-45964019D01*
X179849676Y-45964019D02*
X179706819Y-46011638D01*
X179706819Y-46011638D02*
X179659200Y-46059257D01*
X178944914Y-45964019D02*
X178944914Y-46678304D01*
X178944914Y-46678304D02*
X178992533Y-46821161D01*
X178992533Y-46821161D02*
X179087771Y-46916400D01*
X179087771Y-46916400D02*
X179230628Y-46964019D01*
X179230628Y-46964019D02*
X179325866Y-46964019D01*
X177992533Y-46964019D02*
X178468723Y-46964019D01*
X178468723Y-46964019D02*
X178468723Y-45964019D01*
X177087771Y-46868780D02*
X177135390Y-46916400D01*
X177135390Y-46916400D02*
X177278247Y-46964019D01*
X177278247Y-46964019D02*
X177373485Y-46964019D01*
X177373485Y-46964019D02*
X177516342Y-46916400D01*
X177516342Y-46916400D02*
X177611580Y-46821161D01*
X177611580Y-46821161D02*
X177659199Y-46725923D01*
X177659199Y-46725923D02*
X177706818Y-46535447D01*
X177706818Y-46535447D02*
X177706818Y-46392590D01*
X177706818Y-46392590D02*
X177659199Y-46202114D01*
X177659199Y-46202114D02*
X177611580Y-46106876D01*
X177611580Y-46106876D02*
X177516342Y-46011638D01*
X177516342Y-46011638D02*
X177373485Y-45964019D01*
X177373485Y-45964019D02*
X177278247Y-45964019D01*
X177278247Y-45964019D02*
X177135390Y-46011638D01*
X177135390Y-46011638D02*
X177087771Y-46059257D01*
D11*
X146519732Y-42526000D02*
X146376875Y-42573619D01*
X146376875Y-42573619D02*
X146138780Y-42573619D01*
X146138780Y-42573619D02*
X146043542Y-42526000D01*
X146043542Y-42526000D02*
X145995923Y-42478380D01*
X145995923Y-42478380D02*
X145948304Y-42383142D01*
X145948304Y-42383142D02*
X145948304Y-42287904D01*
X145948304Y-42287904D02*
X145995923Y-42192666D01*
X145995923Y-42192666D02*
X146043542Y-42145047D01*
X146043542Y-42145047D02*
X146138780Y-42097428D01*
X146138780Y-42097428D02*
X146329256Y-42049809D01*
X146329256Y-42049809D02*
X146424494Y-42002190D01*
X146424494Y-42002190D02*
X146472113Y-41954571D01*
X146472113Y-41954571D02*
X146519732Y-41859333D01*
X146519732Y-41859333D02*
X146519732Y-41764095D01*
X146519732Y-41764095D02*
X146472113Y-41668857D01*
X146472113Y-41668857D02*
X146424494Y-41621238D01*
X146424494Y-41621238D02*
X146329256Y-41573619D01*
X146329256Y-41573619D02*
X146091161Y-41573619D01*
X146091161Y-41573619D02*
X145948304Y-41621238D01*
X145614970Y-41573619D02*
X145376875Y-42573619D01*
X145376875Y-42573619D02*
X145186399Y-41859333D01*
X145186399Y-41859333D02*
X144995923Y-42573619D01*
X144995923Y-42573619D02*
X144757828Y-41573619D01*
X144424494Y-41668857D02*
X144376875Y-41621238D01*
X144376875Y-41621238D02*
X144281637Y-41573619D01*
X144281637Y-41573619D02*
X144043542Y-41573619D01*
X144043542Y-41573619D02*
X143948304Y-41621238D01*
X143948304Y-41621238D02*
X143900685Y-41668857D01*
X143900685Y-41668857D02*
X143853066Y-41764095D01*
X143853066Y-41764095D02*
X143853066Y-41859333D01*
X143853066Y-41859333D02*
X143900685Y-42002190D01*
X143900685Y-42002190D02*
X144472113Y-42573619D01*
X144472113Y-42573619D02*
X143853066Y-42573619D01*
X153019732Y-55776000D02*
X152876875Y-55823619D01*
X152876875Y-55823619D02*
X152638780Y-55823619D01*
X152638780Y-55823619D02*
X152543542Y-55776000D01*
X152543542Y-55776000D02*
X152495923Y-55728380D01*
X152495923Y-55728380D02*
X152448304Y-55633142D01*
X152448304Y-55633142D02*
X152448304Y-55537904D01*
X152448304Y-55537904D02*
X152495923Y-55442666D01*
X152495923Y-55442666D02*
X152543542Y-55395047D01*
X152543542Y-55395047D02*
X152638780Y-55347428D01*
X152638780Y-55347428D02*
X152829256Y-55299809D01*
X152829256Y-55299809D02*
X152924494Y-55252190D01*
X152924494Y-55252190D02*
X152972113Y-55204571D01*
X152972113Y-55204571D02*
X153019732Y-55109333D01*
X153019732Y-55109333D02*
X153019732Y-55014095D01*
X153019732Y-55014095D02*
X152972113Y-54918857D01*
X152972113Y-54918857D02*
X152924494Y-54871238D01*
X152924494Y-54871238D02*
X152829256Y-54823619D01*
X152829256Y-54823619D02*
X152591161Y-54823619D01*
X152591161Y-54823619D02*
X152448304Y-54871238D01*
X152114970Y-54823619D02*
X151876875Y-55823619D01*
X151876875Y-55823619D02*
X151686399Y-55109333D01*
X151686399Y-55109333D02*
X151495923Y-55823619D01*
X151495923Y-55823619D02*
X151257828Y-54823619D01*
X150972113Y-54823619D02*
X150353066Y-54823619D01*
X150353066Y-54823619D02*
X150686399Y-55204571D01*
X150686399Y-55204571D02*
X150543542Y-55204571D01*
X150543542Y-55204571D02*
X150448304Y-55252190D01*
X150448304Y-55252190D02*
X150400685Y-55299809D01*
X150400685Y-55299809D02*
X150353066Y-55395047D01*
X150353066Y-55395047D02*
X150353066Y-55633142D01*
X150353066Y-55633142D02*
X150400685Y-55728380D01*
X150400685Y-55728380D02*
X150448304Y-55776000D01*
X150448304Y-55776000D02*
X150543542Y-55823619D01*
X150543542Y-55823619D02*
X150829256Y-55823619D01*
X150829256Y-55823619D02*
X150924494Y-55776000D01*
X150924494Y-55776000D02*
X150972113Y-55728380D01*
X140019732Y-55776000D02*
X139876875Y-55823619D01*
X139876875Y-55823619D02*
X139638780Y-55823619D01*
X139638780Y-55823619D02*
X139543542Y-55776000D01*
X139543542Y-55776000D02*
X139495923Y-55728380D01*
X139495923Y-55728380D02*
X139448304Y-55633142D01*
X139448304Y-55633142D02*
X139448304Y-55537904D01*
X139448304Y-55537904D02*
X139495923Y-55442666D01*
X139495923Y-55442666D02*
X139543542Y-55395047D01*
X139543542Y-55395047D02*
X139638780Y-55347428D01*
X139638780Y-55347428D02*
X139829256Y-55299809D01*
X139829256Y-55299809D02*
X139924494Y-55252190D01*
X139924494Y-55252190D02*
X139972113Y-55204571D01*
X139972113Y-55204571D02*
X140019732Y-55109333D01*
X140019732Y-55109333D02*
X140019732Y-55014095D01*
X140019732Y-55014095D02*
X139972113Y-54918857D01*
X139972113Y-54918857D02*
X139924494Y-54871238D01*
X139924494Y-54871238D02*
X139829256Y-54823619D01*
X139829256Y-54823619D02*
X139591161Y-54823619D01*
X139591161Y-54823619D02*
X139448304Y-54871238D01*
X139114970Y-54823619D02*
X138876875Y-55823619D01*
X138876875Y-55823619D02*
X138686399Y-55109333D01*
X138686399Y-55109333D02*
X138495923Y-55823619D01*
X138495923Y-55823619D02*
X138257828Y-54823619D01*
X137353066Y-55823619D02*
X137924494Y-55823619D01*
X137638780Y-55823619D02*
X137638780Y-54823619D01*
X137638780Y-54823619D02*
X137734018Y-54966476D01*
X137734018Y-54966476D02*
X137829256Y-55061714D01*
X137829256Y-55061714D02*
X137924494Y-55109333D01*
X146519732Y-55526000D02*
X146376875Y-55573619D01*
X146376875Y-55573619D02*
X146138780Y-55573619D01*
X146138780Y-55573619D02*
X146043542Y-55526000D01*
X146043542Y-55526000D02*
X145995923Y-55478380D01*
X145995923Y-55478380D02*
X145948304Y-55383142D01*
X145948304Y-55383142D02*
X145948304Y-55287904D01*
X145948304Y-55287904D02*
X145995923Y-55192666D01*
X145995923Y-55192666D02*
X146043542Y-55145047D01*
X146043542Y-55145047D02*
X146138780Y-55097428D01*
X146138780Y-55097428D02*
X146329256Y-55049809D01*
X146329256Y-55049809D02*
X146424494Y-55002190D01*
X146424494Y-55002190D02*
X146472113Y-54954571D01*
X146472113Y-54954571D02*
X146519732Y-54859333D01*
X146519732Y-54859333D02*
X146519732Y-54764095D01*
X146519732Y-54764095D02*
X146472113Y-54668857D01*
X146472113Y-54668857D02*
X146424494Y-54621238D01*
X146424494Y-54621238D02*
X146329256Y-54573619D01*
X146329256Y-54573619D02*
X146091161Y-54573619D01*
X146091161Y-54573619D02*
X145948304Y-54621238D01*
X145614970Y-54573619D02*
X145376875Y-55573619D01*
X145376875Y-55573619D02*
X145186399Y-54859333D01*
X145186399Y-54859333D02*
X144995923Y-55573619D01*
X144995923Y-55573619D02*
X144757828Y-54573619D01*
X143948304Y-54906952D02*
X143948304Y-55573619D01*
X144186399Y-54526000D02*
X144424494Y-55240285D01*
X144424494Y-55240285D02*
X143805447Y-55240285D01*
%TO.C,J5*%
D10*
X187909600Y-59529800D02*
X158489600Y-59529800D01*
X158489600Y-44829800D01*
X187909600Y-44829800D01*
X187909600Y-59529800D01*
D12*
X192859600Y-60679800D02*
X192859600Y-43579800D01*
X192859600Y-60679800D02*
X157059600Y-60679800D01*
X192859600Y-43579800D02*
X157059600Y-43579800D01*
X157059600Y-60679800D02*
X157059600Y-43579800D01*
D11*
%TO.C,SW2*%
X142436400Y-45493800D02*
X142436400Y-45493800D01*
X142436400Y-45493800D02*
X142444533Y-45705129D01*
X142440177Y-45349722D02*
X142437226Y-45561187D01*
X142444533Y-45705129D02*
X142468881Y-45915209D01*
X142459370Y-45139109D02*
X142440177Y-45349722D01*
X142468881Y-45915209D02*
X142509301Y-46122797D01*
X142494692Y-44930593D02*
X142459370Y-45139109D01*
X142509301Y-46122797D02*
X142565554Y-46326665D01*
X142545932Y-44725408D02*
X142494692Y-44930593D01*
X142565554Y-46326665D02*
X142637308Y-46525607D01*
X142612789Y-44524767D02*
X142545932Y-44725408D01*
X142637308Y-46525607D02*
X142724137Y-46718446D01*
X142694867Y-44329858D02*
X142612789Y-44524767D01*
X142724137Y-46718446D02*
X142825529Y-46904043D01*
X142791681Y-44141833D02*
X142694867Y-44329858D01*
X142825529Y-46904043D02*
X142940884Y-47081299D01*
X142902657Y-43961803D02*
X142791681Y-44141833D01*
X142940884Y-47081299D02*
X143069519Y-47249167D01*
X143027140Y-43790834D02*
X142902657Y-43961803D01*
X143069519Y-47249167D02*
X143210674Y-47406652D01*
X143164394Y-43629936D02*
X143027140Y-43790834D01*
X143210674Y-47406652D02*
X143363514Y-47552825D01*
X143313606Y-43480063D02*
X143164394Y-43629936D01*
X143363514Y-47552825D02*
X143527135Y-47686820D01*
X143473894Y-43342098D02*
X143313606Y-43480063D01*
X143527135Y-47686820D02*
X143700569Y-47807845D01*
X143644311Y-43216860D02*
X143473894Y-43342098D01*
X143700569Y-47807845D02*
X143882791Y-47915184D01*
X143823847Y-43105088D02*
X143644311Y-43216860D01*
X143882791Y-47915184D02*
X144072723Y-48008202D01*
X144011443Y-43007443D02*
X143823847Y-43105088D01*
X144072723Y-48008202D02*
X144269241Y-48086350D01*
X144205987Y-42924503D02*
X144011443Y-43007443D01*
X144269241Y-48086350D02*
X144471183Y-48149165D01*
X144406329Y-42856759D02*
X144205987Y-42924503D01*
X144471183Y-48149165D02*
X144677356Y-48196275D01*
X144611286Y-42804610D02*
X144406329Y-42856759D01*
X144677356Y-48196275D02*
X144886539Y-48227402D01*
X144819643Y-42768367D02*
X144611286Y-42804610D01*
X144886539Y-48227402D02*
X145097495Y-48242362D01*
X145030170Y-42748242D02*
X144819643Y-42768367D01*
X145097495Y-48242362D02*
X145308977Y-48241066D01*
X145241619Y-42744355D02*
X145030170Y-42748242D01*
X145308977Y-48241066D02*
X145519734Y-48223523D01*
X145452743Y-42756729D02*
X145241619Y-42744355D01*
X145519734Y-48223523D02*
X145728520Y-48189835D01*
X145662292Y-42785291D02*
X145452743Y-42756729D01*
X145728520Y-48189835D02*
X145934100Y-48140202D01*
X145869026Y-42829871D02*
X145662292Y-42785291D01*
X145934100Y-48140202D02*
X146135257Y-48074917D01*
X146071723Y-42890207D02*
X145869026Y-42829871D01*
X146135257Y-48074917D02*
X146330803Y-47994367D01*
X146269184Y-42965940D02*
X146071723Y-42890207D01*
X146330803Y-47994367D02*
X146519581Y-47899029D01*
X146460242Y-43056625D02*
X146269184Y-42965940D01*
X146519581Y-47899029D02*
X146700474Y-47789465D01*
X146643765Y-43161723D02*
X146460242Y-43056625D01*
X146700474Y-47789465D02*
X146872412Y-47666324D01*
X146818669Y-43280614D02*
X146643765Y-43161723D01*
X146872412Y-47666324D02*
X147034379Y-47530334D01*
X146983919Y-43412594D02*
X146818669Y-43280614D01*
X147034379Y-47530334D02*
X147185416Y-47382300D01*
X147138539Y-43556882D02*
X146983919Y-43412594D01*
X147185416Y-47382300D02*
X147324631Y-47223096D01*
X147281613Y-43712627D02*
X147138539Y-43556882D01*
X147324631Y-47223096D02*
X147451199Y-47053665D01*
X147412296Y-43878905D02*
X147281613Y-43712627D01*
X147451199Y-47053665D02*
X147564374Y-46875009D01*
X147529814Y-44054735D02*
X147412296Y-43878905D01*
X147564374Y-46875009D02*
X147663484Y-46688184D01*
X147633472Y-44239075D02*
X147529814Y-44054735D01*
X147663484Y-46688184D02*
X147747944Y-46494295D01*
X147722658Y-44430836D02*
X147633472Y-44239075D01*
X147747944Y-46494295D02*
X147817254Y-46294489D01*
X147796844Y-44628884D02*
X147722658Y-44430836D01*
X147817254Y-46294489D02*
X147871005Y-46089947D01*
X147855591Y-44832047D02*
X147796844Y-44628884D01*
X147871005Y-46089947D02*
X147908879Y-45881880D01*
X147898552Y-45039124D02*
X147855591Y-44832047D01*
X147908879Y-45881880D02*
X147930651Y-45671517D01*
X147925472Y-45248890D02*
X147898552Y-45039124D01*
X147930651Y-45671517D02*
X147936193Y-45460104D01*
X147936193Y-45460104D02*
X147925472Y-45248890D01*
%TO.C,SW3*%
X148936607Y-52027496D02*
X148947328Y-52238710D01*
X148942149Y-51816083D02*
X148936607Y-52027496D01*
X148947328Y-52238710D02*
X148974248Y-52448476D01*
X148963921Y-51605720D02*
X148942149Y-51816083D01*
X148974248Y-52448476D02*
X149017209Y-52655553D01*
X149001795Y-51397653D02*
X148963921Y-51605720D01*
X149017209Y-52655553D02*
X149075956Y-52858716D01*
X149055546Y-51193111D02*
X149001795Y-51397653D01*
X149075956Y-52858716D02*
X149150142Y-53056764D01*
X149124856Y-50993305D02*
X149055546Y-51193111D01*
X149150142Y-53056764D02*
X149239328Y-53248525D01*
X149209316Y-50799416D02*
X149124856Y-50993305D01*
X149239328Y-53248525D02*
X149342986Y-53432865D01*
X149308426Y-50612591D02*
X149209316Y-50799416D01*
X149342986Y-53432865D02*
X149460504Y-53608695D01*
X149421601Y-50433935D02*
X149308426Y-50612591D01*
X149460504Y-53608695D02*
X149591187Y-53774973D01*
X149548169Y-50264504D02*
X149421601Y-50433935D01*
X149591187Y-53774973D02*
X149734261Y-53930718D01*
X149687384Y-50105300D02*
X149548169Y-50264504D01*
X149734261Y-53930718D02*
X149888881Y-54075006D01*
X149838421Y-49957266D02*
X149687384Y-50105300D01*
X149888881Y-54075006D02*
X150054131Y-54206986D01*
X150000388Y-49821276D02*
X149838421Y-49957266D01*
X150054131Y-54206986D02*
X150229035Y-54325877D01*
X150172326Y-49698135D02*
X150000388Y-49821276D01*
X150229035Y-54325877D02*
X150412558Y-54430975D01*
X150353219Y-49588571D02*
X150172326Y-49698135D01*
X150412558Y-54430975D02*
X150603616Y-54521660D01*
X150541997Y-49493233D02*
X150353219Y-49588571D01*
X150603616Y-54521660D02*
X150801077Y-54597393D01*
X150737543Y-49412683D02*
X150541997Y-49493233D01*
X150801077Y-54597393D02*
X151003774Y-54657729D01*
X150938700Y-49347398D02*
X150737543Y-49412683D01*
X151003774Y-54657729D02*
X151210508Y-54702309D01*
X151144280Y-49297765D02*
X150938700Y-49347398D01*
X151210508Y-54702309D02*
X151420057Y-54730871D01*
X151353066Y-49264077D02*
X151144280Y-49297765D01*
X151420057Y-54730871D02*
X151631181Y-54743245D01*
X151563823Y-49246534D02*
X151353066Y-49264077D01*
X151631181Y-54743245D02*
X151842630Y-54739358D01*
X151775305Y-49245238D02*
X151563823Y-49246534D01*
X151842630Y-54739358D02*
X152053157Y-54719233D01*
X151986261Y-49260198D02*
X151775305Y-49245238D01*
X152053157Y-54719233D02*
X152261514Y-54682990D01*
X152195444Y-49291325D02*
X151986261Y-49260198D01*
X152261514Y-54682990D02*
X152466471Y-54630841D01*
X152401617Y-49338435D02*
X152195444Y-49291325D01*
X152466471Y-54630841D02*
X152666813Y-54563097D01*
X152603559Y-49401250D02*
X152401617Y-49338435D01*
X152666813Y-54563097D02*
X152861357Y-54480157D01*
X152800077Y-49479398D02*
X152603559Y-49401250D01*
X152861357Y-54480157D02*
X153048953Y-54382512D01*
X152990009Y-49572416D02*
X152800077Y-49479398D01*
X153048953Y-54382512D02*
X153228489Y-54270740D01*
X153172231Y-49679755D02*
X152990009Y-49572416D01*
X153228489Y-54270740D02*
X153398906Y-54145502D01*
X153345665Y-49800780D02*
X153172231Y-49679755D01*
X153398906Y-54145502D02*
X153559194Y-54007537D01*
X153509286Y-49934775D02*
X153345665Y-49800780D01*
X153559194Y-54007537D02*
X153708406Y-53857664D01*
X153662126Y-50080948D02*
X153509286Y-49934775D01*
X153708406Y-53857664D02*
X153845660Y-53696766D01*
X153803281Y-50238433D02*
X153662126Y-50080948D01*
X153845660Y-53696766D02*
X153970143Y-53525797D01*
X153931916Y-50406301D02*
X153803281Y-50238433D01*
X153970143Y-53525797D02*
X154081119Y-53345767D01*
X154047271Y-50583557D02*
X153931916Y-50406301D01*
X154081119Y-53345767D02*
X154177933Y-53157742D01*
X154148663Y-50769154D02*
X154047271Y-50583557D01*
X154177933Y-53157742D02*
X154260011Y-52962833D01*
X154235492Y-50961993D02*
X154148663Y-50769154D01*
X154260011Y-52962833D02*
X154326868Y-52762192D01*
X154307246Y-51160935D02*
X154235492Y-50961993D01*
X154326868Y-52762192D02*
X154378108Y-52557007D01*
X154363499Y-51364803D02*
X154307246Y-51160935D01*
X154378108Y-52557007D02*
X154413430Y-52348491D01*
X154403919Y-51572391D02*
X154363499Y-51364803D01*
X154413430Y-52348491D02*
X154432623Y-52137878D01*
X154428267Y-51782471D02*
X154403919Y-51572391D01*
X154432623Y-52137878D02*
X154435574Y-51926413D01*
X154436400Y-51993800D02*
X154428267Y-51782471D01*
X154436400Y-51993800D02*
X154436400Y-51993800D01*
%TO.C,SW1*%
X135936607Y-52027496D02*
X135947328Y-52238710D01*
X135942149Y-51816083D02*
X135936607Y-52027496D01*
X135947328Y-52238710D02*
X135974248Y-52448476D01*
X135963921Y-51605720D02*
X135942149Y-51816083D01*
X135974248Y-52448476D02*
X136017209Y-52655553D01*
X136001795Y-51397653D02*
X135963921Y-51605720D01*
X136017209Y-52655553D02*
X136075956Y-52858716D01*
X136055546Y-51193111D02*
X136001795Y-51397653D01*
X136075956Y-52858716D02*
X136150142Y-53056764D01*
X136124856Y-50993305D02*
X136055546Y-51193111D01*
X136150142Y-53056764D02*
X136239328Y-53248525D01*
X136209316Y-50799416D02*
X136124856Y-50993305D01*
X136239328Y-53248525D02*
X136342986Y-53432865D01*
X136308426Y-50612591D02*
X136209316Y-50799416D01*
X136342986Y-53432865D02*
X136460504Y-53608695D01*
X136421601Y-50433935D02*
X136308426Y-50612591D01*
X136460504Y-53608695D02*
X136591187Y-53774973D01*
X136548169Y-50264504D02*
X136421601Y-50433935D01*
X136591187Y-53774973D02*
X136734261Y-53930718D01*
X136687384Y-50105300D02*
X136548169Y-50264504D01*
X136734261Y-53930718D02*
X136888881Y-54075006D01*
X136838421Y-49957266D02*
X136687384Y-50105300D01*
X136888881Y-54075006D02*
X137054131Y-54206986D01*
X137000388Y-49821276D02*
X136838421Y-49957266D01*
X137054131Y-54206986D02*
X137229035Y-54325877D01*
X137172326Y-49698135D02*
X137000388Y-49821276D01*
X137229035Y-54325877D02*
X137412558Y-54430975D01*
X137353219Y-49588571D02*
X137172326Y-49698135D01*
X137412558Y-54430975D02*
X137603616Y-54521660D01*
X137541997Y-49493233D02*
X137353219Y-49588571D01*
X137603616Y-54521660D02*
X137801077Y-54597393D01*
X137737543Y-49412683D02*
X137541997Y-49493233D01*
X137801077Y-54597393D02*
X138003774Y-54657729D01*
X137938700Y-49347398D02*
X137737543Y-49412683D01*
X138003774Y-54657729D02*
X138210508Y-54702309D01*
X138144280Y-49297765D02*
X137938700Y-49347398D01*
X138210508Y-54702309D02*
X138420057Y-54730871D01*
X138353066Y-49264077D02*
X138144280Y-49297765D01*
X138420057Y-54730871D02*
X138631181Y-54743245D01*
X138563823Y-49246534D02*
X138353066Y-49264077D01*
X138631181Y-54743245D02*
X138842630Y-54739358D01*
X138775305Y-49245238D02*
X138563823Y-49246534D01*
X138842630Y-54739358D02*
X139053157Y-54719233D01*
X138986261Y-49260198D02*
X138775305Y-49245238D01*
X139053157Y-54719233D02*
X139261514Y-54682990D01*
X139195444Y-49291325D02*
X138986261Y-49260198D01*
X139261514Y-54682990D02*
X139466471Y-54630841D01*
X139401617Y-49338435D02*
X139195444Y-49291325D01*
X139466471Y-54630841D02*
X139666813Y-54563097D01*
X139603559Y-49401250D02*
X139401617Y-49338435D01*
X139666813Y-54563097D02*
X139861357Y-54480157D01*
X139800077Y-49479398D02*
X139603559Y-49401250D01*
X139861357Y-54480157D02*
X140048953Y-54382512D01*
X139990009Y-49572416D02*
X139800077Y-49479398D01*
X140048953Y-54382512D02*
X140228489Y-54270740D01*
X140172231Y-49679755D02*
X139990009Y-49572416D01*
X140228489Y-54270740D02*
X140398906Y-54145502D01*
X140345665Y-49800780D02*
X140172231Y-49679755D01*
X140398906Y-54145502D02*
X140559194Y-54007537D01*
X140509286Y-49934775D02*
X140345665Y-49800780D01*
X140559194Y-54007537D02*
X140708406Y-53857664D01*
X140662126Y-50080948D02*
X140509286Y-49934775D01*
X140708406Y-53857664D02*
X140845660Y-53696766D01*
X140803281Y-50238433D02*
X140662126Y-50080948D01*
X140845660Y-53696766D02*
X140970143Y-53525797D01*
X140931916Y-50406301D02*
X140803281Y-50238433D01*
X140970143Y-53525797D02*
X141081119Y-53345767D01*
X141047271Y-50583557D02*
X140931916Y-50406301D01*
X141081119Y-53345767D02*
X141177933Y-53157742D01*
X141148663Y-50769154D02*
X141047271Y-50583557D01*
X141177933Y-53157742D02*
X141260011Y-52962833D01*
X141235492Y-50961993D02*
X141148663Y-50769154D01*
X141260011Y-52962833D02*
X141326868Y-52762192D01*
X141307246Y-51160935D02*
X141235492Y-50961993D01*
X141326868Y-52762192D02*
X141378108Y-52557007D01*
X141363499Y-51364803D02*
X141307246Y-51160935D01*
X141378108Y-52557007D02*
X141413430Y-52348491D01*
X141403919Y-51572391D02*
X141363499Y-51364803D01*
X141413430Y-52348491D02*
X141432623Y-52137878D01*
X141428267Y-51782471D02*
X141403919Y-51572391D01*
X141432623Y-52137878D02*
X141435574Y-51926413D01*
X141436400Y-51993800D02*
X141428267Y-51782471D01*
X141436400Y-51993800D02*
X141436400Y-51993800D01*
%TO.C,SW4*%
X142436400Y-58493800D02*
X142436400Y-58493800D01*
X142436400Y-58493800D02*
X142444533Y-58705129D01*
X142440177Y-58349722D02*
X142437226Y-58561187D01*
X142444533Y-58705129D02*
X142468881Y-58915209D01*
X142459370Y-58139109D02*
X142440177Y-58349722D01*
X142468881Y-58915209D02*
X142509301Y-59122797D01*
X142494692Y-57930593D02*
X142459370Y-58139109D01*
X142509301Y-59122797D02*
X142565554Y-59326665D01*
X142545932Y-57725408D02*
X142494692Y-57930593D01*
X142565554Y-59326665D02*
X142637308Y-59525607D01*
X142612789Y-57524767D02*
X142545932Y-57725408D01*
X142637308Y-59525607D02*
X142724137Y-59718446D01*
X142694867Y-57329858D02*
X142612789Y-57524767D01*
X142724137Y-59718446D02*
X142825529Y-59904043D01*
X142791681Y-57141833D02*
X142694867Y-57329858D01*
X142825529Y-59904043D02*
X142940884Y-60081299D01*
X142902657Y-56961803D02*
X142791681Y-57141833D01*
X142940884Y-60081299D02*
X143069519Y-60249167D01*
X143027140Y-56790834D02*
X142902657Y-56961803D01*
X143069519Y-60249167D02*
X143210674Y-60406652D01*
X143164394Y-56629936D02*
X143027140Y-56790834D01*
X143210674Y-60406652D02*
X143363514Y-60552825D01*
X143313606Y-56480063D02*
X143164394Y-56629936D01*
X143363514Y-60552825D02*
X143527135Y-60686820D01*
X143473894Y-56342098D02*
X143313606Y-56480063D01*
X143527135Y-60686820D02*
X143700569Y-60807845D01*
X143644311Y-56216860D02*
X143473894Y-56342098D01*
X143700569Y-60807845D02*
X143882791Y-60915184D01*
X143823847Y-56105088D02*
X143644311Y-56216860D01*
X143882791Y-60915184D02*
X144072723Y-61008202D01*
X144011443Y-56007443D02*
X143823847Y-56105088D01*
X144072723Y-61008202D02*
X144269241Y-61086350D01*
X144205987Y-55924503D02*
X144011443Y-56007443D01*
X144269241Y-61086350D02*
X144471183Y-61149165D01*
X144406329Y-55856759D02*
X144205987Y-55924503D01*
X144471183Y-61149165D02*
X144677356Y-61196275D01*
X144611286Y-55804610D02*
X144406329Y-55856759D01*
X144677356Y-61196275D02*
X144886539Y-61227402D01*
X144819643Y-55768367D02*
X144611286Y-55804610D01*
X144886539Y-61227402D02*
X145097495Y-61242362D01*
X145030170Y-55748242D02*
X144819643Y-55768367D01*
X145097495Y-61242362D02*
X145308977Y-61241066D01*
X145241619Y-55744355D02*
X145030170Y-55748242D01*
X145308977Y-61241066D02*
X145519734Y-61223523D01*
X145452743Y-55756729D02*
X145241619Y-55744355D01*
X145519734Y-61223523D02*
X145728520Y-61189835D01*
X145662292Y-55785291D02*
X145452743Y-55756729D01*
X145728520Y-61189835D02*
X145934100Y-61140202D01*
X145869026Y-55829871D02*
X145662292Y-55785291D01*
X145934100Y-61140202D02*
X146135257Y-61074917D01*
X146071723Y-55890207D02*
X145869026Y-55829871D01*
X146135257Y-61074917D02*
X146330803Y-60994367D01*
X146269184Y-55965940D02*
X146071723Y-55890207D01*
X146330803Y-60994367D02*
X146519581Y-60899029D01*
X146460242Y-56056625D02*
X146269184Y-55965940D01*
X146519581Y-60899029D02*
X146700474Y-60789465D01*
X146643765Y-56161723D02*
X146460242Y-56056625D01*
X146700474Y-60789465D02*
X146872412Y-60666324D01*
X146818669Y-56280614D02*
X146643765Y-56161723D01*
X146872412Y-60666324D02*
X147034379Y-60530334D01*
X146983919Y-56412594D02*
X146818669Y-56280614D01*
X147034379Y-60530334D02*
X147185416Y-60382300D01*
X147138539Y-56556882D02*
X146983919Y-56412594D01*
X147185416Y-60382300D02*
X147324631Y-60223096D01*
X147281613Y-56712627D02*
X147138539Y-56556882D01*
X147324631Y-60223096D02*
X147451199Y-60053665D01*
X147412296Y-56878905D02*
X147281613Y-56712627D01*
X147451199Y-60053665D02*
X147564374Y-59875009D01*
X147529814Y-57054735D02*
X147412296Y-56878905D01*
X147564374Y-59875009D02*
X147663484Y-59688184D01*
X147633472Y-57239075D02*
X147529814Y-57054735D01*
X147663484Y-59688184D02*
X147747944Y-59494295D01*
X147722658Y-57430836D02*
X147633472Y-57239075D01*
X147747944Y-59494295D02*
X147817254Y-59294489D01*
X147796844Y-57628884D02*
X147722658Y-57430836D01*
X147817254Y-59294489D02*
X147871005Y-59089947D01*
X147855591Y-57832047D02*
X147796844Y-57628884D01*
X147871005Y-59089947D02*
X147908879Y-58881880D01*
X147898552Y-58039124D02*
X147855591Y-57832047D01*
X147908879Y-58881880D02*
X147930651Y-58671517D01*
X147925472Y-58248890D02*
X147898552Y-58039124D01*
X147930651Y-58671517D02*
X147936193Y-58460104D01*
X147936193Y-58460104D02*
X147925472Y-58248890D01*
%TD*%
%LPC*%
%TO.C,SW2*%
D13*
X146481463Y-45493800D02*
G75*
G02*
X143891337Y-45493800I-1295063J0D01*
G01*
X143891337Y-45493800D02*
G75*
G02*
X146481463Y-45493800I1295063J0D01*
G01*
%TO.C,SW3*%
X152981463Y-51993800D02*
G75*
G02*
X150391337Y-51993800I-1295063J0D01*
G01*
X150391337Y-51993800D02*
G75*
G02*
X152981463Y-51993800I1295063J0D01*
G01*
%TO.C,SW1*%
X139981463Y-51993800D02*
G75*
G02*
X137391337Y-51993800I-1295063J0D01*
G01*
X137391337Y-51993800D02*
G75*
G02*
X139981463Y-51993800I1295063J0D01*
G01*
%TO.C,SW4*%
X146481463Y-58493800D02*
G75*
G02*
X143891337Y-58493800I-1295063J0D01*
G01*
X143891337Y-58493800D02*
G75*
G02*
X146481463Y-58493800I1295063J0D01*
G01*
%TD*%
D14*
%TO.C,H1*%
X137744200Y-44577000D03*
%TD*%
%TO.C,H2*%
X137744200Y-59410600D03*
%TD*%
D15*
%TO.C,D1*%
X152170800Y-59359800D03*
%TD*%
D16*
%TO.C,SW2*%
X145676297Y-43193800D03*
D17*
X144508168Y-47593800D03*
%TD*%
D18*
%TO.C,SW3*%
X151196503Y-54293800D03*
D19*
X152364632Y-49893800D03*
%TD*%
D18*
%TO.C,SW1*%
X138196503Y-54293800D03*
D19*
X139364632Y-49893800D03*
%TD*%
D16*
%TO.C,SW4*%
X145676297Y-56193800D03*
D17*
X144508168Y-60593800D03*
%TD*%
%LPD*%
M02*
