%TF.GenerationSoftware,KiCad,Pcbnew,9.0.4*%
%TF.CreationDate,2025-08-23T12:23:13-06:00*%
%TF.ProjectId,frontpanel-3.5,66726f6e-7470-4616-9e65-6c2d332e352e,rev?*%
%TF.SameCoordinates,Original*%
%TF.FileFunction,Legend,Top*%
%TF.FilePolarity,Positive*%
%FSLAX46Y46*%
G04 Gerber Fmt 4.6, Leading zero omitted, Abs format (unit mm)*
G04 Created by KiCad (PCBNEW 9.0.4) date 2025-08-23 12:23:13*
%MOMM*%
%LPD*%
G01*
G04 APERTURE LIST*
G04 Aperture macros list*
%AMRoundRect*
0 Rectangle with rounded corners*
0 $1 Rounding radius*
0 $2 $3 $4 $5 $6 $7 $8 $9 X,Y pos of 4 corners*
0 Add a 4 corners polygon primitive as box body*
4,1,4,$2,$3,$4,$5,$6,$7,$8,$9,$2,$3,0*
0 Add four circle primitives for the rounded corners*
1,1,$1+$1,$2,$3*
1,1,$1+$1,$4,$5*
1,1,$1+$1,$6,$7*
1,1,$1+$1,$8,$9*
0 Add four rect primitives between the rounded corners*
20,1,$1+$1,$2,$3,$4,$5,0*
20,1,$1+$1,$4,$5,$6,$7,0*
20,1,$1+$1,$6,$7,$8,$9,0*
20,1,$1+$1,$8,$9,$2,$3,0*%
G04 Aperture macros list end*
%ADD10C,0.100000*%
%ADD11C,0.200000*%
%ADD12C,0.150000*%
%ADD13C,0.120000*%
%ADD14C,0.250000*%
%ADD15RoundRect,0.200000X-0.200000X-0.275000X0.200000X-0.275000X0.200000X0.275000X-0.200000X0.275000X0*%
%ADD16RoundRect,0.200000X0.200000X0.275000X-0.200000X0.275000X-0.200000X-0.275000X0.200000X-0.275000X0*%
%ADD17R,3.000000X0.500000*%
%ADD18RoundRect,0.200000X0.275000X-0.200000X0.275000X0.200000X-0.275000X0.200000X-0.275000X-0.200000X0*%
%ADD19RoundRect,0.200000X-0.275000X0.200000X-0.275000X-0.200000X0.275000X-0.200000X0.275000X0.200000X0*%
%ADD20C,4.400000*%
%ADD21RoundRect,0.225000X0.225000X0.250000X-0.225000X0.250000X-0.225000X-0.250000X0.225000X-0.250000X0*%
%ADD22RoundRect,0.225000X-0.250000X0.225000X-0.250000X-0.225000X0.250000X-0.225000X0.250000X0.225000X0*%
%ADD23RoundRect,0.150000X0.512500X0.150000X-0.512500X0.150000X-0.512500X-0.150000X0.512500X-0.150000X0*%
%ADD24RoundRect,0.112500X-0.112500X0.187500X-0.112500X-0.187500X0.112500X-0.187500X0.112500X0.187500X0*%
%ADD25O,1.750000X2.800000*%
%ADD26RoundRect,0.190000X-0.285000X-0.685000X0.285000X-0.685000X0.285000X0.685000X-0.285000X0.685000X0*%
%ADD27RoundRect,0.100000X0.100000X-0.637500X0.100000X0.637500X-0.100000X0.637500X-0.100000X-0.637500X0*%
%ADD28RoundRect,0.150000X-0.150000X-0.625000X0.150000X-0.625000X0.150000X0.625000X-0.150000X0.625000X0*%
%ADD29RoundRect,0.250000X-0.350000X-0.650000X0.350000X-0.650000X0.350000X0.650000X-0.350000X0.650000X0*%
%ADD30RoundRect,0.218750X-0.218750X-0.381250X0.218750X-0.381250X0.218750X0.381250X-0.218750X0.381250X0*%
%ADD31RoundRect,0.150000X0.150000X-0.587500X0.150000X0.587500X-0.150000X0.587500X-0.150000X-0.587500X0*%
%ADD32RoundRect,0.225000X0.250000X-0.225000X0.250000X0.225000X-0.250000X0.225000X-0.250000X-0.225000X0*%
%ADD33RoundRect,0.150000X0.150000X0.625000X-0.150000X0.625000X-0.150000X-0.625000X0.150000X-0.625000X0*%
%ADD34RoundRect,0.250000X0.350000X0.650000X-0.350000X0.650000X-0.350000X-0.650000X0.350000X-0.650000X0*%
%ADD35R,1.000000X2.510000*%
G04 APERTURE END LIST*
D10*
X188187684Y-60927752D02*
X188187684Y-61927752D01*
X188187684Y-60975371D02*
X188282922Y-60927752D01*
X188282922Y-60927752D02*
X188473398Y-60927752D01*
X188473398Y-60927752D02*
X188568636Y-60975371D01*
X188568636Y-60975371D02*
X188616255Y-61022990D01*
X188616255Y-61022990D02*
X188663874Y-61118228D01*
X188663874Y-61118228D02*
X188663874Y-61403942D01*
X188663874Y-61403942D02*
X188616255Y-61499180D01*
X188616255Y-61499180D02*
X188568636Y-61546800D01*
X188568636Y-61546800D02*
X188473398Y-61594419D01*
X188473398Y-61594419D02*
X188282922Y-61594419D01*
X188282922Y-61594419D02*
X188187684Y-61546800D01*
X189092446Y-61594419D02*
X189092446Y-60927752D01*
X189092446Y-61118228D02*
X189140065Y-61022990D01*
X189140065Y-61022990D02*
X189187684Y-60975371D01*
X189187684Y-60975371D02*
X189282922Y-60927752D01*
X189282922Y-60927752D02*
X189378160Y-60927752D01*
X189854351Y-61594419D02*
X189759113Y-61546800D01*
X189759113Y-61546800D02*
X189711494Y-61499180D01*
X189711494Y-61499180D02*
X189663875Y-61403942D01*
X189663875Y-61403942D02*
X189663875Y-61118228D01*
X189663875Y-61118228D02*
X189711494Y-61022990D01*
X189711494Y-61022990D02*
X189759113Y-60975371D01*
X189759113Y-60975371D02*
X189854351Y-60927752D01*
X189854351Y-60927752D02*
X189997208Y-60927752D01*
X189997208Y-60927752D02*
X190092446Y-60975371D01*
X190092446Y-60975371D02*
X190140065Y-61022990D01*
X190140065Y-61022990D02*
X190187684Y-61118228D01*
X190187684Y-61118228D02*
X190187684Y-61403942D01*
X190187684Y-61403942D02*
X190140065Y-61499180D01*
X190140065Y-61499180D02*
X190092446Y-61546800D01*
X190092446Y-61546800D02*
X189997208Y-61594419D01*
X189997208Y-61594419D02*
X189854351Y-61594419D01*
X190473399Y-60927752D02*
X190854351Y-60927752D01*
X190616256Y-60594419D02*
X190616256Y-61451561D01*
X190616256Y-61451561D02*
X190663875Y-61546800D01*
X190663875Y-61546800D02*
X190759113Y-61594419D01*
X190759113Y-61594419D02*
X190854351Y-61594419D01*
X191330542Y-61594419D02*
X191235304Y-61546800D01*
X191235304Y-61546800D02*
X191187685Y-61499180D01*
X191187685Y-61499180D02*
X191140066Y-61403942D01*
X191140066Y-61403942D02*
X191140066Y-61118228D01*
X191140066Y-61118228D02*
X191187685Y-61022990D01*
X191187685Y-61022990D02*
X191235304Y-60975371D01*
X191235304Y-60975371D02*
X191330542Y-60927752D01*
X191330542Y-60927752D02*
X191473399Y-60927752D01*
X191473399Y-60927752D02*
X191568637Y-60975371D01*
X191568637Y-60975371D02*
X191616256Y-61022990D01*
X191616256Y-61022990D02*
X191663875Y-61118228D01*
X191663875Y-61118228D02*
X191663875Y-61403942D01*
X191663875Y-61403942D02*
X191616256Y-61499180D01*
X191616256Y-61499180D02*
X191568637Y-61546800D01*
X191568637Y-61546800D02*
X191473399Y-61594419D01*
X191473399Y-61594419D02*
X191330542Y-61594419D01*
X192616256Y-61594419D02*
X192044828Y-61594419D01*
X192330542Y-61594419D02*
X192330542Y-60594419D01*
X192330542Y-60594419D02*
X192235304Y-60737276D01*
X192235304Y-60737276D02*
X192140066Y-60832514D01*
X192140066Y-60832514D02*
X192044828Y-60880133D01*
D11*
X135721520Y-48160828D02*
X136402473Y-48160828D01*
X136402473Y-48160828D02*
X136035806Y-48579876D01*
X136035806Y-48579876D02*
X136192949Y-48579876D01*
X136192949Y-48579876D02*
X136297711Y-48632257D01*
X136297711Y-48632257D02*
X136350092Y-48684638D01*
X136350092Y-48684638D02*
X136402473Y-48789400D01*
X136402473Y-48789400D02*
X136402473Y-49051305D01*
X136402473Y-49051305D02*
X136350092Y-49156067D01*
X136350092Y-49156067D02*
X136297711Y-49208448D01*
X136297711Y-49208448D02*
X136192949Y-49260828D01*
X136192949Y-49260828D02*
X135878663Y-49260828D01*
X135878663Y-49260828D02*
X135773901Y-49208448D01*
X135773901Y-49208448D02*
X135721520Y-49156067D01*
X136873901Y-49156067D02*
X136926282Y-49208448D01*
X136926282Y-49208448D02*
X136873901Y-49260828D01*
X136873901Y-49260828D02*
X136821520Y-49208448D01*
X136821520Y-49208448D02*
X136873901Y-49156067D01*
X136873901Y-49156067D02*
X136873901Y-49260828D01*
X137921521Y-48160828D02*
X137397711Y-48160828D01*
X137397711Y-48160828D02*
X137345330Y-48684638D01*
X137345330Y-48684638D02*
X137397711Y-48632257D01*
X137397711Y-48632257D02*
X137502473Y-48579876D01*
X137502473Y-48579876D02*
X137764378Y-48579876D01*
X137764378Y-48579876D02*
X137869140Y-48632257D01*
X137869140Y-48632257D02*
X137921521Y-48684638D01*
X137921521Y-48684638D02*
X137973902Y-48789400D01*
X137973902Y-48789400D02*
X137973902Y-49051305D01*
X137973902Y-49051305D02*
X137921521Y-49156067D01*
X137921521Y-49156067D02*
X137869140Y-49208448D01*
X137869140Y-49208448D02*
X137764378Y-49260828D01*
X137764378Y-49260828D02*
X137502473Y-49260828D01*
X137502473Y-49260828D02*
X137397711Y-49208448D01*
X137397711Y-49208448D02*
X137345330Y-49156067D01*
X138392949Y-48160828D02*
X138392949Y-48370352D01*
X138811997Y-48160828D02*
X138811997Y-48370352D01*
X140121520Y-49260828D02*
X140121520Y-48160828D01*
X140121520Y-48579876D02*
X140226282Y-48527495D01*
X140226282Y-48527495D02*
X140435806Y-48527495D01*
X140435806Y-48527495D02*
X140540568Y-48579876D01*
X140540568Y-48579876D02*
X140592949Y-48632257D01*
X140592949Y-48632257D02*
X140645330Y-48737019D01*
X140645330Y-48737019D02*
X140645330Y-49051305D01*
X140645330Y-49051305D02*
X140592949Y-49156067D01*
X140592949Y-49156067D02*
X140540568Y-49208448D01*
X140540568Y-49208448D02*
X140435806Y-49260828D01*
X140435806Y-49260828D02*
X140226282Y-49260828D01*
X140226282Y-49260828D02*
X140121520Y-49208448D01*
X141588187Y-49260828D02*
X141588187Y-48684638D01*
X141588187Y-48684638D02*
X141535806Y-48579876D01*
X141535806Y-48579876D02*
X141431044Y-48527495D01*
X141431044Y-48527495D02*
X141221520Y-48527495D01*
X141221520Y-48527495D02*
X141116758Y-48579876D01*
X141588187Y-49208448D02*
X141483425Y-49260828D01*
X141483425Y-49260828D02*
X141221520Y-49260828D01*
X141221520Y-49260828D02*
X141116758Y-49208448D01*
X141116758Y-49208448D02*
X141064377Y-49103686D01*
X141064377Y-49103686D02*
X141064377Y-48998924D01*
X141064377Y-48998924D02*
X141116758Y-48894162D01*
X141116758Y-48894162D02*
X141221520Y-48841781D01*
X141221520Y-48841781D02*
X141483425Y-48841781D01*
X141483425Y-48841781D02*
X141588187Y-48789400D01*
X142007234Y-48527495D02*
X142269139Y-49260828D01*
X142531044Y-48527495D02*
X142269139Y-49260828D01*
X142269139Y-49260828D02*
X142164377Y-49522733D01*
X142164377Y-49522733D02*
X142111996Y-49575114D01*
X142111996Y-49575114D02*
X142007234Y-49627495D01*
X143788186Y-48527495D02*
X143788186Y-49627495D01*
X143788186Y-48579876D02*
X143892948Y-48527495D01*
X143892948Y-48527495D02*
X144102472Y-48527495D01*
X144102472Y-48527495D02*
X144207234Y-48579876D01*
X144207234Y-48579876D02*
X144259615Y-48632257D01*
X144259615Y-48632257D02*
X144311996Y-48737019D01*
X144311996Y-48737019D02*
X144311996Y-49051305D01*
X144311996Y-49051305D02*
X144259615Y-49156067D01*
X144259615Y-49156067D02*
X144207234Y-49208448D01*
X144207234Y-49208448D02*
X144102472Y-49260828D01*
X144102472Y-49260828D02*
X143892948Y-49260828D01*
X143892948Y-49260828D02*
X143788186Y-49208448D01*
X145254853Y-49260828D02*
X145254853Y-48684638D01*
X145254853Y-48684638D02*
X145202472Y-48579876D01*
X145202472Y-48579876D02*
X145097710Y-48527495D01*
X145097710Y-48527495D02*
X144888186Y-48527495D01*
X144888186Y-48527495D02*
X144783424Y-48579876D01*
X145254853Y-49208448D02*
X145150091Y-49260828D01*
X145150091Y-49260828D02*
X144888186Y-49260828D01*
X144888186Y-49260828D02*
X144783424Y-49208448D01*
X144783424Y-49208448D02*
X144731043Y-49103686D01*
X144731043Y-49103686D02*
X144731043Y-48998924D01*
X144731043Y-48998924D02*
X144783424Y-48894162D01*
X144783424Y-48894162D02*
X144888186Y-48841781D01*
X144888186Y-48841781D02*
X145150091Y-48841781D01*
X145150091Y-48841781D02*
X145254853Y-48789400D01*
X145778662Y-48527495D02*
X145778662Y-49260828D01*
X145778662Y-48632257D02*
X145831043Y-48579876D01*
X145831043Y-48579876D02*
X145935805Y-48527495D01*
X145935805Y-48527495D02*
X146092948Y-48527495D01*
X146092948Y-48527495D02*
X146197710Y-48579876D01*
X146197710Y-48579876D02*
X146250091Y-48684638D01*
X146250091Y-48684638D02*
X146250091Y-49260828D01*
X147192948Y-49208448D02*
X147088186Y-49260828D01*
X147088186Y-49260828D02*
X146878662Y-49260828D01*
X146878662Y-49260828D02*
X146773900Y-49208448D01*
X146773900Y-49208448D02*
X146721519Y-49103686D01*
X146721519Y-49103686D02*
X146721519Y-48684638D01*
X146721519Y-48684638D02*
X146773900Y-48579876D01*
X146773900Y-48579876D02*
X146878662Y-48527495D01*
X146878662Y-48527495D02*
X147088186Y-48527495D01*
X147088186Y-48527495D02*
X147192948Y-48579876D01*
X147192948Y-48579876D02*
X147245329Y-48684638D01*
X147245329Y-48684638D02*
X147245329Y-48789400D01*
X147245329Y-48789400D02*
X146721519Y-48894162D01*
X147873900Y-49260828D02*
X147769138Y-49208448D01*
X147769138Y-49208448D02*
X147716757Y-49103686D01*
X147716757Y-49103686D02*
X147716757Y-48160828D01*
X135669139Y-53840309D02*
X136088187Y-53840309D01*
X135826282Y-54573642D02*
X135826282Y-53630785D01*
X135826282Y-53630785D02*
X135878663Y-53526023D01*
X135878663Y-53526023D02*
X135983425Y-53473642D01*
X135983425Y-53473642D02*
X136088187Y-53473642D01*
X136611996Y-54573642D02*
X136507234Y-54521262D01*
X136507234Y-54521262D02*
X136454853Y-54468881D01*
X136454853Y-54468881D02*
X136402472Y-54364119D01*
X136402472Y-54364119D02*
X136402472Y-54049833D01*
X136402472Y-54049833D02*
X136454853Y-53945071D01*
X136454853Y-53945071D02*
X136507234Y-53892690D01*
X136507234Y-53892690D02*
X136611996Y-53840309D01*
X136611996Y-53840309D02*
X136769139Y-53840309D01*
X136769139Y-53840309D02*
X136873901Y-53892690D01*
X136873901Y-53892690D02*
X136926282Y-53945071D01*
X136926282Y-53945071D02*
X136978663Y-54049833D01*
X136978663Y-54049833D02*
X136978663Y-54364119D01*
X136978663Y-54364119D02*
X136926282Y-54468881D01*
X136926282Y-54468881D02*
X136873901Y-54521262D01*
X136873901Y-54521262D02*
X136769139Y-54573642D01*
X136769139Y-54573642D02*
X136611996Y-54573642D01*
X137450091Y-54573642D02*
X137450091Y-53840309D01*
X137450091Y-54049833D02*
X137502472Y-53945071D01*
X137502472Y-53945071D02*
X137554853Y-53892690D01*
X137554853Y-53892690D02*
X137659615Y-53840309D01*
X137659615Y-53840309D02*
X137764377Y-53840309D01*
X138969138Y-54573642D02*
X138969138Y-53473642D01*
X138969138Y-53473642D02*
X139388186Y-53473642D01*
X139388186Y-53473642D02*
X139492948Y-53526023D01*
X139492948Y-53526023D02*
X139545329Y-53578404D01*
X139545329Y-53578404D02*
X139597710Y-53683166D01*
X139597710Y-53683166D02*
X139597710Y-53840309D01*
X139597710Y-53840309D02*
X139545329Y-53945071D01*
X139545329Y-53945071D02*
X139492948Y-53997452D01*
X139492948Y-53997452D02*
X139388186Y-54049833D01*
X139388186Y-54049833D02*
X138969138Y-54049833D01*
X140069138Y-54573642D02*
X140069138Y-53840309D01*
X140069138Y-53473642D02*
X140016757Y-53526023D01*
X140016757Y-53526023D02*
X140069138Y-53578404D01*
X140069138Y-53578404D02*
X140121519Y-53526023D01*
X140121519Y-53526023D02*
X140069138Y-53473642D01*
X140069138Y-53473642D02*
X140069138Y-53578404D01*
X141064377Y-54521262D02*
X140959615Y-54573642D01*
X140959615Y-54573642D02*
X140750091Y-54573642D01*
X140750091Y-54573642D02*
X140645329Y-54521262D01*
X140645329Y-54521262D02*
X140592948Y-54468881D01*
X140592948Y-54468881D02*
X140540567Y-54364119D01*
X140540567Y-54364119D02*
X140540567Y-54049833D01*
X140540567Y-54049833D02*
X140592948Y-53945071D01*
X140592948Y-53945071D02*
X140645329Y-53892690D01*
X140645329Y-53892690D02*
X140750091Y-53840309D01*
X140750091Y-53840309D02*
X140959615Y-53840309D01*
X140959615Y-53840309D02*
X141064377Y-53892690D01*
X141692948Y-54573642D02*
X141588186Y-54521262D01*
X141588186Y-54521262D02*
X141535805Y-54468881D01*
X141535805Y-54468881D02*
X141483424Y-54364119D01*
X141483424Y-54364119D02*
X141483424Y-54049833D01*
X141483424Y-54049833D02*
X141535805Y-53945071D01*
X141535805Y-53945071D02*
X141588186Y-53892690D01*
X141588186Y-53892690D02*
X141692948Y-53840309D01*
X141692948Y-53840309D02*
X141850091Y-53840309D01*
X141850091Y-53840309D02*
X141954853Y-53892690D01*
X141954853Y-53892690D02*
X142007234Y-53945071D01*
X142007234Y-53945071D02*
X142059615Y-54049833D01*
X142059615Y-54049833D02*
X142059615Y-54364119D01*
X142059615Y-54364119D02*
X142007234Y-54468881D01*
X142007234Y-54468881D02*
X141954853Y-54521262D01*
X141954853Y-54521262D02*
X141850091Y-54573642D01*
X141850091Y-54573642D02*
X141692948Y-54573642D01*
X142531043Y-54573642D02*
X142531043Y-53473642D01*
X143054853Y-54573642D02*
X143054853Y-53473642D01*
X143054853Y-53473642D02*
X143316758Y-53473642D01*
X143316758Y-53473642D02*
X143473901Y-53526023D01*
X143473901Y-53526023D02*
X143578663Y-53630785D01*
X143578663Y-53630785D02*
X143631044Y-53735547D01*
X143631044Y-53735547D02*
X143683425Y-53945071D01*
X143683425Y-53945071D02*
X143683425Y-54102214D01*
X143683425Y-54102214D02*
X143631044Y-54311738D01*
X143631044Y-54311738D02*
X143578663Y-54416500D01*
X143578663Y-54416500D02*
X143473901Y-54521262D01*
X143473901Y-54521262D02*
X143316758Y-54573642D01*
X143316758Y-54573642D02*
X143054853Y-54573642D01*
X144154853Y-53997452D02*
X144521520Y-53997452D01*
X144678663Y-54573642D02*
X144154853Y-54573642D01*
X144154853Y-54573642D02*
X144154853Y-53473642D01*
X144154853Y-53473642D02*
X144678663Y-53473642D01*
X146878662Y-54573642D02*
X146826282Y-54573642D01*
X146826282Y-54573642D02*
X146721520Y-54521262D01*
X146721520Y-54521262D02*
X146564377Y-54364119D01*
X146564377Y-54364119D02*
X146302472Y-54049833D01*
X146302472Y-54049833D02*
X146197710Y-53892690D01*
X146197710Y-53892690D02*
X146145329Y-53735547D01*
X146145329Y-53735547D02*
X146145329Y-53630785D01*
X146145329Y-53630785D02*
X146197710Y-53526023D01*
X146197710Y-53526023D02*
X146302472Y-53473642D01*
X146302472Y-53473642D02*
X146354853Y-53473642D01*
X146354853Y-53473642D02*
X146459615Y-53526023D01*
X146459615Y-53526023D02*
X146511996Y-53630785D01*
X146511996Y-53630785D02*
X146511996Y-53683166D01*
X146511996Y-53683166D02*
X146459615Y-53787928D01*
X146459615Y-53787928D02*
X146407234Y-53840309D01*
X146407234Y-53840309D02*
X146092948Y-54049833D01*
X146092948Y-54049833D02*
X146040567Y-54102214D01*
X146040567Y-54102214D02*
X145988186Y-54206976D01*
X145988186Y-54206976D02*
X145988186Y-54364119D01*
X145988186Y-54364119D02*
X146040567Y-54468881D01*
X146040567Y-54468881D02*
X146092948Y-54521262D01*
X146092948Y-54521262D02*
X146197710Y-54573642D01*
X146197710Y-54573642D02*
X146354853Y-54573642D01*
X146354853Y-54573642D02*
X146459615Y-54521262D01*
X146459615Y-54521262D02*
X146511996Y-54468881D01*
X146511996Y-54468881D02*
X146669139Y-54259357D01*
X146669139Y-54259357D02*
X146721520Y-54102214D01*
X146721520Y-54102214D02*
X146721520Y-53997452D01*
X136192949Y-55768390D02*
X136350092Y-55820771D01*
X136350092Y-55820771D02*
X136402473Y-55873152D01*
X136402473Y-55873152D02*
X136454854Y-55977914D01*
X136454854Y-55977914D02*
X136454854Y-56135057D01*
X136454854Y-56135057D02*
X136402473Y-56239819D01*
X136402473Y-56239819D02*
X136350092Y-56292200D01*
X136350092Y-56292200D02*
X136245330Y-56344580D01*
X136245330Y-56344580D02*
X135826282Y-56344580D01*
X135826282Y-56344580D02*
X135826282Y-55244580D01*
X135826282Y-55244580D02*
X136192949Y-55244580D01*
X136192949Y-55244580D02*
X136297711Y-55296961D01*
X136297711Y-55296961D02*
X136350092Y-55349342D01*
X136350092Y-55349342D02*
X136402473Y-55454104D01*
X136402473Y-55454104D02*
X136402473Y-55558866D01*
X136402473Y-55558866D02*
X136350092Y-55663628D01*
X136350092Y-55663628D02*
X136297711Y-55716009D01*
X136297711Y-55716009D02*
X136192949Y-55768390D01*
X136192949Y-55768390D02*
X135826282Y-55768390D01*
X137083425Y-56344580D02*
X136978663Y-56292200D01*
X136978663Y-56292200D02*
X136926282Y-56187438D01*
X136926282Y-56187438D02*
X136926282Y-55244580D01*
X137973901Y-55611247D02*
X137973901Y-56344580D01*
X137502472Y-55611247D02*
X137502472Y-56187438D01*
X137502472Y-56187438D02*
X137554853Y-56292200D01*
X137554853Y-56292200D02*
X137659615Y-56344580D01*
X137659615Y-56344580D02*
X137816758Y-56344580D01*
X137816758Y-56344580D02*
X137921520Y-56292200D01*
X137921520Y-56292200D02*
X137973901Y-56239819D01*
X138916758Y-56292200D02*
X138811996Y-56344580D01*
X138811996Y-56344580D02*
X138602472Y-56344580D01*
X138602472Y-56344580D02*
X138497710Y-56292200D01*
X138497710Y-56292200D02*
X138445329Y-56187438D01*
X138445329Y-56187438D02*
X138445329Y-55768390D01*
X138445329Y-55768390D02*
X138497710Y-55663628D01*
X138497710Y-55663628D02*
X138602472Y-55611247D01*
X138602472Y-55611247D02*
X138811996Y-55611247D01*
X138811996Y-55611247D02*
X138916758Y-55663628D01*
X138916758Y-55663628D02*
X138969139Y-55768390D01*
X138969139Y-55768390D02*
X138969139Y-55873152D01*
X138969139Y-55873152D02*
X138445329Y-55977914D01*
X139388186Y-56292200D02*
X139545329Y-56344580D01*
X139545329Y-56344580D02*
X139807234Y-56344580D01*
X139807234Y-56344580D02*
X139911996Y-56292200D01*
X139911996Y-56292200D02*
X139964377Y-56239819D01*
X139964377Y-56239819D02*
X140016758Y-56135057D01*
X140016758Y-56135057D02*
X140016758Y-56030295D01*
X140016758Y-56030295D02*
X139964377Y-55925533D01*
X139964377Y-55925533D02*
X139911996Y-55873152D01*
X139911996Y-55873152D02*
X139807234Y-55820771D01*
X139807234Y-55820771D02*
X139597710Y-55768390D01*
X139597710Y-55768390D02*
X139492948Y-55716009D01*
X139492948Y-55716009D02*
X139440567Y-55663628D01*
X139440567Y-55663628D02*
X139388186Y-55558866D01*
X139388186Y-55558866D02*
X139388186Y-55454104D01*
X139388186Y-55454104D02*
X139440567Y-55349342D01*
X139440567Y-55349342D02*
X139492948Y-55296961D01*
X139492948Y-55296961D02*
X139597710Y-55244580D01*
X139597710Y-55244580D02*
X139859615Y-55244580D01*
X139859615Y-55244580D02*
X140016758Y-55296961D01*
X141116758Y-56239819D02*
X141064377Y-56292200D01*
X141064377Y-56292200D02*
X140907234Y-56344580D01*
X140907234Y-56344580D02*
X140802472Y-56344580D01*
X140802472Y-56344580D02*
X140645329Y-56292200D01*
X140645329Y-56292200D02*
X140540567Y-56187438D01*
X140540567Y-56187438D02*
X140488186Y-56082676D01*
X140488186Y-56082676D02*
X140435805Y-55873152D01*
X140435805Y-55873152D02*
X140435805Y-55716009D01*
X140435805Y-55716009D02*
X140488186Y-55506485D01*
X140488186Y-55506485D02*
X140540567Y-55401723D01*
X140540567Y-55401723D02*
X140645329Y-55296961D01*
X140645329Y-55296961D02*
X140802472Y-55244580D01*
X140802472Y-55244580D02*
X140907234Y-55244580D01*
X140907234Y-55244580D02*
X141064377Y-55296961D01*
X141064377Y-55296961D02*
X141116758Y-55349342D01*
X141535805Y-56292200D02*
X141692948Y-56344580D01*
X141692948Y-56344580D02*
X141954853Y-56344580D01*
X141954853Y-56344580D02*
X142059615Y-56292200D01*
X142059615Y-56292200D02*
X142111996Y-56239819D01*
X142111996Y-56239819D02*
X142164377Y-56135057D01*
X142164377Y-56135057D02*
X142164377Y-56030295D01*
X142164377Y-56030295D02*
X142111996Y-55925533D01*
X142111996Y-55925533D02*
X142059615Y-55873152D01*
X142059615Y-55873152D02*
X141954853Y-55820771D01*
X141954853Y-55820771D02*
X141745329Y-55768390D01*
X141745329Y-55768390D02*
X141640567Y-55716009D01*
X141640567Y-55716009D02*
X141588186Y-55663628D01*
X141588186Y-55663628D02*
X141535805Y-55558866D01*
X141535805Y-55558866D02*
X141535805Y-55454104D01*
X141535805Y-55454104D02*
X141588186Y-55349342D01*
X141588186Y-55349342D02*
X141640567Y-55296961D01*
X141640567Y-55296961D02*
X141745329Y-55244580D01*
X141745329Y-55244580D02*
X142007234Y-55244580D01*
X142007234Y-55244580D02*
X142164377Y-55296961D01*
X142635805Y-56344580D02*
X142635805Y-55244580D01*
D12*
X186563800Y-57173190D02*
X186611419Y-57030333D01*
X186611419Y-57030333D02*
X186611419Y-56792238D01*
X186611419Y-56792238D02*
X186563800Y-56697000D01*
X186563800Y-56697000D02*
X186516180Y-56649381D01*
X186516180Y-56649381D02*
X186420942Y-56601762D01*
X186420942Y-56601762D02*
X186325704Y-56601762D01*
X186325704Y-56601762D02*
X186230466Y-56649381D01*
X186230466Y-56649381D02*
X186182847Y-56697000D01*
X186182847Y-56697000D02*
X186135228Y-56792238D01*
X186135228Y-56792238D02*
X186087609Y-56982714D01*
X186087609Y-56982714D02*
X186039990Y-57077952D01*
X186039990Y-57077952D02*
X185992371Y-57125571D01*
X185992371Y-57125571D02*
X185897133Y-57173190D01*
X185897133Y-57173190D02*
X185801895Y-57173190D01*
X185801895Y-57173190D02*
X185706657Y-57125571D01*
X185706657Y-57125571D02*
X185659038Y-57077952D01*
X185659038Y-57077952D02*
X185611419Y-56982714D01*
X185611419Y-56982714D02*
X185611419Y-56744619D01*
X185611419Y-56744619D02*
X185659038Y-56601762D01*
X186611419Y-56173190D02*
X185611419Y-56173190D01*
X186087609Y-56173190D02*
X186087609Y-55601762D01*
X186611419Y-55601762D02*
X185611419Y-55601762D01*
X186611419Y-54601762D02*
X186611419Y-55173190D01*
X186611419Y-54887476D02*
X185611419Y-54887476D01*
X185611419Y-54887476D02*
X185754276Y-54982714D01*
X185754276Y-54982714D02*
X185849514Y-55077952D01*
X185849514Y-55077952D02*
X185897133Y-55173190D01*
X186611419Y-53649381D02*
X186611419Y-54220809D01*
X186611419Y-53935095D02*
X185611419Y-53935095D01*
X185611419Y-53935095D02*
X185754276Y-54030333D01*
X185754276Y-54030333D02*
X185849514Y-54125571D01*
X185849514Y-54125571D02*
X185897133Y-54220809D01*
X186611419Y-52697000D02*
X186611419Y-53268428D01*
X186611419Y-52982714D02*
X185611419Y-52982714D01*
X185611419Y-52982714D02*
X185754276Y-53077952D01*
X185754276Y-53077952D02*
X185849514Y-53173190D01*
X185849514Y-53173190D02*
X185897133Y-53268428D01*
X185611419Y-52363666D02*
X185611419Y-51697000D01*
X185611419Y-51697000D02*
X186611419Y-52125571D01*
X185611419Y-50363666D02*
X185611419Y-50173190D01*
X185611419Y-50173190D02*
X185659038Y-50077952D01*
X185659038Y-50077952D02*
X185754276Y-49982714D01*
X185754276Y-49982714D02*
X185944752Y-49935095D01*
X185944752Y-49935095D02*
X186278085Y-49935095D01*
X186278085Y-49935095D02*
X186468561Y-49982714D01*
X186468561Y-49982714D02*
X186563800Y-50077952D01*
X186563800Y-50077952D02*
X186611419Y-50173190D01*
X186611419Y-50173190D02*
X186611419Y-50363666D01*
X186611419Y-50363666D02*
X186563800Y-50458904D01*
X186563800Y-50458904D02*
X186468561Y-50554142D01*
X186468561Y-50554142D02*
X186278085Y-50601761D01*
X186278085Y-50601761D02*
X185944752Y-50601761D01*
X185944752Y-50601761D02*
X185754276Y-50554142D01*
X185754276Y-50554142D02*
X185659038Y-50458904D01*
X185659038Y-50458904D02*
X185611419Y-50363666D01*
X186611419Y-49030333D02*
X186611419Y-49506523D01*
X186611419Y-49506523D02*
X185611419Y-49506523D01*
X186087609Y-48696999D02*
X186087609Y-48363666D01*
X186611419Y-48220809D02*
X186611419Y-48696999D01*
X186611419Y-48696999D02*
X185611419Y-48696999D01*
X185611419Y-48696999D02*
X185611419Y-48220809D01*
X186611419Y-47792237D02*
X185611419Y-47792237D01*
X185611419Y-47792237D02*
X185611419Y-47554142D01*
X185611419Y-47554142D02*
X185659038Y-47411285D01*
X185659038Y-47411285D02*
X185754276Y-47316047D01*
X185754276Y-47316047D02*
X185849514Y-47268428D01*
X185849514Y-47268428D02*
X186039990Y-47220809D01*
X186039990Y-47220809D02*
X186182847Y-47220809D01*
X186182847Y-47220809D02*
X186373323Y-47268428D01*
X186373323Y-47268428D02*
X186468561Y-47316047D01*
X186468561Y-47316047D02*
X186563800Y-47411285D01*
X186563800Y-47411285D02*
X186611419Y-47554142D01*
X186611419Y-47554142D02*
X186611419Y-47792237D01*
X157821333Y-49596219D02*
X157488000Y-49120028D01*
X157249905Y-49596219D02*
X157249905Y-48596219D01*
X157249905Y-48596219D02*
X157630857Y-48596219D01*
X157630857Y-48596219D02*
X157726095Y-48643838D01*
X157726095Y-48643838D02*
X157773714Y-48691457D01*
X157773714Y-48691457D02*
X157821333Y-48786695D01*
X157821333Y-48786695D02*
X157821333Y-48929552D01*
X157821333Y-48929552D02*
X157773714Y-49024790D01*
X157773714Y-49024790D02*
X157726095Y-49072409D01*
X157726095Y-49072409D02*
X157630857Y-49120028D01*
X157630857Y-49120028D02*
X157249905Y-49120028D01*
X158297524Y-49596219D02*
X158488000Y-49596219D01*
X158488000Y-49596219D02*
X158583238Y-49548600D01*
X158583238Y-49548600D02*
X158630857Y-49500980D01*
X158630857Y-49500980D02*
X158726095Y-49358123D01*
X158726095Y-49358123D02*
X158773714Y-49167647D01*
X158773714Y-49167647D02*
X158773714Y-48786695D01*
X158773714Y-48786695D02*
X158726095Y-48691457D01*
X158726095Y-48691457D02*
X158678476Y-48643838D01*
X158678476Y-48643838D02*
X158583238Y-48596219D01*
X158583238Y-48596219D02*
X158392762Y-48596219D01*
X158392762Y-48596219D02*
X158297524Y-48643838D01*
X158297524Y-48643838D02*
X158249905Y-48691457D01*
X158249905Y-48691457D02*
X158202286Y-48786695D01*
X158202286Y-48786695D02*
X158202286Y-49024790D01*
X158202286Y-49024790D02*
X158249905Y-49120028D01*
X158249905Y-49120028D02*
X158297524Y-49167647D01*
X158297524Y-49167647D02*
X158392762Y-49215266D01*
X158392762Y-49215266D02*
X158583238Y-49215266D01*
X158583238Y-49215266D02*
X158678476Y-49167647D01*
X158678476Y-49167647D02*
X158726095Y-49120028D01*
X158726095Y-49120028D02*
X158773714Y-49024790D01*
X154747933Y-52456219D02*
X154414600Y-51980028D01*
X154176505Y-52456219D02*
X154176505Y-51456219D01*
X154176505Y-51456219D02*
X154557457Y-51456219D01*
X154557457Y-51456219D02*
X154652695Y-51503838D01*
X154652695Y-51503838D02*
X154700314Y-51551457D01*
X154700314Y-51551457D02*
X154747933Y-51646695D01*
X154747933Y-51646695D02*
X154747933Y-51789552D01*
X154747933Y-51789552D02*
X154700314Y-51884790D01*
X154700314Y-51884790D02*
X154652695Y-51932409D01*
X154652695Y-51932409D02*
X154557457Y-51980028D01*
X154557457Y-51980028D02*
X154176505Y-51980028D01*
X155319362Y-51884790D02*
X155224124Y-51837171D01*
X155224124Y-51837171D02*
X155176505Y-51789552D01*
X155176505Y-51789552D02*
X155128886Y-51694314D01*
X155128886Y-51694314D02*
X155128886Y-51646695D01*
X155128886Y-51646695D02*
X155176505Y-51551457D01*
X155176505Y-51551457D02*
X155224124Y-51503838D01*
X155224124Y-51503838D02*
X155319362Y-51456219D01*
X155319362Y-51456219D02*
X155509838Y-51456219D01*
X155509838Y-51456219D02*
X155605076Y-51503838D01*
X155605076Y-51503838D02*
X155652695Y-51551457D01*
X155652695Y-51551457D02*
X155700314Y-51646695D01*
X155700314Y-51646695D02*
X155700314Y-51694314D01*
X155700314Y-51694314D02*
X155652695Y-51789552D01*
X155652695Y-51789552D02*
X155605076Y-51837171D01*
X155605076Y-51837171D02*
X155509838Y-51884790D01*
X155509838Y-51884790D02*
X155319362Y-51884790D01*
X155319362Y-51884790D02*
X155224124Y-51932409D01*
X155224124Y-51932409D02*
X155176505Y-51980028D01*
X155176505Y-51980028D02*
X155128886Y-52075266D01*
X155128886Y-52075266D02*
X155128886Y-52265742D01*
X155128886Y-52265742D02*
X155176505Y-52360980D01*
X155176505Y-52360980D02*
X155224124Y-52408600D01*
X155224124Y-52408600D02*
X155319362Y-52456219D01*
X155319362Y-52456219D02*
X155509838Y-52456219D01*
X155509838Y-52456219D02*
X155605076Y-52408600D01*
X155605076Y-52408600D02*
X155652695Y-52360980D01*
X155652695Y-52360980D02*
X155700314Y-52265742D01*
X155700314Y-52265742D02*
X155700314Y-52075266D01*
X155700314Y-52075266D02*
X155652695Y-51980028D01*
X155652695Y-51980028D02*
X155605076Y-51932409D01*
X155605076Y-51932409D02*
X155509838Y-51884790D01*
X186839266Y-44590619D02*
X186839266Y-45304904D01*
X186839266Y-45304904D02*
X186791647Y-45447761D01*
X186791647Y-45447761D02*
X186696409Y-45543000D01*
X186696409Y-45543000D02*
X186553552Y-45590619D01*
X186553552Y-45590619D02*
X186458314Y-45590619D01*
X187791647Y-44590619D02*
X187315457Y-44590619D01*
X187315457Y-44590619D02*
X187267838Y-45066809D01*
X187267838Y-45066809D02*
X187315457Y-45019190D01*
X187315457Y-45019190D02*
X187410695Y-44971571D01*
X187410695Y-44971571D02*
X187648790Y-44971571D01*
X187648790Y-44971571D02*
X187744028Y-45019190D01*
X187744028Y-45019190D02*
X187791647Y-45066809D01*
X187791647Y-45066809D02*
X187839266Y-45162047D01*
X187839266Y-45162047D02*
X187839266Y-45400142D01*
X187839266Y-45400142D02*
X187791647Y-45495380D01*
X187791647Y-45495380D02*
X187744028Y-45543000D01*
X187744028Y-45543000D02*
X187648790Y-45590619D01*
X187648790Y-45590619D02*
X187410695Y-45590619D01*
X187410695Y-45590619D02*
X187315457Y-45543000D01*
X187315457Y-45543000D02*
X187267838Y-45495380D01*
X146192419Y-57469066D02*
X145716228Y-57802399D01*
X146192419Y-58040494D02*
X145192419Y-58040494D01*
X145192419Y-58040494D02*
X145192419Y-57659542D01*
X145192419Y-57659542D02*
X145240038Y-57564304D01*
X145240038Y-57564304D02*
X145287657Y-57516685D01*
X145287657Y-57516685D02*
X145382895Y-57469066D01*
X145382895Y-57469066D02*
X145525752Y-57469066D01*
X145525752Y-57469066D02*
X145620990Y-57516685D01*
X145620990Y-57516685D02*
X145668609Y-57564304D01*
X145668609Y-57564304D02*
X145716228Y-57659542D01*
X145716228Y-57659542D02*
X145716228Y-58040494D01*
X145192419Y-57135732D02*
X145192419Y-56469066D01*
X145192419Y-56469066D02*
X146192419Y-56897637D01*
X150474819Y-49214066D02*
X149998628Y-49547399D01*
X150474819Y-49785494D02*
X149474819Y-49785494D01*
X149474819Y-49785494D02*
X149474819Y-49404542D01*
X149474819Y-49404542D02*
X149522438Y-49309304D01*
X149522438Y-49309304D02*
X149570057Y-49261685D01*
X149570057Y-49261685D02*
X149665295Y-49214066D01*
X149665295Y-49214066D02*
X149808152Y-49214066D01*
X149808152Y-49214066D02*
X149903390Y-49261685D01*
X149903390Y-49261685D02*
X149951009Y-49309304D01*
X149951009Y-49309304D02*
X149998628Y-49404542D01*
X149998628Y-49404542D02*
X149998628Y-49785494D01*
X149474819Y-48356923D02*
X149474819Y-48547399D01*
X149474819Y-48547399D02*
X149522438Y-48642637D01*
X149522438Y-48642637D02*
X149570057Y-48690256D01*
X149570057Y-48690256D02*
X149712914Y-48785494D01*
X149712914Y-48785494D02*
X149903390Y-48833113D01*
X149903390Y-48833113D02*
X150284342Y-48833113D01*
X150284342Y-48833113D02*
X150379580Y-48785494D01*
X150379580Y-48785494D02*
X150427200Y-48737875D01*
X150427200Y-48737875D02*
X150474819Y-48642637D01*
X150474819Y-48642637D02*
X150474819Y-48452161D01*
X150474819Y-48452161D02*
X150427200Y-48356923D01*
X150427200Y-48356923D02*
X150379580Y-48309304D01*
X150379580Y-48309304D02*
X150284342Y-48261685D01*
X150284342Y-48261685D02*
X150046247Y-48261685D01*
X150046247Y-48261685D02*
X149951009Y-48309304D01*
X149951009Y-48309304D02*
X149903390Y-48356923D01*
X149903390Y-48356923D02*
X149855771Y-48452161D01*
X149855771Y-48452161D02*
X149855771Y-48642637D01*
X149855771Y-48642637D02*
X149903390Y-48737875D01*
X149903390Y-48737875D02*
X149951009Y-48785494D01*
X149951009Y-48785494D02*
X150046247Y-48833113D01*
X136906095Y-41272619D02*
X136906095Y-40272619D01*
X136906095Y-40748809D02*
X137477523Y-40748809D01*
X137477523Y-41272619D02*
X137477523Y-40272619D01*
X138477523Y-41272619D02*
X137906095Y-41272619D01*
X138191809Y-41272619D02*
X138191809Y-40272619D01*
X138191809Y-40272619D02*
X138096571Y-40415476D01*
X138096571Y-40415476D02*
X138001333Y-40510714D01*
X138001333Y-40510714D02*
X137906095Y-40558333D01*
X136982295Y-63650019D02*
X136982295Y-62650019D01*
X136982295Y-63126209D02*
X137553723Y-63126209D01*
X137553723Y-63650019D02*
X137553723Y-62650019D01*
X137982295Y-62745257D02*
X138029914Y-62697638D01*
X138029914Y-62697638D02*
X138125152Y-62650019D01*
X138125152Y-62650019D02*
X138363247Y-62650019D01*
X138363247Y-62650019D02*
X138458485Y-62697638D01*
X138458485Y-62697638D02*
X138506104Y-62745257D01*
X138506104Y-62745257D02*
X138553723Y-62840495D01*
X138553723Y-62840495D02*
X138553723Y-62935733D01*
X138553723Y-62935733D02*
X138506104Y-63078590D01*
X138506104Y-63078590D02*
X137934676Y-63650019D01*
X137934676Y-63650019D02*
X138553723Y-63650019D01*
X179589133Y-54842580D02*
X179541514Y-54890200D01*
X179541514Y-54890200D02*
X179398657Y-54937819D01*
X179398657Y-54937819D02*
X179303419Y-54937819D01*
X179303419Y-54937819D02*
X179160562Y-54890200D01*
X179160562Y-54890200D02*
X179065324Y-54794961D01*
X179065324Y-54794961D02*
X179017705Y-54699723D01*
X179017705Y-54699723D02*
X178970086Y-54509247D01*
X178970086Y-54509247D02*
X178970086Y-54366390D01*
X178970086Y-54366390D02*
X179017705Y-54175914D01*
X179017705Y-54175914D02*
X179065324Y-54080676D01*
X179065324Y-54080676D02*
X179160562Y-53985438D01*
X179160562Y-53985438D02*
X179303419Y-53937819D01*
X179303419Y-53937819D02*
X179398657Y-53937819D01*
X179398657Y-53937819D02*
X179541514Y-53985438D01*
X179541514Y-53985438D02*
X179589133Y-54033057D01*
X180446276Y-53937819D02*
X180255800Y-53937819D01*
X180255800Y-53937819D02*
X180160562Y-53985438D01*
X180160562Y-53985438D02*
X180112943Y-54033057D01*
X180112943Y-54033057D02*
X180017705Y-54175914D01*
X180017705Y-54175914D02*
X179970086Y-54366390D01*
X179970086Y-54366390D02*
X179970086Y-54747342D01*
X179970086Y-54747342D02*
X180017705Y-54842580D01*
X180017705Y-54842580D02*
X180065324Y-54890200D01*
X180065324Y-54890200D02*
X180160562Y-54937819D01*
X180160562Y-54937819D02*
X180351038Y-54937819D01*
X180351038Y-54937819D02*
X180446276Y-54890200D01*
X180446276Y-54890200D02*
X180493895Y-54842580D01*
X180493895Y-54842580D02*
X180541514Y-54747342D01*
X180541514Y-54747342D02*
X180541514Y-54509247D01*
X180541514Y-54509247D02*
X180493895Y-54414009D01*
X180493895Y-54414009D02*
X180446276Y-54366390D01*
X180446276Y-54366390D02*
X180351038Y-54318771D01*
X180351038Y-54318771D02*
X180160562Y-54318771D01*
X180160562Y-54318771D02*
X180065324Y-54366390D01*
X180065324Y-54366390D02*
X180017705Y-54414009D01*
X180017705Y-54414009D02*
X179970086Y-54509247D01*
X180503533Y-50549980D02*
X180455914Y-50597600D01*
X180455914Y-50597600D02*
X180313057Y-50645219D01*
X180313057Y-50645219D02*
X180217819Y-50645219D01*
X180217819Y-50645219D02*
X180074962Y-50597600D01*
X180074962Y-50597600D02*
X179979724Y-50502361D01*
X179979724Y-50502361D02*
X179932105Y-50407123D01*
X179932105Y-50407123D02*
X179884486Y-50216647D01*
X179884486Y-50216647D02*
X179884486Y-50073790D01*
X179884486Y-50073790D02*
X179932105Y-49883314D01*
X179932105Y-49883314D02*
X179979724Y-49788076D01*
X179979724Y-49788076D02*
X180074962Y-49692838D01*
X180074962Y-49692838D02*
X180217819Y-49645219D01*
X180217819Y-49645219D02*
X180313057Y-49645219D01*
X180313057Y-49645219D02*
X180455914Y-49692838D01*
X180455914Y-49692838D02*
X180503533Y-49740457D01*
X180836867Y-49645219D02*
X181503533Y-49645219D01*
X181503533Y-49645219D02*
X181074962Y-50645219D01*
X177600780Y-55741866D02*
X177648400Y-55789485D01*
X177648400Y-55789485D02*
X177696019Y-55932342D01*
X177696019Y-55932342D02*
X177696019Y-56027580D01*
X177696019Y-56027580D02*
X177648400Y-56170437D01*
X177648400Y-56170437D02*
X177553161Y-56265675D01*
X177553161Y-56265675D02*
X177457923Y-56313294D01*
X177457923Y-56313294D02*
X177267447Y-56360913D01*
X177267447Y-56360913D02*
X177124590Y-56360913D01*
X177124590Y-56360913D02*
X176934114Y-56313294D01*
X176934114Y-56313294D02*
X176838876Y-56265675D01*
X176838876Y-56265675D02*
X176743638Y-56170437D01*
X176743638Y-56170437D02*
X176696019Y-56027580D01*
X176696019Y-56027580D02*
X176696019Y-55932342D01*
X176696019Y-55932342D02*
X176743638Y-55789485D01*
X176743638Y-55789485D02*
X176791257Y-55741866D01*
X177029352Y-54884723D02*
X177696019Y-54884723D01*
X176648400Y-55122818D02*
X177362685Y-55360913D01*
X177362685Y-55360913D02*
X177362685Y-54741866D01*
X153140580Y-54878266D02*
X153188200Y-54925885D01*
X153188200Y-54925885D02*
X153235819Y-55068742D01*
X153235819Y-55068742D02*
X153235819Y-55163980D01*
X153235819Y-55163980D02*
X153188200Y-55306837D01*
X153188200Y-55306837D02*
X153092961Y-55402075D01*
X153092961Y-55402075D02*
X152997723Y-55449694D01*
X152997723Y-55449694D02*
X152807247Y-55497313D01*
X152807247Y-55497313D02*
X152664390Y-55497313D01*
X152664390Y-55497313D02*
X152473914Y-55449694D01*
X152473914Y-55449694D02*
X152378676Y-55402075D01*
X152378676Y-55402075D02*
X152283438Y-55306837D01*
X152283438Y-55306837D02*
X152235819Y-55163980D01*
X152235819Y-55163980D02*
X152235819Y-55068742D01*
X152235819Y-55068742D02*
X152283438Y-54925885D01*
X152283438Y-54925885D02*
X152331057Y-54878266D01*
X152331057Y-54497313D02*
X152283438Y-54449694D01*
X152283438Y-54449694D02*
X152235819Y-54354456D01*
X152235819Y-54354456D02*
X152235819Y-54116361D01*
X152235819Y-54116361D02*
X152283438Y-54021123D01*
X152283438Y-54021123D02*
X152331057Y-53973504D01*
X152331057Y-53973504D02*
X152426295Y-53925885D01*
X152426295Y-53925885D02*
X152521533Y-53925885D01*
X152521533Y-53925885D02*
X152664390Y-53973504D01*
X152664390Y-53973504D02*
X153235819Y-54544932D01*
X153235819Y-54544932D02*
X153235819Y-53925885D01*
X171551695Y-48426019D02*
X171551695Y-49235542D01*
X171551695Y-49235542D02*
X171599314Y-49330780D01*
X171599314Y-49330780D02*
X171646933Y-49378400D01*
X171646933Y-49378400D02*
X171742171Y-49426019D01*
X171742171Y-49426019D02*
X171932647Y-49426019D01*
X171932647Y-49426019D02*
X172027885Y-49378400D01*
X172027885Y-49378400D02*
X172075504Y-49330780D01*
X172075504Y-49330780D02*
X172123123Y-49235542D01*
X172123123Y-49235542D02*
X172123123Y-48426019D01*
X173123123Y-49426019D02*
X172551695Y-49426019D01*
X172837409Y-49426019D02*
X172837409Y-48426019D01*
X172837409Y-48426019D02*
X172742171Y-48568876D01*
X172742171Y-48568876D02*
X172646933Y-48664114D01*
X172646933Y-48664114D02*
X172551695Y-48711733D01*
X174674305Y-56157019D02*
X174674305Y-55157019D01*
X174674305Y-55157019D02*
X174912400Y-55157019D01*
X174912400Y-55157019D02*
X175055257Y-55204638D01*
X175055257Y-55204638D02*
X175150495Y-55299876D01*
X175150495Y-55299876D02*
X175198114Y-55395114D01*
X175198114Y-55395114D02*
X175245733Y-55585590D01*
X175245733Y-55585590D02*
X175245733Y-55728447D01*
X175245733Y-55728447D02*
X175198114Y-55918923D01*
X175198114Y-55918923D02*
X175150495Y-56014161D01*
X175150495Y-56014161D02*
X175055257Y-56109400D01*
X175055257Y-56109400D02*
X174912400Y-56157019D01*
X174912400Y-56157019D02*
X174674305Y-56157019D01*
X175626686Y-55252257D02*
X175674305Y-55204638D01*
X175674305Y-55204638D02*
X175769543Y-55157019D01*
X175769543Y-55157019D02*
X176007638Y-55157019D01*
X176007638Y-55157019D02*
X176102876Y-55204638D01*
X176102876Y-55204638D02*
X176150495Y-55252257D01*
X176150495Y-55252257D02*
X176198114Y-55347495D01*
X176198114Y-55347495D02*
X176198114Y-55442733D01*
X176198114Y-55442733D02*
X176150495Y-55585590D01*
X176150495Y-55585590D02*
X175579067Y-56157019D01*
X175579067Y-56157019D02*
X176198114Y-56157019D01*
X151432705Y-57669619D02*
X151432705Y-56669619D01*
X151432705Y-56669619D02*
X151670800Y-56669619D01*
X151670800Y-56669619D02*
X151813657Y-56717238D01*
X151813657Y-56717238D02*
X151908895Y-56812476D01*
X151908895Y-56812476D02*
X151956514Y-56907714D01*
X151956514Y-56907714D02*
X152004133Y-57098190D01*
X152004133Y-57098190D02*
X152004133Y-57241047D01*
X152004133Y-57241047D02*
X151956514Y-57431523D01*
X151956514Y-57431523D02*
X151908895Y-57526761D01*
X151908895Y-57526761D02*
X151813657Y-57622000D01*
X151813657Y-57622000D02*
X151670800Y-57669619D01*
X151670800Y-57669619D02*
X151432705Y-57669619D01*
X152956514Y-57669619D02*
X152385086Y-57669619D01*
X152670800Y-57669619D02*
X152670800Y-56669619D01*
X152670800Y-56669619D02*
X152575562Y-56812476D01*
X152575562Y-56812476D02*
X152480324Y-56907714D01*
X152480324Y-56907714D02*
X152385086Y-56955333D01*
X186890819Y-60618666D02*
X186414628Y-60951999D01*
X186890819Y-61190094D02*
X185890819Y-61190094D01*
X185890819Y-61190094D02*
X185890819Y-60809142D01*
X185890819Y-60809142D02*
X185938438Y-60713904D01*
X185938438Y-60713904D02*
X185986057Y-60666285D01*
X185986057Y-60666285D02*
X186081295Y-60618666D01*
X186081295Y-60618666D02*
X186224152Y-60618666D01*
X186224152Y-60618666D02*
X186319390Y-60666285D01*
X186319390Y-60666285D02*
X186367009Y-60713904D01*
X186367009Y-60713904D02*
X186414628Y-60809142D01*
X186414628Y-60809142D02*
X186414628Y-61190094D01*
X185890819Y-60285332D02*
X185890819Y-59666285D01*
X185890819Y-59666285D02*
X186271771Y-59999618D01*
X186271771Y-59999618D02*
X186271771Y-59856761D01*
X186271771Y-59856761D02*
X186319390Y-59761523D01*
X186319390Y-59761523D02*
X186367009Y-59713904D01*
X186367009Y-59713904D02*
X186462247Y-59666285D01*
X186462247Y-59666285D02*
X186700342Y-59666285D01*
X186700342Y-59666285D02*
X186795580Y-59713904D01*
X186795580Y-59713904D02*
X186843200Y-59761523D01*
X186843200Y-59761523D02*
X186890819Y-59856761D01*
X186890819Y-59856761D02*
X186890819Y-60142475D01*
X186890819Y-60142475D02*
X186843200Y-60237713D01*
X186843200Y-60237713D02*
X186795580Y-60285332D01*
X176439533Y-47781380D02*
X176391914Y-47829000D01*
X176391914Y-47829000D02*
X176249057Y-47876619D01*
X176249057Y-47876619D02*
X176153819Y-47876619D01*
X176153819Y-47876619D02*
X176010962Y-47829000D01*
X176010962Y-47829000D02*
X175915724Y-47733761D01*
X175915724Y-47733761D02*
X175868105Y-47638523D01*
X175868105Y-47638523D02*
X175820486Y-47448047D01*
X175820486Y-47448047D02*
X175820486Y-47305190D01*
X175820486Y-47305190D02*
X175868105Y-47114714D01*
X175868105Y-47114714D02*
X175915724Y-47019476D01*
X175915724Y-47019476D02*
X176010962Y-46924238D01*
X176010962Y-46924238D02*
X176153819Y-46876619D01*
X176153819Y-46876619D02*
X176249057Y-46876619D01*
X176249057Y-46876619D02*
X176391914Y-46924238D01*
X176391914Y-46924238D02*
X176439533Y-46971857D01*
X176772867Y-46876619D02*
X177391914Y-46876619D01*
X177391914Y-46876619D02*
X177058581Y-47257571D01*
X177058581Y-47257571D02*
X177201438Y-47257571D01*
X177201438Y-47257571D02*
X177296676Y-47305190D01*
X177296676Y-47305190D02*
X177344295Y-47352809D01*
X177344295Y-47352809D02*
X177391914Y-47448047D01*
X177391914Y-47448047D02*
X177391914Y-47686142D01*
X177391914Y-47686142D02*
X177344295Y-47781380D01*
X177344295Y-47781380D02*
X177296676Y-47829000D01*
X177296676Y-47829000D02*
X177201438Y-47876619D01*
X177201438Y-47876619D02*
X176915724Y-47876619D01*
X176915724Y-47876619D02*
X176820486Y-47829000D01*
X176820486Y-47829000D02*
X176772867Y-47781380D01*
X153582019Y-57784904D02*
X154391542Y-57784904D01*
X154391542Y-57784904D02*
X154486780Y-57737285D01*
X154486780Y-57737285D02*
X154534400Y-57689666D01*
X154534400Y-57689666D02*
X154582019Y-57594428D01*
X154582019Y-57594428D02*
X154582019Y-57403952D01*
X154582019Y-57403952D02*
X154534400Y-57308714D01*
X154534400Y-57308714D02*
X154486780Y-57261095D01*
X154486780Y-57261095D02*
X154391542Y-57213476D01*
X154391542Y-57213476D02*
X153582019Y-57213476D01*
X153582019Y-56832523D02*
X153582019Y-56213476D01*
X153582019Y-56213476D02*
X153962971Y-56546809D01*
X153962971Y-56546809D02*
X153962971Y-56403952D01*
X153962971Y-56403952D02*
X154010590Y-56308714D01*
X154010590Y-56308714D02*
X154058209Y-56261095D01*
X154058209Y-56261095D02*
X154153447Y-56213476D01*
X154153447Y-56213476D02*
X154391542Y-56213476D01*
X154391542Y-56213476D02*
X154486780Y-56261095D01*
X154486780Y-56261095D02*
X154534400Y-56308714D01*
X154534400Y-56308714D02*
X154582019Y-56403952D01*
X154582019Y-56403952D02*
X154582019Y-56689666D01*
X154582019Y-56689666D02*
X154534400Y-56784904D01*
X154534400Y-56784904D02*
X154486780Y-56832523D01*
X151660266Y-47664019D02*
X151660266Y-48378304D01*
X151660266Y-48378304D02*
X151612647Y-48521161D01*
X151612647Y-48521161D02*
X151517409Y-48616400D01*
X151517409Y-48616400D02*
X151374552Y-48664019D01*
X151374552Y-48664019D02*
X151279314Y-48664019D01*
X152088838Y-47759257D02*
X152136457Y-47711638D01*
X152136457Y-47711638D02*
X152231695Y-47664019D01*
X152231695Y-47664019D02*
X152469790Y-47664019D01*
X152469790Y-47664019D02*
X152565028Y-47711638D01*
X152565028Y-47711638D02*
X152612647Y-47759257D01*
X152612647Y-47759257D02*
X152660266Y-47854495D01*
X152660266Y-47854495D02*
X152660266Y-47949733D01*
X152660266Y-47949733D02*
X152612647Y-48092590D01*
X152612647Y-48092590D02*
X152041219Y-48664019D01*
X152041219Y-48664019D02*
X152660266Y-48664019D01*
X172146933Y-55979219D02*
X171670743Y-55979219D01*
X171670743Y-55979219D02*
X171670743Y-54979219D01*
X173004076Y-55979219D02*
X172432648Y-55979219D01*
X172718362Y-55979219D02*
X172718362Y-54979219D01*
X172718362Y-54979219D02*
X172623124Y-55122076D01*
X172623124Y-55122076D02*
X172527886Y-55217314D01*
X172527886Y-55217314D02*
X172432648Y-55264933D01*
X181445819Y-45821504D02*
X182255342Y-45821504D01*
X182255342Y-45821504D02*
X182350580Y-45773885D01*
X182350580Y-45773885D02*
X182398200Y-45726266D01*
X182398200Y-45726266D02*
X182445819Y-45631028D01*
X182445819Y-45631028D02*
X182445819Y-45440552D01*
X182445819Y-45440552D02*
X182398200Y-45345314D01*
X182398200Y-45345314D02*
X182350580Y-45297695D01*
X182350580Y-45297695D02*
X182255342Y-45250076D01*
X182255342Y-45250076D02*
X181445819Y-45250076D01*
X181541057Y-44821504D02*
X181493438Y-44773885D01*
X181493438Y-44773885D02*
X181445819Y-44678647D01*
X181445819Y-44678647D02*
X181445819Y-44440552D01*
X181445819Y-44440552D02*
X181493438Y-44345314D01*
X181493438Y-44345314D02*
X181541057Y-44297695D01*
X181541057Y-44297695D02*
X181636295Y-44250076D01*
X181636295Y-44250076D02*
X181731533Y-44250076D01*
X181731533Y-44250076D02*
X181874390Y-44297695D01*
X181874390Y-44297695D02*
X182445819Y-44869123D01*
X182445819Y-44869123D02*
X182445819Y-44250076D01*
X161490066Y-47689419D02*
X161490066Y-48403704D01*
X161490066Y-48403704D02*
X161442447Y-48546561D01*
X161442447Y-48546561D02*
X161347209Y-48641800D01*
X161347209Y-48641800D02*
X161204352Y-48689419D01*
X161204352Y-48689419D02*
X161109114Y-48689419D01*
X162490066Y-48689419D02*
X161918638Y-48689419D01*
X162204352Y-48689419D02*
X162204352Y-47689419D01*
X162204352Y-47689419D02*
X162109114Y-47832276D01*
X162109114Y-47832276D02*
X162013876Y-47927514D01*
X162013876Y-47927514D02*
X161918638Y-47975133D01*
X178242933Y-49273619D02*
X177909600Y-48797428D01*
X177671505Y-49273619D02*
X177671505Y-48273619D01*
X177671505Y-48273619D02*
X178052457Y-48273619D01*
X178052457Y-48273619D02*
X178147695Y-48321238D01*
X178147695Y-48321238D02*
X178195314Y-48368857D01*
X178195314Y-48368857D02*
X178242933Y-48464095D01*
X178242933Y-48464095D02*
X178242933Y-48606952D01*
X178242933Y-48606952D02*
X178195314Y-48702190D01*
X178195314Y-48702190D02*
X178147695Y-48749809D01*
X178147695Y-48749809D02*
X178052457Y-48797428D01*
X178052457Y-48797428D02*
X177671505Y-48797428D01*
X179195314Y-49273619D02*
X178623886Y-49273619D01*
X178909600Y-49273619D02*
X178909600Y-48273619D01*
X178909600Y-48273619D02*
X178814362Y-48416476D01*
X178814362Y-48416476D02*
X178719124Y-48511714D01*
X178719124Y-48511714D02*
X178623886Y-48559333D01*
X178217533Y-50645219D02*
X177884200Y-50169028D01*
X177646105Y-50645219D02*
X177646105Y-49645219D01*
X177646105Y-49645219D02*
X178027057Y-49645219D01*
X178027057Y-49645219D02*
X178122295Y-49692838D01*
X178122295Y-49692838D02*
X178169914Y-49740457D01*
X178169914Y-49740457D02*
X178217533Y-49835695D01*
X178217533Y-49835695D02*
X178217533Y-49978552D01*
X178217533Y-49978552D02*
X178169914Y-50073790D01*
X178169914Y-50073790D02*
X178122295Y-50121409D01*
X178122295Y-50121409D02*
X178027057Y-50169028D01*
X178027057Y-50169028D02*
X177646105Y-50169028D01*
X178598486Y-49740457D02*
X178646105Y-49692838D01*
X178646105Y-49692838D02*
X178741343Y-49645219D01*
X178741343Y-49645219D02*
X178979438Y-49645219D01*
X178979438Y-49645219D02*
X179074676Y-49692838D01*
X179074676Y-49692838D02*
X179122295Y-49740457D01*
X179122295Y-49740457D02*
X179169914Y-49835695D01*
X179169914Y-49835695D02*
X179169914Y-49930933D01*
X179169914Y-49930933D02*
X179122295Y-50073790D01*
X179122295Y-50073790D02*
X178550867Y-50645219D01*
X178550867Y-50645219D02*
X179169914Y-50645219D01*
X182375980Y-60618666D02*
X182423600Y-60666285D01*
X182423600Y-60666285D02*
X182471219Y-60809142D01*
X182471219Y-60809142D02*
X182471219Y-60904380D01*
X182471219Y-60904380D02*
X182423600Y-61047237D01*
X182423600Y-61047237D02*
X182328361Y-61142475D01*
X182328361Y-61142475D02*
X182233123Y-61190094D01*
X182233123Y-61190094D02*
X182042647Y-61237713D01*
X182042647Y-61237713D02*
X181899790Y-61237713D01*
X181899790Y-61237713D02*
X181709314Y-61190094D01*
X181709314Y-61190094D02*
X181614076Y-61142475D01*
X181614076Y-61142475D02*
X181518838Y-61047237D01*
X181518838Y-61047237D02*
X181471219Y-60904380D01*
X181471219Y-60904380D02*
X181471219Y-60809142D01*
X181471219Y-60809142D02*
X181518838Y-60666285D01*
X181518838Y-60666285D02*
X181566457Y-60618666D01*
X181899790Y-60047237D02*
X181852171Y-60142475D01*
X181852171Y-60142475D02*
X181804552Y-60190094D01*
X181804552Y-60190094D02*
X181709314Y-60237713D01*
X181709314Y-60237713D02*
X181661695Y-60237713D01*
X181661695Y-60237713D02*
X181566457Y-60190094D01*
X181566457Y-60190094D02*
X181518838Y-60142475D01*
X181518838Y-60142475D02*
X181471219Y-60047237D01*
X181471219Y-60047237D02*
X181471219Y-59856761D01*
X181471219Y-59856761D02*
X181518838Y-59761523D01*
X181518838Y-59761523D02*
X181566457Y-59713904D01*
X181566457Y-59713904D02*
X181661695Y-59666285D01*
X181661695Y-59666285D02*
X181709314Y-59666285D01*
X181709314Y-59666285D02*
X181804552Y-59713904D01*
X181804552Y-59713904D02*
X181852171Y-59761523D01*
X181852171Y-59761523D02*
X181899790Y-59856761D01*
X181899790Y-59856761D02*
X181899790Y-60047237D01*
X181899790Y-60047237D02*
X181947409Y-60142475D01*
X181947409Y-60142475D02*
X181995028Y-60190094D01*
X181995028Y-60190094D02*
X182090266Y-60237713D01*
X182090266Y-60237713D02*
X182280742Y-60237713D01*
X182280742Y-60237713D02*
X182375980Y-60190094D01*
X182375980Y-60190094D02*
X182423600Y-60142475D01*
X182423600Y-60142475D02*
X182471219Y-60047237D01*
X182471219Y-60047237D02*
X182471219Y-59856761D01*
X182471219Y-59856761D02*
X182423600Y-59761523D01*
X182423600Y-59761523D02*
X182375980Y-59713904D01*
X182375980Y-59713904D02*
X182280742Y-59666285D01*
X182280742Y-59666285D02*
X182090266Y-59666285D01*
X182090266Y-59666285D02*
X181995028Y-59713904D01*
X181995028Y-59713904D02*
X181947409Y-59761523D01*
X181947409Y-59761523D02*
X181899790Y-59856761D01*
X172234266Y-60186219D02*
X172234266Y-60900504D01*
X172234266Y-60900504D02*
X172186647Y-61043361D01*
X172186647Y-61043361D02*
X172091409Y-61138600D01*
X172091409Y-61138600D02*
X171948552Y-61186219D01*
X171948552Y-61186219D02*
X171853314Y-61186219D01*
X173139028Y-60186219D02*
X172948552Y-60186219D01*
X172948552Y-60186219D02*
X172853314Y-60233838D01*
X172853314Y-60233838D02*
X172805695Y-60281457D01*
X172805695Y-60281457D02*
X172710457Y-60424314D01*
X172710457Y-60424314D02*
X172662838Y-60614790D01*
X172662838Y-60614790D02*
X172662838Y-60995742D01*
X172662838Y-60995742D02*
X172710457Y-61090980D01*
X172710457Y-61090980D02*
X172758076Y-61138600D01*
X172758076Y-61138600D02*
X172853314Y-61186219D01*
X172853314Y-61186219D02*
X173043790Y-61186219D01*
X173043790Y-61186219D02*
X173139028Y-61138600D01*
X173139028Y-61138600D02*
X173186647Y-61090980D01*
X173186647Y-61090980D02*
X173234266Y-60995742D01*
X173234266Y-60995742D02*
X173234266Y-60757647D01*
X173234266Y-60757647D02*
X173186647Y-60662409D01*
X173186647Y-60662409D02*
X173139028Y-60614790D01*
X173139028Y-60614790D02*
X173043790Y-60567171D01*
X173043790Y-60567171D02*
X172853314Y-60567171D01*
X172853314Y-60567171D02*
X172758076Y-60614790D01*
X172758076Y-60614790D02*
X172710457Y-60662409D01*
X172710457Y-60662409D02*
X172662838Y-60757647D01*
X180681333Y-57230180D02*
X180633714Y-57277800D01*
X180633714Y-57277800D02*
X180490857Y-57325419D01*
X180490857Y-57325419D02*
X180395619Y-57325419D01*
X180395619Y-57325419D02*
X180252762Y-57277800D01*
X180252762Y-57277800D02*
X180157524Y-57182561D01*
X180157524Y-57182561D02*
X180109905Y-57087323D01*
X180109905Y-57087323D02*
X180062286Y-56896847D01*
X180062286Y-56896847D02*
X180062286Y-56753990D01*
X180062286Y-56753990D02*
X180109905Y-56563514D01*
X180109905Y-56563514D02*
X180157524Y-56468276D01*
X180157524Y-56468276D02*
X180252762Y-56373038D01*
X180252762Y-56373038D02*
X180395619Y-56325419D01*
X180395619Y-56325419D02*
X180490857Y-56325419D01*
X180490857Y-56325419D02*
X180633714Y-56373038D01*
X180633714Y-56373038D02*
X180681333Y-56420657D01*
X181586095Y-56325419D02*
X181109905Y-56325419D01*
X181109905Y-56325419D02*
X181062286Y-56801609D01*
X181062286Y-56801609D02*
X181109905Y-56753990D01*
X181109905Y-56753990D02*
X181205143Y-56706371D01*
X181205143Y-56706371D02*
X181443238Y-56706371D01*
X181443238Y-56706371D02*
X181538476Y-56753990D01*
X181538476Y-56753990D02*
X181586095Y-56801609D01*
X181586095Y-56801609D02*
X181633714Y-56896847D01*
X181633714Y-56896847D02*
X181633714Y-57134942D01*
X181633714Y-57134942D02*
X181586095Y-57230180D01*
X181586095Y-57230180D02*
X181538476Y-57277800D01*
X181538476Y-57277800D02*
X181443238Y-57325419D01*
X181443238Y-57325419D02*
X181205143Y-57325419D01*
X181205143Y-57325419D02*
X181109905Y-57277800D01*
X181109905Y-57277800D02*
X181062286Y-57230180D01*
X151551819Y-51423866D02*
X151075628Y-51757199D01*
X151551819Y-51995294D02*
X150551819Y-51995294D01*
X150551819Y-51995294D02*
X150551819Y-51614342D01*
X150551819Y-51614342D02*
X150599438Y-51519104D01*
X150599438Y-51519104D02*
X150647057Y-51471485D01*
X150647057Y-51471485D02*
X150742295Y-51423866D01*
X150742295Y-51423866D02*
X150885152Y-51423866D01*
X150885152Y-51423866D02*
X150980390Y-51471485D01*
X150980390Y-51471485D02*
X151028009Y-51519104D01*
X151028009Y-51519104D02*
X151075628Y-51614342D01*
X151075628Y-51614342D02*
X151075628Y-51995294D01*
X150551819Y-50519104D02*
X150551819Y-50995294D01*
X150551819Y-50995294D02*
X151028009Y-51042913D01*
X151028009Y-51042913D02*
X150980390Y-50995294D01*
X150980390Y-50995294D02*
X150932771Y-50900056D01*
X150932771Y-50900056D02*
X150932771Y-50661961D01*
X150932771Y-50661961D02*
X150980390Y-50566723D01*
X150980390Y-50566723D02*
X151028009Y-50519104D01*
X151028009Y-50519104D02*
X151123247Y-50471485D01*
X151123247Y-50471485D02*
X151361342Y-50471485D01*
X151361342Y-50471485D02*
X151456580Y-50519104D01*
X151456580Y-50519104D02*
X151504200Y-50566723D01*
X151504200Y-50566723D02*
X151551819Y-50661961D01*
X151551819Y-50661961D02*
X151551819Y-50900056D01*
X151551819Y-50900056D02*
X151504200Y-50995294D01*
X151504200Y-50995294D02*
X151456580Y-51042913D01*
X140706019Y-51398466D02*
X140229828Y-51731799D01*
X140706019Y-51969894D02*
X139706019Y-51969894D01*
X139706019Y-51969894D02*
X139706019Y-51588942D01*
X139706019Y-51588942D02*
X139753638Y-51493704D01*
X139753638Y-51493704D02*
X139801257Y-51446085D01*
X139801257Y-51446085D02*
X139896495Y-51398466D01*
X139896495Y-51398466D02*
X140039352Y-51398466D01*
X140039352Y-51398466D02*
X140134590Y-51446085D01*
X140134590Y-51446085D02*
X140182209Y-51493704D01*
X140182209Y-51493704D02*
X140229828Y-51588942D01*
X140229828Y-51588942D02*
X140229828Y-51969894D01*
X140039352Y-50541323D02*
X140706019Y-50541323D01*
X139658400Y-50779418D02*
X140372685Y-51017513D01*
X140372685Y-51017513D02*
X140372685Y-50398466D01*
X168322180Y-51576266D02*
X168369800Y-51623885D01*
X168369800Y-51623885D02*
X168417419Y-51766742D01*
X168417419Y-51766742D02*
X168417419Y-51861980D01*
X168417419Y-51861980D02*
X168369800Y-52004837D01*
X168369800Y-52004837D02*
X168274561Y-52100075D01*
X168274561Y-52100075D02*
X168179323Y-52147694D01*
X168179323Y-52147694D02*
X167988847Y-52195313D01*
X167988847Y-52195313D02*
X167845990Y-52195313D01*
X167845990Y-52195313D02*
X167655514Y-52147694D01*
X167655514Y-52147694D02*
X167560276Y-52100075D01*
X167560276Y-52100075D02*
X167465038Y-52004837D01*
X167465038Y-52004837D02*
X167417419Y-51861980D01*
X167417419Y-51861980D02*
X167417419Y-51766742D01*
X167417419Y-51766742D02*
X167465038Y-51623885D01*
X167465038Y-51623885D02*
X167512657Y-51576266D01*
X168417419Y-50623885D02*
X168417419Y-51195313D01*
X168417419Y-50909599D02*
X167417419Y-50909599D01*
X167417419Y-50909599D02*
X167560276Y-51004837D01*
X167560276Y-51004837D02*
X167655514Y-51100075D01*
X167655514Y-51100075D02*
X167703133Y-51195313D01*
X170837266Y-47011619D02*
X170837266Y-47725904D01*
X170837266Y-47725904D02*
X170789647Y-47868761D01*
X170789647Y-47868761D02*
X170694409Y-47964000D01*
X170694409Y-47964000D02*
X170551552Y-48011619D01*
X170551552Y-48011619D02*
X170456314Y-48011619D01*
X171218219Y-47011619D02*
X171837266Y-47011619D01*
X171837266Y-47011619D02*
X171503933Y-47392571D01*
X171503933Y-47392571D02*
X171646790Y-47392571D01*
X171646790Y-47392571D02*
X171742028Y-47440190D01*
X171742028Y-47440190D02*
X171789647Y-47487809D01*
X171789647Y-47487809D02*
X171837266Y-47583047D01*
X171837266Y-47583047D02*
X171837266Y-47821142D01*
X171837266Y-47821142D02*
X171789647Y-47916380D01*
X171789647Y-47916380D02*
X171742028Y-47964000D01*
X171742028Y-47964000D02*
X171646790Y-48011619D01*
X171646790Y-48011619D02*
X171361076Y-48011619D01*
X171361076Y-48011619D02*
X171265838Y-47964000D01*
X171265838Y-47964000D02*
X171218219Y-47916380D01*
D13*
%TO.C,R9*%
X157750742Y-50048900D02*
X158225258Y-50048900D01*
X157750742Y-51093900D02*
X158225258Y-51093900D01*
%TO.C,R8*%
X155151858Y-51093900D02*
X154677342Y-51093900D01*
X155151858Y-50048900D02*
X154677342Y-50048900D01*
D14*
%TO.C,J5*%
X194089600Y-56779800D02*
X188819600Y-56779800D01*
X194089600Y-47479800D02*
X188819600Y-47479800D01*
X188819600Y-56779800D02*
X187859600Y-56779800D01*
X188819600Y-47479800D02*
X187859600Y-47479800D01*
X187859600Y-58329800D02*
X187859600Y-56779800D01*
X187859600Y-58329800D02*
X182859600Y-58329800D01*
X187859600Y-45929800D02*
X187859600Y-47479800D01*
X187859600Y-45929800D02*
X182859600Y-45929800D01*
X182859600Y-58329800D02*
X182859600Y-56809800D01*
X182859600Y-47449800D02*
X182859600Y-45909800D01*
D13*
%TO.C,R7*%
X146645100Y-57539658D02*
X146645100Y-57065142D01*
X147690100Y-57539658D02*
X147690100Y-57065142D01*
%TO.C,R6*%
X148067500Y-48810142D02*
X148067500Y-49284658D01*
X149112500Y-48810142D02*
X149112500Y-49284658D01*
%TO.C,C6*%
X179896380Y-52804600D02*
X179615220Y-52804600D01*
X179896380Y-53824600D02*
X179615220Y-53824600D01*
%TO.C,C7*%
X179718580Y-51026600D02*
X179437420Y-51026600D01*
X179718580Y-52046600D02*
X179437420Y-52046600D01*
%TO.C,C4*%
X176655000Y-53148620D02*
X176655000Y-53429780D01*
X177675000Y-53148620D02*
X177675000Y-53429780D01*
%TO.C,C2*%
X153490200Y-54571020D02*
X153490200Y-54852180D01*
X154510200Y-54571020D02*
X154510200Y-54852180D01*
%TO.C,U1*%
X172293700Y-49816150D02*
X171493700Y-49816150D01*
X172293700Y-49816150D02*
X173093700Y-49816150D01*
X172293700Y-52936150D02*
X171493700Y-52936150D01*
X172293700Y-52936150D02*
X173093700Y-52936150D01*
X173833700Y-53216150D02*
X173353700Y-53216150D01*
X173593700Y-52886150D01*
X173833700Y-53216150D01*
G36*
X173833700Y-53216150D02*
G01*
X173353700Y-53216150D01*
X173593700Y-52886150D01*
X173833700Y-53216150D01*
G37*
%TO.C,D2*%
X174537000Y-51757550D02*
X174537000Y-54417550D01*
X176237000Y-51757550D02*
X174537000Y-51757550D01*
X176237000Y-51757550D02*
X176237000Y-54417550D01*
%TO.C,D1*%
X149885800Y-57899800D02*
X149885800Y-60819800D01*
X149885800Y-60819800D02*
X153770800Y-60819800D01*
X153770800Y-57899800D02*
X149885800Y-57899800D01*
%TO.C,R3*%
X184465700Y-60689258D02*
X184465700Y-60214742D01*
X185510700Y-60689258D02*
X185510700Y-60214742D01*
%TO.C,C3*%
X176096200Y-45198420D02*
X176096200Y-45479580D01*
X177116200Y-45198420D02*
X177116200Y-45479580D01*
%TO.C,U3*%
X155019800Y-56921400D02*
X155019800Y-54721400D01*
X155019800Y-56921400D02*
X155019800Y-59121400D01*
X163089800Y-56921400D02*
X163089800Y-54721400D01*
X163089800Y-56921400D02*
X163089800Y-59121400D01*
X155719800Y-61111400D02*
X155239800Y-61111400D01*
X155479800Y-60781400D01*
X155719800Y-61111400D01*
G36*
X155719800Y-61111400D02*
G01*
X155239800Y-61111400D01*
X155479800Y-60781400D01*
X155719800Y-61111400D01*
G37*
%TO.C,J2*%
X148826800Y-45203600D02*
X148826800Y-46353600D01*
X148826800Y-46353600D02*
X149876800Y-46353600D01*
X149876800Y-46353600D02*
X149876800Y-47343600D01*
X149996800Y-43233600D02*
X153876800Y-43233600D01*
X155046800Y-45203600D02*
X155046800Y-46353600D01*
X155046800Y-46353600D02*
X153996800Y-46353600D01*
%TO.C,L1*%
X171888578Y-53467950D02*
X172687822Y-53467950D01*
X171888578Y-54587950D02*
X172687822Y-54587950D01*
%TO.C,U2*%
X177891000Y-45059600D02*
X177891000Y-44409600D01*
X177891000Y-45059600D02*
X177891000Y-45709600D01*
X181011000Y-45059600D02*
X181011000Y-44409600D01*
X181011000Y-45059600D02*
X181011000Y-45709600D01*
X177941000Y-46222100D02*
X177611000Y-46462100D01*
X177611000Y-45982100D01*
X177941000Y-46222100D01*
G36*
X177941000Y-46222100D02*
G01*
X177611000Y-46462100D01*
X177611000Y-45982100D01*
X177941000Y-46222100D01*
G37*
%TO.C,J1*%
X157676800Y-45203600D02*
X157676800Y-46353600D01*
X157676800Y-46353600D02*
X158726800Y-46353600D01*
X158726800Y-46353600D02*
X158726800Y-47343600D01*
X158846800Y-43233600D02*
X164726800Y-43233600D01*
X165896800Y-45203600D02*
X165896800Y-46353600D01*
X165896800Y-46353600D02*
X164846800Y-46353600D01*
%TO.C,R1*%
X175733942Y-50379100D02*
X176208458Y-50379100D01*
X175733942Y-51424100D02*
X176208458Y-51424100D01*
%TO.C,R2*%
X176208458Y-48829700D02*
X175733942Y-48829700D01*
X176208458Y-49874700D02*
X175733942Y-49874700D01*
%TO.C,C8*%
X182827200Y-60592580D02*
X182827200Y-60311420D01*
X183847200Y-60592580D02*
X183847200Y-60311420D01*
%TO.C,J6*%
X164457600Y-58275200D02*
X165507600Y-58275200D01*
X164457600Y-59425200D02*
X164457600Y-58275200D01*
X179507600Y-61395200D02*
X165627600Y-61395200D01*
X179627600Y-58275200D02*
X179627600Y-57285200D01*
X180677600Y-58275200D02*
X179627600Y-58275200D01*
X180677600Y-59425200D02*
X180677600Y-58275200D01*
%TO.C,C5*%
X179312180Y-55014400D02*
X179031020Y-55014400D01*
X179312180Y-56034400D02*
X179031020Y-56034400D01*
%TO.C,R5*%
X152004500Y-51494458D02*
X152004500Y-51019942D01*
X153049500Y-51494458D02*
X153049500Y-51019942D01*
%TO.C,R4*%
X141158700Y-51469058D02*
X141158700Y-50994542D01*
X142203700Y-51469058D02*
X142203700Y-50994542D01*
%TO.C,C1*%
X168882600Y-51550180D02*
X168882600Y-51269020D01*
X169902600Y-51550180D02*
X169902600Y-51269020D01*
%TO.C,J3*%
X167250600Y-46570600D02*
X167250600Y-43810600D01*
X167250600Y-46570600D02*
X167820600Y-46570600D01*
X167820600Y-43810600D02*
X170360600Y-43810600D01*
X167820600Y-46570600D02*
X167820600Y-48040600D01*
X169440600Y-46570600D02*
X172900600Y-46570600D01*
X171980600Y-43810600D02*
X175090600Y-43810600D01*
X174520600Y-43810600D02*
X175090600Y-43810600D01*
X175090600Y-46570600D02*
X175090600Y-43810600D01*
%TD*%
%LPC*%
D15*
%TO.C,R9*%
X157163000Y-50571400D03*
X158813000Y-50571400D03*
%TD*%
D16*
%TO.C,R8*%
X155739600Y-50571400D03*
X154089600Y-50571400D03*
%TD*%
D17*
%TO.C,J5*%
X183489600Y-47929800D03*
X183489600Y-48629800D03*
X183489600Y-49329800D03*
X183489600Y-50029800D03*
X183489600Y-50729800D03*
X183489600Y-51429800D03*
X183489600Y-52129800D03*
X183489600Y-52829800D03*
X183489600Y-53529800D03*
X183489600Y-54229800D03*
X183489600Y-54929800D03*
X183489600Y-55629800D03*
X183489600Y-56329800D03*
%TD*%
D18*
%TO.C,R7*%
X147167600Y-58127400D03*
X147167600Y-56477400D03*
%TD*%
D19*
%TO.C,R6*%
X148590000Y-48222400D03*
X148590000Y-49872400D03*
%TD*%
D20*
%TO.C,H1*%
X137744200Y-44577000D03*
%TD*%
%TO.C,H2*%
X137744200Y-59410600D03*
%TD*%
D21*
%TO.C,C6*%
X180530800Y-53314600D03*
X178980800Y-53314600D03*
%TD*%
%TO.C,C7*%
X180353000Y-51536600D03*
X178803000Y-51536600D03*
%TD*%
D22*
%TO.C,C4*%
X177165000Y-52514200D03*
X177165000Y-54064200D03*
%TD*%
%TO.C,C2*%
X154000200Y-53936600D03*
X154000200Y-55486600D03*
%TD*%
D23*
%TO.C,U1*%
X173431200Y-52326150D03*
X173431200Y-51376150D03*
X173431200Y-50426150D03*
X171156200Y-50426150D03*
X171156200Y-52326150D03*
%TD*%
D24*
%TO.C,D2*%
X175387000Y-52317550D03*
X175387000Y-54417550D03*
%TD*%
D25*
%TO.C,D1*%
X152170800Y-59359800D03*
D26*
X150620800Y-59359800D03*
X153720800Y-59359800D03*
%TD*%
D18*
%TO.C,R3*%
X184988200Y-61277000D03*
X184988200Y-59627000D03*
%TD*%
D22*
%TO.C,C3*%
X176606200Y-44564000D03*
X176606200Y-46114000D03*
%TD*%
D27*
%TO.C,U3*%
X155479800Y-59783900D03*
X156129800Y-59783900D03*
X156779800Y-59783900D03*
X157429800Y-59783900D03*
X158079800Y-59783900D03*
X158729800Y-59783900D03*
X159379800Y-59783900D03*
X160029800Y-59783900D03*
X160679800Y-59783900D03*
X161329800Y-59783900D03*
X161979800Y-59783900D03*
X162629800Y-59783900D03*
X162629800Y-54058900D03*
X161979800Y-54058900D03*
X161329800Y-54058900D03*
X160679800Y-54058900D03*
X160029800Y-54058900D03*
X159379800Y-54058900D03*
X158729800Y-54058900D03*
X158079800Y-54058900D03*
X157429800Y-54058900D03*
X156779800Y-54058900D03*
X156129800Y-54058900D03*
X155479800Y-54058900D03*
%TD*%
D28*
%TO.C,J2*%
X150436800Y-46568600D03*
X151436800Y-46568600D03*
X152436800Y-46568600D03*
X153436800Y-46568600D03*
D29*
X149136800Y-44043600D03*
X154736800Y-44043600D03*
%TD*%
D30*
%TO.C,L1*%
X171225700Y-54027950D03*
X173350700Y-54027950D03*
%TD*%
D31*
%TO.C,U2*%
X178501000Y-45997100D03*
X180401000Y-45997100D03*
X179451000Y-44122100D03*
%TD*%
D28*
%TO.C,J1*%
X159286800Y-46568600D03*
X160286800Y-46568600D03*
X161286800Y-46568600D03*
X162286800Y-46568600D03*
X163286800Y-46568600D03*
X164286800Y-46568600D03*
D29*
X157986800Y-44043600D03*
X165586800Y-44043600D03*
%TD*%
D15*
%TO.C,R1*%
X175146200Y-50901600D03*
X176796200Y-50901600D03*
%TD*%
D16*
%TO.C,R2*%
X176796200Y-49352200D03*
X175146200Y-49352200D03*
%TD*%
D32*
%TO.C,C8*%
X183337200Y-61227000D03*
X183337200Y-59677000D03*
%TD*%
D33*
%TO.C,J6*%
X179067600Y-58060200D03*
X178067600Y-58060200D03*
X177067600Y-58060200D03*
X176067600Y-58060200D03*
X175067600Y-58060200D03*
X174067600Y-58060200D03*
X173067600Y-58060200D03*
X172067600Y-58060200D03*
X171067600Y-58060200D03*
X170067600Y-58060200D03*
X169067600Y-58060200D03*
X168067600Y-58060200D03*
X167067600Y-58060200D03*
X166067600Y-58060200D03*
D34*
X180367600Y-60585200D03*
X164767600Y-60585200D03*
%TD*%
D21*
%TO.C,C5*%
X179946600Y-55524400D03*
X178396600Y-55524400D03*
%TD*%
D18*
%TO.C,R5*%
X152527000Y-52082200D03*
X152527000Y-50432200D03*
%TD*%
%TO.C,R4*%
X141681200Y-52056800D03*
X141681200Y-50406800D03*
%TD*%
D32*
%TO.C,C1*%
X169392600Y-52184600D03*
X169392600Y-50634600D03*
%TD*%
D35*
%TO.C,J3*%
X168630600Y-46845600D03*
X171170600Y-43535600D03*
X173710600Y-46845600D03*
%TD*%
%LPD*%
M02*
